<svg width="53" height="72" viewBox="0 0 53 72" fill="none" xmlns="http://www.w3.org/2000/svg">
<circle cx="36" cy="36" r="36" fill="#155B9F" fill-opacity="0.1"/>
<path d="M53.1662 32.7676H50.4331V35.501H53.1662V32.7676Z" fill="#FF6D00"/>
<path d="M53.1662 38.2324H50.4331V40.9655H53.1662V38.2324Z" fill="#FF6D00"/>
<path d="M53.1662 43.7002H50.4331V46.4337H53.1662V43.7002Z" fill="#FF6D00"/>
<path d="M39.4996 46.4336H36.7661V49.1667H39.4996V46.4336Z" fill="#FF6D00"/>
<path d="M47.7003 27.2986V24.5652H42.2338V21.8321H39.5003V24.5652H36.7669V19.0986H34.0338V24.5652H28.5669V32.7652H23.1003V51.8986H55.9003V27.2986H47.7003ZM28.5669 49.1652H25.8338V35.4986H28.5669V49.1652ZM44.9669 49.1652H31.3003V27.2986H44.9669V49.1652ZM53.1669 49.1652H47.7003V30.0321H53.1669V49.1652Z" fill="#455A64"/>
<path d="M36.7661 40.9648H31.2996V43.6983H36.7661V40.9648Z" fill="#FF6D00"/>
<path d="M36.766 35.5H31.2995V38.2335H36.766V35.5Z" fill="#FF6D00"/>
<path d="M36.7661 30.0352H31.2996V32.7682H36.7661V30.0352Z" fill="#FF6D00"/>
<path d="M42.2335 40.9648H39.5V43.6983H42.2335V40.9648Z" fill="#FF6D00"/>
<path d="M42.2335 35.5H39.5V38.2335H42.2335V35.5Z" fill="#FF6D00"/>
<path d="M42.2335 30.0352H39.5V32.7682H42.2335V30.0352Z" fill="#FF6D00"/>
</svg>
