<svg width="44" height="44" viewBox="0 0 44 44" fill="none" xmlns="http://www.w3.org/2000/svg">
<path d="M36.6664 36.6669V7.33387H29.3334V4.40039H14.6664V7.33387H7.33338V36.6669H4.3999V39.6004H39.5999V36.6669H36.6664ZM33.7334 36.6669H10.2664V10.2669H17.5999V7.33387H26.3999V10.2669H33.7334V36.6669Z" fill="#455A64"/>
<path d="M23.4667 33.7334H20.5337V36.6664H23.4667V33.7334Z" fill="#FF6D00"/>
<path d="M17.6002 30.7998H13.2002V33.7333H17.6002V30.7998Z" fill="#FF6D00"/>
<path d="M23.4667 27.8662H20.5337V30.7997H23.4667V27.8662Z" fill="#FF6D00"/>
<path d="M23.4667 22H20.5337V24.9335H23.4667V22Z" fill="#FF6D00"/>
<path d="M23.4667 16.1338H20.5337V19.0668H23.4667V16.1338Z" fill="#FF6D00"/>
<path d="M23.4667 10.2666H20.5337V13.2001H23.4667V10.2666Z" fill="#FF6D00"/>
<path d="M30.7999 30.7998H26.3999V33.7333H30.7999V30.7998Z" fill="#FF6D00"/>
<path d="M17.6002 24.9336H13.2002V27.8666H17.6002V24.9336Z" fill="#FF6D00"/>
<path d="M30.7999 24.9336H26.3999V27.8666H30.7999V24.9336Z" fill="#FF6D00"/>
<path d="M17.6002 19.0664H13.2002V21.9999H17.6002V19.0664Z" fill="#FF6D00"/>
<path d="M30.7999 19.0664H26.3999V21.9999H30.7999V19.0664Z" fill="#FF6D00"/>
<path d="M17.6002 13.2002H13.2002V16.1337H17.6002V13.2002Z" fill="#FF6D00"/>
<path d="M30.7999 13.2002H26.3999V16.1337H30.7999V13.2002Z" fill="#FF6D00"/>
</svg>
