<svg width="72" height="72" viewBox="0 0 72 72" fill="none" xmlns="http://www.w3.org/2000/svg">
<circle cx="36" cy="36" r="36" fill="#155B9F" fill-opacity="0.1"/>
<path fill-rule="evenodd" clip-rule="evenodd" d="M30.5243 21.982C30.2865 22.0921 30.0733 22.3186 29.9829 22.5573C29.9386 22.6742 29.9144 23.6316 29.9144 25.2674V27.7967L28.3142 27.8159C26.5535 27.837 26.5563 27.8364 26.2273 28.2772C26.0996 28.4484 26.095 28.5324 26.095 30.6928C26.095 32.8533 26.0996 32.9372 26.2273 33.1084C26.5073 33.4836 26.6645 33.5488 27.3458 33.5724L27.9777 33.5943L28.0059 36.5586C28.0321 39.3022 28.0445 39.5695 28.1732 40.1486C28.5572 41.8777 29.3125 43.258 30.5551 44.5011C31.5647 45.5112 32.6383 46.1818 33.9371 46.6139C34.4949 46.7994 35.3761 47.0044 35.6161 47.0044C35.7189 47.0044 35.7511 47.0835 35.8184 47.5021C36.0205 48.7595 36.6711 50.2776 37.4517 51.3129C38.9715 53.3288 41.3372 54.5977 43.8641 54.7524C44.42 54.7864 44.5632 54.7748 44.7638 54.6796C45.4165 54.3697 45.5032 53.4452 44.9185 53.0287C44.7652 52.9196 44.5803 52.8795 44.0345 52.837C41.511 52.6408 39.417 51.261 38.3505 49.0915C38.0694 48.5196 37.6818 47.3471 37.6818 47.0685C37.6818 47.0422 37.9373 46.9739 38.2496 46.9168C39.9243 46.6103 41.4011 45.8392 42.6671 44.6104C44.0734 43.2454 44.9397 41.5783 45.2273 39.6834C45.297 39.2246 45.3201 38.3944 45.3203 36.3338L45.3207 33.5943L45.9787 33.5724C46.535 33.5539 46.6677 33.5284 46.8374 33.4073C47.2355 33.1232 47.2465 33.0503 47.2465 30.6928C47.2465 28.3353 47.2355 28.2624 46.8374 27.9783C46.6444 27.8406 46.5739 27.8343 45.0158 27.8159L43.3949 27.7968V25.2248C43.3949 22.3821 43.3921 22.3601 42.9858 22.0702C42.8403 21.9663 42.6937 21.9269 42.4528 21.9269C42.0938 21.9269 41.8759 22.0445 41.6336 22.369C41.5057 22.5403 41.5006 22.6349 41.4831 25.1746L41.465 27.803H36.6526H31.8402V25.2279C31.8402 22.3917 31.8361 22.3589 31.4413 22.0777C31.2042 21.9088 30.7785 21.8643 30.5243 21.982ZM37.0796 33.6869C37.4785 33.8763 37.7035 34.3876 37.5889 34.8444C37.5641 34.9431 37.2863 35.2852 36.9642 35.6138L36.3841 36.2056L37.7994 36.918C39.263 37.6548 39.4429 37.7871 39.5167 38.1808C39.6125 38.6914 39.5425 38.8015 38.3662 39.9922C37.7603 40.6056 37.1865 41.1483 37.0912 41.1982C36.5416 41.4857 35.7994 41.0619 35.7121 40.4108C35.6646 40.056 35.7999 39.8212 36.4181 39.1861C36.7016 38.8949 36.9213 38.6456 36.9064 38.6321C36.8916 38.6187 36.2392 38.2861 35.4567 37.8931C34.08 37.2018 34.0298 37.1697 33.9 36.9017C33.6127 36.3077 33.7455 36.0641 35.0723 34.752C35.6496 34.1812 36.1912 33.6864 36.2759 33.6525C36.5124 33.5578 36.8369 33.5717 37.0796 33.6869Z" fill="#FFD038"/>
</svg>
