<svg width="56" height="56" viewBox="0 0 56 56" fill="none" xmlns="http://www.w3.org/2000/svg">
<path d="M28 56C43.464 56 56 43.464 56 28C56 12.536 43.464 0 28 0C12.536 0 0 12.536 0 28C0 43.464 12.536 56 28 56Z" fill="#FFCC4D"/>
<path d="M28 32.6671C22.3643 32.6671 18.6247 32.0107 14 31.1116C12.9438 30.9078 10.8889 31.1116 10.8889 34.2227C10.8889 40.4449 18.0367 48.2227 28 48.2227C37.9618 48.2227 45.1111 40.4449 45.1111 34.2227C45.1111 31.1116 43.0563 30.9062 42 31.1116C37.3754 32.0107 33.6358 32.6671 28 32.6671Z" fill="#664500"/>
<path d="M14 34.2227C14 34.2227 18.6667 35.7782 28 35.7782C37.3333 35.7782 42 34.2227 42 34.2227C42 34.2227 38.8889 40.4449 28 40.4449C17.1111 40.4449 14 34.2227 14 34.2227Z" fill="white"/>
<path d="M18.6667 26.4446C20.8145 26.4446 22.5556 24.007 22.5556 21.0001C22.5556 17.9932 20.8145 15.5557 18.6667 15.5557C16.5189 15.5557 14.7778 17.9932 14.7778 21.0001C14.7778 24.007 16.5189 26.4446 18.6667 26.4446Z" fill="#664500"/>
<path d="M37.3332 26.4446C39.481 26.4446 41.2221 24.007 41.2221 21.0001C41.2221 17.9932 39.481 15.5557 37.3332 15.5557C35.1855 15.5557 33.4443 17.9932 33.4443 21.0001C33.4443 24.007 35.1855 26.4446 37.3332 26.4446Z" fill="#664500"/>
</svg>
