<svg width="44" height="44" viewBox="0 0 44 44" fill="none" xmlns="http://www.w3.org/2000/svg">
<path d="M38.5 0.916992H5.5V6.41699H38.5V0.916992Z" fill="#FFCC66"/>
<path d="M38.4998 0.916992V4.58366H12.8332C11.8607 4.58366 10.9281 4.19735 10.2404 3.50972C9.55281 2.82208 9.1665 1.88945 9.1665 0.916992H38.4998Z" fill="#FFDE76"/>
<path d="M38.5 37.584H5.5V43.084H38.5V37.584Z" fill="#FFCC66"/>
<path d="M38.4998 37.584V41.2506H12.8332C11.8607 41.2506 10.9281 40.8643 10.2404 40.1767C9.55281 39.4891 9.1665 38.5564 9.1665 37.584H38.4998Z" fill="#FFDE76"/>
<path d="M36.6663 6.41699H7.33301V37.5837H36.6663V6.41699Z" fill="#DAD7E5"/>
<path d="M36.6665 8.25V37.5833H32.9998C26.6788 37.5833 20.6167 35.0723 16.1471 30.6027C11.6775 26.1331 9.1665 20.071 9.1665 13.75C9.1665 12.2913 9.74597 10.8924 10.7774 9.86091C11.8089 8.82946 13.2078 8.25 14.6665 8.25H36.6665Z" fill="#EDEBF2"/>
<path d="M41.25 5.50065H38.5V1.83398H41.25C41.7362 1.83398 42.2025 2.02714 42.5464 2.37096C42.8902 2.71477 43.0833 3.18109 43.0833 3.66732C43.0833 4.15355 42.8902 4.61986 42.5464 4.96368C42.2025 5.3075 41.7362 5.50065 41.25 5.50065Z" fill="#A87E6B"/>
<path d="M2.74984 5.50065H5.49984V1.83398H2.74984C2.26361 1.83398 1.79729 2.02714 1.45347 2.37096C1.10966 2.71477 0.916504 3.18109 0.916504 3.66732C0.916504 4.15355 1.10966 4.61986 1.45347 4.96368C1.79729 5.3075 2.26361 5.50065 2.74984 5.50065Z" fill="#A87E6B"/>
<path d="M41.25 42.1667H38.5V38.5H41.25C41.7362 38.5 42.2025 38.6932 42.5464 39.037C42.8902 39.3808 43.0833 39.8471 43.0833 40.3333C43.0833 40.8196 42.8902 41.2859 42.5464 41.6297C42.2025 41.9735 41.7362 42.1667 41.25 42.1667Z" fill="#A87E6B"/>
<path d="M2.74984 42.1667H5.49984V38.5H2.74984C2.26361 38.5 1.79729 38.6932 1.45347 39.037C1.10966 39.3808 0.916504 39.8471 0.916504 40.3333C0.916504 40.8196 1.10966 41.2859 1.45347 41.6297C1.79729 41.9735 2.26361 42.1667 2.74984 42.1667Z" fill="#A87E6B"/>
<path d="M25.6663 11.9173C25.6663 13.7048 25.7672 15.0248 24.6763 16.8032C24.0276 17.8508 23.101 18.698 21.9997 19.2507C20.8984 18.6996 19.9723 17.853 19.3247 16.8056C18.6772 15.7582 18.3338 14.5512 18.333 13.3198V11.9173L21.9997 10.084L25.6663 11.9173Z" fill="#6FABE6"/>
<path d="M25.6665 11.9173C25.6665 14.044 25.7582 16.0607 23.549 18.1782C22.5241 17.6015 21.6708 16.763 21.0765 15.7482C20.4822 14.7335 20.1681 13.5791 20.1665 12.4032V11.0007L21.9998 10.084L25.6665 11.9173Z" fill="#82BCF4"/>
<path d="M12.833 22H10.9997C10.7566 22 10.5234 22.0966 10.3515 22.2685C10.1796 22.4404 10.083 22.6736 10.083 22.9167C10.083 23.1598 10.1796 23.3929 10.3515 23.5648C10.5234 23.7368 10.7566 23.8333 10.9997 23.8333H12.833C13.0761 23.8333 13.3093 23.7368 13.4812 23.5648C13.6531 23.3929 13.7497 23.1598 13.7497 22.9167C13.7497 22.6736 13.6531 22.4404 13.4812 22.2685C13.3093 22.0966 13.0761 22 12.833 22Z" fill="#7C7D7D"/>
<path d="M16.4997 23.8333H32.9997C33.2428 23.8333 33.4759 23.7368 33.6479 23.5648C33.8198 23.3929 33.9163 23.1598 33.9163 22.9167C33.9163 22.6736 33.8198 22.4404 33.6479 22.2685C33.4759 22.0966 33.2428 22 32.9997 22H16.4997C16.2566 22 16.0234 22.0966 15.8515 22.2685C15.6796 22.4404 15.583 22.6736 15.583 22.9167C15.583 23.1598 15.6796 23.3929 15.8515 23.5648C16.0234 23.7368 16.2566 23.8333 16.4997 23.8333Z" fill="#7C7D7D"/>
<path d="M12.833 25.667H10.9997C10.7566 25.667 10.5234 25.7636 10.3515 25.9355C10.1796 26.1074 10.083 26.3405 10.083 26.5837C10.083 26.8268 10.1796 27.0599 10.3515 27.2318C10.5234 27.4037 10.7566 27.5003 10.9997 27.5003H12.833C13.0761 27.5003 13.3093 27.4037 13.4812 27.2318C13.6531 27.0599 13.7497 26.8268 13.7497 26.5837C13.7497 26.3405 13.6531 26.1074 13.4812 25.9355C13.3093 25.7636 13.0761 25.667 12.833 25.667Z" fill="#7C7D7D"/>
<path d="M32.9997 25.667H16.4997C16.2566 25.667 16.0234 25.7636 15.8515 25.9355C15.6796 26.1074 15.583 26.3405 15.583 26.5837C15.583 26.8268 15.6796 27.0599 15.8515 27.2318C16.0234 27.4037 16.2566 27.5003 16.4997 27.5003H32.9997C33.2428 27.5003 33.4759 27.4037 33.6479 27.2318C33.8198 27.0599 33.9163 26.8268 33.9163 26.5837C33.9163 26.3405 33.8198 26.1074 33.6479 25.9355C33.4759 25.7636 33.2428 25.667 32.9997 25.667Z" fill="#7C7D7D"/>
<path d="M12.833 29.334H10.9997C10.7566 29.334 10.5234 29.4306 10.3515 29.6025C10.1796 29.7744 10.083 30.0075 10.083 30.2507C10.083 30.4938 10.1796 30.7269 10.3515 30.8988C10.5234 31.0707 10.7566 31.1673 10.9997 31.1673H12.833C13.0761 31.1673 13.3093 31.0707 13.4812 30.8988C13.6531 30.7269 13.7497 30.4938 13.7497 30.2507C13.7497 30.0075 13.6531 29.7744 13.4812 29.6025C13.3093 29.4306 13.0761 29.334 12.833 29.334Z" fill="#7C7D7D"/>
<path d="M32.9997 29.334H16.4997C16.2566 29.334 16.0234 29.4306 15.8515 29.6025C15.6796 29.7744 15.583 30.0075 15.583 30.2507C15.583 30.4938 15.6796 30.7269 15.8515 30.8988C16.0234 31.0707 16.2566 31.1673 16.4997 31.1673H32.9997C33.2428 31.1673 33.4759 31.0707 33.6479 30.8988C33.8198 30.7269 33.9163 30.4938 33.9163 30.2507C33.9163 30.0075 33.8198 29.7744 33.6479 29.6025C33.4759 29.4306 33.2428 29.334 32.9997 29.334Z" fill="#7C7D7D"/>
<path d="M12.833 33H10.9997C10.7566 33 10.5234 33.0966 10.3515 33.2685C10.1796 33.4404 10.083 33.6736 10.083 33.9167C10.083 34.1598 10.1796 34.3929 10.3515 34.5649C10.5234 34.7368 10.7566 34.8333 10.9997 34.8333H12.833C13.0761 34.8333 13.3093 34.7368 13.4812 34.5649C13.6531 34.3929 13.7497 34.1598 13.7497 33.9167C13.7497 33.6736 13.6531 33.4404 13.4812 33.2685C13.3093 33.0966 13.0761 33 12.833 33Z" fill="#7C7D7D"/>
<path d="M32.9997 33H16.4997C16.2566 33 16.0234 33.0966 15.8515 33.2685C15.6796 33.4404 15.583 33.6736 15.583 33.9167C15.583 34.1598 15.6796 34.3929 15.8515 34.5649C16.0234 34.7368 16.2566 34.8333 16.4997 34.8333H32.9997C33.2428 34.8333 33.4759 34.7368 33.6479 34.5649C33.8198 34.3929 33.9163 34.1598 33.9163 33.9167C33.9163 33.6736 33.8198 33.4404 33.6479 33.2685C33.4759 33.0966 33.2428 33 32.9997 33Z" fill="#7C7D7D"/>
</svg>
