<svg width="56" height="56" viewBox="0 0 56 56" fill="none" xmlns="http://www.w3.org/2000/svg">
<path d="M56 28C56 43.4638 43.4638 56 28 56C12.5378 56 0 43.4638 0 28C0 12.5378 12.5378 0 28 0C43.4638 0 56 12.5378 56 28Z" fill="#FFCC4D" fill-opacity="0.5"/>
<path d="M17.8889 28.0002C20.0367 28.0002 21.7778 25.5627 21.7778 22.5558C21.7778 19.5489 20.0367 17.1113 17.8889 17.1113C15.7411 17.1113 14 19.5489 14 22.5558C14 25.5627 15.7411 28.0002 17.8889 28.0002Z" fill="#664500"/>
<path d="M38.1111 28.0002C40.2588 28.0002 41.9999 25.5627 41.9999 22.5558C41.9999 19.5489 40.2588 17.1113 38.1111 17.1113C35.9633 17.1113 34.2222 19.5489 34.2222 22.5558C34.2222 25.5627 35.9633 28.0002 38.1111 28.0002Z" fill="#664500"/>
<path d="M13.4789 43.3553C13.7558 43.6058 14.1696 43.6213 14.4667 43.4004C14.5273 43.3553 20.5676 38.8893 28 38.8893C35.4138 38.8893 41.4742 43.3553 41.5333 43.4004C41.8305 43.6213 42.2442 43.6027 42.5211 43.3553C42.7964 43.1064 42.8587 42.6958 42.6673 42.3784C42.4667 42.0455 37.6631 34.2227 28 34.2227C18.3369 34.2227 13.5318 42.044 13.3327 42.3784C13.1413 42.6973 13.202 43.1064 13.4789 43.3553Z" fill="#664500"/>
</svg>
