<svg width="16" height="16" viewBox="0 0 16 16" fill="none" xmlns="http://www.w3.org/2000/svg">
<path d="M13.3332 6.93359H12.2666V8.00031H13.3332V6.93359Z" fill="#FF6D00"/>
<path d="M13.3332 9.06641H12.2666V10.133H13.3332V9.06641Z" fill="#FF6D00"/>
<path d="M13.3332 11.2002H12.2666V12.2669H13.3332V11.2002Z" fill="#FF6D00"/>
<path d="M7.99983 12.2666H6.93311V13.3332H7.99983V12.2666Z" fill="#FF6D00"/>
<path d="M11.2001 4.79961V3.73289H9.06682V2.66633H8.0001V3.73289H6.93338V1.59961H5.86682V3.73289H3.73338V6.93289H1.6001V14.3996H14.4001V4.79961H11.2001ZM3.73338 13.3329H2.66682V7.99961H3.73338V13.3329ZM10.1334 13.3329H4.8001V4.79961H10.1334V13.3329ZM13.3334 13.3329H11.2001V5.86633H13.3334V13.3329Z" fill="#455A64"/>
<path d="M6.93309 10.1328H4.7998V11.1995H6.93309V10.1328Z" fill="#FF6D00"/>
<path d="M6.93309 8H4.7998V9.06672H6.93309V8Z" fill="#FF6D00"/>
<path d="M6.93309 5.86719H4.7998V6.93375H6.93309V5.86719Z" fill="#FF6D00"/>
<path d="M9.06672 10.1328H8V11.1995H9.06672V10.1328Z" fill="#FF6D00"/>
<path d="M9.06672 8H8V9.06672H9.06672V8Z" fill="#FF6D00"/>
<path d="M9.06672 5.86719H8V6.93375H9.06672V5.86719Z" fill="#FF6D00"/>
</svg>
