<svg width="44" height="44" viewBox="0 0 44 44" fill="none" xmlns="http://www.w3.org/2000/svg">
<path d="M43.99 23.4265C43.99 26.3892 39.6101 24.3822 37.8983 28.5492C37.6008 29.2449 37.4669 29.9994 37.5066 30.7549C37.5464 31.5104 37.7589 32.2468 38.1278 32.9074C39.7631 35.8702 39.5145 35.5834 36.5404 38.5558C34.4269 40.668 32.7152 36.1569 28.603 37.8772C27.5124 38.3077 26.6152 39.1194 26.0784 40.1614C25.189 41.7862 25.5524 43.9844 23.4199 43.9844C19.2313 43.9844 19.2504 44.3858 18.3037 41.1172C18.0951 40.3926 17.724 39.725 17.2186 39.1653C16.7132 38.6055 16.0868 38.1683 15.3869 37.8868C11.3035 36.1856 9.54391 40.6584 7.44961 38.5654L5.43181 36.5392C3.28968 34.3983 7.84169 32.7162 6.11078 28.6066V28.5588C4.399 24.4778 0 26.3606 0 23.4265V20.5592C0 17.5773 4.399 19.6035 6.10122 15.4078C7.80344 11.2121 3.34706 9.5778 5.43181 7.46561C7.34441 5.55414 7.61218 5.16228 8.23378 4.98069C10.2707 4.34035 11.6382 7.68543 15.4156 6.11802C19.5086 4.44548 17.6438 0.0204087 20.5701 0.0204087C24.6535 0.0204087 24.73 -0.428788 25.6768 2.88762C25.8838 3.61256 26.2523 4.28128 26.7546 4.84375C27.2569 5.40621 27.8799 5.84784 28.5772 6.13558C29.2744 6.42332 30.0277 6.54971 30.7808 6.50529C31.5338 6.46087 32.267 6.2468 32.9255 5.87909C35.9092 4.22566 35.6032 4.52194 38.5582 7.47517C40.6716 9.58735 36.1483 11.2981 37.8792 15.4078C38.1593 16.1088 38.5976 16.7357 39.1599 17.2397C39.7222 17.7437 40.3934 18.111 41.1211 18.3132C44.3151 19.2308 43.99 19.1352 43.99 23.4265Z" fill="#7C7D7D"/>
<path d="M43.9906 23.4265C43.9906 26.3892 39.6107 24.3822 37.8989 28.5492C36.4645 32.8309 39.6681 33.7006 39.0274 35.7555C37.4382 36.9424 35.6944 37.9071 33.8442 38.6227C32.5245 37.8963 30.9753 36.8928 28.6037 37.8581C27.5098 38.2933 26.6122 39.1123 26.079 40.1614H25.8208C19.9874 40.1614 14.3929 37.8455 10.268 33.7231C6.14316 29.6006 3.82584 24.0094 3.82584 18.1794C3.82107 18.0935 3.82107 18.0073 3.82584 17.9214C4.41236 17.6091 4.93072 17.183 5.35062 16.6682C5.77052 16.1534 6.08355 15.5601 6.27141 14.923C6.45927 14.2859 6.5182 13.6177 6.44475 12.9576C6.37131 12.2975 6.16696 11.6586 5.84364 11.0783L5.3368 10.1226C6.05284 8.27346 7.01805 6.53068 8.20571 4.94246C10.2426 4.30212 11.6102 7.6472 15.3876 6.07979C19.5092 4.44548 17.6444 0.0204087 20.5707 0.0204087C24.6541 0.0204087 24.7306 -0.428788 25.6774 2.88763C25.8845 3.61256 26.2529 4.28128 26.7552 4.84375C27.2575 5.40621 27.8806 5.84784 28.5778 6.13558C29.275 6.42332 30.0284 6.54971 30.7814 6.50529C31.5344 6.46087 32.2676 6.2468 32.9262 5.87909C35.9098 4.22566 35.6038 4.52194 38.5588 7.47517C40.6722 9.58735 36.1489 11.2981 37.8798 15.4078C38.1599 16.1088 38.5982 16.7357 39.1605 17.2397C39.7228 17.7437 40.394 18.111 41.1217 18.3132C44.3157 19.2308 43.9906 19.1352 43.9906 23.4265Z" fill="#919191"/>
<path d="M34.4274 22.0019C34.4274 25.2972 33.1176 28.4574 30.7862 30.7875C28.4547 33.1175 25.2926 34.4265 21.9955 34.4265C10.2999 34.4265 5.07843 19.6126 14.2207 12.3203C16.0478 10.8568 18.2514 9.93877 20.5777 9.67189C22.904 9.40501 25.2584 9.80014 27.3698 10.8118C29.4812 11.8235 31.2639 13.4105 32.5125 15.3902C33.7611 17.3699 34.4249 19.6618 34.4274 22.0019Z" fill="#DAD7E5"/>
<path d="M34.4276 22.0019C34.4331 24.8302 33.4639 27.5741 31.6831 29.7721C29.2927 31.6602 26.2918 32.6053 23.2502 32.4279C20.2086 32.2505 17.3381 30.963 15.1837 28.8099C13.0293 26.6568 11.7411 23.7879 11.5636 20.7481C11.3861 17.7083 12.3318 14.7092 14.2209 12.3203C16.0481 10.8568 18.2517 9.93877 20.5779 9.67189C22.9042 9.40501 25.2586 9.80014 27.37 10.8118C29.4815 11.8235 31.2641 13.4105 32.5127 15.3902C33.7613 17.3699 34.4251 19.6618 34.4276 22.0019Z" fill="#EDEBF2"/>
<path d="M20.0818 17.2236H16.2566C16.003 17.2236 15.7597 17.3243 15.5804 17.5036C15.401 17.6828 15.3003 17.9259 15.3003 18.1794C15.3003 18.4328 15.401 18.6759 15.5804 18.8552C15.7597 19.0344 16.003 19.1351 16.2566 19.1351H19.1255V21.0466H16.2566C16.003 21.0466 15.7597 21.1473 15.5804 21.3265C15.401 21.5058 15.3003 21.7488 15.3003 22.0023V25.8253C15.3003 26.0788 15.401 26.3219 15.5804 26.5011C15.7597 26.6803 16.003 26.781 16.2566 26.781H20.0818C20.3354 26.781 20.5787 26.6803 20.758 26.5011C20.9374 26.3219 21.0381 26.0788 21.0381 25.8253C21.0381 25.5718 20.9374 25.3287 20.758 25.1495C20.5787 24.9702 20.3354 24.8695 20.0818 24.8695H17.2129V22.9581H20.0818C20.3354 22.9581 20.5787 22.8574 20.758 22.6781C20.9374 22.4989 21.0381 22.2558 21.0381 22.0023V18.1794C21.0381 17.9259 20.9374 17.6828 20.758 17.5036C20.5787 17.3243 20.3354 17.2236 20.0818 17.2236Z" fill="#82BCF4"/>
<path d="M26.7764 18.1794V21.0466H24.8638V18.1794C24.8638 17.9259 24.763 17.6828 24.5837 17.5036C24.4043 17.3243 24.1611 17.2236 23.9075 17.2236C23.6538 17.2236 23.4106 17.3243 23.2313 17.5036C23.0519 17.6828 22.9512 17.9259 22.9512 18.1794V22.0023C22.9512 22.2558 23.0519 22.4989 23.2313 22.6781C23.4106 22.8574 23.6538 22.9581 23.9075 22.9581H26.7764V25.8253C26.7764 26.0788 26.8771 26.3219 27.0565 26.5011C27.2358 26.6803 27.4791 26.781 27.7327 26.781C27.9863 26.781 28.2296 26.6803 28.4089 26.5011C28.5882 26.3219 28.689 26.0788 28.689 25.8253V18.1794C28.689 17.9259 28.5882 17.6828 28.4089 17.5036C28.2296 17.3243 27.9863 17.2236 27.7327 17.2236C27.4791 17.2236 27.2358 17.3243 27.0565 17.5036C26.8771 17.6828 26.7764 17.9259 26.7764 18.1794Z" fill="#82BCF4"/>
</svg>
