<svg width="26" height="26" viewBox="0 0 26 26" fill="none" xmlns="http://www.w3.org/2000/svg">
<path d="M13 0.5C6.1 0.5 0.5 6.1 0.5 13C0.5 19.9 6.1 25.5 13 25.5C19.9 25.5 25.5 19.9 25.5 13C25.5 6.1 19.9 0.5 13 0.5ZM13 23C7.4875 23 3 18.5125 3 13C3 7.4875 7.4875 3 13 3C18.5125 3 23 7.4875 23 13C23 18.5125 18.5125 23 13 23ZM17.85 8.3625L10.5 15.7125L8.15 13.3625C7.6625 12.875 6.875 12.875 6.3875 13.3625C5.9 13.85 5.9 14.6375 6.3875 15.125L9.625 18.3625C10.1125 18.85 10.9 18.85 11.3875 18.3625L19.625 10.125C20.1125 9.6375 20.1125 8.85 19.625 8.3625C19.1375 7.875 18.3375 7.875 17.85 8.3625Z" fill="#155B9F"/>
</svg>
