<svg width="40" height="40" viewBox="0 0 40 40" fill="none" xmlns="http://www.w3.org/2000/svg">
<path d="M10.1999 7.7519C11.5519 7.7519 12.6479 6.6559 12.6479 5.2999V2.8479C12.6479 1.4959 11.5519 0.399902 10.1999 0.399902C8.8479 0.399902 7.7519 1.4959 7.7519 2.8479V5.2959C7.7519 6.6519 8.8479 7.7519 10.1999 7.7519ZM29.7999 7.7519C31.1559 7.7519 32.2519 6.6559 32.2519 5.2999V2.8479C32.2519 1.4959 31.1559 0.399902 29.7999 0.399902C28.4439 0.399902 27.3519 1.4959 27.3519 2.8479V5.2959C27.3479 6.6519 28.4439 7.7519 29.7999 7.7519ZM34.6999 2.8479V5.2959C34.6999 7.9999 32.5039 10.1959 29.7999 10.1959C27.0959 10.1959 24.8999 7.9999 24.8999 5.2959V2.8479H15.0999V5.2959C15.0999 7.9999 12.9039 10.1959 10.1999 10.1959C7.4959 10.1959 5.2999 7.9999 5.2999 5.2959V2.8479C2.5959 2.8479 0.399902 5.0439 0.399902 7.7519V34.6999C0.399902 37.4039 2.5959 39.5999 5.2999 39.5999H34.6999C37.4039 39.5999 39.5999 37.4039 39.5999 34.6999V7.7519C39.5999 5.0439 37.4039 2.8479 34.6999 2.8479ZM34.6999 32.2519C34.6999 33.6079 33.6039 34.6999 32.2519 34.6999H7.7519C6.3999 34.6999 5.2999 33.6039 5.2999 32.2519V17.5479C5.2999 16.1959 6.3959 15.0999 7.7519 15.0999H32.2519C33.6079 15.0999 34.6999 16.1959 34.6999 17.5479V32.2519ZM26.0919 19.3479C27.0279 20.2839 27.0279 21.7959 26.0919 22.7319L17.2919 31.5319C16.3559 32.4679 14.8439 32.4679 13.9079 31.5319C12.9719 30.5959 12.9719 29.0839 13.9079 28.1479L22.7039 19.3519C23.6399 18.4159 25.1559 18.4159 26.0919 19.3479ZM13.9079 19.3479C14.8439 18.4119 16.3559 18.4119 17.2919 19.3479L26.0879 28.1439C27.0239 29.0799 27.0239 30.5919 26.0879 31.5279C25.1519 32.4639 23.6399 32.4639 22.7039 31.5279L13.9079 22.7319C12.9759 21.7999 12.9759 20.2839 13.9079 19.3479Z" fill="#FF7D83"/>
</svg>
