<svg width="14" height="14" viewBox="0 0 14 14" fill="none" xmlns="http://www.w3.org/2000/svg">
<path d="M4.03238 1.31867C3.87152 1.37495 3.72942 1.49829 3.64374 1.65649C3.59012 1.75561 3.5848 1.80923 3.57668 2.37217L3.5687 2.98341H3.2201H2.8743V3.51681C2.8743 4.02613 2.87164 4.05021 2.8127 4.13869C2.72422 4.27001 2.57946 4.31299 2.42406 4.25391C2.2338 4.18153 2.20426 4.10649 2.20426 3.68565V3.33187H2.00056C1.70572 3.33187 1.56894 3.25417 1.51812 3.05313C1.49936 2.97277 1.47794 2.96997 1.23672 3.02093C0.722081 3.13083 0.303901 3.54369 0.180561 4.06099C0.148361 4.20575 0.140381 4.66411 0.140381 7.10347C0.140381 9.08713 0.148361 10.0199 0.169921 10.1192C0.247621 10.4972 0.526501 10.8697 0.861521 11.0494C1.17778 11.2155 1.11352 11.2129 3.29822 11.2129H5.2872V10.1459C5.2872 8.93971 5.29798 8.84311 5.47214 8.49199C5.6624 8.10335 6.00022 7.80571 6.4184 7.65297L6.61412 7.58059L8.01608 7.57261L9.41538 7.56463V7.31795C9.41538 7.04187 9.4529 6.87023 9.56014 6.65855C9.79338 6.20019 10.3804 5.94287 10.8897 6.07685C10.9701 6.09827 11.0586 6.12515 11.0854 6.13579C11.1337 6.15455 11.1364 6.11437 11.1256 5.13857L11.1176 4.12259L11.0453 3.92953C10.871 3.44975 10.4717 3.10129 9.99176 3.01281C9.76132 2.96997 9.7371 2.97263 9.7371 3.04767C9.7371 3.13349 9.64064 3.24871 9.5334 3.29435C9.48244 3.31577 9.3591 3.33187 9.25466 3.33187H9.06706V3.65891C9.06706 3.91889 9.05628 4.00737 9.01876 4.07975C8.95436 4.20841 8.85258 4.27813 8.72126 4.27813C8.5926 4.27813 8.49334 4.21919 8.42376 4.10117C8.37546 4.02347 8.37014 3.96439 8.37014 3.49805V2.98327H8.03778H7.70542L7.69464 2.38547L7.68666 1.79033L7.6063 1.64557C7.56346 1.56787 7.48562 1.46861 7.432 1.42577C7.24706 1.27037 7.2122 1.26757 5.6253 1.26757C4.2897 1.27037 4.1637 1.27317 4.03238 1.31867ZM7.00248 2.47395V2.98327H5.63538H4.26828V2.47395V1.96463H5.63538H7.00248V2.47395Z" fill="white"/>
<path d="M10.3398 6.79784C10.2754 6.83536 10.2059 6.90508 10.1655 6.97746C10.1011 7.09268 10.0985 7.1169 10.0905 7.6664L10.0797 8.23732H8.52236C7.53592 8.23732 6.90592 8.2481 6.80148 8.26686C6.45834 8.3258 6.16084 8.57248 6.0375 8.89686C5.98388 9.04428 5.98122 9.08712 5.9892 9.77606C5.99718 10.4569 5.99998 10.5105 6.05626 10.6312C6.14474 10.8188 6.35922 11.0306 6.5548 11.1217L6.72098 11.1994L8.40168 11.2074L10.0797 11.2154L10.0905 11.7971C10.0985 12.4351 10.1093 12.4779 10.2728 12.6174C10.4604 12.7728 10.758 12.7701 10.9858 12.6092C11.0475 12.5664 11.6721 12.0302 12.3743 11.4136C13.2187 10.6765 13.6798 10.2584 13.7306 10.1779C13.8942 9.92054 13.9021 9.61226 13.7575 9.33884C13.6798 9.19674 13.5404 9.06542 12.3609 8.03334C11.6397 7.40068 10.9885 6.85118 10.9134 6.80834C10.7311 6.71202 10.498 6.7067 10.3398 6.79784Z" fill="white"/>
</svg>
