<svg width="16" height="11" viewBox="0 0 16 11" fill="none" xmlns="http://www.w3.org/2000/svg">
<path d="M15 0H1C0.734784 0 0.48043 0.105357 0.292893 0.292893C0.105357 0.48043 0 0.734784 0 1L0 10C0 10.2652 0.105357 10.5196 0.292893 10.7071C0.48043 10.8946 0.734784 11 1 11H15C15.2652 11 15.5196 10.8946 15.7071 10.7071C15.8946 10.5196 16 10.2652 16 10V1C16 0.734784 15.8946 0.48043 15.7071 0.292893C15.5196 0.105357 15.2652 0 15 0ZM13.583 6H7.5C7.36739 6 7.24021 5.94732 7.14645 5.85355C7.05268 5.75979 7 5.63261 7 5.5C7 5.36739 7.05268 5.24021 7.14645 5.14645C7.24021 5.05268 7.36739 5 7.5 5H13.583C13.7156 5 13.8428 5.05268 13.9366 5.14645C14.0303 5.24021 14.083 5.36739 14.083 5.5C14.083 5.63261 14.0303 5.75979 13.9366 5.85355C13.8428 5.94732 13.7156 6 13.583 6ZM14.083 7.5C14.083 7.63261 14.0303 7.75979 13.9366 7.85355C13.8428 7.94732 13.7156 8 13.583 8H7.5C7.36739 8 7.24021 7.94732 7.14645 7.85355C7.05268 7.75979 7 7.63261 7 7.5C7 7.36739 7.05268 7.24021 7.14645 7.14645C7.24021 7.05268 7.36739 7 7.5 7H13.583C13.7156 7 13.8428 7.05268 13.9366 7.14645C14.0303 7.24021 14.083 7.36739 14.083 7.5ZM13.583 4H7.5C7.36739 4 7.24021 3.94732 7.14645 3.85355C7.05268 3.75979 7 3.63261 7 3.5C7 3.36739 7.05268 3.24021 7.14645 3.14645C7.24021 3.05268 7.36739 3 7.5 3H13.583C13.7156 3 13.8428 3.05268 13.9366 3.14645C14.0303 3.24021 14.083 3.36739 14.083 3.5C14.083 3.63261 14.0303 3.75979 13.9366 3.85355C13.8428 3.94732 13.7156 4 13.583 4ZM4.024 4.899C5.115 4.899 6 6.085 6 7.549C6 9.013 2.047 9.013 2.047 7.549C2.047 6.085 2.932 4.899 4.024 4.899ZM2.791 3.208C2.791 3.04943 2.82223 2.89241 2.88292 2.74591C2.9436 2.59941 3.03254 2.4663 3.14467 2.35417C3.2568 2.24204 3.38991 2.1531 3.53641 2.09242C3.68291 2.03173 3.83993 2.0005 3.9985 2.0005C4.15707 2.0005 4.31409 2.03173 4.46059 2.09242C4.60709 2.1531 4.7402 2.24204 4.85233 2.35417C4.96446 2.4663 5.0534 2.59941 5.11408 2.74591C5.17477 2.89241 5.206 3.04943 5.206 3.208C5.206 3.36657 5.17477 3.52359 5.11408 3.67009C5.0534 3.81659 4.96446 3.9497 4.85233 4.06183C4.7402 4.17396 4.60709 4.2629 4.46059 4.32358C4.31409 4.38427 4.15707 4.4155 3.9985 4.4155C3.83993 4.4155 3.68291 4.38427 3.53641 4.32358C3.38991 4.2629 3.2568 4.17396 3.14467 4.06183C3.03254 3.9497 2.9436 3.81659 2.88292 3.67009C2.82223 3.52359 2.791 3.36657 2.791 3.208Z" fill="#155B9F"/>
</svg>
