<svg width="10" height="12" viewBox="0 0 10 12" fill="none" xmlns="http://www.w3.org/2000/svg">
<path d="M4.99992 0.166504C2.54992 0.166504 0.333252 2.04484 0.333252 4.94984C0.333252 6.80484 1.76242 8.9865 4.61492 11.5007C4.83659 11.6932 5.16909 11.6932 5.39075 11.5007C8.23742 8.9865 9.66659 6.80484 9.66659 4.94984C9.66659 2.04484 7.44992 0.166504 4.99992 0.166504ZM4.99992 5.99984C4.35825 5.99984 3.83325 5.47484 3.83325 4.83317C3.83325 4.1915 4.35825 3.6665 4.99992 3.6665C5.64159 3.6665 6.16659 4.1915 6.16659 4.83317C6.16659 5.47484 5.64159 5.99984 4.99992 5.99984Z" fill="white"/>
</svg>
