<svg width="14" height="12" viewBox="0 0 14 12" fill="none" xmlns="http://www.w3.org/2000/svg">
<path d="M7 0.00195313C6.73762 0.00195312 6.47781 0.0536329 6.2354 0.154042C5.99299 0.254451 5.77273 0.401622 5.5872 0.587154C5.40167 0.772685 5.2545 0.992943 5.15409 1.23535C5.05368 1.47776 5.002 1.73757 5.002 1.99995C5.002 2.26233 5.05368 2.52215 5.15409 2.76455C5.2545 3.00696 5.40167 3.22722 5.5872 3.41275C5.77273 3.59828 5.99299 3.74546 6.2354 3.84586C6.47781 3.94627 6.73762 3.99795 7 3.99795C7.5299 3.99795 8.0381 3.78745 8.4128 3.41275C8.7875 3.03805 8.998 2.52986 8.998 1.99995C8.998 1.47005 8.7875 0.961851 8.4128 0.587154C8.0381 0.212456 7.5299 0.00195313 7 0.00195313ZM11.5 0.999953C11.1022 0.999953 10.7206 1.15799 10.4393 1.43929C10.158 1.7206 10 2.10213 10 2.49995C10 2.89778 10.158 3.27931 10.4393 3.56061C10.7206 3.84192 11.1022 3.99995 11.5 3.99995C11.8978 3.99995 12.2794 3.84192 12.5607 3.56061C12.842 3.27931 13 2.89778 13 2.49995C13 2.10213 12.842 1.7206 12.5607 1.43929C12.2794 1.15799 11.8978 0.999953 11.5 0.999953ZM2.5 0.999953C2.10218 0.999953 1.72064 1.15799 1.43934 1.43929C1.15804 1.7206 1 2.10213 1 2.49995C1 2.89778 1.15804 3.27931 1.43934 3.56061C1.72064 3.84192 2.10218 3.99995 2.5 3.99995C2.89783 3.99995 3.27936 3.84192 3.56066 3.56061C3.84197 3.27931 4 2.89778 4 2.49995C4 2.10213 3.84197 1.7206 3.56066 1.43929C3.27936 1.15799 2.89783 0.999953 2.5 0.999953ZM4 5.99295C4.00185 5.72895 4.10802 5.47639 4.29536 5.29037C4.48269 5.10434 4.73599 4.99995 5 4.99995H9C9.26522 4.99995 9.51957 5.10531 9.70711 5.29285C9.89464 5.48038 10 5.73474 10 5.99995V8.99995C9.99993 9.31467 9.95067 9.62745 9.854 9.92695C9.63257 10.6057 9.17644 11.1832 8.56751 11.5559C7.95859 11.9285 7.23675 12.0719 6.53163 11.9602C5.8265 11.8486 5.18428 11.4892 4.72028 10.9466C4.25628 10.4041 4.0009 9.71386 4 8.99995V5.99295ZM3 5.99995C3 5.63495 3.097 5.29395 3.268 4.99995H1C0.734784 4.99995 0.48043 5.10531 0.292893 5.29285C0.105357 5.48038 1.38413e-07 5.73474 1.38413e-07 5.99995V8.49995C-0.000136048 8.90926 0.100226 9.31234 0.292273 9.67379C0.48432 10.0352 0.762177 10.344 1.10144 10.573C1.44071 10.802 1.831 10.9441 2.23806 10.987C2.64511 11.0299 3.05646 10.9722 3.436 10.819C3.14818 10.2555 2.99872 9.63164 3 8.99895V5.99995ZM11 5.99995V8.99995C11 9.65495 10.843 10.273 10.564 10.819C10.9435 10.9722 11.3549 11.0299 11.7619 10.987C12.169 10.9441 12.5593 10.802 12.8986 10.573C13.2378 10.344 13.5157 10.0352 13.7077 9.67379C13.8998 9.31234 14.0001 8.90926 14 8.49995V5.99995C14 5.73474 13.8946 5.48038 13.7071 5.29285C13.5196 5.10531 13.2652 4.99995 13 4.99995H10.732C10.902 5.29395 11 5.63495 11 5.99995Z" fill="#155B9F"/>
</svg>
