<svg width="24" height="24" viewBox="0 0 24 24" fill="none" xmlns="http://www.w3.org/2000/svg">
<path d="M13.125 18V19.125L12.375 19.5H11.625L10.875 19.125V18H13.125Z" fill="#FFC477"/>
<path d="M15 14.625H14.25V16.125H15C15.1989 16.125 15.3897 16.046 15.5303 15.9053C15.671 15.7647 15.75 15.5739 15.75 15.375C15.75 15.1761 15.671 14.9853 15.5303 14.8447C15.3897 14.704 15.1989 14.625 15 14.625ZM9 14.625H9.75V16.125H9C8.80109 16.125 8.61032 16.046 8.46967 15.9053C8.32902 15.7647 8.25 15.5739 8.25 15.375C8.25 15.1761 8.32902 14.9853 8.46967 14.8447C8.61032 14.704 8.80109 14.625 9 14.625Z" fill="#FFB655"/>
<path d="M11.25 20.25L11.5575 20.5575L10.875 22.875H7.5V22.0875C7.50011 21.6526 7.62626 21.227 7.86319 20.8623C8.10012 20.4976 8.43767 20.2094 8.835 20.0325L9.8625 19.575L10.125 20.625L11.25 20.25ZM16.5 22.0875V22.875H13.125L12.4425 20.5575L12.75 20.25L13.875 20.625L14.1375 19.575L15.165 20.0325C15.5623 20.2094 15.8999 20.4976 16.1368 20.8623C16.3737 21.227 16.4999 21.6526 16.5 22.0875Z" fill="#3D9AE2"/>
<path d="M11.625 19.5L11.25 20.25L10.125 20.625L9.86255 19.575L10.875 19.125L11.625 19.5Z" fill="#1E81CE"/>
<path d="M12.75 20.25L12.4425 20.5575L12 21L11.5575 20.5575L11.25 20.25L11.625 19.5H12.375L12.75 20.25Z" fill="#FF5023"/>
<path d="M12.4425 20.5575L13.125 22.875H10.875L11.5575 20.5575L12 21L12.4425 20.5575Z" fill="#FF5023"/>
<path d="M14.1375 19.575L13.875 20.625L12.75 20.25L12.375 19.5L13.125 19.125L14.1375 19.575Z" fill="#1E81CE"/>
<path d="M13.125 18V18.87C12.7737 19.0379 12.3893 19.125 12 19.125C11.6107 19.125 11.2263 19.0379 10.875 18.87V18H13.125Z" fill="#FFB655"/>
<path d="M14.3775 14.25C14.127 14.2491 13.8839 14.165 13.6863 14.0109C13.4888 13.8568 13.3481 13.6415 13.2863 13.3987L13.125 12.75C13.125 13.1478 12.967 13.5294 12.6857 13.8107C12.4044 14.092 12.0228 14.25 11.625 14.25H9.375V15.75C9.375 16.4462 9.65156 17.1139 10.1438 17.6062C10.6361 18.0984 11.3038 18.375 12 18.375C12.6962 18.375 13.3639 18.0984 13.8562 17.6062C14.3484 17.1139 14.625 16.4462 14.625 15.75V14.25H14.3775Z" fill="#FFC477"/>
<path d="M14.625 13.5V14.25H14.3775C14.127 14.2491 13.8839 14.165 13.6863 14.0109C13.4888 13.8568 13.3481 13.6415 13.2863 13.3987L13.125 12.75C13.125 13.1478 12.967 13.5294 12.6857 13.8107C12.4044 14.092 12.0228 14.25 11.625 14.25H9.375V13.5C9.375 12.8038 9.65156 12.1361 10.1438 11.6438C10.6361 11.1516 11.3038 10.875 12 10.875C12.6962 10.875 13.3639 11.1516 13.8562 11.6438C14.3484 12.1361 14.625 12.8038 14.625 13.5ZM2.625 13.125V12.375C2.625 12.0766 2.74353 11.7905 2.9545 11.5795C3.16548 11.3685 3.45163 11.25 3.75 11.25C4.04837 11.25 4.33452 11.3685 4.5455 11.5795C4.75647 11.7905 4.875 12.0766 4.875 12.375V13.125L4.125 12.375L3.59625 12.9037C3.5264 12.9738 3.44342 13.0295 3.35204 13.0674C3.26067 13.1054 3.1627 13.125 3.06375 13.125H2.625Z" fill="#57565C"/>
<path d="M6 15.855V16.5H1.5V15.855C1.49965 15.7116 1.54044 15.571 1.61754 15.45C1.69464 15.3291 1.80482 15.2328 1.935 15.1725L3.31875 14.5388C3.4554 14.5957 3.60197 14.625 3.75 14.625C3.89804 14.625 4.04461 14.5957 4.18125 14.5388L5.565 15.1725C5.69519 15.2328 5.80536 15.3291 5.88246 15.45C5.95957 15.571 6.00036 15.7116 6 15.855Z" fill="#FF9811"/>
<path d="M4.875 13.125V13.5C4.8757 13.7175 4.81321 13.9305 4.69511 14.1131C4.57702 14.2957 4.40842 14.4401 4.2098 14.5287C4.01119 14.6172 3.79111 14.6462 3.57634 14.6121C3.36156 14.5779 3.16133 14.4821 3 14.3362C2.98408 14.3235 2.96905 14.3098 2.955 14.295C2.85039 14.1907 2.76739 14.0668 2.71076 13.9304C2.65413 13.794 2.62499 13.6477 2.625 13.5V13.125H3.06375C3.1627 13.125 3.26067 13.1054 3.35204 13.0674C3.44342 13.0295 3.5264 12.9738 3.59625 12.9037L4.125 12.375L4.875 13.125Z" fill="#FFC477"/>
<path d="M22.5 15.855V16.5H18V15.855C17.9996 15.7116 18.0404 15.571 18.1175 15.45C18.1946 15.3291 18.3048 15.2328 18.435 15.1725L19.8188 14.5388C19.9554 14.5957 20.102 14.625 20.25 14.625C20.398 14.625 20.5446 14.5957 20.6813 14.5388L22.065 15.1725C22.1952 15.2328 22.3054 15.3291 22.3825 15.45C22.4596 15.571 22.5004 15.7116 22.5 15.855Z" fill="#FF9811"/>
<path d="M20.25 11.25C20.5484 11.25 20.8345 11.3685 21.0455 11.5795C21.2565 11.7905 21.375 12.0766 21.375 12.375V13.125L20.625 12.375L20.0963 12.9037C20.0264 12.9738 19.9434 13.0295 19.852 13.0674C19.7607 13.1054 19.6627 13.125 19.5637 13.125H19.125V12.375C19.125 12.0766 19.2435 11.7905 19.4545 11.5795C19.6655 11.3685 19.9516 11.25 20.25 11.25Z" fill="#57565C"/>
<path d="M21.375 13.125V13.5C21.3757 13.7175 21.3132 13.9305 21.1951 14.1131C21.077 14.2957 20.9084 14.4401 20.7098 14.5287C20.5112 14.6172 20.2911 14.6462 20.0763 14.6121C19.8616 14.5779 19.6613 14.4821 19.5 14.3362C19.4841 14.3235 19.469 14.3098 19.455 14.295C19.3504 14.1907 19.2674 14.0668 19.2108 13.9304C19.1541 13.794 19.125 13.6477 19.125 13.5V13.125H19.5637C19.6627 13.125 19.7607 13.1054 19.852 13.0674C19.9434 13.0295 20.0264 12.9738 20.0963 12.9037L20.625 12.375L21.375 13.125Z" fill="#FFC477"/>
<path d="M22.875 6.48001V7.12501H18.375V6.48001C18.3746 6.33656 18.4154 6.19601 18.4925 6.07505C18.5696 5.95408 18.6798 5.85776 18.81 5.79751L20.1938 5.16376C20.3304 5.22069 20.477 5.25001 20.625 5.25001C20.773 5.25001 20.9196 5.22069 21.0563 5.16376L22.44 5.79751C22.5702 5.85776 22.6804 5.95408 22.7575 6.07505C22.8346 6.19601 22.8754 6.33656 22.875 6.48001Z" fill="#00CCB3"/>
<path d="M20.625 1.875C20.9234 1.875 21.2095 1.99353 21.4205 2.2045C21.6315 2.41548 21.75 2.70163 21.75 3V3.75L21 3L20.4713 3.52875C20.4014 3.59884 20.3184 3.65446 20.227 3.69242C20.1357 3.73039 20.0377 3.74996 19.9387 3.75H19.5V3C19.5 2.70163 19.6185 2.41548 19.8295 2.2045C20.0405 1.99353 20.3266 1.875 20.625 1.875Z" fill="#57565C"/>
<path d="M21.75 3.75V4.125C21.7507 4.34247 21.6882 4.55547 21.5701 4.73809C21.452 4.92071 21.2834 5.06508 21.0848 5.15367C20.8862 5.24225 20.6661 5.27122 20.4513 5.23706C20.2366 5.2029 20.0363 5.10708 19.875 4.96125C19.8591 4.94853 19.844 4.93475 19.83 4.92C19.7254 4.81572 19.6424 4.69182 19.5858 4.55539C19.5291 4.41897 19.5 4.27271 19.5 4.125V3.75H19.9387C20.0377 3.74996 20.1357 3.73039 20.227 3.69242C20.3184 3.65446 20.4014 3.59884 20.4713 3.52875L21 3L21.75 3.75ZM13.125 3V3.375C13.1257 3.59247 13.0632 3.80547 12.9451 3.98809C12.827 4.17071 12.6584 4.31508 12.4598 4.40367C12.2612 4.49225 12.0411 4.52122 11.8263 4.48706C11.6116 4.4529 11.4113 4.35708 11.25 4.21125C11.2341 4.19853 11.219 4.18475 11.205 4.17C11.1004 4.06572 11.0174 3.94182 10.9608 3.80539C10.9041 3.66897 10.875 3.52271 10.875 3.375V3H11.3138C11.4127 2.99996 11.5107 2.98039 11.602 2.94242C11.6934 2.90446 11.7764 2.84884 11.8463 2.77875L12.375 2.25L13.125 3Z" fill="#FFC477"/>
<path d="M10.875 3V2.25C10.875 1.95163 10.9935 1.66548 11.2045 1.4545C11.4155 1.24353 11.7016 1.125 12 1.125C12.2984 1.125 12.5845 1.24353 12.7955 1.4545C13.0065 1.66548 13.125 1.95163 13.125 2.25V3L12.375 2.25L11.8463 2.77875C11.7764 2.84884 11.6934 2.90446 11.602 2.94242C11.5107 2.98039 11.4127 2.99996 11.3138 3H10.875Z" fill="#57565C"/>
<path d="M14.25 5.73001V6.37501H9.75V5.73001C9.74965 5.58656 9.79044 5.44601 9.86754 5.32504C9.94464 5.20408 10.0548 5.10776 10.185 5.04751L11.5688 4.41376C11.7054 4.47069 11.852 4.50001 12 4.50001C12.148 4.50001 12.2946 4.47069 12.4313 4.41376L13.815 5.04751C13.9452 5.10776 14.0554 5.20408 14.1325 5.32504C14.2096 5.44601 14.2504 5.58656 14.25 5.73001Z" fill="#FF5023"/>
<path d="M5.625 6.48001V7.12501H1.125V6.48001C1.12465 6.33656 1.16544 6.19601 1.24254 6.07505C1.31964 5.95408 1.42982 5.85776 1.56 5.79751L2.94375 5.16376C3.0804 5.22069 3.22697 5.25001 3.375 5.25001C3.52304 5.25001 3.66961 5.22069 3.80625 5.16376L5.19 5.79751C5.32019 5.85776 5.43036 5.95408 5.50746 6.07505C5.58457 6.19601 5.62536 6.33656 5.625 6.48001Z" fill="#00CCB3"/>
<path d="M2.94375 5.16375C2.82658 5.11521 2.71873 5.04669 2.625 4.96125C2.60908 4.94853 2.59405 4.93475 2.58 4.92C2.47539 4.81572 2.39239 4.69182 2.33576 4.55539C2.27913 4.41897 2.24999 4.27271 2.25 4.125V3.75H2.68875C2.7877 3.74996 2.88567 3.73039 2.97704 3.69242C3.06842 3.65446 3.1514 3.59884 3.22125 3.52875L3.75 3L4.5 3.75V4.125C4.49995 4.31005 4.45425 4.49223 4.36696 4.65539C4.27966 4.81855 4.15347 4.95767 3.99956 5.0604C3.84565 5.16313 3.66877 5.22631 3.4846 5.24434C3.30043 5.26236 3.11466 5.23469 2.94375 5.16375Z" fill="#FFC477"/>
<path d="M2.25 3.75V3C2.25 2.70163 2.36853 2.41548 2.5795 2.2045C2.79048 1.99353 3.07663 1.875 3.375 1.875C3.67337 1.875 3.95952 1.99353 4.1705 2.2045C4.38147 2.41548 4.5 2.70163 4.5 3V3.75L3.75 3L3.22125 3.52875C3.1514 3.59884 3.06842 3.65446 2.97704 3.69242C2.88567 3.73039 2.7877 3.74996 2.68875 3.75H2.25Z" fill="#57565C"/>
<path d="M19.875 10.125H16.125V9.375H19.875C19.9745 9.375 20.0698 9.33549 20.1402 9.26517C20.2105 9.19484 20.25 9.09946 20.25 9V8.25H21V9C21 9.29837 20.8815 9.58452 20.6705 9.7955C20.4595 10.0065 20.1734 10.125 19.875 10.125ZM7.875 10.125H4.125C3.82663 10.125 3.54048 10.0065 3.3295 9.7955C3.11853 9.58452 3 9.29837 3 9V8.25H3.75V9C3.75 9.09946 3.78951 9.19484 3.85984 9.26517C3.93016 9.33549 4.02554 9.375 4.125 9.375H7.875V10.125ZM11.625 7.5H12.375V9.75H11.625V7.5ZM16.875 19.5H16.125C16.125 19.2016 16.2435 18.9155 16.4545 18.7045C16.6655 18.4935 16.9516 18.375 17.25 18.375H19.5C19.5995 18.375 19.6948 18.3355 19.7652 18.2652C19.8355 18.1948 19.875 18.0995 19.875 18V17.625H20.625V18C20.625 18.2984 20.5065 18.5845 20.2955 18.7955C20.0845 19.0065 19.7984 19.125 19.5 19.125H17.25C17.1505 19.125 17.0552 19.1645 16.9848 19.2348C16.9145 19.3052 16.875 19.4005 16.875 19.5ZM7.875 19.5H7.125C7.125 19.4005 7.08549 19.3052 7.01517 19.2348C6.94484 19.1645 6.84946 19.125 6.75 19.125H4.5C4.20163 19.125 3.91548 19.0065 3.7045 18.7955C3.49353 18.5845 3.375 18.2984 3.375 18V17.625H4.125V18C4.125 18.0995 4.16451 18.1948 4.23484 18.2652C4.30516 18.3355 4.40054 18.375 4.5 18.375H6.75C7.04837 18.375 7.33452 18.4935 7.5455 18.7045C7.75647 18.9155 7.875 19.2016 7.875 19.5Z" fill="#FFA733"/>
<path d="M10.5 15H11.25V15.75H10.5V15ZM12.75 15H13.5V15.75H12.75V15Z" fill="#EE8700"/>
</svg>
