<svg width="24" height="24" viewBox="0 0 24 24" fill="none" xmlns="http://www.w3.org/2000/svg">
<path fill-rule="evenodd" clip-rule="evenodd" d="M19.3983 4.29541C20.7989 5.05854 21.7499 6.5439 21.7499 8.24978V15.7498C21.7499 18.2334 19.7336 20.2498 17.2499 20.2498H9.74994C7.59369 20.2498 5.78956 18.7299 5.35156 16.7041C5.99019 17.0521 6.72219 17.2498 7.49994 17.2498H14.9999C17.4836 17.2498 19.4999 15.2334 19.4999 12.7498V5.24978C19.4999 4.9224 19.4651 4.60329 19.3983 4.29541Z" fill="#3FC1C9"/>
<path fill-rule="evenodd" clip-rule="evenodd" d="M15.7502 11.25H2.24994C1.83603 11.25 1.50024 11.586 1.50024 12C1.50024 12.414 1.83603 12.75 2.24994 12.75H15.7502C16.1641 12.75 16.4999 12.414 16.4999 12C16.4999 11.586 16.1641 11.25 15.7502 11.25Z" fill="#364F6B"/>
<path fill-rule="evenodd" clip-rule="evenodd" d="M14.6896 11.9999L11.4698 8.78016C11.177 8.48766 11.177 8.01216 11.4698 7.71966C11.7623 7.42678 12.2378 7.42678 12.5303 7.71966L16.2803 11.4697C16.5732 11.7625 16.5732 12.2373 16.2803 12.5302L12.5303 16.2802C12.2378 16.573 11.7623 16.573 11.4698 16.2802C11.177 15.9877 11.177 15.5122 11.4698 15.2197L14.6896 11.9999Z" fill="#364F6B"/>
<path fill-rule="evenodd" clip-rule="evenodd" d="M4.5 15V15.75C4.5 18.6476 6.85238 21 9.75 21H17.25C20.1476 21 22.5 18.6476 22.5 15.75V8.25C22.5 5.35238 20.1476 3 17.25 3H9.75C6.85238 3 4.5 5.35238 4.5 8.25V12C4.5 12.414 4.836 12.75 5.25 12.75C5.664 12.75 6 12.414 6 12V8.25C6 6.18038 7.68038 4.5 9.75 4.5H17.25C19.3196 4.5 21 6.18038 21 8.25V15.75C21 17.8196 19.3196 19.5 17.25 19.5H9.75C7.68038 19.5 6 17.8196 6 15.75V15C6 14.586 5.664 14.25 5.25 14.25C4.836 14.25 4.5 14.586 4.5 15Z" fill="#364F6B"/>
</svg>
