<svg width="24" height="24" viewBox="0 0 24 24" fill="none" xmlns="http://www.w3.org/2000/svg">
<g clip-path="url(#clip0_3900_4407)">
<path d="M23.5 18.5V19.5C23.5 19.7652 23.3946 20.0196 23.2071 20.2071C23.0196 20.3946 22.7652 20.5 22.5 20.5H21.23C21.0542 20.1969 20.8018 19.9453 20.4982 19.7705C20.1946 19.5956 19.8504 19.5035 19.5 19.5035C19.1496 19.5035 18.8054 19.5956 18.5018 19.7705C18.1982 19.9453 17.9458 20.1969 17.77 20.5H6.23C6.05419 20.1969 5.80184 19.9453 5.49823 19.7705C5.19461 19.5956 4.85038 19.5035 4.5 19.5035C4.14962 19.5035 3.80539 19.5956 3.50177 19.7705C3.19816 19.9453 2.94581 20.1969 2.77 20.5H1.5C1.23478 20.5 0.98043 20.3946 0.792893 20.2071C0.605357 20.0196 0.5 19.7652 0.5 19.5V18.5C0.5 18.2348 0.605357 17.9804 0.792893 17.7929C0.98043 17.6054 1.23478 17.5 1.5 17.5H22.5C22.7652 17.5 23.0196 17.6054 23.2071 17.7929C23.3946 17.9804 23.5 18.2348 23.5 18.5Z" fill="#747575"/>
<path d="M3.5 14.5H0.5V17.5H3.5V14.5Z" fill="#7C7D7D"/>
<path d="M3.5 14.5V17H3C2.46957 17 1.96086 16.7893 1.58579 16.4142C1.21071 16.0391 1 15.5304 1 15V14.5H3.5Z" fill="#747575"/>
<path d="M5.5 3.5V17.5H3.5V4C3.5 3.60218 3.34196 3.22064 3.06066 2.93934C2.77936 2.65804 2.39782 2.5 2 2.5H1.5C1.23478 2.5 0.98043 2.39464 0.792893 2.20711C0.605357 2.01957 0.5 1.76522 0.5 1.5C0.5 1.23478 0.605357 0.98043 0.792893 0.792893C0.98043 0.605357 1.23478 0.5 1.5 0.5H2.5C3.29565 0.5 4.05871 0.81607 4.62132 1.37868C5.18393 1.94129 5.5 2.70435 5.5 3.5Z" fill="#DAD7E5"/>
<path d="M4.49991 15.5V3.50001C4.49991 2.96957 4.28919 2.46087 3.91412 2.08579C3.53905 1.71072 3.03034 1.50001 2.49991 1.50001C2.23469 1.50001 1.98034 1.39465 1.7928 1.20711C1.60527 1.01958 1.49991 0.765225 1.49991 0.500008C1.36066 0.499443 1.22282 0.527967 1.09523 0.583753C0.967646 0.63954 0.853115 0.721358 0.758976 0.823969C0.664838 0.92658 0.593168 1.04772 0.548556 1.17963C0.503944 1.31155 0.487375 1.45132 0.499909 1.59001C0.532013 1.84534 0.657641 2.0797 0.852505 2.24778C1.04737 2.41586 1.29763 2.50573 1.55491 2.50001H1.99991C2.39773 2.50001 2.77926 2.65804 3.06057 2.93935C3.34187 3.22065 3.49991 3.60218 3.49991 4.00001V17.5H5.49991V16.5C5.23469 16.5 4.98034 16.3946 4.7928 16.2071C4.60526 16.0196 4.49991 15.7652 4.49991 15.5Z" fill="#C6C3D8"/>
<path d="M21.1401 22.64C20.9439 22.9228 20.6781 23.1502 20.3683 23.3002C20.0585 23.4501 19.7152 23.5176 19.3717 23.4961C19.0282 23.4746 18.6961 23.3647 18.4074 23.1773C18.1188 22.9898 17.8834 22.731 17.7241 22.4259C17.5647 22.1208 17.4868 21.7798 17.4979 21.4358C17.5089 21.0918 17.6086 20.7564 17.7872 20.4622C17.9657 20.168 18.2173 19.9248 18.5173 19.7563C18.8174 19.5877 19.1559 19.4994 19.5001 19.5C19.865 19.5006 20.2227 19.601 20.5346 19.7903C20.8465 19.9797 21.1007 20.2507 21.2696 20.5741C21.4385 20.8975 21.5157 21.261 21.4929 21.6251C21.4701 21.9893 21.3481 22.3402 21.1401 22.64Z" fill="#374F68"/>
<path d="M21.32 22.3198C20.9506 22.484 20.5401 22.5324 20.1426 22.4586C19.745 22.3849 19.3792 22.1923 19.0934 21.9065C18.8075 21.6206 18.6149 21.2548 18.5412 20.8573C18.4674 20.4598 18.5158 20.0492 18.68 19.6798C19.0495 19.5155 19.46 19.4671 19.8575 19.5409C20.255 19.6147 20.6208 19.8072 20.9067 20.0931C21.1926 20.379 21.3851 20.7448 21.4589 21.1423C21.5327 21.5398 21.4843 21.9503 21.32 22.3198Z" fill="#425B72"/>
<path d="M6.14011 22.64C5.94393 22.9228 5.67808 23.1502 5.36828 23.3002C5.05849 23.4501 4.71524 23.5176 4.37172 23.4961C4.02821 23.4746 3.69607 23.3647 3.40742 23.1773C3.11878 22.9898 2.8834 22.731 2.72406 22.4259C2.56472 22.1208 2.48681 21.7798 2.49786 21.4358C2.50891 21.0918 2.60855 20.7564 2.78715 20.4622C2.96575 20.168 3.21725 19.9248 3.51734 19.7563C3.81742 19.5877 4.15593 19.4994 4.50011 19.5C4.86498 19.5006 5.22272 19.601 5.53462 19.7903C5.84652 19.9797 6.10068 20.2507 6.26959 20.5741C6.43851 20.8975 6.51573 21.261 6.49291 21.6251C6.47009 21.9893 6.34809 22.3402 6.14011 22.64Z" fill="#374F68"/>
<path d="M6.32003 22.3198C5.95059 22.484 5.54006 22.5324 5.14255 22.4586C4.74505 22.3849 4.37924 22.1923 4.09336 21.9065C3.80748 21.6206 3.61495 21.2548 3.54116 20.8573C3.46737 20.4598 3.51579 20.0492 3.68003 19.6798C4.04946 19.5155 4.46 19.4671 4.8575 19.5409C5.25501 19.6147 5.62082 19.8072 5.9067 20.0931C6.19258 20.379 6.3851 20.7448 6.45889 21.1423C6.53268 21.5398 6.48426 21.9503 6.32003 22.3198Z" fill="#425B72"/>
<path d="M18.5 10.5H5.5V17.5H18.5V10.5Z" fill="#A87E6B"/>
<path d="M18.5 10.5V16.5H9.5C8.70435 16.5 7.94129 16.1839 7.37868 15.6213C6.81607 15.0587 6.5 14.2956 6.5 13.5V10.5H18.5Z" fill="#BE927C"/>
<path d="M12.5 3.5H5.5V10.5H12.5V3.5Z" fill="#A87E6B"/>
<path d="M12.5 3.5V9.5H9.5C8.70435 9.5 7.94129 9.18393 7.37868 8.62132C6.81607 8.05871 6.5 7.29565 6.5 6.5V3.5H12.5Z" fill="#BE927C"/>
<path d="M18.5 4.5H12.5V10.5H18.5V4.5Z" fill="#A87E6B"/>
<path d="M18.5 4.5V9.5H16.5C15.7044 9.5 14.9413 9.18393 14.3787 8.62132C13.8161 8.05871 13.5 7.29565 13.5 6.5V4.5H18.5Z" fill="#BE927C"/>
<path d="M10 3.5H8V5.5H10V3.5Z" fill="#F6CCAF"/>
<path d="M10 3.5V5C9.60218 5 9.22064 4.84196 8.93934 4.56066C8.65804 4.27936 8.5 3.89782 8.5 3.5H10Z" fill="#FFDEC7"/>
<path d="M16.5 4.5H14.5V6.5H16.5V4.5Z" fill="#F6CCAF"/>
<path d="M16.5 4.5V6C16.1022 6 15.7206 5.84196 15.4393 5.56066C15.158 5.27936 15 4.89782 15 4.5H16.5Z" fill="#FFDEC7"/>
<path d="M13 10.5H11V12.5H13V10.5Z" fill="#F6CCAF"/>
<path d="M13 10.5V12C12.6022 12 12.2206 11.842 11.9393 11.5607C11.658 11.2794 11.5 10.8978 11.5 10.5H13Z" fill="#FFDEC7"/>
<path d="M23.5 18.5V19H3C2.60218 19 2.22064 18.842 1.93934 18.5607C1.65804 18.2794 1.5 17.8978 1.5 17.5H22.5C22.7652 17.5 23.0196 17.6054 23.2071 17.7929C23.3946 17.9804 23.5 18.2348 23.5 18.5Z" fill="#7C7D7D"/>
<path d="M22.5001 17H19.0001V4.5C19.0001 4.36739 18.9474 4.24021 18.8537 4.14645C18.7599 4.05268 18.6327 4 18.5001 4H13.0001V3.5C13.0001 3.36739 12.9474 3.24021 12.8537 3.14645C12.7599 3.05268 12.6327 3 12.5001 3H5.96012C5.83998 2.1677 5.42421 1.40648 4.78885 0.85559C4.1535 0.304704 3.34104 0.000985554 2.50012 0L1.50012 0C1.10229 0 0.72076 0.158035 0.439455 0.43934C0.15815 0.720644 0.00011518 1.10218 0.00011518 1.5C0.00011518 1.89782 0.15815 2.27936 0.439455 2.56066C0.72076 2.84196 1.10229 3 1.50012 3H2.00012C2.26533 3 2.51969 3.10536 2.70722 3.29289C2.89476 3.48043 3.00012 3.73478 3.00012 4V14H0.500115C0.367507 14 0.24033 14.0527 0.146562 14.1464C0.0527936 14.2402 0.00011518 14.3674 0.00011518 14.5C0.00011518 17.805 -0.0548848 17.655 0.150115 17.855C-0.0298848 18.235 0.00011518 18.355 0.00011518 19.5C0.00011518 19.8978 0.15815 20.2794 0.439455 20.5607C0.72076 20.842 1.10229 21 1.50012 21H2.05012C1.97639 21.3631 1.98428 21.738 2.07323 22.0977C2.16218 22.4574 2.32996 22.7928 2.56443 23.0796C2.7989 23.3665 3.09421 23.5977 3.42898 23.7564C3.76375 23.9151 4.12962 23.9975 4.50012 23.9975C4.87062 23.9975 5.23648 23.9151 5.57125 23.7564C5.90602 23.5977 6.20133 23.3665 6.4358 23.0796C6.67027 22.7928 6.83805 22.4574 6.927 22.0977C7.01595 21.738 7.02384 21.3631 6.95012 21H17.0501C16.9764 21.3631 16.9843 21.738 17.0732 22.0977C17.1622 22.4574 17.33 22.7928 17.5644 23.0796C17.7989 23.3665 18.0942 23.5977 18.429 23.7564C18.7637 23.9151 19.1296 23.9975 19.5001 23.9975C19.8706 23.9975 20.2365 23.9151 20.5713 23.7564C20.906 23.5977 21.2013 23.3665 21.4358 23.0796C21.6703 22.7928 21.838 22.4574 21.927 22.0977C22.0159 21.738 22.0238 21.3631 21.9501 21H22.5001C22.8979 21 23.2795 20.842 23.5608 20.5607C23.8421 20.2794 24.0001 19.8978 24.0001 19.5V18.5C24.0001 18.1022 23.8421 17.7206 23.5608 17.4393C23.2795 17.158 22.8979 17 22.5001 17ZM6.00012 11H10.5001V12.5C10.5001 12.6326 10.5528 12.7598 10.6466 12.8536C10.7403 12.9473 10.8675 13 11.0001 13H13.0001C13.1327 13 13.2599 12.9473 13.3537 12.8536C13.4474 12.7598 13.5001 12.6326 13.5001 12.5V11H18.0001V17H6.00012V11ZM12.5001 11V12H11.5001V11H12.5001ZM16.0001 5V6H15.0001V5H16.0001ZM14.0001 5V6.5C14.0001 6.63261 14.0528 6.75979 14.1466 6.85355C14.2403 6.94732 14.3675 7 14.5001 7H16.5001C16.6327 7 16.7599 6.94732 16.8537 6.85355C16.9474 6.75979 17.0001 6.63261 17.0001 6.5V5H18.0001V10H13.0001V5H14.0001ZM12.0001 10H6.00012V4H7.50012V5.5C7.50012 5.63261 7.55279 5.75979 7.64656 5.85355C7.74033 5.94732 7.86751 6 8.00012 6H10.0001C10.1327 6 10.2599 5.94732 10.3537 5.85355C10.4474 5.75979 10.5001 5.63261 10.5001 5.5V4H12.0001V10ZM9.50012 4V5H8.50012V4H9.50012ZM2.00012 2H1.50012C1.36751 2 1.24033 1.94732 1.14656 1.85355C1.05279 1.75979 1.00012 1.63261 1.00012 1.5C1.00012 1.36739 1.05279 1.24021 1.14656 1.14645C1.24033 1.05268 1.36751 1 1.50012 1H2.50012C3.16316 1 3.79904 1.26339 4.26788 1.73223C4.73672 2.20107 5.00012 2.83696 5.00012 3.5V17H4.00012V4C4.00012 3.46957 3.7894 2.96086 3.41433 2.58579C3.03926 2.21071 2.53055 2 2.00012 2ZM1.00012 15H3.00012V17H1.00012V15ZM4.50012 23C4.20344 23 3.91343 22.912 3.66676 22.7472C3.42009 22.5824 3.22783 22.3481 3.1143 22.074C3.00076 21.7999 2.97106 21.4983 3.02894 21.2074C3.08682 20.9164 3.22968 20.6491 3.43946 20.4393C3.64923 20.2296 3.91651 20.0867 4.20748 20.0288C4.49845 19.9709 4.80005 20.0007 5.07414 20.1142C5.34823 20.2277 5.5825 20.42 5.74732 20.6666C5.91214 20.9133 6.00012 21.2033 6.00012 21.5C6.00012 21.8978 5.84208 22.2794 5.56078 22.5607C5.27947 22.842 4.89794 23 4.50012 23ZM19.5001 23C19.2034 23 18.9134 22.912 18.6668 22.7472C18.4201 22.5824 18.2278 22.3481 18.1143 22.074C18.0008 21.7999 17.9711 21.4983 18.0289 21.2074C18.0868 20.9164 18.2297 20.6491 18.4395 20.4393C18.6492 20.2296 18.9165 20.0867 19.2075 20.0288C19.4985 19.9709 19.8 20.0007 20.0741 20.1142C20.3482 20.2277 20.5825 20.42 20.7473 20.6666C20.9121 20.9133 21.0001 21.2033 21.0001 21.5C21.0001 21.8978 20.8421 22.2794 20.5608 22.5607C20.2795 22.842 19.8979 23 19.5001 23ZM23.0001 19.5C23.0001 19.6326 22.9474 19.7598 22.8537 19.8536C22.7599 19.9473 22.6327 20 22.5001 20H21.5001C21.2711 19.684 20.9704 19.4267 20.6228 19.2493C20.2751 19.0719 19.8904 18.9794 19.5001 18.9794C19.1098 18.9794 18.7251 19.0719 18.3774 19.2493C18.0298 19.4267 17.7291 19.684 17.5001 20H6.50012C6.27109 19.684 5.97043 19.4267 5.62278 19.2493C5.27514 19.0719 4.8904 18.9794 4.50012 18.9794C4.10983 18.9794 3.72509 19.0719 3.37745 19.2493C3.0298 19.4267 2.72915 19.684 2.50012 20H1.50012C1.36751 20 1.24033 19.9473 1.14656 19.8536C1.05279 19.7598 1.00012 19.6326 1.00012 19.5V18.5C1.00012 18.3674 1.05279 18.2402 1.14656 18.1464C1.24033 18.0527 1.36751 18 1.50012 18H22.5001C22.6327 18 22.7599 18.0527 22.8537 18.1464C22.9474 18.2402 23.0001 18.3674 23.0001 18.5V19.5Z" fill="black"/>
<path d="M4.5 21C4.36739 21 4.24021 21.0527 4.14645 21.1464C4.05268 21.2402 4 21.3674 4 21.5C4 21.6326 4.05268 21.7598 4.14645 21.8536C4.24021 21.9473 4.36739 22 4.5 22C4.63261 22 4.75978 21.9473 4.85355 21.8536C4.94732 21.7598 5 21.6326 5 21.5C5 21.3674 4.94732 21.2402 4.85355 21.1464C4.75978 21.0527 4.63261 21 4.5 21ZM19.5 21C19.3674 21 19.2402 21.0527 19.1464 21.1464C19.0527 21.2402 19 21.3674 19 21.5C19 21.6326 19.0527 21.7598 19.1464 21.8536C19.2402 21.9473 19.3674 22 19.5 22C19.6326 22 19.7598 21.9473 19.8535 21.8536C19.9473 21.7598 20 21.6326 20 21.5C20 21.3674 19.9473 21.2402 19.8535 21.1464C19.7598 21.0527 19.6326 21 19.5 21ZM8.5 8H7.5C7.36739 8 7.24021 8.05268 7.14645 8.14645C7.05268 8.24021 7 8.36739 7 8.5C7 8.63261 7.05268 8.75979 7.14645 8.85355C7.24021 8.94732 7.36739 9 7.5 9H8.5C8.63261 9 8.75978 8.94732 8.85355 8.85355C8.94732 8.75979 9 8.63261 9 8.5C9 8.36739 8.94732 8.24021 8.85355 8.14645C8.75978 8.05268 8.63261 8 8.5 8ZM8.5 15H7.5C7.36739 15 7.24021 15.0527 7.14645 15.1464C7.05268 15.2402 7 15.3674 7 15.5C7 15.6326 7.05268 15.7598 7.14645 15.8536C7.24021 15.9473 7.36739 16 7.5 16H8.5C8.63261 16 8.75978 15.9473 8.85355 15.8536C8.94732 15.7598 9 15.6326 9 15.5C9 15.3674 8.94732 15.2402 8.85355 15.1464C8.75978 15.0527 8.63261 15 8.5 15Z" fill="black"/>
</g>
<defs>
<clipPath id="clip0_3900_4407">
<rect width="24" height="24" fill="white"/>
</clipPath>
</defs>
</svg>
