<svg width="24" height="24" viewBox="0 0 24 24" fill="none" xmlns="http://www.w3.org/2000/svg">
<path d="M22.5974 15L16.9724 13.5C16.9165 13.4854 16.858 13.4839 16.8014 13.4956C16.7448 13.5073 16.6916 13.5319 16.6461 13.5675C16.5992 13.6036 16.5615 13.6503 16.5361 13.7037C16.5107 13.7572 16.4983 13.8159 16.4999 13.875V22.5C16.4999 22.5995 16.5394 22.6949 16.6097 22.7652C16.6801 22.8355 16.7754 22.875 16.8749 22.875H22.4999C22.5994 22.875 22.6947 22.8355 22.7651 22.7652C22.8354 22.6949 22.8749 22.5995 22.8749 22.5V15.375C22.8778 15.2904 22.8519 15.2072 22.8016 15.1391C22.7512 15.071 22.6792 15.022 22.5974 15Z" fill="#01568D"/>
<path d="M16.875 13.5H1.5C1.29289 13.5 1.125 13.6679 1.125 13.875V22.5C1.125 22.7071 1.29289 22.875 1.5 22.875H16.875C17.0821 22.875 17.25 22.7071 17.25 22.5V13.875C17.25 13.6679 17.0821 13.5 16.875 13.5Z" fill="url(#paint0_linear_3900_4443)"/>
<path d="M13.875 1.125H9.75C9.54289 1.125 9.375 1.29289 9.375 1.5V4.125C9.375 4.33211 9.54289 4.5 9.75 4.5H13.875C14.0821 4.5 14.25 4.33211 14.25 4.125V1.5C14.25 1.29289 14.0821 1.125 13.875 1.125Z" fill="url(#paint1_linear_3900_4443)"/>
<path d="M22.77 15.0563L13.02 9.13125C13.2416 9.00361 13.4348 8.83197 13.5876 8.62689C13.7405 8.42181 13.8497 8.18763 13.9087 7.93875C14.0169 7.48836 13.9545 7.01387 13.7336 6.60673C13.5128 6.19959 13.149 5.88862 12.7125 5.73375C12.6432 5.71067 12.5821 5.66785 12.5368 5.61056C12.4915 5.55327 12.4639 5.484 12.4575 5.41125V4.5H13.9575C14.0569 4.5 14.1523 4.46049 14.2226 4.39016C14.2929 4.31984 14.3325 4.22446 14.3325 4.125V1.5C14.3325 1.40054 14.2929 1.30516 14.2226 1.23483C14.1523 1.16451 14.0569 1.125 13.9575 1.125H9.82496C9.7255 1.125 9.63012 1.16451 9.55979 1.23483C9.48946 1.30516 9.44996 1.40054 9.44996 1.5V4.125C9.44996 4.22446 9.48946 4.31984 9.55979 4.39016C9.63012 4.46049 9.7255 4.5 9.82496 4.5H11.7V5.41125C11.7018 5.63943 11.7752 5.86128 11.9098 6.04559C12.0443 6.2299 12.2332 6.3674 12.45 6.43875C12.6588 6.51415 12.8407 6.64967 12.9727 6.82823C13.1046 7.0068 13.1808 7.22043 13.1916 7.44222C13.2024 7.664 13.1473 7.88402 13.0333 8.07456C12.9193 8.2651 12.7515 8.41764 12.5509 8.51297C12.3504 8.60829 12.1261 8.64214 11.9064 8.61024C11.6866 8.57834 11.4812 8.48213 11.316 8.33372C11.1509 8.18532 11.0333 7.99135 10.9782 7.77626C10.9231 7.56116 10.9328 7.33456 11.0062 7.125L10.2862 6.9075C10.1601 7.29733 10.1651 7.71774 10.3006 8.10443C10.436 8.49113 10.6944 8.82281 11.0362 9.04875L1.41745 13.5338C1.35236 13.5639 1.29727 13.612 1.25872 13.6725C1.22017 13.733 1.19977 13.8033 1.19995 13.875V22.5C1.19995 22.5995 1.23946 22.6948 1.30979 22.7652C1.38011 22.8355 1.4755 22.875 1.57495 22.875H22.575C22.6744 22.875 22.7698 22.8355 22.8401 22.7652C22.9105 22.6948 22.95 22.5995 22.95 22.5V15.375C22.9497 15.3109 22.933 15.248 22.9015 15.1922C22.87 15.1364 22.8247 15.0896 22.77 15.0563ZM10.2 1.875H13.575V3.75H10.2V1.875ZM11.7187 9.5775L15.9862 13.5H3.2737L11.7187 9.5775ZM17.1375 13.5375L13.845 10.5L20.145 14.3287L17.1375 13.5375ZM1.94995 14.25H16.575V22.125H1.94995V14.25ZM22.2 22.125H17.325V14.3625L22.2 15.6637V22.125Z" fill="url(#paint2_linear_3900_4443)"/>
<path d="M3.82495 15.75H3.07495V20.25H3.82495V15.75Z" fill="url(#paint3_linear_3900_4443)"/>
<path d="M6.07495 15.75H5.32495V20.25H6.07495V15.75Z" fill="url(#paint4_linear_3900_4443)"/>
<path d="M8.32495 15.75H7.57495V20.25H8.32495V15.75Z" fill="url(#paint5_linear_3900_4443)"/>
<path d="M10.575 15.75H9.82495V20.25H10.575V15.75Z" fill="url(#paint6_linear_3900_4443)"/>
<path d="M12.825 15.75H12.075V20.25H12.825V15.75Z" fill="url(#paint7_linear_3900_4443)"/>
<path d="M15.075 15.75H14.325V20.25H15.075V15.75Z" fill="url(#paint8_linear_3900_4443)"/>
<path d="M19.5749 16.125H18.825V20.625H19.5749V16.125Z" fill="url(#paint9_linear_3900_4443)"/>
<path d="M21.45 16.5H20.7V20.625H21.45V16.5Z" fill="url(#paint10_linear_3900_4443)"/>
<defs>
<linearGradient id="paint0_linear_3900_4443" x1="9.1875" y1="13.5" x2="9.1875" y2="22.875" gradientUnits="userSpaceOnUse">
<stop stop-color="#42BFFF"/>
<stop offset="1" stop-color="#1174AC"/>
</linearGradient>
<linearGradient id="paint1_linear_3900_4443" x1="11.8125" y1="1.125" x2="11.8125" y2="4.5" gradientUnits="userSpaceOnUse">
<stop stop-color="#FFC033"/>
<stop offset="1" stop-color="#EF8E2E"/>
</linearGradient>
<linearGradient id="paint2_linear_3900_4443" x1="12.075" y1="22.875" x2="12.075" y2="1.125" gradientUnits="userSpaceOnUse">
<stop stop-color="#000406"/>
<stop offset="1" stop-color="#001521"/>
</linearGradient>
<linearGradient id="paint3_linear_3900_4443" x1="3.44995" y1="20.25" x2="3.44995" y2="15.75" gradientUnits="userSpaceOnUse">
<stop stop-color="#000406"/>
<stop offset="1" stop-color="#001521"/>
</linearGradient>
<linearGradient id="paint4_linear_3900_4443" x1="5.69995" y1="20.25" x2="5.69995" y2="15.75" gradientUnits="userSpaceOnUse">
<stop stop-color="#000406"/>
<stop offset="1" stop-color="#001521"/>
</linearGradient>
<linearGradient id="paint5_linear_3900_4443" x1="7.94995" y1="20.25" x2="7.94995" y2="15.75" gradientUnits="userSpaceOnUse">
<stop stop-color="#000406"/>
<stop offset="1" stop-color="#001521"/>
</linearGradient>
<linearGradient id="paint6_linear_3900_4443" x1="10.2" y1="20.25" x2="10.2" y2="15.75" gradientUnits="userSpaceOnUse">
<stop stop-color="#000406"/>
<stop offset="1" stop-color="#001521"/>
</linearGradient>
<linearGradient id="paint7_linear_3900_4443" x1="12.45" y1="20.25" x2="12.45" y2="15.75" gradientUnits="userSpaceOnUse">
<stop stop-color="#000406"/>
<stop offset="1" stop-color="#001521"/>
</linearGradient>
<linearGradient id="paint8_linear_3900_4443" x1="14.7" y1="20.25" x2="14.7" y2="15.75" gradientUnits="userSpaceOnUse">
<stop stop-color="#000406"/>
<stop offset="1" stop-color="#001521"/>
</linearGradient>
<linearGradient id="paint9_linear_3900_4443" x1="19.2" y1="20.625" x2="19.2" y2="16.125" gradientUnits="userSpaceOnUse">
<stop stop-color="#000406"/>
<stop offset="1" stop-color="#001521"/>
</linearGradient>
<linearGradient id="paint10_linear_3900_4443" x1="21.075" y1="20.625" x2="21.075" y2="16.5" gradientUnits="userSpaceOnUse">
<stop stop-color="#000406"/>
<stop offset="1" stop-color="#001521"/>
</linearGradient>
</defs>
</svg>
