<svg width="24" height="24" viewBox="0 0 24 24" fill="none" xmlns="http://www.w3.org/2000/svg">
<path d="M19.7554 6.18384H15.7883C15.2035 6.18384 14.7295 6.65787 14.7295 7.24266V15.918H22.5966V9.02501C21.4954 7.91325 20.8671 7.29207 19.7554 6.18384Z" fill="#FBC41A"/>
<path d="M22.5966 9.02505V15.918H14.7295V13.0787C19.2895 11.7764 19.1236 8.40737 19.1236 8.40737C19.2013 8.10031 19.2118 7.02737 19.2083 6.18384H19.7554C20.8671 7.29211 21.4954 7.91329 22.5966 9.02505Z" fill="#F59F02"/>
<path d="M22.5965 12.2942V13.2894H21.1848C21.0859 13.2894 21.0083 13.2118 21.0083 13.113V12.4707C21.0083 12.3718 21.0859 12.2942 21.1848 12.2942H22.5965Z" fill="#EF3D3D"/>
<path d="M19.2893 7.96118L19.0994 7.77197H17.0238C16.6339 7.77197 16.3179 8.088 16.3179 8.47786V9.77033C16.3179 10.55 16.9499 11.1821 17.7296 11.1821H20.6552C20.8501 11.1821 21.0081 11.024 21.0081 10.8291V9.67902C20.3836 9.0505 19.8932 8.56228 19.2893 7.96118Z" fill="#4DABF4"/>
<path d="M21.0083 9.67781V10.8284C21.0083 11.0225 20.8495 11.1813 20.6553 11.1813H17.8677C18.1915 11.2163 19.1448 9.37428 19.1448 8.10369C19.1448 8.00134 19.1377 7.89545 19.1235 7.79663L19.2895 7.96251C19.893 8.56251 20.3836 9.04957 21.0083 9.67781Z" fill="#1D7BD5"/>
<path d="M23.2953 14.6352V15.5688C23.2953 15.7618 23.1388 15.9183 22.9458 15.9183H14.7295V14.2856H22.9458C23.1388 14.2857 23.2953 14.4422 23.2953 14.6352Z" fill="#FF7E7E"/>
<path d="M2.33228 14.2856V15.5654C2.33228 15.7603 2.49029 15.9183 2.68522 15.9183H14.7297V14.2856H2.33228Z" fill="#C7CBD1"/>
<path d="M20.7772 16.0522C20.7772 17.026 19.9882 17.8151 19.0143 17.8151C18.0369 17.8151 17.2478 17.026 17.2478 16.0522C17.2478 15.0747 18.0369 14.2856 19.0143 14.2856C19.9882 14.2857 20.7772 15.0748 20.7772 16.0522Z" fill="white"/>
<path d="M19.0129 16.6386C19.3379 16.6386 19.6013 16.3752 19.6013 16.0503C19.6013 15.7253 19.3379 15.4619 19.0129 15.4619C18.688 15.4619 18.4246 15.7253 18.4246 16.0503C18.4246 16.3752 18.688 16.6386 19.0129 16.6386Z" fill="#C7CBD1"/>
<path d="M7.25085 16.0522C7.25085 17.026 6.46181 17.8151 5.48794 17.8151C4.51051 17.8151 3.72144 17.026 3.72144 16.0522C3.72144 15.0747 4.51051 14.2856 5.48794 14.2856C6.46181 14.2857 7.25085 15.0748 7.25085 16.0522ZM10.7803 16.0522C10.7803 17.026 9.99122 17.8151 9.01735 17.8151C8.03992 17.8151 7.25085 17.026 7.25085 16.0522C7.25085 15.0747 8.03992 14.2856 9.01735 14.2856C9.99122 14.2857 10.7803 15.0748 10.7803 16.0522Z" fill="white"/>
<path d="M9.01633 16.6386C9.34127 16.6386 9.60468 16.3752 9.60468 16.0503C9.60468 15.7253 9.34127 15.4619 9.01633 15.4619C8.69139 15.4619 8.42798 15.7253 8.42798 16.0503C8.42798 16.3752 8.69139 16.6386 9.01633 16.6386Z" fill="#C7CBD1"/>
<path d="M5.48679 16.6386C5.81173 16.6386 6.07514 16.3752 6.07514 16.0503C6.07514 15.7253 5.81173 15.4619 5.48679 15.4619C5.16185 15.4619 4.89844 15.7253 4.89844 16.0503C4.89844 16.3752 5.16185 16.6386 5.48679 16.6386Z" fill="#C7CBD1"/>
<path d="M1.06022 10.6157C0.865322 10.6157 0.707275 10.7737 0.707275 10.9687V13.9329C0.707275 14.1278 0.865322 14.2858 1.06022 14.2858H14.7297V10.6157H1.06022Z" fill="#C7CBD1"/>
<path d="M14.7296 10.6167V14.2873H1.06022C0.866099 14.2873 0.707275 14.1285 0.707275 13.9343V13.292C8.87433 13.4014 11.8779 11.5979 12.9014 10.6167H14.7296V10.6167Z" fill="#A3A6A8"/>
<path d="M21.2577 9.43071C20.5872 8.75306 20.0683 8.2413 19.3483 7.5213C19.2813 7.45777 19.193 7.41895 19.1013 7.41895H17.0224C16.4401 7.41895 15.9636 7.89542 15.9636 8.47777V9.76953C15.9636 10.7437 16.7577 11.5342 17.7283 11.5342H20.6542C21.046 11.5342 21.3601 11.2201 21.3601 10.8284V9.67777C21.3601 9.586 21.3248 9.49777 21.2577 9.43071ZM20.6542 10.8284H17.7283C17.146 10.8284 16.6695 10.3554 16.6695 9.76953V8.47777C16.6695 8.28365 16.8283 8.12483 17.0224 8.12483H18.953L19.0413 8.21306C19.6095 8.77777 20.0789 9.24722 20.6542 9.826V10.8284Z" fill="#231F20"/>
<path d="M22.9483 13.9341V9.02468C22.9483 8.93292 22.913 8.84116 22.846 8.77763C21.8683 7.78586 21.2366 7.16115 20.0048 5.93292C19.9377 5.86939 19.8495 5.83057 19.7542 5.83057H15.7871C15.0107 5.83057 14.3754 6.46586 14.3754 7.24233V10.2635H1.05891C0.670674 10.2635 0.353027 10.5776 0.353027 10.9694V13.9341C0.353027 14.3223 0.670674 14.64 1.05891 14.64H1.98009V15.5647C1.98009 15.9529 2.2942 16.2706 2.68597 16.2706H3.38126C3.49067 17.3365 4.3942 18.1694 5.48832 18.1694C6.22244 18.1694 6.87185 17.7917 7.25303 17.22C7.63067 17.7917 8.28009 18.1694 9.01773 18.1694C10.1119 18.1694 11.0119 17.3365 11.1213 16.2706H16.906C17.0154 17.3365 17.9189 18.1694 19.013 18.1694C20.1071 18.1694 21.0107 17.3365 21.1201 16.2706H22.9448C23.333 16.2706 23.6471 15.9565 23.6471 15.5682V14.6365C23.6471 14.2482 23.3366 13.9341 22.9483 13.9341ZM3.42715 15.5647H2.68597V14.64H3.9142C3.68126 14.8976 3.51185 15.2153 3.42715 15.5647ZM5.48832 17.4635C4.70832 17.4635 4.07303 16.8282 4.07303 16.0517C4.07303 15.2717 4.70832 14.64 5.48479 14.64H5.48832C6.26479 14.64 6.89656 15.2717 6.89656 16.0517C6.89656 16.8282 6.26479 17.4635 5.48832 17.4635ZM7.25303 14.8835C7.19303 14.7953 7.1295 14.7141 7.05891 14.64H7.44362C7.37303 14.7141 7.3095 14.7953 7.25303 14.8835ZM9.01773 17.4635C8.23773 17.4635 7.60244 16.8282 7.60244 16.0517C7.60244 15.2717 8.23773 14.64 9.0142 14.64H9.01773C9.7942 14.64 10.426 15.2717 10.426 16.0517C10.426 16.8282 9.7942 17.4635 9.01773 17.4635ZM14.3754 15.5647H11.0754C10.9907 15.2153 10.8213 14.8976 10.5883 14.64H14.3754V15.5647ZM14.3754 13.9341H1.05891V10.9694H14.3754V13.9341ZM16.9554 15.5647H15.0813V14.64L17.4424 14.6365C17.206 14.8976 17.0366 15.2153 16.9554 15.5647ZM19.013 17.4635C18.2366 17.4635 17.6013 16.8282 17.6013 16.0517C17.6013 15.2717 18.2366 14.64 19.013 14.64C19.793 14.64 20.4248 15.2717 20.4248 16.0517C20.4248 16.8282 19.793 17.4635 19.013 17.4635ZM15.0813 13.9341V7.24233C15.0813 6.8541 15.3989 6.53645 15.7871 6.53645H19.6095C20.7566 7.68001 21.3424 8.26233 22.2424 9.16939V13.9341H15.0813ZM22.9413 15.5647H21.0707C20.9895 15.2117 20.8166 14.8976 20.5836 14.6365H22.9413V15.5647Z" fill="#231F20"/>
</svg>
