<svg width="24" height="24" viewBox="0 0 24 24" fill="none" xmlns="http://www.w3.org/2000/svg">
<path d="M17.5499 0.75H11.9999H6.4499C6.4499 3.3 4.3999 5.35 1.8999 5.4C1.8999 8.05 1.8999 10.05 1.8999 13.55C1.8999 20.7 11.9999 23.25 11.9999 23.25C11.9999 23.25 22.0999 20.7 22.0999 13.55C22.0999 10.05 22.0999 8.05 22.0999 5.4C19.5499 5.35 17.5499 3.3 17.5499 0.75Z" fill="#FF7170"/>
<path d="M18.5999 9.8999H14.0999V5.3999H9.8999V9.8999H5.3999V14.0999H9.8999V18.5999H14.0999V14.0999H18.5999V9.8999Z" fill="white"/>
<path d="M12.0001 23.6501H12.1001C12.5001 23.5001 22.4501 20.9001 22.4501 13.5501V5.0001H22.1001C19.8001 4.9501 17.9001 3.0501 17.9001 0.750098V0.350098H6.10005V0.750098C6.10005 3.0501 4.20005 4.9501 1.90005 5.0001H1.55005V13.5001C1.55005 20.9001 11.5001 23.5001 11.9001 23.6001L12.0001 23.6501ZM2.30005 13.5501V5.7501C4.70005 5.5501 6.65005 3.5501 6.85005 1.1501H17.2001C17.4001 3.5501 19.3001 5.5501 21.7501 5.7501V13.5501C21.7001 19.9501 13.0001 22.6001 12.0001 22.8501C11.0001 22.6001 2.30005 19.9501 2.30005 13.5501Z" fill="black"/>
<path d="M14.5 18.95V14.45H19V9.5H14.5V5H9.5V9.5H5V14.5H9.5V19H14.5V18.95ZM5.8 13.75V10.3H10.3V5.8H13.75V10.3H18.25V13.75H13.75V18.25H10.3V13.75H5.8Z" fill="black"/>
</svg>
