<svg width="24" height="24" viewBox="0 0 24 24" fill="none" xmlns="http://www.w3.org/2000/svg">
<path d="M9.87677 21.0136H2.05933V16.2109C2.92009 15.3501 3.40262 14.8676 4.26339 14.0068H9.87672V21.0136H9.87677V21.0136Z" fill="#36C8E3"/>
<path d="M5.24298 14.0068H4.26339C3.40267 14.8676 2.92009 15.3501 2.05933 16.2109V21.0136H3.03892V16.2109C3.89969 15.3501 4.38226 14.8676 5.24298 14.0068Z" fill="#2A8CBD"/>
<path d="M8.26822 4.40186H6.79883V8.99809H8.26822V4.40186Z" fill="#B57E35"/>
<path d="M19.4879 4.40186H15.1013V6.6999H19.4879V4.40186Z" fill="#DB9840"/>
<path d="M16.0809 4.40186H15.1013V6.6999H16.0809V4.40186Z" fill="#B57E35"/>
<path d="M23.6328 3.66748H0.367432V5.13687H23.6328V3.66748Z" fill="#FFD359"/>
<path d="M1.34703 3.66748H0.367432V5.13687H1.34703V3.66748Z" fill="#DB9840"/>
<path d="M9.87729 8.36084H5.19092V21.0137H9.87729V8.36084Z" fill="#FFD359"/>
<path d="M6.17051 8.36084H5.19092V21.0137H6.17051V8.36084Z" fill="#DB9840"/>
<path d="M19.4882 10.4912H15.1016V11.4208H19.4882V10.4912Z" fill="#DB9840"/>
<path d="M18.032 9.44727H16.5698V10.4909H18.032V9.44727Z" fill="#FFD359"/>
<path d="M8.26822 15.5698H6.79883V17.0392H8.26822V15.5698Z" fill="#36C8E3"/>
<path d="M22.27 12.2256H12.3198V18.3274H22.27V12.2256Z" fill="#FF5948"/>
<path d="M13.2994 12.2256H12.3198V18.3274H13.2994V12.2256Z" fill="#D44A3C"/>
<path d="M7.5335 5.81748C8.3153 5.81748 8.94908 5.18371 8.94908 4.40191C8.94908 3.6201 8.3153 2.98633 7.5335 2.98633C6.7517 2.98633 6.11792 3.6201 6.11792 4.40191C6.11792 5.18371 6.7517 5.81748 7.5335 5.81748Z" fill="#DB9840"/>
<path d="M22.5899 11.3574H12V12.4541H22.5899V11.3574Z" fill="#FFD359"/>
<path d="M12.9796 11.3574H12V12.4541H12.9796V11.3574Z" fill="#DB9840"/>
<path d="M22.5899 18.0991H12V19.1958H22.5899V18.0991Z" fill="#FFD359"/>
<path d="M12.9796 18.0991H12V19.1958H12.9796V18.0991Z" fill="#DB9840"/>
<path d="M19.4885 7.06771C19.6914 7.06771 19.8558 6.90327 19.8558 6.7004V5.50452H23.6326C23.8356 5.50452 24 5.34009 24 5.13721V3.66805C24 3.46523 23.8356 3.30074 23.6326 3.30074H17.1428C16.9399 3.30074 16.7755 3.46518 16.7755 3.66805C16.7755 3.87093 16.9399 4.03537 17.1428 4.03537H23.2653V4.76995H9.27839C9.30333 4.6514 9.31659 4.52863 9.31659 4.40277C9.31659 4.27687 9.30328 4.15396 9.2783 4.03532H14.857C15.0599 4.03532 15.2243 3.87088 15.2243 3.66801C15.2243 3.46513 15.0599 3.3007 14.857 3.3007H8.93353C8.60677 2.88665 8.10098 2.62012 7.53375 2.62012C6.96652 2.62012 6.46069 2.88665 6.13397 3.3007H0.367359C0.164438 3.30074 0 3.46518 0 3.66805V5.13726C0 5.34009 0.164438 5.50457 0.367359 5.50457H6.13369C6.22092 5.61515 6.32095 5.71513 6.43148 5.80241V7.99368H5.19066C4.98773 7.99368 4.8233 8.15812 4.8233 8.36099V10.2715C4.8233 10.4744 4.98773 10.6388 5.19066 10.6388C5.39358 10.6388 5.55802 10.4744 5.55802 10.2715V8.72826H6.79509C6.79636 8.72826 6.79758 8.72845 6.79884 8.72845C6.80011 8.72845 6.80133 8.72826 6.80259 8.72826H8.26439C8.26566 8.72826 8.26687 8.72845 8.26814 8.72845C8.26941 8.72845 8.27063 8.72826 8.27189 8.72826H9.5093V14.0053C9.5093 14.0056 9.50925 14.0059 9.50925 14.0062V20.6447H5.55783V14.0109C5.55783 14.0093 5.55806 14.0077 5.55806 14.0061C5.55806 14.0046 5.55788 14.003 5.55783 14.0014V12.4431C5.55783 12.2403 5.39339 12.0758 5.19047 12.0758C4.98755 12.0758 4.82311 12.2403 4.82311 12.4431V13.6389H4.26366C4.16625 13.6389 4.07283 13.6776 4.00387 13.7465L1.80028 15.9497C1.73344 16.0162 1.69205 16.1083 1.69205 16.2101C1.69205 16.2113 1.69223 16.2126 1.69223 16.2138V17.2258C1.69223 17.2271 1.69205 17.2283 1.69205 17.2296C1.69205 17.2308 1.69223 17.232 1.69223 17.2333V18.2453C1.69223 18.2466 1.69205 18.2478 1.69205 18.2491C1.69205 18.2503 1.69223 18.2516 1.69223 18.2528V19.2648C1.69223 19.2661 1.69205 19.2673 1.69205 19.2686C1.69205 19.2698 1.69223 19.2711 1.69223 19.2723V20.6447H0.367359C0.164438 20.6447 0 20.8091 0 21.012C0 21.2148 0.164438 21.3793 0.367359 21.3793H2.0572C2.058 21.3793 2.05875 21.3794 2.05955 21.3794H9.87675C9.87755 21.3794 9.8783 21.3793 9.87909 21.3793H23.6326C23.8356 21.3793 24 21.2149 24 21.012C24 20.8092 23.8356 20.6447 23.6326 20.6447H10.2441V8.36085C10.2441 8.15802 10.0797 7.99354 9.87675 7.99354H8.63555V5.80265C8.74631 5.71532 8.84639 5.6152 8.93372 5.50452H14.734V6.7004C14.734 6.90323 14.8984 7.06771 15.1013 7.06771H16.9275V9.08005H16.5695C16.3665 9.08005 16.2021 9.24449 16.2021 9.44737V10.1236H15.1013C14.8984 10.1236 14.734 10.2881 14.734 10.4909V10.99H12C11.7971 10.99 11.6326 11.1544 11.6326 11.3573V12.4538C11.6326 12.6405 11.7721 12.7944 11.9525 12.8177V17.7338C11.7721 17.7571 11.6326 17.9109 11.6326 18.0977V19.1942C11.6326 19.3971 11.7971 19.5615 12 19.5615H16.5696C16.7725 19.5615 16.9369 19.3971 16.9369 19.1942C16.9369 18.9914 16.7725 18.8269 16.5696 18.8269H12.3674V18.4649H22.2226V18.8269H18.8082C18.6052 18.8269 18.4408 18.9914 18.4408 19.1942C18.4408 19.3971 18.6052 19.5615 18.8082 19.5615H22.59C22.7929 19.5615 22.9574 19.3971 22.9574 19.1942V18.0977C22.9574 17.9109 22.8179 17.7571 22.6374 17.7337V12.8176C22.8179 12.7943 22.9574 12.6405 22.9574 12.4537V11.3571C22.9574 11.1543 22.7929 10.9898 22.59 10.9898H19.8559V10.4908C19.8559 10.288 19.6914 10.1235 19.4885 10.1235H18.3992V9.44723C18.3992 9.2444 18.2347 9.07991 18.0318 9.07991H17.6623V7.06757H19.4885V7.06771ZM4.8233 16.5772V16.8622H2.42695V16.5772H4.8233ZM4.8233 17.8819H2.42695V17.5969H4.82334V17.8819H4.8233ZM2.42695 18.6164H4.82334V18.9014H2.42695V18.6164ZM4.41581 14.3734H4.8233V15.8427H2.94633L4.41581 14.3734ZM2.42695 19.636H4.82334V20.6447H2.42695V19.636ZM7.5337 3.35474C8.11167 3.35474 8.58187 3.8249 8.58187 4.40277C8.58187 4.98065 8.11162 5.45085 7.5337 5.45085C6.95578 5.45085 6.48553 4.9807 6.48553 4.40277C6.48553 3.82485 6.95578 3.35474 7.5337 3.35474ZM0.734672 4.76995V4.03532H5.78911C5.76412 4.15396 5.75081 4.27677 5.75081 4.40277C5.75081 4.52859 5.76408 4.6514 5.78902 4.76995H0.734672ZM7.90088 7.99359H7.1662V6.14709C7.28489 6.17207 7.40775 6.18538 7.53375 6.18538C7.65956 6.18538 7.78237 6.17212 7.90092 6.14718V7.99359H7.90088ZM21.9027 12.8211V17.7303H12.6872V12.8211H21.9027ZM22.2226 12.0864H12.3674V11.7245H22.2226V12.0864ZM19.1212 10.9899H15.4688V10.8581H19.1211V10.9899H19.1212ZM17.6644 10.1234H16.9369V9.81459H17.6644V10.1234ZM15.4688 5.50452H19.1211V6.33313H15.4688V5.50452Z" fill="black"/>
<path d="M6.30925 10.6389H8.75824C8.96116 10.6389 9.1256 10.4745 9.1256 10.2716C9.1256 10.0688 8.96116 9.9043 8.75824 9.9043H6.30925C6.10633 9.9043 5.94189 10.0687 5.94189 10.2716C5.94194 10.4745 6.10638 10.6389 6.30925 10.6389Z" fill="black"/>
<path d="M6.30925 11.7249H8.75824C8.96116 11.7249 9.1256 11.5604 9.1256 11.3575C9.1256 11.1547 8.96116 10.9902 8.75824 10.9902H6.30925C6.10633 10.9902 5.94189 11.1547 5.94189 11.3575C5.94194 11.5604 6.10638 11.7249 6.30925 11.7249Z" fill="black"/>
<path d="M6.30925 12.8108H8.75824C8.96116 12.8108 9.1256 12.6464 9.1256 12.4435C9.1256 12.2406 8.96116 12.0762 8.75824 12.0762H6.30925C6.10633 12.0762 5.94189 12.2406 5.94189 12.4435C5.94189 12.6464 6.10638 12.8108 6.30925 12.8108Z" fill="black"/>
<path d="M6.799 15.2017C6.59608 15.2017 6.43164 15.3661 6.43164 15.569V17.0382C6.43164 17.241 6.59608 17.4055 6.799 17.4055H8.26839C8.47131 17.4055 8.63575 17.2411 8.63575 17.0382V15.569C8.63575 15.3661 8.47131 15.2017 8.26839 15.2017H6.799ZM7.90108 16.6708H7.16641V15.9362H7.90108V16.6708Z" fill="black"/>
<path d="M13.6449 17.5969C13.8479 17.5969 14.0123 17.4325 14.0123 17.2296V13.3219C14.0123 13.1191 13.8479 12.9546 13.6449 12.9546C13.442 12.9546 13.2776 13.119 13.2776 13.3219V17.2296C13.2776 17.4324 13.442 17.5969 13.6449 17.5969Z" fill="black"/>
<path d="M15.1073 17.5969C15.3103 17.5969 15.4747 17.4325 15.4747 17.2296V13.3219C15.4747 13.1191 15.3103 12.9546 15.1073 12.9546C14.9044 12.9546 14.74 13.119 14.74 13.3219V17.2296C14.74 17.4324 14.9045 17.5969 15.1073 17.5969Z" fill="black"/>
<path d="M16.5695 17.5969C16.7724 17.5969 16.9369 17.4325 16.9369 17.2296V13.3219C16.9369 13.1191 16.7724 12.9546 16.5695 12.9546C16.3666 12.9546 16.2021 13.119 16.2021 13.3219V17.2296C16.2021 17.4324 16.3666 17.5969 16.5695 17.5969Z" fill="black"/>
<path d="M18.0317 17.5969C18.2346 17.5969 18.399 17.4325 18.399 17.2296V13.3219C18.399 13.1191 18.2346 12.9546 18.0317 12.9546C17.8287 12.9546 17.6643 13.119 17.6643 13.3219V17.2296C17.6643 17.4324 17.8288 17.5969 18.0317 17.5969Z" fill="black"/>
<path d="M19.4941 17.5969C19.697 17.5969 19.8614 17.4325 19.8614 17.2296V13.3219C19.8614 13.1191 19.697 12.9546 19.4941 12.9546C19.2911 12.9546 19.1267 13.119 19.1267 13.3219V17.2296C19.1267 17.4324 19.2911 17.5969 19.4941 17.5969Z" fill="black"/>
<path d="M20.9562 17.5969C21.1591 17.5969 21.3236 17.4325 21.3236 17.2296V13.3219C21.3236 13.1191 21.1591 12.9546 20.9562 12.9546C20.7533 12.9546 20.5889 13.119 20.5889 13.3219V17.2296C20.5889 17.4324 20.7534 17.5969 20.9562 17.5969Z" fill="black"/>
<path d="M7.53357 4.77027C7.73643 4.77027 7.90088 4.60582 7.90088 4.40296C7.90088 4.2001 7.73643 4.03564 7.53357 4.03564C7.33071 4.03564 7.16626 4.2001 7.16626 4.40296C7.16626 4.60582 7.33071 4.77027 7.53357 4.77027Z" fill="black"/>
</svg>
