<svg width="24" height="24" viewBox="0 0 24 24" fill="none" xmlns="http://www.w3.org/2000/svg">
<path d="M11.4167 21.332H4.41675C4.10733 21.332 3.81058 21.2091 3.59179 20.9903C3.373 20.7715 3.25008 20.4748 3.25008 20.1654V3.83203C3.25008 3.52261 3.373 3.22587 3.59179 3.00707C3.81058 2.78828 4.10733 2.66536 4.41675 2.66536H10.2501V6.16536C10.2501 7.09362 10.6188 7.98386 11.2752 8.64024C11.9316 9.29662 12.8218 9.66536 13.7501 9.66536H17.2501V15.4987C17.2501 15.8081 17.373 16.1049 17.5918 16.3237C17.8106 16.5424 18.1073 16.6654 18.4167 16.6654C18.7262 16.6654 19.0229 16.5424 19.2417 16.3237C19.4605 16.1049 19.5834 15.8081 19.5834 15.4987V8.4987C19.5834 8.4987 19.5834 8.4987 19.5834 8.4287C19.5713 8.32152 19.5478 8.21593 19.5134 8.1137V8.0087C19.4573 7.88874 19.3825 7.77847 19.2917 7.68203L12.2917 0.682031C12.1953 0.591283 12.085 0.516459 11.9651 0.460364C11.9265 0.453609 11.887 0.453609 11.8484 0.460364C11.735 0.399701 11.6131 0.35644 11.4867 0.332031H4.41675C3.48849 0.332031 2.59825 0.70078 1.94187 1.35716C1.2855 2.01353 0.916748 2.90377 0.916748 3.83203V20.1654C0.916748 21.0936 1.2855 21.9839 1.94187 22.6402C2.59825 23.2966 3.48849 23.6654 4.41675 23.6654H11.4167C11.7262 23.6654 12.0229 23.5424 12.2417 23.3237C12.4605 23.1049 12.5834 22.8081 12.5834 22.4987C12.5834 22.1893 12.4605 21.8925 12.2417 21.6737C12.0229 21.4549 11.7262 21.332 11.4167 21.332ZM12.5834 4.31036L15.6051 7.33203H13.7501C13.4407 7.33203 13.1439 7.20911 12.9251 6.99032C12.7063 6.77153 12.5834 6.47478 12.5834 6.16536V4.31036ZM6.75008 14.332H13.7501C14.0595 14.332 14.3562 14.2091 14.575 13.9903C14.7938 13.7715 14.9167 13.4748 14.9167 13.1654C14.9167 12.8559 14.7938 12.5592 14.575 12.3404C14.3562 12.1216 14.0595 11.9987 13.7501 11.9987H6.75008C6.44066 11.9987 6.14392 12.1216 5.92512 12.3404C5.70633 12.5592 5.58342 12.8559 5.58342 13.1654C5.58342 13.4748 5.70633 13.7715 5.92512 13.9903C6.14392 14.2091 6.44066 14.332 6.75008 14.332ZM11.4167 16.6654H6.75008C6.44066 16.6654 6.14392 16.7883 5.92512 17.0071C5.70633 17.2259 5.58342 17.5226 5.58342 17.832C5.58342 18.1414 5.70633 18.4382 5.92512 18.657C6.14392 18.8758 6.44066 18.9987 6.75008 18.9987H11.4167C11.7262 18.9987 12.0229 18.8758 12.2417 18.657C12.4605 18.4382 12.5834 18.1414 12.5834 17.832C12.5834 17.5226 12.4605 17.2259 12.2417 17.0071C12.0229 16.7883 11.7262 16.6654 11.4167 16.6654ZM6.75008 9.66536H7.91675C8.22617 9.66536 8.52291 9.54245 8.74171 9.32366C8.9605 9.10486 9.08342 8.80812 9.08342 8.4987C9.08342 8.18928 8.9605 7.89253 8.74171 7.67374C8.52291 7.45495 8.22617 7.33203 7.91675 7.33203H6.75008C6.44066 7.33203 6.14392 7.45495 5.92512 7.67374C5.70633 7.89253 5.58342 8.18928 5.58342 8.4987C5.58342 8.80812 5.70633 9.10486 5.92512 9.32366C6.14392 9.54245 6.44066 9.66536 6.75008 9.66536ZM22.7451 17.0037C22.6366 16.8943 22.5076 16.8076 22.3654 16.7483C22.2233 16.6891 22.0708 16.6586 21.9167 16.6586C21.7627 16.6586 21.6102 16.6891 21.4681 16.7483C21.3259 16.8076 21.1969 16.8943 21.0884 17.0037L17.2501 20.8537L15.7451 19.337C15.6363 19.2283 15.5072 19.142 15.365 19.0831C15.2229 19.0242 15.0706 18.9939 14.9167 18.9939C14.7629 18.9939 14.6106 19.0242 14.4685 19.0831C14.3263 19.142 14.1972 19.2283 14.0884 19.337C13.9796 19.4458 13.8933 19.5749 13.8345 19.7171C13.7756 19.8592 13.7453 20.0115 13.7453 20.1654C13.7453 20.3192 13.7756 20.4715 13.8345 20.6137C13.8933 20.7558 13.9796 20.8849 14.0884 20.9937L16.4217 23.327C16.5302 23.4364 16.6592 23.5232 16.8014 23.5824C16.9436 23.6416 17.0961 23.6721 17.2501 23.6721C17.4041 23.6721 17.5566 23.6416 17.6988 23.5824C17.8409 23.5232 17.97 23.4364 18.0784 23.327L22.7451 18.6604C22.8544 18.5519 22.9412 18.4229 23.0005 18.2807C23.0597 18.1385 23.0902 17.986 23.0902 17.832C23.0902 17.678 23.0597 17.5255 23.0005 17.3834C22.9412 17.2412 22.8544 17.1122 22.7451 17.0037Z" fill="#155B9F"/>
</svg>
