<svg width="16" height="18" viewBox="0 0 16 18" fill="none" xmlns="http://www.w3.org/2000/svg">
<path d="M13.8333 2.33464H13V0.667969H11.3333V2.33464H4.66667V0.667969H3V2.33464H2.16667C1.24167 2.33464 0.508333 3.08464 0.508333 4.0013L0.5 15.668C0.5 16.5846 1.24167 17.3346 2.16667 17.3346H13.8333C14.75 17.3346 15.5 16.5846 15.5 15.668V4.0013C15.5 3.08464 14.75 2.33464 13.8333 2.33464ZM13.8333 15.668H2.16667V7.33464H13.8333V15.668ZM13.8333 5.66797H2.16667V4.0013H13.8333V5.66797ZM5.5 10.668H3.83333V9.0013H5.5V10.668ZM8.83333 10.668H7.16667V9.0013H8.83333V10.668ZM12.1667 10.668H10.5V9.0013H12.1667V10.668ZM5.5 14.0013H3.83333V12.3346H5.5V14.0013ZM8.83333 14.0013H7.16667V12.3346H8.83333V14.0013ZM12.1667 14.0013H10.5V12.3346H12.1667V14.0013Z" fill="#155B9F"/>
</svg>
