<svg width="28" height="28" viewBox="0 0 28 28" fill="none" xmlns="http://www.w3.org/2000/svg">
<path d="M2.80524 13.9663C3.82721 16.2297 5.56764 18.6819 7.58014 20.6944C9.72663 22.8409 12.0948 24.5407 14.2484 25.4803C15.421 25.9919 16.4699 26.2478 17.3526 26.2478C18.2309 26.2478 18.9444 25.9945 19.4509 25.4878L21.4822 23.4568C22.0993 22.8392 22.044 21.7793 21.3587 21.0937L18.3654 18.1002C17.6797 17.4151 16.6193 17.3599 16.0022 17.977L15.0701 18.9091C14.8121 19.1022 13.2157 18.6105 11.4195 16.8145C9.62289 15.018 9.13019 13.4207 9.32416 13.1648L10.2573 12.2319C10.8746 11.6143 10.8192 10.554 10.1337 9.8687L7.14042 6.87524C6.45461 6.18994 5.39452 6.13457 4.77724 6.75203L2.74628 8.78281C1.73251 9.79641 1.75336 11.6373 2.80524 13.9663ZM3.73613 9.77283L5.76708 7.74187C5.7811 7.72786 5.80895 7.71965 5.84518 7.71965C5.92448 7.71965 6.04445 7.7593 6.15058 7.86526L9.14386 10.8585C9.29853 11.0132 9.31169 11.1974 9.26725 11.2419L8.33415 12.1748C7.17409 13.3352 8.51017 15.8852 10.4297 17.8044C11.3855 18.7602 12.4366 19.5236 13.3893 19.9539C14.9575 20.6621 15.7351 20.2241 16.0591 19.8998L16.992 18.9668C17.037 18.9222 17.2207 18.9357 17.3755 19.0902L20.3686 22.0835C20.5233 22.2382 20.5366 22.4224 20.4922 22.467L18.4611 24.4979C17.8975 25.0617 16.5321 24.9495 14.8083 24.1972C12.8112 23.3258 10.5958 21.7302 8.56999 19.7046C6.6725 17.8069 5.03632 15.5054 4.08117 13.3901C3.30922 11.6809 3.18019 10.3288 3.73613 9.77283ZM26.0032 15.5181C26.0032 7.92627 19.8269 1.75 12.2352 1.75V3.15C19.0549 3.15 24.6032 8.69839 24.6032 15.5181H26.0032Z" fill="#155B9F"/>
<path d="M12.4952 5.57422V6.97422C17.3498 6.97422 21.2992 10.9237 21.2992 15.7782H22.6992C22.6992 10.1517 18.1217 5.57422 12.4952 5.57422Z" fill="#155B9F"/>
<path d="M17.7353 15.7768H19.1353C19.1353 12.1155 16.1566 9.13672 12.4952 9.13672V10.5367C15.3846 10.5367 17.7353 12.8874 17.7353 15.7768Z" fill="#155B9F"/>
</svg>
