<svg width="280" height="280" viewBox="0 0 280 280" fill="none" xmlns="http://www.w3.org/2000/svg">
<path d="M173.464 58.021C173.464 58.021 144.088 95.2313 97.085 73.0364C50.0821 50.8415 3.07987 110.899 43.5539 147.456C84.0279 184.014 44.421 204.102 71.9179 226.507C103.17 251.972 130.378 200.334 155.185 212.085C209.935 238.019 250.496 227.753 241.356 197.723C225.314 145.01 204.799 141.581 220.467 114.163C236.134 86.7448 201.556 29.7355 173.464 58.021Z" fill="#DEE9FF"/>
<path d="M123.275 174.771C123.275 200.038 143.755 220.519 169.022 220.519C174.906 220.528 180.736 219.396 186.188 217.184C186.3 217.197 186.413 217.203 186.526 217.203H206.549C207.193 217.204 207.831 217.077 208.427 216.831C209.022 216.584 209.563 216.223 210.019 215.767C210.474 215.312 210.836 214.771 211.082 214.175C211.329 213.58 211.455 212.942 211.455 212.297V191.89C213.654 186.451 214.779 180.638 214.77 174.771C214.77 149.504 194.29 129.023 169.022 129.023C143.755 129.023 123.275 149.504 123.275 174.771Z" fill="#A2BDFF"/>
<path d="M187.334 142.345C187.334 174.044 161.64 199.737 129.941 199.737C122.56 199.75 115.246 198.329 108.407 195.553C108.266 195.57 108.124 195.578 107.982 195.578H82.8627C82.0542 195.579 81.2536 195.42 80.5067 195.111C79.7597 194.802 79.081 194.348 78.5094 193.777C77.9377 193.205 77.4844 192.526 77.1752 191.779C76.866 191.032 76.7071 190.232 76.7076 189.423V163.821C73.9492 156.998 72.537 149.705 72.5487 142.345C72.5487 110.646 98.2421 84.9531 129.941 84.9531C161.64 84.9531 187.334 110.646 187.334 142.345Z" fill="#418DF9"/>
<path d="M103.325 153.991C107.918 153.991 111.642 150.267 111.642 145.673C111.642 141.079 107.918 137.355 103.325 137.355C98.7308 137.355 95.0068 141.079 95.0068 145.673C95.0068 150.267 98.7308 153.991 103.325 153.991Z" fill="white"/>
<path d="M127.445 153.991C132.039 153.991 135.763 150.267 135.763 145.673C135.763 141.079 132.039 137.355 127.445 137.355C122.851 137.355 119.128 141.079 119.128 145.673C119.128 150.267 122.851 153.991 127.445 153.991Z" fill="white"/>
<path d="M152.399 153.991C156.993 153.991 160.717 150.267 160.717 145.673C160.717 141.079 156.993 137.355 152.399 137.355C147.805 137.355 144.081 141.079 144.081 145.673C144.081 150.267 147.805 153.991 152.399 153.991Z" fill="white"/>
<path d="M178.184 114.897C186.452 114.897 193.155 108.194 193.155 99.925C193.155 91.6563 186.452 84.9531 178.184 84.9531C169.915 84.9531 163.212 91.6563 163.212 99.925C163.212 108.194 169.915 114.897 178.184 114.897Z" fill="#418DF9" stroke="white" stroke-width="15" stroke-miterlimit="10"/>
<path d="M182.942 95.486C182.745 94.7246 182.391 94.0127 181.903 93.3958C181.473 92.8761 180.915 92.4775 180.283 92.2392C178.921 91.7692 177.44 91.7692 176.078 92.2392C175.447 92.476 174.891 92.875 174.464 93.3958C173.971 94.0097 173.617 94.7227 173.425 95.486C173.162 96.5141 173.04 97.5729 173.06 98.6337V101.157C173.039 102.22 173.163 103.282 173.431 104.311C173.625 105.08 173.981 105.799 174.476 106.42C174.906 106.945 175.464 107.35 176.097 107.595C177.452 108.081 178.934 108.081 180.289 107.595C180.918 107.349 181.472 106.944 181.897 106.42C182.384 105.796 182.736 105.078 182.93 104.311C183.192 103.281 183.315 102.22 183.295 101.157H183.307V98.6337C183.328 97.5729 183.205 96.5141 182.942 95.486ZM180.685 101.534C180.694 102.207 180.64 102.88 180.524 103.544C180.446 104.016 180.285 104.47 180.048 104.886C179.866 105.207 179.596 105.468 179.269 105.64C178.934 105.802 178.565 105.882 178.193 105.875C177.821 105.881 177.453 105.801 177.117 105.64C176.786 105.467 176.51 105.206 176.319 104.886C176.077 104.471 175.91 104.017 175.824 103.544C175.698 102.882 175.64 102.208 175.651 101.534V98.2318C175.64 97.56 175.696 96.8888 175.818 96.2281C175.899 95.7649 176.065 95.3205 176.307 94.917C176.498 94.6087 176.773 94.3602 177.098 94.1997C177.436 94.0528 177.8 93.9771 178.168 93.9771C178.536 93.9771 178.9 94.0528 179.238 94.1997C179.566 94.3563 179.841 94.6057 180.029 94.917C180.271 95.3206 180.437 95.7649 180.518 96.2281C180.64 96.8888 180.696 97.56 180.685 98.2318V101.534L180.685 101.534Z" fill="white"/>
</svg>
