<svg width="14" height="12" viewBox="0 0 14 12" fill="none" xmlns="http://www.w3.org/2000/svg">
<path d="M7.34535 11.3206C7.54625 11.3206 7.72203 11.2453 7.86642 11.1071L12.7506 6.32966C12.9201 6.16016 13.008 5.97182 13.008 5.75209C13.008 5.53237 12.9201 5.33147 12.7443 5.16825L7.86014 0.397042C7.72203 0.258929 7.54625 0.183594 7.34535 0.183594C6.92473 0.183594 6.59201 0.510045 6.59201 0.924386C6.59201 1.12528 6.6799 1.31989 6.82429 1.46429L11.2188 5.74581L6.82429 10.0399C6.6799 10.1843 6.59201 10.3726 6.59201 10.5798C6.59201 10.9941 6.92473 11.3206 7.34535 11.3206ZM1.73291 11.3206C1.94008 11.3206 2.10958 11.2453 2.25398 11.1071L7.13818 6.32966C7.31396 6.16016 7.39558 5.97182 7.39558 5.75209C7.39558 5.53237 7.30769 5.33147 7.13818 5.16825L2.25398 0.397042C2.10958 0.258929 1.94008 0.183594 1.73291 0.183594C1.31229 0.183594 0.98584 0.510045 0.98584 0.924386C0.98584 1.12528 1.06745 1.31989 1.21184 1.46429L5.61265 5.74581L1.21184 10.0399C1.07373 10.1843 0.98584 10.3726 0.98584 10.5798C0.98584 10.9941 1.31229 11.3206 1.73291 11.3206Z" fill="#155B9F"/>
</svg>
