<svg width="18" height="18" viewBox="0 0 18 18" fill="none" xmlns="http://www.w3.org/2000/svg">
<path d="M16.7275 2.61389L17.3867 1.91956C17.7207 1.568 17.7471 1.0846 17.4131 0.750613L17.1846 0.513308C16.8857 0.21448 16.3848 0.258425 16.0596 0.58362L15.374 1.25159L16.7275 2.61389ZM6.32129 11.9655L8.12305 11.2096L16.0859 3.24671L14.7324 1.90198L6.76953 9.87366L5.97852 11.6139C5.89062 11.816 6.11914 12.0446 6.32129 11.9655ZM2.98145 17.8629H13.2207C14.9082 17.8629 15.9014 16.8785 15.9014 14.9977V5.71643L14.1436 7.46546V14.8395C14.1436 15.6832 13.6953 16.1051 13.1064 16.1051H3.0957C2.28711 16.1051 1.84766 15.6832 1.84766 14.8395V5.07483C1.84766 4.23108 2.28711 3.80921 3.0957 3.80921H10.5576L12.3066 2.05139H2.98145C1.08301 2.05139 0.0898438 3.03577 0.0898438 4.91663V14.9977C0.0898438 16.8785 1.08301 17.8629 2.98145 17.8629Z" fill="#155B9F"/>
</svg>
