<svg width="28" height="28" viewBox="0 0 28 28" fill="none" xmlns="http://www.w3.org/2000/svg">
<path d="M23.3713 23.3269H4.62878C3.64287 23.3257 2.69766 22.9335 2.00051 22.2364C1.30336 21.5392 0.911192 20.594 0.910034 19.6081V8.39062C0.911192 7.40471 1.30336 6.4595 2.00051 5.76235C2.69766 5.0652 3.64287 4.67303 4.62878 4.67188H23.3713C24.3572 4.67303 25.3024 5.0652 25.9996 5.76235C26.6967 6.4595 27.0889 7.40471 27.09 8.39062V19.6081C27.0889 20.594 26.6967 21.5392 25.9996 22.2364C25.3024 22.9335 24.3572 23.3257 23.3713 23.3269ZM4.62878 5.98437C3.99061 5.98437 3.37857 6.23789 2.92731 6.68915C2.47605 7.14041 2.22253 7.75245 2.22253 8.39062V19.6081C2.22253 20.2463 2.47605 20.8583 2.92731 21.3096C3.37857 21.7609 3.99061 22.0144 4.62878 22.0144H23.3713C24.0095 22.0144 24.6215 21.7609 25.0728 21.3096C25.524 20.8583 25.7775 20.2463 25.7775 19.6081V8.39062C25.7775 7.75245 25.524 7.14041 25.0728 6.68915C24.6215 6.23789 24.0095 5.98437 23.3713 5.98437H4.62878Z" fill="#155B9F"/>
<path d="M14 16.66C13.1904 16.6612 12.4025 16.3986 11.7556 15.9118L1.54 8.1856C1.46782 8.13494 1.40659 8.07026 1.35997 7.99541C1.31335 7.92056 1.28229 7.83709 1.26864 7.74997C1.255 7.66285 1.25906 7.57387 1.28057 7.48836C1.30208 7.40284 1.3406 7.32254 1.39384 7.25224C1.44707 7.18194 1.51393 7.1231 1.59042 7.07922C1.6669 7.03533 1.75145 7.00732 1.83901 6.99684C1.92656 6.98636 2.01533 6.99363 2.10001 7.01822C2.18469 7.04282 2.26355 7.08422 2.33187 7.13997L12.5475 14.875C12.967 15.1881 13.4765 15.3573 14 15.3573C14.5235 15.3573 15.033 15.1881 15.4525 14.875L25.6681 7.13997C25.7364 7.08422 25.8153 7.04282 25.9 7.01822C25.9847 6.99363 26.0734 6.98636 26.161 6.99684C26.2485 7.00732 26.3331 7.03533 26.4096 7.07922C26.4861 7.1231 26.5529 7.18194 26.6062 7.25224C26.6594 7.32254 26.6979 7.40284 26.7194 7.48836C26.7409 7.57387 26.745 7.66285 26.7314 7.74997C26.7177 7.83709 26.6867 7.92056 26.64 7.99541C26.5934 8.07026 26.5322 8.13494 26.46 8.1856L16.2444 15.9118C15.5975 16.3986 14.8096 16.6612 14 16.66Z" fill="#155B9F"/>
<path d="M1.82433 21.5003C1.69123 21.5005 1.56122 21.4602 1.45154 21.3848C1.34187 21.3094 1.25772 21.2024 1.21026 21.0781C1.16279 20.9537 1.15426 20.8179 1.1858 20.6886C1.21734 20.5593 1.28745 20.4426 1.38683 20.3541L9.43683 13.1747C9.56678 13.0587 9.73751 12.999 9.91145 13.0089C10.0854 13.0187 10.2483 13.0972 10.3643 13.2272C10.4804 13.3572 10.54 13.5279 10.5302 13.7018C10.5203 13.8758 10.4418 14.0387 10.3118 14.1547L2.26183 21.3341C2.14228 21.4429 1.98594 21.5023 1.82433 21.5003ZM26.1756 21.5003C26.014 21.5023 25.8576 21.4429 25.7381 21.3341L17.6881 14.1547C17.6237 14.0973 17.5713 14.0277 17.5339 13.95C17.4964 13.8723 17.4746 13.788 17.4697 13.7018C17.4649 13.6157 17.477 13.5295 17.5055 13.448C17.5339 13.3666 17.5781 13.2916 17.6356 13.2272C17.693 13.1629 17.7626 13.1105 17.8403 13.073C17.918 13.0355 18.0023 13.0137 18.0885 13.0089C18.1746 13.004 18.2608 13.0161 18.3423 13.0446C18.4237 13.073 18.4987 13.1173 18.5631 13.1747L26.6087 20.3541C26.7081 20.4426 26.7782 20.5593 26.8097 20.6886C26.8413 20.8179 26.8327 20.9537 26.7853 21.0781C26.7378 21.2024 26.6537 21.3094 26.544 21.3848C26.4343 21.4602 26.3043 21.5005 26.1712 21.5003H26.1756Z" fill="#155B9F"/>
</svg>
