<svg width="26" height="26" viewBox="0 0 26 26" fill="none" xmlns="http://www.w3.org/2000/svg">
<path d="M9.6835 23.232V19.6541C9.68348 18.7441 10.4254 18.0047 11.3446 17.9986H14.7117C15.6353 17.9986 16.384 18.7398 16.384 19.6541V23.2431C16.3838 24.0158 17.0067 24.6473 17.787 24.6654H20.0317C22.2694 24.6654 24.0834 22.8695 24.0834 20.6542V10.4762C24.0715 9.60466 23.6581 8.78627 22.9611 8.2539L15.2841 2.13155C13.9392 1.06553 12.0273 1.06553 10.6824 2.13155L3.03911 8.26501C2.33938 8.79522 1.92537 9.61498 1.91675 10.4873V20.6542C1.91675 22.8695 3.73077 24.6654 5.96848 24.6654H8.2132C9.01283 24.6654 9.66105 24.0236 9.66105 23.232" stroke="#505050" stroke-width="2" stroke-linecap="round" stroke-linejoin="round"/>
</svg>
