<svg width="28" height="28" viewBox="0 0 28 28" fill="none" xmlns="http://www.w3.org/2000/svg">
<path d="M14 26.25C14.1974 26.2489 14.3886 26.181 14.5425 26.0575C14.875 25.76 23.625 18.7075 23.625 11.375C23.625 8.82229 22.6109 6.37414 20.8059 4.5691C19.0009 2.76406 16.5527 1.75 14 1.75C11.4473 1.75 8.99914 2.76406 7.1941 4.5691C5.38906 6.37414 4.375 8.82229 4.375 11.375C4.375 18.7075 13.125 25.76 13.4575 26.0575C13.6114 26.181 13.8026 26.2489 14 26.25ZM6.125 11.375C6.125 9.28642 6.95468 7.28338 8.43153 5.80653C9.90838 4.32968 11.9114 3.5 14 3.5C16.0886 3.5 18.0916 4.32968 19.5685 5.80653C21.0453 7.28338 21.875 9.28642 21.875 11.375C21.875 16.8875 15.8638 22.5837 14 24.2288C12.1363 22.5837 6.125 16.8875 6.125 11.375Z" fill="#155B9F"/>
<path d="M18.375 11.375C18.375 10.5097 18.1184 9.66385 17.6377 8.94438C17.157 8.22492 16.4737 7.66416 15.6742 7.33303C14.8748 7.0019 13.9951 6.91526 13.1465 7.08407C12.2978 7.25288 11.5183 7.66956 10.9064 8.28141C10.2946 8.89326 9.87788 9.67282 9.70907 10.5215C9.54026 11.3701 9.6269 12.2498 9.95803 13.0492C10.2892 13.8487 10.8499 14.532 11.5694 15.0127C12.2888 15.4934 13.1347 15.75 14 15.75C15.1603 15.75 16.2731 15.2891 17.0936 14.4686C17.9141 13.6481 18.375 12.5353 18.375 11.375ZM11.375 11.375C11.375 10.8558 11.529 10.3483 11.8174 9.91663C12.1058 9.48495 12.5158 9.1485 12.9955 8.94982C13.4751 8.75114 14.0029 8.69915 14.5121 8.80044C15.0213 8.90173 15.489 9.15173 15.8562 9.51885C16.2233 9.88596 16.4733 10.3537 16.5746 10.8629C16.6759 11.3721 16.6239 11.8999 16.4252 12.3795C16.2265 12.8592 15.8901 13.2692 15.4584 13.5576C15.0267 13.846 14.5192 14 14 14C13.3038 14 12.6361 13.7234 12.1438 13.2312C11.6516 12.7389 11.375 12.0712 11.375 11.375Z" fill="#155B9F"/>
</svg>
