<svg width="24" height="24" viewBox="0 0 24 24" fill="none" xmlns="http://www.w3.org/2000/svg">
<path d="M24 14.6V13H19V21H20.6667V17.8H23.1667V16.2H20.6667V14.6H24Z" fill="#155B9F"/>
<path d="M15.4286 21H12V13H15.4286C16.1103 13.0006 16.764 13.2537 17.2461 13.7036C17.7282 14.1536 17.9993 14.7637 18 15.4V18.6C17.9993 19.2363 17.7282 19.8464 17.2461 20.2964C16.764 20.7463 16.1103 20.9994 15.4286 21ZM13.7143 19.4H15.4286C15.6558 19.3998 15.8737 19.3154 16.0344 19.1655C16.1951 19.0155 16.2855 18.8121 16.2857 18.6V15.4C16.2855 15.1879 16.1951 14.9845 16.0344 14.8345C15.8737 14.6846 15.6558 14.6002 15.4286 14.6H13.7143V19.4Z" fill="#155B9F"/>
<path d="M8.57143 13H5V21H6.42857V18.6H8.57143C8.95014 18.5994 9.31317 18.4306 9.58096 18.1307C9.84874 17.8307 9.99943 17.4242 10 17V14.6C9.99962 14.1758 9.84899 13.7691 9.58116 13.4691C9.31334 13.1691 8.95019 13.0004 8.57143 13ZM6.42857 17V14.6H8.57143L8.57214 17H6.42857Z" fill="#155B9F"/>
<path d="M17.9997 10.8573V7.57163C18.0026 7.46367 17.9826 7.35637 17.9411 7.25711C17.8997 7.15785 17.8378 7.06899 17.7597 6.99663L12.1598 1.2467C12.0894 1.16649 12.0029 1.10292 11.9062 1.06037C11.8095 1.01783 11.705 0.997326 11.5998 1.00028H3.59997C3.17602 1.00158 2.7698 1.17508 2.47002 1.48289C2.17024 1.7907 2.00127 2.20781 2 2.64312V22.3572C2 22.7929 2.16857 23.2107 2.46862 23.5188C2.76867 23.8269 3.17563 24 3.59997 24H16.3998V22.3572H3.59997V2.64312H9.99987V7.57163C10.0011 8.00694 10.1701 8.42404 10.4699 8.73185C10.7697 9.03966 11.1759 9.21317 11.5998 9.21447H16.3998V10.8573H17.9997ZM11.5998 7.57163V2.97168L16.0798 7.57163H11.5998Z" fill="#155B9F"/>
</svg>
