<svg width="30" height="30" viewBox="0 0 30 30" fill="none" xmlns="http://www.w3.org/2000/svg">
<path d="M21.7829 22.2992H27.2972C28.3923 22.2992 29.25 21.3417 29.25 20.2069V7.65475C29.25 6.51996 28.3923 5.5625 27.2972 5.5625H2.69699C1.60413 5.5625 0.75 6.52081 0.75 7.65475V20.2069C0.75 21.3409 1.60413 22.2992 2.69699 22.2992H8.2115C8.52569 22.2992 8.74721 22.0301 8.74721 21.74V15.4978H21.2472V21.74C21.2472 22.0301 21.4687 22.2992 21.7829 22.2992ZM27.2972 21.1809H22.3186V14.9386C22.3186 14.6486 22.0971 14.3795 21.7829 14.3795H8.2115C7.8973 14.3795 7.67578 14.6486 7.67578 14.9386V21.1809H2.69699C2.23379 21.1809 1.82143 20.764 1.82143 20.2069V7.65475C1.82143 7.09766 2.23379 6.68081 2.69699 6.68081H27.2972C27.7648 6.68081 28.1786 7.09891 28.1786 7.65475V20.2069C28.1786 20.7628 27.7648 21.1809 27.2972 21.1809Z" fill="#155B9F" stroke="#155B9F" stroke-width="0.5"/>
<path d="M8.2115 6.68316H21.7829C22.0971 6.68316 22.3186 6.41403 22.3186 6.12401V1.30916C22.3186 1.01913 22.0971 0.75 21.7829 0.75H8.2115C7.8973 0.75 7.67578 1.01913 7.67578 1.30916V6.12401C7.67578 6.41403 7.8973 6.68316 8.2115 6.68316ZM21.2472 1.86831V5.56485H8.74721V1.86831H21.2472Z" fill="#155B9F" stroke="#155B9F" stroke-width="0.5"/>
<path d="M6.10432 15.5011H23.89C24.2042 15.5011 24.4257 15.232 24.4257 14.942C24.4257 14.6519 24.2042 14.3828 23.89 14.3828H6.10432C5.79013 14.3828 5.5686 14.6519 5.5686 14.942C5.5686 15.232 5.79013 15.5011 6.10432 15.5011Z" fill="#155B9F" stroke="#155B9F" stroke-width="0.5"/>
<path d="M8.2115 29.2525H21.7829C22.0971 29.2525 22.3186 28.9834 22.3186 28.6933V14.942C22.3186 14.6519 22.0971 14.3828 21.7829 14.3828H8.2115C7.8973 14.3828 7.67578 14.6519 7.67578 14.942V28.6933C7.67578 28.9834 7.8973 29.2525 8.2115 29.2525ZM21.2472 15.5011V28.1342H8.74721V15.5011H21.2472Z" fill="#155B9F" stroke="#155B9F" stroke-width="0.5"/>
<path d="M10.4079 26.1613H19.5865C19.9007 26.1613 20.1222 25.8921 20.1222 25.6021C20.1222 25.3121 19.9007 25.043 19.5865 25.043H10.4079C10.0937 25.043 9.87219 25.3121 9.87219 25.6021C9.87219 25.8921 10.0937 26.1613 10.4079 26.1613Z" fill="#155B9F" stroke="#155B9F" stroke-width="0.5"/>
</svg>
