<svg width="28" height="28" viewBox="0 0 28 28" fill="none" xmlns="http://www.w3.org/2000/svg">
<path d="M24.7963 2.07812H3.20361V25.9174H24.7963V2.07812Z" fill="#53B4ED"/>
<path d="M22.493 14H5.51449C5.09052 14 4.74683 14.3125 4.74683 14.6979V14.7053C4.74683 15.0907 5.09052 15.4032 5.51449 15.4032H22.493C22.917 15.4032 23.2607 15.0907 23.2607 14.7053V14.6979C23.2607 14.3125 22.917 14 22.493 14Z" fill="#1C3B5C"/>
<path d="M22.493 10.4922H5.51449C5.09052 10.4922 4.74683 10.8046 4.74683 11.1901V11.1975C4.74683 11.5829 5.09052 11.8954 5.51449 11.8954H22.493C22.917 11.8954 23.2607 11.5829 23.2607 11.1975V11.1901C23.2607 10.8046 22.917 10.4922 22.493 10.4922Z" fill="#1C3B5C"/>
<path d="M19.3981 6.99219H8.59359C8.16962 6.99219 7.82593 7.30464 7.82593 7.69007V7.69749C7.82593 8.08292 8.16962 8.39537 8.59359 8.39537H19.3981C19.8221 8.39537 20.1658 8.08292 20.1658 7.69749V7.69007C20.1658 7.30464 19.8221 6.99219 19.3981 6.99219Z" fill="#1C3B5C"/>
<path d="M22.493 17.5039H5.51449C5.09052 17.5039 4.74683 17.8164 4.74683 18.2018V18.2092C4.74683 18.5946 5.09052 18.9071 5.51449 18.9071H22.493C22.917 18.9071 23.2607 18.5946 23.2607 18.2092V18.2018C23.2607 17.8164 22.917 17.5039 22.493 17.5039Z" fill="#1C3B5C"/>
<path d="M22.493 21.0078H5.51449C5.09052 21.0078 4.74683 21.3203 4.74683 21.7057V21.7131C4.74683 22.0985 5.09052 22.411 5.51449 22.411H22.493C22.917 22.411 23.2607 22.0985 23.2607 21.7131V21.7057C23.2607 21.3203 22.917 21.0078 22.493 21.0078Z" fill="#1C3B5C"/>
<path d="M13.9998 6.28906L6.83765 11.1742C6.83765 17.715 13.9998 23.1198 13.9998 23.1198C13.9998 23.1198 21.162 17.715 21.162 11.1742L13.9998 6.28906Z" fill="#EAA43A"/>
<path d="M14.0001 7.69141L8.03027 11.7747C8.03027 17.1944 14.0001 21.7158 14.0001 21.7158C14.0001 21.7158 19.9699 17.1944 19.9699 11.7747L14.0001 7.69141Z" fill="#FFC42E"/>
<path d="M24.9841 1.37891H3.00757C2.3671 1.37891 1.8479 1.84924 1.8479 2.42944C1.8479 3.00963 2.3671 3.47997 3.00757 3.47997H24.9841C25.6245 3.47997 26.1437 3.00963 26.1437 2.42944C26.1437 1.84924 25.6245 1.37891 24.9841 1.37891Z" fill="#FF576B"/>
<path d="M24.9841 24.5195H3.00757C2.3671 24.5195 1.8479 24.9899 1.8479 25.5701C1.8479 26.1503 2.3671 26.6206 3.00757 26.6206H24.9841C25.6245 26.6206 26.1437 26.1503 26.1437 25.5701C26.1437 24.9899 25.6245 24.5195 24.9841 24.5195Z" fill="#FF576B"/>
<path d="M25.2046 24.1714V3.82902C25.5936 3.77752 25.9469 3.59439 26.1937 3.31627C26.4406 3.03814 26.5628 2.68554 26.536 2.329C26.5091 1.97246 26.3352 1.63828 26.049 1.39332C25.7628 1.14835 25.3853 1.01067 24.9922 1.00781H3.00758C2.61448 1.01067 2.23706 1.14835 1.95084 1.39332C1.66461 1.63828 1.49068 1.97246 1.46385 2.329C1.43701 2.68554 1.55925 3.03814 1.80611 3.31627C2.05297 3.59439 2.40624 3.77752 2.79524 3.82902V24.1714C2.40624 24.223 2.05297 24.4061 1.80611 24.6842C1.55925 24.9623 1.43701 25.3149 1.46385 25.6715C1.49068 26.028 1.66461 26.3622 1.95084 26.6072C2.23706 26.8521 2.61448 26.9898 3.00758 26.9927H24.9922C25.3853 26.9898 25.7628 26.8521 26.049 26.6072C26.3352 26.3622 26.5091 26.028 26.536 25.6715C26.5628 25.3149 26.4406 24.9623 26.1937 24.6842C25.9469 24.4061 25.5936 24.223 25.2046 24.1714ZM24.3879 24.1714H3.61191V3.8513H24.3879V24.1714ZM2.25624 2.43327C2.25624 2.25212 2.3354 2.07838 2.4763 1.95029C2.61721 1.8222 2.80831 1.75024 3.00758 1.75024H24.9922C25.175 1.74472 25.3535 1.80065 25.4938 1.9073C25.634 2.01396 25.7261 2.16387 25.7523 2.32836C25.7786 2.49285 25.7373 2.66037 25.6362 2.79889C25.5352 2.93741 25.3815 3.0372 25.2046 3.07918C25.0657 3.12372 26.5602 3.07918 3.00758 3.07918C2.81519 3.07943 2.63002 3.01259 2.49023 2.89242C2.35045 2.77225 2.2667 2.60791 2.25624 2.43327ZM24.9922 26.2502H3.00758C2.90288 26.2602 2.79706 26.2501 2.69695 26.2205C2.59685 26.1909 2.50471 26.1425 2.4265 26.0784C2.34828 26.0144 2.28575 25.9361 2.24294 25.8487C2.20014 25.7612 2.17802 25.6666 2.17802 25.5709C2.17802 25.4752 2.20014 25.3806 2.24294 25.2932C2.28575 25.2057 2.34828 25.1275 2.4265 25.0634C2.50471 24.9994 2.59685 24.951 2.69695 24.9214C2.79706 24.8918 2.90288 24.8816 3.00758 24.8916C26.2581 24.8916 25.0576 24.8916 25.2046 24.8916C25.4028 24.9172 25.5816 25.0133 25.7019 25.1588C25.8221 25.3043 25.8738 25.4873 25.8457 25.6674C25.8175 25.8476 25.7118 26.0102 25.5517 26.1195C25.3917 26.2288 25.1904 26.2758 24.9922 26.2502Z" fill="black"/>
<path d="M4.3389 18.2068C4.3389 18.4903 4.4628 18.7623 4.68334 18.9628C4.90388 19.1633 5.203 19.2759 5.51489 19.2759H9.6554C10.0311 19.7659 10.4149 20.2188 10.7987 20.6345H5.51489C5.21887 20.6569 4.94292 20.7797 4.74177 20.9784C4.54063 21.1771 4.42898 21.4373 4.42898 21.7073C4.42898 21.9774 4.54063 22.2376 4.74177 22.4363C4.94292 22.635 5.21887 22.7577 5.51489 22.7801H12.9874C13.4039 23.1439 13.6816 23.3592 13.7387 23.3963C13.8114 23.4533 13.9041 23.4846 14.0001 23.4846C14.096 23.4846 14.1887 23.4533 14.2614 23.3963C14.3186 23.3963 14.5962 23.1439 15.0127 22.7801H22.4852C22.7813 22.7577 23.0572 22.635 23.2583 22.4363C23.4595 22.2376 23.5711 21.9774 23.5711 21.7073C23.5711 21.4373 23.4595 21.1771 23.2583 20.9784C23.0572 20.7797 22.7813 20.6569 22.4852 20.6345H17.2014C17.5852 20.2188 17.9691 19.7659 18.3447 19.2759H22.4852C22.7813 19.2535 23.0572 19.1308 23.2583 18.932C23.4595 18.7333 23.5711 18.4731 23.5711 18.2031C23.5711 17.933 23.4595 17.6729 23.2583 17.4741C23.0572 17.2754 22.7813 17.1527 22.4852 17.1303H19.7984C20.0516 16.6923 20.2884 16.2394 20.5007 15.7717H22.4852C22.7813 15.7492 23.0572 15.6265 23.2583 15.4278C23.4595 15.2291 23.5711 14.9689 23.5711 14.6988C23.5711 14.4288 23.4595 14.1686 23.2583 13.9699C23.0572 13.7712 22.7813 13.6485 22.4852 13.626H21.2521C21.3694 13.1788 21.454 12.7249 21.5052 12.2674H22.4852C22.7813 12.245 23.0572 12.1223 23.2583 11.9236C23.4595 11.7248 23.5711 11.4647 23.5711 11.1946C23.5711 10.9246 23.4595 10.6644 23.2583 10.4657C23.0572 10.2669 22.7813 10.1442 22.4852 10.1218H20.3047L18.3039 8.75574H19.3982C19.7101 8.75574 20.0092 8.64311 20.2298 8.44261C20.4503 8.24212 20.5742 7.97019 20.5742 7.68665C20.5742 7.40311 20.4503 7.13118 20.2298 6.93069C20.0092 6.7302 19.7101 6.61756 19.3982 6.61756H15.1679L14.2451 5.9865C14.1739 5.93942 14.0881 5.91406 14.0001 5.91406C13.912 5.91406 13.8263 5.93942 13.7551 5.9865L12.8322 6.61756H8.60189C8.29 6.61756 7.99088 6.7302 7.77034 6.93069C7.5498 7.13118 7.42589 7.40311 7.42589 7.68665C7.42589 7.97019 7.5498 8.24212 7.77034 8.44261C7.99088 8.64311 8.29 8.75574 8.60189 8.75574H9.69623L7.6954 10.1218H5.51489C5.21887 10.1442 4.94292 10.2669 4.74177 10.4657C4.54063 10.6644 4.42898 10.9246 4.42898 11.1946C4.42898 11.4647 4.54063 11.7248 4.74177 11.9236C4.94292 12.1223 5.21887 12.245 5.51489 12.2674H6.4949C6.54613 12.7249 6.63071 13.1788 6.74806 13.626H5.51489C5.21887 13.6485 4.94292 13.7712 4.74177 13.9699C4.54063 14.1686 4.42898 14.4288 4.42898 14.6988C4.42898 14.9689 4.54063 15.2291 4.74177 15.4278C4.94292 15.6265 5.21887 15.7492 5.51489 15.7717H7.46673C7.67906 16.2394 7.9159 16.6923 8.16906 17.1303H5.51489C5.35977 17.1303 5.20618 17.1582 5.06296 17.2124C4.91975 17.2666 4.78975 17.346 4.68044 17.446C4.57113 17.5461 4.48468 17.6648 4.42606 17.7954C4.36744 17.926 4.33782 18.0658 4.3389 18.2068ZM22.4852 10.8642C22.5722 10.8761 22.6517 10.916 22.7091 10.9766C22.7665 11.0373 22.7981 11.1146 22.7981 11.1946C22.7981 11.2746 22.7665 11.352 22.7091 11.4126C22.6517 11.4732 22.5722 11.5131 22.4852 11.525H21.5624C21.5624 11.1909 21.6032 11.0053 21.4072 10.8717H22.4852V10.8642ZM6.5929 10.8642C6.3969 11.0053 6.41323 11.1909 6.43773 11.5176H5.51489C5.42787 11.5057 5.34843 11.4658 5.29102 11.4052C5.2336 11.3445 5.20203 11.2672 5.20203 11.1872C5.20203 11.1072 5.2336 11.0298 5.29102 10.9692C5.34843 10.9086 5.42787 10.8687 5.51489 10.8568H6.5929V10.8642ZM5.51489 22.0006C5.42787 21.9887 5.34843 21.9488 5.29102 21.8882C5.2336 21.8276 5.20203 21.7502 5.20203 21.6702C5.20203 21.5902 5.2336 21.5129 5.29102 21.4522C5.34843 21.3916 5.42787 21.3517 5.51489 21.3398H11.4929C11.7297 21.5848 11.9584 21.8001 12.1707 22.0006H5.51489ZM22.4852 21.3398C22.5722 21.3517 22.6517 21.3916 22.7091 21.4522C22.7665 21.5129 22.7981 21.5902 22.7981 21.6702C22.7981 21.7502 22.7665 21.8276 22.7091 21.8882C22.6517 21.9488 22.5722 21.9887 22.4852 22.0006H15.8294C16.0417 21.8001 16.2704 21.5848 16.5072 21.3398H22.4852ZM22.4852 17.8356C22.5722 17.8475 22.6517 17.8874 22.7091 17.948C22.7665 18.0086 22.7981 18.086 22.7981 18.166C22.7981 18.246 22.7665 18.3233 22.7091 18.3839C22.6517 18.4446 22.5722 18.4845 22.4852 18.4963H18.9001C19.0552 18.281 19.2022 18.0583 19.3492 17.8356H22.4852ZM21.0397 14.3685H22.4852C22.5722 14.3804 22.6517 14.4202 22.7091 14.4809C22.7665 14.5415 22.7981 14.6188 22.7981 14.6988C22.7981 14.7788 22.7665 14.8562 22.7091 14.9168C22.6517 14.9774 22.5722 15.0173 22.4852 15.0292H20.8029C20.8941 14.8128 20.9731 14.5922 21.0397 14.3685ZM19.4064 7.35998C19.5017 7.35998 19.5931 7.3944 19.6605 7.45566C19.7279 7.51692 19.7657 7.60001 19.7657 7.68665C19.7657 7.77329 19.7279 7.85638 19.6605 7.91764C19.5931 7.9789 19.5017 8.01332 19.4064 8.01332H17.2177L16.2622 7.35998H19.4064ZM8.61006 8.01332C8.51476 8.01332 8.42336 7.9789 8.35597 7.91764C8.28859 7.85638 8.25073 7.77329 8.25073 7.68665C8.25073 7.60001 8.28859 7.51692 8.35597 7.45566C8.42336 7.3944 8.51476 7.35998 8.61006 7.35998H11.7461L10.7906 8.01332H8.61006ZM5.52306 15.0292C5.43604 15.0173 5.3566 14.9774 5.29919 14.9168C5.24177 14.8562 5.21019 14.7788 5.21019 14.6988C5.21019 14.6188 5.24177 14.5415 5.29919 14.4809C5.3566 14.4202 5.43604 14.3804 5.52306 14.3685H6.96856C7.03518 14.5922 7.11422 14.8128 7.2054 15.0292H5.52306ZM7.2544 11.3542L14.0001 6.7512L20.7539 11.3542C20.7539 15.4153 17.3157 19.907 14.0001 22.6168C10.6599 19.8847 7.24623 15.4004 7.24623 11.3542H7.2544ZM8.66723 17.8727C8.81423 18.0954 8.96123 18.3182 9.11639 18.5335H5.52306C5.43604 18.5216 5.3566 18.4817 5.29919 18.4211C5.24177 18.3604 5.21019 18.2831 5.21019 18.2031C5.21019 18.1231 5.24177 18.0457 5.29919 17.9851C5.3566 17.9245 5.43604 17.8846 5.52306 17.8727H8.66723Z" fill="black"/>
<path d="M12.1868 20.6397C12.6947 21.1414 13.2405 21.6103 13.8201 22.0429C13.8745 22.0723 13.9366 22.0879 13.9998 22.0879C14.0631 22.0879 14.1251 22.0723 14.1795 22.0429C14.7573 21.6084 15.303 21.1396 15.8128 20.6397C18.2628 18.264 20.378 15.027 20.378 11.7306C20.376 11.6483 20.3476 11.5683 20.2963 11.5005C20.231 11.4411 14.253 7.35776 14.1713 7.33549C14.1185 7.31013 14.0596 7.29688 13.9998 7.29688C13.94 7.29688 13.8812 7.31013 13.8283 7.33549C13.7385 7.33549 7.76865 11.4411 7.70332 11.5005C7.63798 11.5599 7.61348 11.7678 7.63798 12.2429C7.85848 15.3908 9.83482 18.3679 12.1868 20.6397ZM8.43832 11.9459L13.9998 8.15215L19.5613 11.9459C19.5613 15.2572 16.6866 19.0212 13.9998 21.2188C11.2966 19.0064 8.43832 15.2497 8.43832 11.9459Z" fill="black"/>
</svg>
