<svg width="28" height="28" viewBox="0 0 28 28" fill="none" xmlns="http://www.w3.org/2000/svg">
<path d="M11.8356 2.14062V5.15666C10.874 5.38295 9.9545 5.7606 9.11145 6.27546L6.99538 4.15942L3.93072 7.22405L6.04679 9.34015C5.53426 10.1757 5.1567 11.0868 4.92796 12.04H1.93628V16.3937H4.92796C5.1567 17.3468 5.53426 18.2579 6.04679 19.0935L3.93072 21.2096L6.99538 24.2743L9.11145 22.1582C9.9545 22.6731 10.874 23.0507 11.8356 23.277V26.2688H16.165V23.277C17.1182 23.0483 18.0293 22.6707 18.8648 22.1582L20.9809 24.2743L24.0456 21.2096L21.9295 19.0935C22.442 18.2579 22.8196 17.3468 23.0483 16.3937H26.0644V12.04H23.0483C22.8196 11.0868 22.442 10.1757 21.9295 9.34015L24.0456 7.22405L20.9809 4.15942L18.8648 6.27546C18.0293 5.76296 17.1182 5.38538 16.165 5.15666V2.14062H11.8356ZM12.536 20.0563C12.2332 19.9803 11.9394 19.8813 11.6565 19.7613C11.2959 19.6083 10.953 19.4211 10.632 19.2039C10.311 18.9867 10.0119 18.7395 9.73867 18.4663C9.46547 18.1931 9.21824 17.894 9.00103 17.573C8.78383 17.252 8.59669 16.9091 8.44369 16.5485C8.29069 16.1879 8.17184 15.8096 8.09124 15.4176C8.01065 15.0256 7.9683 14.6199 7.9683 14.2047C7.9683 10.883 10.6787 8.19695 14.0003 8.19695C17.322 8.19695 20.008 10.883 20.008 14.2047C20.008 14.6199 19.966 15.0256 19.8861 15.4176C19.8062 15.8096 19.6883 16.1879 19.5364 16.5485C19.3846 16.9091 19.1987 17.252 18.9829 17.573C18.7672 17.894 18.5214 18.1931 18.2498 18.4663C17.9781 18.7395 17.6805 18.9867 17.3609 19.2039C17.0413 19.4211 16.6998 19.6083 16.3403 19.7613C15.9809 19.9143 15.6035 20.0331 15.2121 20.1137" fill="#FF5A67"/>
<path d="M12.536 20.0563C12.2332 19.9803 11.9394 19.8813 11.6565 19.7613C11.2959 19.6083 10.953 19.4211 10.632 19.2039C10.311 18.9867 10.0119 18.7395 9.73867 18.4663C9.46547 18.1931 9.21824 17.894 9.00103 17.573C8.78383 17.252 8.59669 16.9091 8.44369 16.5485C8.29069 16.1879 8.17184 15.8096 8.09124 15.4176C8.01065 15.0256 7.9683 14.6199 7.9683 14.2047C7.9683 10.883 10.6787 8.19695 14.0003 8.19695C17.322 8.19695 20.008 10.883 20.008 14.2047C20.008 14.6199 19.966 15.0256 19.8861 15.4176C19.8062 15.8096 19.6883 16.1879 19.5364 16.5485C19.3846 16.9091 19.1987 17.252 18.9829 17.573C18.7672 17.894 18.5214 18.1931 18.2498 18.4663C17.9781 18.7395 17.6805 18.9867 17.3609 19.2039C17.0413 19.4211 16.6998 19.6083 16.3403 19.7613C15.9809 19.9143 15.6035 20.0331 15.2121 20.1137M11.8356 2.14062V5.15666C10.874 5.38295 9.9545 5.7606 9.11145 6.27546L6.99538 4.15942L3.93072 7.22405L6.04679 9.34015C5.53426 10.1757 5.1567 11.0868 4.92796 12.04H1.93628V16.3937H4.92796C5.1567 17.3468 5.53426 18.2579 6.04679 19.0935L3.93072 21.2096L6.99538 24.2743L9.11145 22.1582C9.9545 22.6731 10.874 23.0507 11.8356 23.277V26.2688H16.165V23.277C17.1182 23.0483 18.0293 22.6707 18.8648 22.1582L20.9809 24.2743L24.0456 21.2096L21.9295 19.0935C22.442 18.2579 22.8196 17.3468 23.0483 16.3937H26.0644V12.04H23.0483C22.8196 11.0868 22.442 10.1757 21.9295 9.34015L24.0456 7.22405L20.9809 4.15942L18.8648 6.27546C18.0293 5.76296 17.1182 5.38538 16.165 5.15666V2.14062H11.8356Z" stroke="#373748" stroke-width="0.89" stroke-linecap="round" stroke-linejoin="round"/>
<path d="M4.99072 25.9042V25.145C4.99072 24.4143 5.55915 23.7648 6.20877 23.4398C8.88849 21.9781 11.9054 20.4832 11.9054 20.4832L12.5977 20.1412C13.006 20.2902 13.4022 20.486 13.9746 20.5044C14.627 20.4556 14.9301 20.2577 15.3922 20.1211L16.0314 20.4331C16.2751 20.5957 18.6299 21.6512 22.1217 23.6001C22.7713 24.0058 23.0149 24.6558 23.0149 25.4679V25.9498" fill="#00D1B6"/>
<path d="M4.99072 25.9042V25.145C4.99072 24.4143 5.55915 23.7648 6.20877 23.4398C8.88849 21.9781 11.9054 20.4832 11.9054 20.4832L12.5977 20.1412C13.006 20.2902 13.4022 20.486 13.9746 20.5044C14.627 20.4556 14.9301 20.2577 15.3922 20.1211L16.0314 20.4331C16.2751 20.5957 18.6299 21.6512 22.1217 23.6001C22.7713 24.0058 23.0149 24.6558 23.0149 25.4679V25.9498" stroke="#373748" stroke-linecap="round" stroke-linejoin="round"/>
<path d="M11.9054 20.4805L12.5977 20.1384C13.006 20.2875 13.4022 20.4832 13.9746 20.5016C14.627 20.4528 14.9301 20.255 15.3921 20.1184L16.0314 20.4304M13.9559 11.2266C12.2313 11.2266 10.843 12.6152 10.843 14.3396V17.3875C10.843 19.1119 12.618 20.5003 13.9559 20.5003C15.2937 20.5003 17.0686 19.1119 17.0686 17.3875V14.3396C17.0686 12.6152 15.6803 11.2266 13.9559 11.2266Z" stroke="#373748" stroke-linecap="round" stroke-linejoin="round"/>
</svg>
