<svg width="28" height="28" viewBox="0 0 28 28" fill="none" xmlns="http://www.w3.org/2000/svg">
<path d="M25.9853 15.323V19.3868C25.9853 20.4641 25.0709 21.0127 23.9427 21.0127H21.7634V13.0469H23.9427C25.0709 13.0469 25.9853 14.2456 25.9853 15.323Z" fill="#00ACEA"/>
<path d="M19.4688 0.972662C20.7317 0.972699 21.9544 1.41679 22.923 2.22723C23.8915 3.03768 24.5443 4.16288 24.767 5.40598C24.9898 6.64908 24.7683 7.93092 24.1415 9.02726C23.5146 10.1236 22.5222 10.9646 21.3379 11.4031C20.1536 11.8417 18.8528 11.8499 17.663 11.4262C16.4733 11.0026 15.4704 10.1741 14.8298 9.08573C14.1892 7.99736 13.9517 6.7184 14.1588 5.4726C14.366 4.2268 15.0045 3.09349 15.9628 2.27094H15.9634C16.9382 1.43154 18.1824 0.970738 19.4688 0.972662Z" fill="#FEDB41"/>
<path d="M17.541 24.4593C17.5426 24.4976 17.5437 24.5353 17.5437 24.573C17.5437 25.9501 16.3433 27.028 14.8854 27.028C13.3869 27.028 12.1614 25.8576 12.1614 24.4593C12.1624 24.1175 12.2335 23.7796 12.3704 23.4665C12.5073 23.1533 12.7069 22.8716 12.9571 22.6387C13.4729 22.156 14.1536 21.8884 14.8601 21.8906C15.5666 21.8929 16.2456 22.1648 16.7584 22.6508C17.0041 22.8839 17.2 23.1643 17.3345 23.4751C17.469 23.7859 17.5392 24.1206 17.541 24.4593Z" fill="#00EFD1"/>
<path d="M6.57723 13.0469V21.0127H4.05723C2.92902 21.0127 2.01465 20.1393 2.01465 19.062V14.9976C2.01465 13.9202 2.92902 13.0469 4.05723 13.0469H6.57723Z" fill="#00ACEA"/>
<path d="M23.9427 12.6331H23.625V10.7059C23.625 10.6147 23.6263 10.5219 23.6232 10.4286C24.6943 9.34427 25.2926 7.88012 25.2875 6.35604C25.288 5.26074 24.9794 4.18753 24.3971 3.25987C23.8147 2.33221 22.9823 1.58778 21.9957 1.1122C21.009 0.636625 19.9081 0.449227 18.8197 0.571564C17.7312 0.6939 16.6994 1.121 15.843 1.80374C15.6035 1.76157 15.3624 1.72783 15.1232 1.70377C14.8104 1.67227 14.4878 1.65515 14.1673 1.65291C8.95048 1.65291 4.70312 5.71406 4.70312 10.7059V12.6331H4.05727C2.68975 12.6331 1.58594 13.6809 1.58594 14.9978V19.0621C1.58594 20.379 2.68975 21.4378 4.05727 21.4378H6.57727C6.63327 21.4389 6.68893 21.4287 6.74087 21.4077C6.79281 21.3867 6.83996 21.3554 6.87947 21.3157C6.91898 21.276 6.95003 21.2287 6.97075 21.1766C6.99147 21.1246 7.00142 21.0688 7 21.0128V13.0471C7.0012 12.9916 6.99102 12.9365 6.97009 12.8852C6.94915 12.8338 6.91791 12.7873 6.87829 12.7485C6.83868 12.7097 6.79152 12.6794 6.73974 12.6596C6.68797 12.6397 6.63267 12.6307 6.57727 12.6331H5.57812V10.7059C5.57812 6.19635 9.43305 2.52791 14.1641 2.52791C14.4543 2.52993 14.7481 2.54557 15.0339 2.57439L15.0426 2.57527C14.3203 3.42085 13.8554 4.45565 13.7028 5.5572C13.5503 6.65876 13.7164 7.78096 14.1817 8.79103C14.647 9.80109 15.3919 10.6567 16.3282 11.2567C17.2646 11.8566 18.3532 12.1758 19.4653 12.1764C20.652 12.1764 21.8203 11.82 22.75 11.1597V12.6331H21.7634C21.5218 12.6331 21.3281 12.8054 21.3281 13.0471V21.0128C21.3281 21.0695 21.3395 21.1256 21.3615 21.1779C21.3835 21.2301 21.4157 21.2774 21.4563 21.317C21.4968 21.3566 21.5449 21.3877 21.5977 21.4084C21.6504 21.4291 21.7068 21.4391 21.7634 21.4378H23.0148L22.6725 21.885C21.5723 23.3017 19.7862 24.1121 17.9484 24.0423C17.8525 23.3897 17.5403 22.7881 17.0619 22.334C16.4679 21.7702 15.6808 21.4548 14.8618 21.4523C14.0428 21.4497 13.2539 21.7604 12.6564 22.3205C12.362 22.5924 12.1271 22.9224 11.9666 23.2896C11.8061 23.6568 11.7235 24.0533 11.7239 24.454C11.7243 24.8548 11.8078 25.2511 11.969 25.618C12.1302 25.9848 12.3658 26.3143 12.6607 26.5856C13.2618 27.1537 14.0584 27.4687 14.8854 27.4654C16.4662 27.4654 17.7733 26.3524 17.958 24.9212C18.0274 24.9234 18.0968 24.9249 18.1658 24.9249C20.193 24.9249 22.1416 24.0011 23.3634 22.4279L24.1217 21.4455C25.5032 21.3796 26.4141 20.5694 26.4141 19.387V15.3232C26.4141 14.6876 26.1625 14.034 25.7159 13.5093C25.2286 12.9367 24.6017 12.6331 23.9427 12.6331ZM6.125 20.5628H4.05727C3.1722 20.5628 2.46094 19.8965 2.46094 19.0621V14.9978C2.46094 14.1634 3.1722 13.5081 4.05727 13.5081H6.125V20.5628ZM14.5234 6.35604C14.5232 5.64595 14.676 4.94416 14.9714 4.29843C15.2667 3.65269 15.6978 3.07816 16.2351 2.61393C16.2397 2.61027 16.2443 2.60655 16.2487 2.60267C17.1049 1.86822 18.1863 1.4485 19.3137 1.41312C20.4411 1.37773 21.5468 1.72882 22.4473 2.40814C23.3477 3.08746 23.9889 4.05419 24.2645 5.14798C24.5401 6.24178 24.4335 7.39692 23.9623 8.42179C23.4912 9.44667 22.6839 10.2797 21.6743 10.7827C20.6647 11.2857 19.5134 11.4285 18.4115 11.1873C17.3096 10.9462 16.3233 10.3356 15.6161 9.45685C14.9089 8.57811 14.5233 7.48401 14.5234 6.35604ZM14.8854 26.5904C13.646 26.5904 12.5989 25.6145 12.5989 24.4592C12.5997 24.1769 12.6586 23.8977 12.772 23.6391C12.8854 23.3806 13.0509 23.1481 13.2581 22.9563C13.6922 22.551 14.2644 22.3263 14.8583 22.3281C15.4522 22.3298 16.0232 22.5579 16.4549 22.9657C16.6586 23.1577 16.8211 23.3891 16.9326 23.6458C17.0441 23.9026 17.1023 24.1793 17.1035 24.4592C17.1035 24.4655 17.1035 24.4718 17.104 24.4782C17.1053 24.5101 17.1062 24.5416 17.1062 24.573C17.1062 25.6854 16.11 26.5904 14.8854 26.5904ZM25.5391 19.387C25.5391 20.2631 24.7188 20.5628 23.9427 20.5628H22.2031V13.5081H23.9427C24.6695 13.5081 25.5391 14.3047 25.5391 15.3232V19.387Z" fill="#083863"/>
<path d="M19.5027 2.41821C19.184 2.41366 18.8676 2.47246 18.5719 2.59121C18.2761 2.70996 18.0069 2.88629 17.7799 3.10995C17.5529 3.33361 17.3725 3.60016 17.2494 3.8941C17.1262 4.18804 17.0627 4.50352 17.0625 4.82222V5.25043H17.9375V4.82222C17.9374 4.5402 18.0153 4.26365 18.1625 4.0231C18.3097 3.78254 18.5205 3.58736 18.7717 3.45909C19.0229 3.33082 19.3046 3.27447 19.5858 3.29625C19.8669 3.31803 20.1366 3.41709 20.3651 3.5825C20.5935 3.74792 20.7717 3.97324 20.8801 4.23359C20.9886 4.49394 21.0229 4.77919 20.9794 5.05783C20.9359 5.33648 20.8162 5.59768 20.6336 5.81259C20.451 6.02749 20.2125 6.18775 19.9445 6.27565C19.6775 6.36382 19.4453 6.53433 19.2812 6.7627C19.1171 6.99107 19.0296 7.26556 19.0313 7.54676V8.80512H19.9063V7.54676C19.9049 7.45012 19.9343 7.35555 19.99 7.27661C20.0458 7.19767 20.1251 7.13841 20.2166 7.10734C20.7575 6.9303 21.218 6.56715 21.5163 6.08248C21.8145 5.59781 21.9312 5.02305 21.8456 4.46043C21.7599 3.89782 21.4775 3.38383 21.0485 3.00988C20.6195 2.63593 20.0718 2.42628 19.5027 2.41821Z" fill="#083863"/>
<path d="M19.9062 9.07812H19.0312V10.2812H19.9062V9.07812Z" fill="#083863"/>
</svg>
