<svg width="24" height="26" viewBox="0 0 24 26" fill="none" xmlns="http://www.w3.org/2000/svg">
<path fill-rule="evenodd" clip-rule="evenodd" d="M22.2744 7.89271L21.5482 6.6326C20.9339 5.56636 19.5725 5.19853 18.5048 5.81033C17.9965 6.10973 17.3901 6.19467 16.8191 6.04643C16.2482 5.89819 15.7597 5.52893 15.4613 5.02009C15.2693 4.69667 15.1662 4.32829 15.1623 3.95221C15.1796 3.34925 14.9521 2.76496 14.5317 2.33244C14.1112 1.89992 13.5336 1.656 12.9304 1.65625H11.4674C10.8764 1.65625 10.3098 1.89173 9.89296 2.3106C9.4761 2.72947 9.24333 3.29719 9.24617 3.88813C9.22866 5.10824 8.23452 6.08811 7.01429 6.08798C6.63821 6.08408 6.26983 5.98093 5.9464 5.78897C4.8787 5.17718 3.51726 5.54501 2.90292 6.61125L2.12336 7.89271C1.50977 8.95762 1.87259 10.3182 2.93496 10.9362C3.62551 11.3349 4.05091 12.0717 4.05091 12.8691C4.05091 13.6664 3.62551 14.4033 2.93496 14.8019C1.87394 15.4158 1.51072 16.773 2.12336 17.8347L2.86021 19.1055C3.14805 19.6249 3.631 20.0082 4.20219 20.1705C4.77337 20.3328 5.38571 20.2609 5.90368 19.9705C6.41289 19.6734 7.01968 19.592 7.58919 19.7444C8.1587 19.8968 8.64373 20.2704 8.93648 20.7821C9.12844 21.1055 9.23159 21.4739 9.23549 21.85C9.23549 23.0826 10.2347 24.0819 11.4674 24.0819H12.9304C14.1589 24.0819 15.1564 23.0891 15.1623 21.8607C15.1594 21.2679 15.3936 20.6985 15.8128 20.2793C16.232 19.8602 16.8013 19.6259 17.3942 19.6288C17.7693 19.6388 18.1362 19.7416 18.462 19.9278C19.5269 20.5414 20.8875 20.1786 21.5055 19.1162L22.2744 17.8347C22.572 17.3239 22.6537 16.7155 22.5014 16.1443C22.349 15.573 21.9753 15.0861 21.4628 14.7913C20.9504 14.4964 20.5766 14.0095 20.4242 13.4383C20.2719 12.867 20.3536 12.2586 20.6512 11.7478C20.8447 11.4099 21.1249 11.1297 21.4628 10.9362C22.5188 10.3185 22.8808 8.9659 22.2744 7.90339V7.89271Z" stroke="#155B9F" stroke-width="2" stroke-linecap="round" stroke-linejoin="round"/>
<path d="M12.2042 15.9436C13.9027 15.9436 15.2796 14.5668 15.2796 12.8683C15.2796 11.1698 13.9027 9.79297 12.2042 9.79297C10.5058 9.79297 9.12891 11.1698 9.12891 12.8683C9.12891 14.5668 10.5058 15.9436 12.2042 15.9436Z" stroke="#155B9F" stroke-width="2" stroke-linecap="round" stroke-linejoin="round"/>
</svg>
