<svg width="28" height="28" viewBox="0 0 28 28" fill="none" xmlns="http://www.w3.org/2000/svg">
<path d="M24.5 1.75H7C6.0335 1.75 5.25 2.5335 5.25 3.5V15.75C5.25 16.7165 6.0335 17.5 7 17.5H24.5C25.4665 17.5 26.25 16.7165 26.25 15.75V3.5C26.25 2.5335 25.4665 1.75 24.5 1.75Z" fill="#FF9797"/>
<path d="M24.5 18.375H7C6.30381 18.375 5.63613 18.0984 5.14384 17.6062C4.65156 17.1139 4.375 16.4462 4.375 15.75V3.5C4.375 2.80381 4.65156 2.13613 5.14384 1.64384C5.63613 1.15156 6.30381 0.875 7 0.875H24.5C25.1962 0.875 25.8639 1.15156 26.3562 1.64384C26.8484 2.13613 27.125 2.80381 27.125 3.5V15.75C27.125 16.4462 26.8484 17.1139 26.3562 17.6062C25.8639 18.0984 25.1962 18.375 24.5 18.375ZM7 2.625C6.76794 2.625 6.54538 2.71719 6.38128 2.88128C6.21719 3.04538 6.125 3.26794 6.125 3.5V15.75C6.125 15.9821 6.21719 16.2046 6.38128 16.3687C6.54538 16.5328 6.76794 16.625 7 16.625H24.5C24.7321 16.625 24.9546 16.5328 25.1187 16.3687C25.2828 16.2046 25.375 15.9821 25.375 15.75V3.5C25.375 3.26794 25.2828 3.04538 25.1187 2.88128C24.9546 2.71719 24.7321 2.625 24.5 2.625H7Z" fill="#6D6DAA"/>
<path d="M21 5.25H3.5C3.03587 5.25 2.59075 5.43437 2.26256 5.76256C1.93437 6.09075 1.75 6.53587 1.75 7V19.25C1.75 19.7141 1.93437 20.1592 2.26256 20.4874C2.59075 20.8156 3.03587 21 3.5 21H5.25V26.25L11.8387 21H21C21.4641 21 21.9092 20.8156 22.2374 20.4874C22.5656 20.1592 22.75 19.7141 22.75 19.25V7C22.75 6.53587 22.5656 6.09075 22.2374 5.76256C21.9092 5.43437 21.4641 5.25 21 5.25Z" fill="#FFC661"/>
<path d="M5.25 27.125C5.11963 27.1242 4.99108 27.0943 4.87375 27.0375C4.72485 26.9666 4.59902 26.855 4.51078 26.7157C4.42254 26.5764 4.37547 26.4149 4.375 26.25V21.875H3.5C2.80381 21.875 2.13613 21.5984 1.64384 21.1062C1.15156 20.6139 0.875 19.9462 0.875 19.25V7C0.875 6.30381 1.15156 5.63613 1.64384 5.14384C2.13613 4.65156 2.80381 4.375 3.5 4.375H21C21.6962 4.375 22.3639 4.65156 22.8562 5.14384C23.3484 5.63613 23.625 6.30381 23.625 7V19.25C23.625 19.9462 23.3484 20.6139 22.8562 21.1062C22.3639 21.5984 21.6962 21.875 21 21.875H12.1275L5.78375 26.9325C5.63215 27.0542 5.44436 27.1219 5.25 27.125ZM3.5 6.125C3.26794 6.125 3.04538 6.21719 2.88128 6.38128C2.71719 6.54538 2.625 6.76794 2.625 7V19.25C2.625 19.4821 2.71719 19.7046 2.88128 19.8687C3.04538 20.0328 3.26794 20.125 3.5 20.125H5.25C5.48206 20.125 5.70462 20.2172 5.86872 20.3813C6.03281 20.5454 6.125 20.7679 6.125 21V24.43L11.2962 20.3175C11.4502 20.194 11.6414 20.1261 11.8387 20.125H21C21.2321 20.125 21.4546 20.0328 21.6187 19.8687C21.7828 19.7046 21.875 19.4821 21.875 19.25V7C21.875 6.76794 21.7828 6.54538 21.6187 6.38128C21.4546 6.21719 21.2321 6.125 21 6.125H3.5Z" fill="#6D6DAA"/>
<path d="M6.14258 14.875C7.10908 14.875 7.89258 14.0915 7.89258 13.125C7.89258 12.1585 7.10908 11.375 6.14258 11.375C5.17608 11.375 4.39258 12.1585 4.39258 13.125C4.39258 14.0915 5.17608 14.875 6.14258 14.875Z" fill="#EEF5FD"/>
<path d="M6.125 15.75C5.60582 15.75 5.09831 15.596 4.66663 15.3076C4.23495 15.0192 3.8985 14.6092 3.69982 14.1295C3.50114 13.6499 3.44915 13.1221 3.55044 12.6129C3.65173 12.1037 3.90173 11.636 4.26885 11.2688C4.63596 10.9017 5.10369 10.6517 5.61289 10.5504C6.12209 10.4492 6.64989 10.5011 7.12954 10.6998C7.6092 10.8985 8.01917 11.235 8.30761 11.6666C8.59605 12.0983 8.75 12.6058 8.75 13.125C8.75 13.8212 8.47344 14.4889 7.98116 14.9812C7.48887 15.4734 6.82119 15.75 6.125 15.75ZM6.125 12.25C5.95194 12.25 5.78277 12.3013 5.63888 12.3975C5.49498 12.4936 5.38283 12.6303 5.31661 12.7902C5.25038 12.95 5.23305 13.126 5.26681 13.2957C5.30058 13.4654 5.38391 13.6213 5.50628 13.7437C5.62865 13.8661 5.78456 13.9494 5.9543 13.9832C6.12403 14.017 6.29996 13.9996 6.45985 13.9334C6.61973 13.8672 6.75639 13.755 6.85254 13.6111C6.94868 13.4672 7 13.2981 7 13.125C7 12.8929 6.90781 12.6704 6.74372 12.5063C6.57962 12.3422 6.35707 12.25 6.125 12.25Z" fill="#6D6DAA"/>
<path d="M12.2676 14.875C13.2341 14.875 14.0176 14.0915 14.0176 13.125C14.0176 12.1585 13.2341 11.375 12.2676 11.375C11.3011 11.375 10.5176 12.1585 10.5176 13.125C10.5176 14.0915 11.3011 14.875 12.2676 14.875Z" fill="#EEF5FD"/>
<path d="M12.25 15.75C11.7308 15.75 11.2233 15.596 10.7916 15.3076C10.36 15.0192 10.0235 14.6092 9.82482 14.1295C9.62614 13.6499 9.57415 13.1221 9.67544 12.6129C9.77673 12.1037 10.0267 11.636 10.3938 11.2688C10.761 10.9017 11.2287 10.6517 11.7379 10.5504C12.2471 10.4492 12.7749 10.5011 13.2545 10.6998C13.7342 10.8985 14.1442 11.235 14.4326 11.6666C14.721 12.0983 14.875 12.6058 14.875 13.125C14.875 13.8212 14.5984 14.4889 14.1062 14.9812C13.6139 15.4734 12.9462 15.75 12.25 15.75ZM12.25 12.25C12.0769 12.25 11.9078 12.3013 11.7639 12.3975C11.62 12.4936 11.5078 12.6303 11.4416 12.7902C11.3754 12.95 11.3581 13.126 11.3918 13.2957C11.4256 13.4654 11.5089 13.6213 11.6313 13.7437C11.7537 13.8661 11.9096 13.9494 12.0793 13.9832C12.249 14.017 12.425 13.9996 12.5849 13.9334C12.7447 13.8672 12.8814 13.755 12.9775 13.6111C13.0737 13.4672 13.125 13.2981 13.125 13.125C13.125 12.8929 13.0328 12.6704 12.8687 12.5063C12.7046 12.3422 12.4821 12.25 12.25 12.25Z" fill="#6D6DAA"/>
<path d="M18.3926 14.875C19.3591 14.875 20.1426 14.0915 20.1426 13.125C20.1426 12.1585 19.3591 11.375 18.3926 11.375C17.4261 11.375 16.6426 12.1585 16.6426 13.125C16.6426 14.0915 17.4261 14.875 18.3926 14.875Z" fill="#EEF5FD"/>
<path d="M18.375 15.75C17.8558 15.75 17.3483 15.596 16.9166 15.3076C16.485 15.0192 16.1485 14.6092 15.9498 14.1295C15.7511 13.6499 15.6992 13.1221 15.8004 12.6129C15.9017 12.1037 16.1517 11.636 16.5188 11.2688C16.886 10.9017 17.3537 10.6517 17.8629 10.5504C18.3721 10.4492 18.8999 10.5011 19.3795 10.6998C19.8592 10.8985 20.2692 11.235 20.5576 11.6666C20.846 12.0983 21 12.6058 21 13.125C21 13.8212 20.7234 14.4889 20.2312 14.9812C19.7389 15.4734 19.0712 15.75 18.375 15.75ZM18.375 12.25C18.2019 12.25 18.0328 12.3013 17.8889 12.3975C17.745 12.4936 17.6328 12.6303 17.5666 12.7902C17.5004 12.95 17.4831 13.126 17.5168 13.2957C17.5506 13.4654 17.6339 13.6213 17.7563 13.7437C17.8787 13.8661 18.0346 13.9494 18.2043 13.9832C18.374 14.017 18.55 13.9996 18.7098 13.9334C18.8697 13.8672 19.0064 13.755 19.1025 13.6111C19.1987 13.4672 19.25 13.2981 19.25 13.125C19.25 12.8929 19.1578 12.6704 18.9937 12.5063C18.8296 12.3422 18.6071 12.25 18.375 12.25Z" fill="#6D6DAA"/>
</svg>
