<svg width="172" height="172" viewBox="0 0 172 172" fill="none" xmlns="http://www.w3.org/2000/svg">
<path d="M30.7817 64.6121C30.7205 64.6097 30.6528 64.6104 30.592 64.5984C29.7108 64.4613 29.1106 63.6389 29.2475 62.7609C33.621 34.5044 58.4998 14.0273 87.111 15.1265L90.3297 15.2501C118.899 16.3477 142.132 38.6408 144.365 67.1028C144.434 67.9855 143.769 68.7594 142.883 68.8317C142.003 68.9107 141.223 68.2425 141.154 67.3534C139.049 40.5177 117.144 19.5037 90.2061 18.4688L86.9874 18.3452C60.0081 17.3087 36.5539 36.6124 32.4295 63.2538C32.3047 64.0678 31.5863 64.643 30.7817 64.6121Z" fill="#0277BC"/>
<path d="M81.7265 29.4272L94.6014 29.9218C115.562 30.7271 133.294 43.2223 141.822 60.8825C136.995 36.5952 116.092 17.8536 90.268 16.8615L87.0492 16.7378C61.2255 15.7458 38.9462 32.8284 32.2697 56.6738C42.1273 39.7199 60.7662 28.622 81.7265 29.4272Z" fill="#63FFDA"/>
<path d="M141.764 62.4881C141.181 62.4657 140.64 62.1258 140.374 61.5773C131.789 43.7988 114.228 32.2869 94.5428 31.5306L81.6679 31.036C61.9822 30.2797 43.5867 40.4103 33.6636 57.4778C33.2563 58.1777 32.3847 58.4634 31.6456 58.1513C30.8969 57.8389 30.4998 57.0145 30.72 56.2332C37.7774 31.0293 60.9654 14.1233 87.111 15.1278L90.333 15.2516C116.334 16.2504 138.058 34.6819 143.317 60.1366C143.444 60.3736 143.51 60.6501 143.499 60.943C143.465 61.8346 142.64 62.4122 141.802 62.4896L141.764 62.4881ZM81.7883 27.8172L94.6664 28.3119C111.188 28.9466 126.298 36.7219 136.398 49.2849C128.197 31.4084 110.597 19.2535 90.2093 18.4703L86.9874 18.3465C66.6 17.5633 48.1188 28.332 38.5711 45.5267C49.6052 33.7756 65.2667 27.1825 81.7883 27.8172Z" fill="#0277BC"/>
<path d="M54.1741 31.6445C53.7042 31.6264 53.2421 31.4024 52.9419 30.9944C52.4117 30.2809 52.5601 29.2713 53.2736 28.7378C62.9227 21.572 74.8978 17.8834 86.9905 18.348L90.2092 18.4717C97.7668 18.762 105.011 20.5908 111.733 23.9081C112.53 24.303 112.857 25.2665 112.466 26.067C112.071 26.8609 111.107 27.1978 110.307 26.7996C103.992 23.6849 97.1893 21.9633 90.0856 21.6904L86.8669 21.5667C75.5048 21.1302 64.2539 24.5952 55.1953 31.3259C54.89 31.5527 54.5282 31.6581 54.1741 31.6445Z" fill="white"/>
<path d="M28.6214 111.197L31.8401 111.321L33.3239 72.6964L30.1052 72.5727C22.9951 72.2996 17.0089 77.8428 16.7357 84.953L16.2411 97.8279C15.968 104.938 21.5112 110.924 28.6214 111.197Z" fill="#8B9EFF"/>
<path d="M25.5478 112.328C25.4223 112.323 25.2971 112.308 25.1696 112.271C18.7089 110.45 14.3737 104.481 14.6318 97.7638L15.1264 84.889C15.378 78.3389 20.0153 72.7502 26.4048 71.3098C27.2636 71.1075 28.1356 71.6503 28.3311 72.5185C28.5266 73.3867 27.9842 74.2491 27.116 74.4446C22.1474 75.5689 18.541 79.9142 18.3451 85.0126L17.8505 97.8875C17.6498 103.111 21.0205 107.754 26.0462 109.172C26.9009 109.411 27.3986 110.3 27.1563 111.155C26.9509 111.885 26.2753 112.356 25.5478 112.328Z" fill="#0277BC"/>
<path d="M19.398 99.56C18.5096 99.5259 17.8163 98.7772 17.8504 97.8888L18.3451 85.014C18.532 80.1473 21.8033 75.9664 26.4841 74.6151C27.3379 74.3739 28.2347 74.8596 28.4791 75.7136C28.7268 76.5676 28.2347 77.461 27.3807 77.7086C24.033 78.676 21.6973 81.6614 21.5638 85.1376L21.0692 98.0125C21.035 98.9009 20.2863 99.5942 19.398 99.56Z" fill="#E8EAF6"/>
<path d="M39.6395 118.066L36.4208 117.943C33.7525 117.84 31.6758 115.594 31.7782 112.929L33.3857 71.0859C33.4881 68.4208 35.7309 66.3408 38.3992 66.4433L41.618 66.5669C44.2863 66.6695 46.3629 68.9154 46.2606 71.5805L44.6531 113.424C44.5507 116.089 42.3078 118.169 39.6395 118.066Z" fill="#63FFDA"/>
<path d="M39.5777 119.675L36.359 119.551C32.8087 119.415 30.0324 116.42 30.1689 112.867L31.7764 71.0234C31.9129 67.4699 34.9109 64.6969 38.4611 64.8332L41.6798 64.9569C45.2301 65.0933 48.0065 68.0882 47.87 71.6416L46.2625 113.485C46.1259 117.038 43.128 119.811 39.5777 119.675ZM38.3375 68.052C36.564 67.9838 35.0632 69.3735 34.9951 71.147L33.3876 112.99C33.3195 114.764 34.7091 116.265 36.4827 116.333L39.7014 116.456C41.4749 116.525 42.9756 115.135 43.0437 113.361L44.6512 71.518C44.7194 69.7445 43.3297 68.2438 41.5562 68.1756L38.3375 68.052Z" fill="#0277BC"/>
<path d="M35.0588 111.444C34.1704 111.41 33.4771 110.661 33.5113 109.773L34.9951 71.1484C35.0633 69.3749 36.564 67.9852 38.3375 68.0533L39.9469 68.1152C40.8352 68.1493 41.5285 68.898 41.4944 69.7864C41.4603 70.6747 40.7116 71.368 39.8232 71.3339L38.2138 71.2721L36.73 109.897C36.6959 110.785 35.9472 111.478 35.0588 111.444Z" fill="white"/>
<path d="M94.7306 152.417L72.1995 151.552C71.3112 151.517 70.6179 150.769 70.652 149.88C70.6861 148.992 71.4348 148.299 72.3232 148.333L94.8542 149.198C111.505 149.838 127.279 140.716 135.038 125.957C135.452 125.17 136.424 124.866 137.211 125.28C138.001 125.694 138.302 126.666 137.888 127.456C129.556 143.305 112.617 153.104 94.7306 152.417Z" fill="#0277BC"/>
<path d="M94.607 155.635L75.2947 154.893C73.5179 154.825 72.1312 153.331 72.1996 151.551L72.3232 148.332C72.3916 146.552 73.8889 145.169 75.6656 145.237L94.9779 145.979C96.7547 146.047 98.1414 147.541 98.073 149.321L97.9493 152.54C97.881 154.32 96.3837 155.703 94.607 155.635Z" fill="#FFE47E"/>
<path d="M94.5451 157.244L75.2328 156.502C72.5709 156.399 70.4879 154.15 70.5902 151.488L70.7138 148.269C70.8161 145.608 73.0655 143.525 75.7274 143.627L95.0397 144.369C97.7016 144.471 99.7845 146.72 99.6823 149.382L99.5586 152.601C99.4564 155.263 97.2069 157.346 94.5451 157.244ZM75.6037 146.846C74.7153 146.811 73.9665 147.508 73.9325 148.393L73.8089 151.612C73.7749 152.497 74.468 153.249 75.3564 153.283L94.6687 154.025C95.5571 154.059 96.3059 153.363 96.3399 152.477L96.4636 149.259C96.4976 148.374 95.8044 147.622 94.916 147.588L75.6037 146.846Z" fill="#0277BC"/>
<path d="M75.4183 151.675C74.5299 151.641 73.8366 150.892 73.8707 150.004L73.9326 148.395C73.9667 147.506 74.7154 146.813 75.6037 146.847L91.6973 147.465C92.5857 147.499 93.279 148.248 93.2449 149.136C93.2107 150.025 92.4621 150.718 91.5737 150.684L77.0894 150.128C77.0553 151.016 76.3066 151.709 75.4183 151.675Z" fill="#FFF8E0"/>
<path d="M141.276 115.526L138.058 115.402L139.542 76.7773L142.76 76.901C149.87 77.1742 155.414 83.1603 155.141 90.2705L154.646 103.145C154.373 110.256 148.387 115.799 141.276 115.526Z" fill="#8B9EFF"/>
<path d="M144.283 116.885C143.559 116.858 142.918 116.343 142.769 115.599C142.59 114.728 143.154 113.88 144.025 113.7C149.132 112.665 152.836 108.298 153.037 103.084L153.531 90.2087C153.727 85.1232 150.474 80.5176 145.619 79.0062C144.772 78.7448 144.294 77.8432 144.555 76.9926C144.82 76.1453 145.731 75.6678 146.575 75.9355C152.819 77.8742 157.001 83.7952 156.75 90.3324L156.255 103.207C155.998 109.912 151.231 115.525 144.665 116.858C144.535 116.885 144.409 116.89 144.283 116.885Z" fill="#0277BC"/>
<path d="M141.4 112.304C140.512 112.27 139.818 111.521 139.853 110.633L140.966 81.664C141 80.7757 141.748 80.0824 142.637 80.1165C143.525 80.1506 144.218 80.8993 144.184 81.7877L143.071 110.756C143.037 111.645 142.289 112.338 141.4 112.304Z" fill="#E8EAF6"/>
<path d="M132.982 121.652L129.764 121.529C127.095 121.426 125.019 119.18 125.121 116.515L126.729 74.6718C126.831 72.0067 129.074 69.9267 131.742 70.0292L134.961 70.1529C137.629 70.2554 139.706 72.5013 139.603 75.1664L137.996 117.01C137.894 119.675 135.651 121.755 132.982 121.652Z" fill="#63FFDA"/>
<path d="M132.921 123.261L129.702 123.137C126.152 123.001 123.375 120.006 123.512 116.453L125.119 74.6093C125.256 71.0558 128.254 68.2828 131.804 68.4192L135.023 68.5428C138.573 68.6792 141.349 71.6741 141.213 75.2276L139.605 117.071C139.469 120.624 136.471 123.397 132.921 123.261ZM131.68 71.6379C129.907 71.5698 128.406 72.9595 128.338 74.733L126.73 116.576C126.662 118.35 128.052 119.851 129.826 119.919L133.044 120.042C134.818 120.11 136.318 118.721 136.387 116.947L137.994 75.1039C138.062 73.3304 136.673 71.8297 134.899 71.7616L131.68 71.6379Z" fill="#0277BC"/>
<path d="M128.402 115.03C127.513 114.996 126.82 114.247 126.854 113.359L128.338 74.7343C128.406 72.9608 129.907 71.5711 131.68 71.6393L133.29 71.7011C134.178 71.7352 134.871 72.4839 134.837 73.3723C134.803 74.2607 134.054 74.954 133.166 74.9198L131.557 74.858L130.073 113.483C130.039 114.371 129.29 115.064 128.402 115.03Z" fill="white"/>
<path d="M55.3997 60.2602V102.134C55.3997 103.916 56.8427 105.355 58.6207 105.355H86L96.1755 117.141C96.5813 117.551 97.2738 117.261 97.2738 116.69V105.355H113.379C115.157 105.355 116.6 103.916 116.6 102.134V60.2602C116.6 58.4789 115.157 57.0391 113.379 57.0391H58.6207C56.8427 57.0391 55.3997 58.4789 55.3997 60.2602Z" fill="#F5F5F5"/>
<path d="M96.6231 118.943C96.0272 118.943 95.4636 118.708 95.0351 118.28L85.2624 106.967H58.6207C55.9569 106.967 53.7891 104.799 53.7891 102.136V60.2613C53.7891 57.5975 55.9569 55.4297 58.6207 55.4297H113.379C116.043 55.4297 118.211 57.5975 118.211 60.2613V102.136C118.211 104.799 116.043 106.967 113.379 106.967H98.8844V116.688C98.8844 117.317 98.6299 117.903 98.1725 118.328C97.7505 118.724 97.2029 118.943 96.6231 118.943ZM58.6207 58.6508C57.7317 58.6508 57.0102 59.3755 57.0102 60.2613V102.136C57.0102 103.021 57.7317 103.746 58.6207 103.746H86C86.4703 103.746 86.9148 103.949 87.2176 104.307L95.6633 114.086V105.357C95.6633 104.468 96.3848 103.746 97.2738 103.746H113.379C114.268 103.746 114.99 103.021 114.99 102.136V60.2613C114.99 59.3755 114.268 58.6508 113.379 58.6508H58.6207Z" fill="#0277BC"/>
<path d="M58.6207 100.527C57.7317 100.527 57.0101 99.805 57.0101 98.916V60.2629C57.0101 59.3739 57.7317 58.6523 58.6207 58.6523H110.158C111.047 58.6523 111.769 59.3739 111.769 60.2629C111.769 61.1519 111.047 61.8734 110.158 61.8734H60.2312V98.916C60.2312 99.805 59.5097 100.527 58.6207 100.527Z" fill="white"/>
<path d="M91.0748 90.8692L65.0629 90.8617C64.1739 90.8617 63.4524 90.1402 63.4524 89.2512C63.4524 88.3622 64.1739 87.6406 65.0629 87.6406L91.0748 87.6481C91.9639 87.6481 92.6854 88.3696 92.6854 89.2586C92.6854 90.1477 91.9639 90.8692 91.0748 90.8692Z" fill="#0277BC"/>
<path d="M106.536 81.198L65.0629 81.1977C64.1739 81.1977 63.4524 80.4761 63.4524 79.5871C63.4524 78.6981 64.1739 77.9766 65.0629 77.9766L106.536 77.9769C107.425 77.9769 108.146 78.6984 108.146 79.5874C108.146 80.4764 107.425 81.198 106.536 81.198Z" fill="#0277BC"/>
<path d="M106.396 71.534L65.0629 71.5336C64.1739 71.5336 63.4524 70.8121 63.4524 69.923C63.4524 69.034 64.1739 68.3125 65.0629 68.3125L106.396 68.3129C107.285 68.3129 108.006 69.0344 108.006 69.9234C108.006 70.8125 107.285 71.534 106.396 71.534Z" fill="#0277BC"/>
</svg>
