<svg width="28" height="28" viewBox="0 0 28 28" fill="none" xmlns="http://www.w3.org/2000/svg">
<path d="M17.9753 0H3.03914C2.11344 0 1.36304 0.7504 1.36304 1.6761V22.8312C1.36304 23.7569 2.11344 24.5073 3.03914 24.5073H17.9753C18.901 24.5073 19.6514 23.7569 19.6514 22.8312V1.6761C19.6514 0.7504 18.901 0 17.9753 0Z" fill="#C9B77D"/>
<path d="M8.80721 4.71094C7.8815 4.71094 7.1311 5.46134 7.1311 6.38704V24.5077H17.9756C18.9013 24.5077 19.6517 23.7573 19.6517 22.8316V4.71094H8.80721Z" fill="#AA9865"/>
<path d="M23.0201 3.49219H10.0247C9.09903 3.49219 8.34863 4.24259 8.34863 5.16829V26.3234C8.34863 27.2491 9.09903 27.9995 10.0247 27.9995H24.9609C25.8866 27.9995 26.637 27.2491 26.637 26.3234V6.78864L23.0201 3.49219Z" fill="#FFEEAD"/>
<path d="M23.0203 3.49219V5.11229C23.0203 6.038 23.7707 6.7884 24.6964 6.7884H26.6369L23.0203 3.49219Z" fill="#96CEB4"/>
<path d="M23.8009 10.3125H11.5082C11.2849 10.3125 11.1023 10.4951 11.1023 10.7184C11.1023 10.9416 11.2849 11.1243 11.5082 11.1243H23.8009C24.0242 11.1243 24.2068 10.9416 24.2068 10.7184C24.2068 10.4951 24.0242 10.3125 23.8009 10.3125Z" fill="#FF6F69"/>
<path d="M23.8009 12.9766H11.5082C11.2849 12.9766 11.1023 13.1592 11.1023 13.3824C11.1023 13.6057 11.2849 13.7883 11.5082 13.7883H23.8009C24.0242 13.7883 24.2068 13.6057 24.2068 13.3824C24.2068 13.1592 24.0242 12.9766 23.8009 12.9766Z" fill="#FF6F69"/>
<path d="M23.8009 15.6445H11.5082C11.2849 15.6445 11.1023 15.8271 11.1023 16.0504C11.1023 16.2737 11.2849 16.4563 11.5082 16.4563H23.8009C24.0242 16.4563 24.2068 16.2737 24.2068 16.0504C24.2068 15.8271 24.0242 15.6445 23.8009 15.6445Z" fill="#FF6F69"/>
<path d="M23.8009 18.3125H11.5082C11.2849 18.3125 11.1023 18.4951 11.1023 18.7184C11.1023 18.9416 11.2849 19.1243 11.5082 19.1243H23.8009C24.0242 19.1243 24.2068 18.9416 24.2068 18.7184C24.2068 18.4951 24.0242 18.3125 23.8009 18.3125Z" fill="#FF6F69"/>
<path d="M23.8009 20.9805H11.5082C11.2849 20.9805 11.1023 21.1631 11.1023 21.3863C11.1023 21.6096 11.2849 21.7922 11.5082 21.7922H23.8009C24.0242 21.7922 24.2068 21.6096 24.2068 21.3863C24.2068 21.1633 24.0242 20.9805 23.8009 20.9805Z" fill="#FF6F69"/>
<path d="M23.8009 23.6484H11.5082C11.2849 23.6484 11.1023 23.831 11.1023 24.0543C11.1023 24.2776 11.2849 24.4602 11.5082 24.4602H23.8009C24.0242 24.4602 24.2068 24.2776 24.2068 24.0543C24.2068 23.831 24.0242 23.6484 23.8009 23.6484Z" fill="#FF6F69"/>
<path d="M14.7931 6.31999C14.7057 6.20751 14.5803 6.20313 14.4593 6.20313H13.4203C13.3037 6.20313 13.1868 6.20312 13.0992 6.31172C13.0617 6.34921 13.0325 6.41203 13.0325 6.49919C13.0325 6.54497 13.0366 6.63262 13.1075 6.70372C13.1993 6.80403 13.3078 6.79989 13.4203 6.79989H13.5747V8.68149C13.5747 8.82344 13.5747 8.9778 13.7081 9.09053C13.7958 9.16163 13.8917 9.17405 13.9501 9.17405C14.3049 9.17405 14.309 8.83196 14.309 8.66055V6.79965H14.4678C14.5805 6.79965 14.7013 6.79526 14.7889 6.68692C14.8347 6.62848 14.8515 6.56201 14.8515 6.49895C14.8515 6.44953 14.843 6.38306 14.7931 6.31999Z" fill="#71A58A"/>
<path d="M18.0828 8.63204C18.0494 8.61135 18.0119 8.59869 17.9786 8.57775C17.9367 8.55291 17.9243 8.53197 17.9077 8.50276C18.1246 8.19841 18.1621 8.14801 18.1621 8.03138C18.1621 7.86022 18.0243 7.73507 17.8617 7.73507C17.6822 7.73507 17.6031 7.87677 17.5447 7.98536L17.2944 7.6182C17.5113 7.42634 17.7701 7.19649 17.7701 6.84199C17.7701 6.49163 17.4865 6.19531 16.9983 6.19531C16.9065 6.19531 16.6896 6.19531 16.4933 6.34968C16.2555 6.5335 16.2513 6.7838 16.2513 6.85903C16.2513 7.13027 16.3599 7.30947 16.5016 7.50961C16.318 7.66422 16.0217 7.91451 16.0217 8.36105C16.0217 8.7158 16.2053 8.8911 16.3098 8.97023C16.5267 9.14116 16.7478 9.1582 16.8939 9.1582C17.2067 9.1582 17.3445 9.05399 17.4738 8.95368C17.5405 9.03281 17.6409 9.1582 17.8953 9.1582C18.1916 9.1582 18.2164 8.92032 18.2164 8.87016C18.2162 8.84898 18.2162 8.71117 18.0828 8.63204ZM16.906 8.6486C16.76 8.6486 16.6348 8.53173 16.6348 8.34815C16.6348 8.16018 16.7349 8.06449 16.8225 7.98536L17.1605 8.49423C17.1354 8.53173 17.0604 8.6486 16.906 8.6486ZM16.9937 7.15924C16.8936 7.0005 16.8478 6.92136 16.8478 6.83785C16.8478 6.73754 16.9104 6.66693 17.0105 6.66693C17.1106 6.66693 17.1856 6.7295 17.1856 6.84199C17.1856 6.98394 17.0772 7.07963 16.9937 7.15924Z" fill="#71A58A"/>
<path d="M21.0384 7.99917C20.838 7.99917 20.7421 8.1119 20.7046 8.20783C20.6878 8.25799 20.6837 8.31204 20.6795 8.36658C20.6712 8.44157 20.6588 8.5918 20.4584 8.5918C20.2624 8.5918 20.2291 8.43353 20.2206 8.38752C20.1913 8.25409 20.1913 7.90738 20.1913 7.74473C20.1913 7.65294 20.1913 7.17743 20.2123 7.01868C20.2249 6.94807 20.2498 6.76839 20.4711 6.76839C20.6756 6.76839 20.6839 6.91033 20.6966 7.0647C20.7007 7.14432 20.709 7.22345 20.7715 7.2904C20.8132 7.33618 20.8926 7.37781 21.0177 7.37781C21.3766 7.37781 21.3807 7.04425 21.3807 6.92738C21.3807 6.7063 21.335 6.46842 21.0679 6.30967C20.9176 6.22226 20.7382 6.16797 20.4377 6.16797C20.3082 6.16797 20.0246 6.176 19.7908 6.34327C19.4573 6.58919 19.4487 6.96487 19.4487 7.68654C19.4487 8.57134 19.5113 8.8343 19.8076 9.0303C19.8826 9.08021 20.0621 9.18905 20.4584 9.18905C20.7297 9.18905 21.005 9.13061 21.193 8.93875C21.3264 8.8007 21.3931 8.61322 21.3931 8.42136C21.3929 8.1662 21.2763 7.99917 21.0384 7.99917Z" fill="#71A58A"/>
</svg>
