<svg xmlns:xlink="http://www.w3.org/1999/xlink" _ngcontent-pnn-c243="" width="19" height="17" viewBox="0 0 19 17" fill="none" xmlns="http://www.w3.org/2000/svg"><path _ngcontent-pnn-c243="" d="M18.8187 10.3362L15.3934 7.13262C15.2927 7.03188 15.1315 6.97144 14.9905 6.97144H9.32874C8.70414 6.97144 8.11983 7.21322 7.67657 7.63633L4.97667 10.175H2.6193C1.16861 10.175 0 11.3437 0 12.7943V13.8219C0 14.6077 0.624602 15.2323 1.41039 15.2323H1.9947C2.39767 16.4614 3.74761 17.1263 4.97667 16.7233C5.68187 16.4815 6.22588 15.9375 6.46766 15.2323H12.7741C13.1771 16.4614 14.527 17.1263 15.7561 16.7233C16.4613 16.4815 17.0053 15.9375 17.2471 15.2323H17.5896C18.3754 15.2323 19 14.6077 19 13.8219V10.7795C19 10.6183 18.9396 10.4571 18.8187 10.3362ZM4.23118 15.6353C3.58643 15.6353 3.08272 15.1114 3.08272 14.4868C3.08272 13.8622 3.60658 13.3383 4.23118 13.3383C4.87593 13.3383 5.37964 13.8622 5.37964 14.4868C5.37964 15.1316 4.87593 15.6353 4.23118 15.6353ZM8.50265 8.52287C8.72429 8.32138 9.02651 8.20049 9.32874 8.20049H10.1145V10.1952H6.72959L8.50265 8.52287ZM10.0339 12.2906H9.30859C9.08696 12.2906 8.90562 12.1093 8.90562 11.8877C8.90562 11.666 9.08696 11.4847 9.30859 11.4847H10.0339C10.2556 11.4847 10.4369 11.666 10.4369 11.8877C10.4571 12.1093 10.2757 12.2906 10.0339 12.2906ZM11.3234 10.175V8.18034H12.9958L15.0509 10.175H11.3234ZM15.0308 15.6353C14.4062 15.6353 13.8823 15.1114 13.8823 14.4868C13.8823 13.8622 14.4062 13.3383 15.0308 13.3383C15.6755 13.3383 16.1792 13.8622 16.1792 14.4868C16.1792 15.1316 15.6755 15.6353 15.0308 15.6353Z" fill="#004A7F"></path><path _ngcontent-pnn-c243="" d="M7.57496 3.96925L6.88991 4.51326L8.03838 5.66172L8.58239 4.95652C8.70328 5.03712 8.82417 5.09756 8.94506 5.15801L8.84432 6.10498H10.4562L10.3555 5.17816C10.4763 5.13786 10.5972 5.07741 10.7181 4.99682L11.2621 5.66172L12.4106 4.51326L11.6852 3.9894C11.7255 3.88865 11.7457 3.78791 11.7658 3.66702V3.62672L12.5516 3.72747V2.11559L11.7658 2.21633C11.7457 2.09544 11.6852 1.97455 11.645 1.85366L12.3501 1.3298L11.2218 0.181336L10.6778 0.866384C10.5771 0.826087 10.4763 0.805939 10.3756 0.78579H10.3353L10.436 0H8.82417L8.94506 0.805939C8.82417 0.826087 8.70328 0.866384 8.60253 0.926829L8.03838 0.201485L6.88991 1.3298L7.59511 1.87381V1.89396C7.53467 1.9947 7.47422 2.11559 7.41377 2.23648L6.4668 2.11559V3.72747L7.41377 3.62672C7.45407 3.72747 7.51452 3.84836 7.57496 3.96925ZM9.56966 1.97455C10.1338 1.97455 10.5972 2.43796 10.5972 3.00212C10.5972 3.56628 10.1338 4.02969 9.56966 4.02969C9.0055 4.02969 8.54209 3.56628 8.54209 3.00212C8.54209 2.43796 9.0055 1.97455 9.56966 1.97455Z" fill="#004A7F"></path></svg>