<svg xmlns:xlink="http://www.w3.org/1999/xlink" _ngcontent-pnn-c243="" width="18" height="18" viewBox="0 0 18 18" fill="none" xmlns="http://www.w3.org/2000/svg"><path _ngcontent-pnn-c243="" d="M17.9903 8.5894L17.9828 8.4182L16.344 7.90076C16.3033 7.6281 16.2468 7.35521 16.1762 7.08816L17.4466 5.89513L17.4324 5.85756C17.2097 5.26071 16.9225 4.68613 16.5803 4.1498L16.4876 4.00582L14.8096 4.3768C14.6438 4.1678 14.4698 3.97095 14.2928 3.79119L14.8645 2.17049L14.7322 2.06205C14.2399 1.6544 13.7046 1.30007 13.1409 1.00828L12.9888 0.929994L11.7212 2.0904C11.4769 1.99434 11.2282 1.91087 10.9789 1.84226L10.6634 0.153389L10.4947 0.124143C9.87452 0.0193054 9.22714 -0.0198398 8.59012 0.00940657L8.41933 0.0172808L7.90179 1.65598C7.64234 1.69445 7.38492 1.74664 7.13492 1.81099L6.01861 0.50772L5.85817 0.567563C5.26142 0.790286 4.6865 1.07713 4.15005 1.41998L4.00604 1.51222L4.37732 3.19029C4.16783 3.357 3.97094 3.5309 3.79138 3.70728L2.17147 3.1363L2.06211 3.26768C1.6546 3.75992 1.3002 4.29536 1.00812 4.85891L0.929816 5.01077L2.09046 6.27826C1.99415 6.52236 1.9109 6.77163 1.84204 7.02045L0.153278 7.33563L0.124026 7.50436C0.0184922 8.12956 -0.019986 8.77006 0.0097164 9.4083L0.0173671 9.58041L1.65618 10.0978C1.69465 10.357 1.74686 10.6151 1.81144 10.8645L0.508582 11.9802L0.567762 12.141C0.79053 12.7374 1.07743 13.312 1.42013 13.8486L1.51261 13.9935L3.19125 13.6223C3.35754 13.8317 3.53125 14.0281 3.70789 14.2079L3.13635 15.8279L3.26776 15.9372C3.7619 16.3453 4.29744 16.7001 4.85931 16.9905L5.01143 17.0695L6.27985 15.9089C6.52377 16.0056 6.77287 16.0884 7.02129 16.1572L7.33676 17.8475L7.50553 17.8756C7.99314 17.9579 8.49403 18 8.99425 18C9.13286 18 9.27282 17.9966 9.41053 17.9903L9.58177 17.9827L10.1002 16.3442C10.3599 16.3055 10.6175 16.2538 10.8664 16.1892L11.9829 17.4931L12.1432 17.4322C12.7408 17.2092 13.316 16.9219 13.8517 16.5802L13.9953 16.4866L13.6242 14.809C13.8333 14.6425 14.0302 14.4686 14.21 14.292L15.8308 14.8632L15.9394 14.7314C16.3481 14.2373 16.7027 13.7015 16.9932 13.1406L17.072 12.9883L15.9113 11.721C16.0081 11.476 16.0916 11.2272 16.1597 10.9786L17.8496 10.6634L17.8782 10.4947C17.9815 9.86837 18.02 9.2281 17.9903 8.5894ZM13.3497 7.32978C12.9917 7.68749 12.5162 7.88434 12.0102 7.88434C11.7269 7.88434 11.444 7.82 11.1893 7.69806L9.84842 9.0389L10.9717 10.1622C11.2012 10.0535 11.4548 9.99593 11.7095 9.99593C12.1661 9.99593 12.5957 10.1739 12.9188 10.4969C13.3454 10.9235 13.5158 11.5518 13.3641 12.1379L13.3373 12.2405L12.4922 11.395C12.3457 11.2488 12.1506 11.1683 11.9436 11.1683C11.7365 11.1683 11.5417 11.2486 11.395 11.395C11.093 11.6976 11.093 12.1887 11.395 12.4913L12.2406 13.3363L12.1382 13.3631C11.9971 13.3995 11.8515 13.418 11.7053 13.418C11.2489 13.418 10.8194 13.24 10.4971 12.9174C9.98186 12.4025 9.84977 11.6254 10.1628 10.971L9.03925 9.8479L7.69814 11.189C8.04715 11.9147 7.90179 12.7773 7.32979 13.3487C6.97291 13.7057 6.49767 13.9024 5.99183 13.9024C5.83004 13.9024 5.66893 13.8819 5.51254 13.8414L5.41016 13.8151L6.34083 12.8839C6.50487 12.7203 6.5951 12.5021 6.5951 12.2706C6.5951 12.0385 6.50487 11.8209 6.34083 11.6569C6.17679 11.4929 5.95875 11.4025 5.72698 11.4025C5.49499 11.4025 5.2774 11.4924 5.11336 11.6569L4.18246 12.5876L4.1559 12.485C3.98782 11.8362 4.17661 11.1401 4.64847 10.6684C5.00625 10.3107 5.48171 10.1136 5.98778 10.1136C6.2713 10.1136 6.55415 10.1779 6.80887 10.2996L8.14998 8.95903L7.02669 7.83597C6.79785 7.94508 6.5438 8.00245 6.28908 8.00245C5.83207 8.00245 5.40251 7.8245 5.07938 7.50144C4.6532 7.07511 4.48263 6.44654 4.63452 5.86049L4.66107 5.75813L5.50624 6.60335C5.65273 6.7498 5.84737 6.83034 6.05439 6.83034C6.2614 6.83034 6.45604 6.7498 6.6023 6.60335C6.74879 6.45712 6.82935 6.26229 6.82935 6.05531C6.82935 5.84811 6.74857 5.65351 6.6023 5.50706L5.75736 4.66206L5.85997 4.63551C6.00083 4.59884 6.14619 4.5804 6.292 4.5804C6.74902 4.5804 7.17835 4.7579 7.5008 5.08028C8.01587 5.59547 8.14796 6.37253 7.83541 7.0272L8.9587 8.15048L10.2991 6.80987C9.95013 6.08411 10.0962 5.22134 10.6679 4.64991C11.025 4.29311 11.4998 4.09648 12.0057 4.09648C12.1677 4.09648 12.3288 4.11695 12.4847 4.15745L12.5876 4.18399L11.6562 5.11471C11.4922 5.27849 11.4017 5.49648 11.4017 5.7282C11.4017 5.96015 11.4922 6.17792 11.6562 6.34193C11.8203 6.50571 12.0378 6.59615 12.2703 6.59615C12.5021 6.59615 12.7201 6.50571 12.8844 6.34193L13.8153 5.41122L13.842 5.51358C14.0104 6.16218 13.8218 6.85802 13.3497 7.32978Z" fill="#004A7F"></path></svg>