<svg xmlns:xlink="http://www.w3.org/1999/xlink" _ngcontent-pnn-c243="" width="19" height="15" viewBox="0 0 19 15" fill="none" xmlns="http://www.w3.org/2000/svg"><path _ngcontent-pnn-c243="" d="M1.00439 6.78417H1.4329H1.48913C1.43872 6.85034 1.39089 6.91397 1.34565 6.97506C0.873966 7.67887 0.634272 8.50878 0.659251 9.35162V14.0227C0.659251 14.2819 0.763844 14.5305 0.950022 14.7137C1.04221 14.8045 1.15165 14.8765 1.27209 14.9256C1.39254 14.9747 1.52163 15 1.65201 15H2.93561C3.06598 15 3.19507 14.9747 3.31552 14.9256C3.43596 14.8765 3.5454 14.8045 3.63759 14.7137C3.72977 14.623 3.8029 14.5152 3.85279 14.3967C3.90268 14.2781 3.92836 14.151 3.92836 14.0227V13.2896H12.072V9.15118C11.4245 8.95257 10.8581 8.55579 10.4554 8.01852C10.0526 7.48125 9.83443 6.83152 9.83253 6.16378V1.61491C9.831 1.08996 9.96441 0.573164 10.2203 0.112624H9.50873C8.3942 0.0878903 7.2796 0.158787 6.17757 0.32451C5.51056 0.439043 4.54495 0.706287 3.88182 1.63782C3.50954 2.16658 2.91234 3.47989 2.44117 4.63858C2.14831 4.3441 1.75396 4.16838 1.33595 4.14609C1.2138 4.14609 1.09164 4.14609 0.969487 4.14609C0.713455 4.14955 0.468897 4.25122 0.287839 4.42947C0.106781 4.60771 0.00351121 4.84848 0 5.10053C0 5.30478 0 5.52431 0 5.79346C0.00447363 6.05451 0.111669 6.30366 0.299014 6.48846C0.486359 6.67325 0.739234 6.77926 1.00439 6.78417ZM3.19931 8.6186C3.19998 8.50244 3.22757 8.38797 3.27998 8.28389C3.33238 8.17981 3.40821 8.08887 3.5017 8.018C3.59519 7.94713 3.70387 7.8982 3.81947 7.87492C3.93507 7.85164 4.05455 7.85464 4.16879 7.88368L5.98561 8.35327C6.16176 8.40508 6.31349 8.5168 6.41374 8.66852C6.51399 8.82023 6.55623 9.00207 6.53294 9.1816C6.50965 9.36114 6.42234 9.52669 6.28658 9.64873C6.15082 9.77077 5.97544 9.84137 5.79171 9.84793H3.97102C3.76532 9.84793 3.56804 9.76748 3.42259 9.62429C3.27714 9.48109 3.19543 9.28688 3.19543 9.08437L3.19931 8.6186ZM11.374 6.16378V1.61491C11.374 1.18661 11.5468 0.775853 11.8545 0.472998C12.1621 0.170142 12.5793 0 13.0144 0H17.3596C17.7947 0 18.2119 0.170142 18.5195 0.472998C18.8272 0.775853 19 1.18661 19 1.61491V6.16378C19 6.59208 18.8272 7.00284 18.5195 7.3057C18.2119 7.60855 17.7947 7.7787 17.3596 7.7787H16.7547V8.7026C16.7546 8.74342 16.7464 8.78384 16.7304 8.82152C16.7145 8.8592 16.6911 8.89339 16.6616 8.92212L15.9345 9.63795C15.9232 9.64895 15.9143 9.66203 15.9082 9.67645C15.9021 9.69086 15.899 9.70632 15.899 9.72194C15.899 9.73755 15.9021 9.75301 15.9082 9.76743C15.9143 9.78184 15.9232 9.79493 15.9345 9.80593L16.5821 10.4416C16.6588 10.5177 16.7019 10.6207 16.7019 10.7279C16.7019 10.8352 16.6588 10.9381 16.5821 11.0143L15.9345 11.6518C15.9232 11.6628 15.9143 11.6759 15.9082 11.6903C15.9021 11.7047 15.899 11.7202 15.899 11.7358C15.899 11.7514 15.9021 11.7669 15.9082 11.7813C15.9143 11.7957 15.9232 11.8088 15.9345 11.8198L16.6616 12.5356C16.6911 12.5644 16.7145 12.5986 16.7304 12.6362C16.7464 12.6739 16.7546 12.7143 16.7547 12.7552V13.4175C16.7548 13.4531 16.7476 13.4883 16.7336 13.5211C16.7197 13.5539 16.6991 13.5836 16.6732 13.6084L15.316 14.9446C15.299 14.9613 15.2789 14.9746 15.2568 14.9836C15.2347 14.9926 15.211 14.9973 15.187 14.9973C15.1631 14.9973 15.1393 14.9926 15.1172 14.9836C15.0951 14.9746 15.075 14.9613 15.0581 14.9446L13.7008 13.6084C13.6755 13.5833 13.6556 13.5535 13.6423 13.5207C13.629 13.4879 13.6225 13.4528 13.6232 13.4175V7.77106H13.0144C12.5807 7.77107 12.1646 7.60197 11.8572 7.30077C11.5498 6.99956 11.3761 6.59076 11.374 6.16378Z" fill="#004A7F"></path></svg>