<svg xmlns:xlink="http://www.w3.org/1999/xlink" _ngcontent-pnn-c243="" width="16" height="22" viewBox="0 0 16 22" fill="none" xmlns="http://www.w3.org/2000/svg"><path _ngcontent-pnn-c243="" d="M7.9837 4.51445C8.63792 4.51445 9.52035 4.02168 9.52035 2.89306C9.52035 2.14595 9.09435 1.63728 7.9837 0C6.9339 1.63728 6.47747 2.14595 6.47747 2.89306C6.47747 4.02168 7.32947 4.51445 7.9837 4.51445ZM3.4498 6.10405C4.10402 6.10405 4.95602 5.59538 4.95602 4.46676C4.95602 3.71965 4.49959 3.21098 3.4498 1.5737C2.35436 3.19509 1.92835 3.71965 1.92835 4.46676C1.92835 5.59538 2.74993 6.10405 3.4498 6.10405ZM12.548 6.08815C13.2479 6.08815 14.0695 5.59538 14.0695 4.43497C14.0695 3.70376 13.6587 3.19509 12.548 1.5737C11.4982 3.19509 11.0418 3.70376 11.0418 4.43497C11.0418 5.59538 11.8938 6.08815 12.548 6.08815ZM15.3323 11.8743H13.8717L13.3544 9.60116C12.974 7.96387 12.5328 7.69364 10.1441 7.69364H5.71675C3.52587 7.69364 3.00858 7.94798 2.62822 9.60116L2.09571 11.8743H0.65034C-0.201668 11.8743 -0.156024 13.8136 0.437338 14.0361L1.1372 14.3064V21.1893C1.1372 21.6503 1.47192 22 1.91314 22H2.65864C3.09986 22 3.43458 21.6503 3.43458 21.1893V20.1084C5.8841 20.172 10.1594 20.172 12.548 20.1084V21.1893C12.548 21.6503 12.8827 22 13.324 22H14.0543C14.4955 22 14.8302 21.6503 14.8302 21.1893V14.3223L15.5453 14.0361C16.1691 13.8295 16.1995 11.8743 15.3323 11.8743ZM3.57151 16.9133C2.9325 16.9133 2.43043 16.3887 2.43043 15.7211C2.43043 15.0217 2.9325 14.513 3.57151 14.513C4.24095 14.513 4.74302 15.0217 4.74302 15.7211C4.74302 16.3887 4.24095 16.9133 3.57151 16.9133ZM12.3502 16.9133C11.7112 16.9133 11.1939 16.3887 11.1939 15.7211C11.1939 15.0217 11.7112 14.513 12.3502 14.513C13.0349 14.513 13.5217 15.0217 13.5217 15.7211C13.5217 16.3887 13.0349 16.9133 12.3502 16.9133Z" fill="#004A7F"></path></svg>