<svg xmlns:xlink="http://www.w3.org/1999/xlink" _ngcontent-pnn-c243="" width="29" height="18" viewBox="0 0 29 18" fill="none" xmlns="http://www.w3.org/2000/svg" style="margin-left: -7px;"><path _ngcontent-pnn-c243="" d="M24.1475 5.08325C24.1475 5.33265 23.9559 5.5367 23.7217 5.5367C23.6067 5.5367 23.5003 5.58658 23.4194 5.67274C23.3385 5.7589 23.2959 5.86772 23.2959 5.99016C23.2959 6.23955 23.1043 6.44361 22.8701 6.44361C22.6317 6.44361 22.4443 6.23955 22.4443 5.99016C22.4443 5.74076 22.2527 5.5367 22.0186 5.5367C21.7801 5.5367 21.5928 5.33265 21.5928 5.08325C21.5928 4.83386 21.7801 4.6298 22.0186 4.6298C22.1335 4.6298 22.24 4.58446 22.3209 4.4983C22.3975 4.41668 22.4443 4.29878 22.4443 4.17635C22.4443 3.92695 22.6317 3.7229 22.8701 3.7229C23.1043 3.7229 23.2959 3.92695 23.2959 4.17635C23.2959 4.29878 23.3385 4.41215 23.4194 4.4983C23.5003 4.58446 23.6067 4.6298 23.7217 4.6298C23.9559 4.6298 24.1475 4.83386 24.1475 5.08325Z" fill="#004A7F"></path><path _ngcontent-pnn-c243="" d="M9.50003 1.51441C9.50003 1.7638 9.30843 1.96786 9.07425 1.96786C8.96354 1.96786 8.8571 2.0132 8.77194 2.10389C8.69104 2.19005 8.64846 2.29888 8.64846 2.42131C8.64846 2.67071 8.45686 2.87476 8.22267 2.87476C7.98423 2.87476 7.79689 2.67071 7.79689 2.42131C7.79689 2.17191 7.60528 1.96786 7.3711 1.96786C7.13266 1.96786 6.94531 1.7638 6.94531 1.51441C6.94531 1.26501 7.13266 1.06095 7.3711 1.06095C7.48606 1.06095 7.59677 1.01561 7.67341 0.929455C7.75005 0.843299 7.79689 0.729936 7.79689 0.607504C7.79689 0.358106 7.98423 0.154053 8.22267 0.154053C8.45686 0.154053 8.64846 0.358106 8.64846 0.607504C8.64846 0.761677 8.71659 0.870506 8.77194 0.929455C8.85284 1.01561 8.95928 1.06095 9.07425 1.06095C9.30843 1.06095 9.50003 1.26501 9.50003 1.51441Z" fill="#004A7F"></path><path _ngcontent-pnn-c243="" d="M17.837 2.26726C17.837 2.51665 17.6454 2.72071 17.4112 2.72071C17.0706 2.72071 16.747 2.86128 16.5043 3.11974C16.2658 3.37821 16.1338 3.7183 16.1338 4.08106C16.1338 4.33046 15.9422 4.53451 15.708 4.53451C15.4696 4.53451 15.2822 4.33046 15.2822 4.08106C15.2822 3.33287 14.7074 2.72071 14.0049 2.72071C13.7664 2.72071 13.5791 2.51665 13.5791 2.26726C13.5791 2.01786 13.7664 1.8138 14.0049 1.8138C14.3413 1.8138 14.6649 1.67324 14.9076 1.41477C15.146 1.1563 15.2822 0.816212 15.2822 0.453451C15.2822 0.204053 15.4696 0 15.708 0C15.9422 0 16.1338 0.204053 16.1338 0.453451C16.1338 0.816212 16.2658 1.1563 16.5085 1.4193C16.747 1.67324 17.0706 1.8138 17.4112 1.8138C17.6454 1.8138 17.837 2.01786 17.837 2.26726Z" fill="#004A7F"></path><path _ngcontent-pnn-c243="" d="M28.081 13.9345C27.9404 13.1002 27.7531 12.2658 27.4167 11.504C27.4125 11.495 27.4082 11.4814 27.404 11.4768C27.0207 10.6243 26.4545 9.8716 25.5518 9.32293C25.0408 9.01005 24.4447 8.8468 23.8273 8.8468H20.3657C17.7471 6.2576 14.8262 5.04235 11.3773 5.1149C9.70825 4.91992 7.45158 5.7588 5.28432 6.6385L4.45404 6.97858C3.0532 7.54993 1.73326 8.08954 0.63473 8.37521C0.468673 8.41603 0.345194 8.56113 0.315389 8.73798C0.132301 9.8444 -0.0294979 11.0052 0.00456502 12.0708C0.000307155 12.0754 0.000307057 12.0844 0.000307057 12.089C0.000307057 12.1026 0.00456502 12.1162 0.00456502 12.1253C0.0514016 13.4403 0.400547 14.6011 1.36708 15.3221C1.43947 15.372 1.52462 15.4037 1.61404 15.4037H3.60672C3.76426 16.7414 4.83725 17.7843 6.14015 17.7843C7.43881 17.7843 8.51605 16.7414 8.66933 15.4037H18.1516C18.3091 16.7414 19.3864 17.7843 20.685 17.7843C21.9879 17.7843 23.0609 16.7414 23.2185 15.4037H26.9654C27.2975 15.4037 27.6083 15.245 27.8255 14.9684C28.0512 14.6827 28.1448 14.3064 28.081 13.9345ZM1.3756 12.0119H0.485704C0.49422 11.4768 0.532541 10.9009 0.583635 10.3024H1.3756C1.82268 10.3024 2.18034 10.6833 2.18034 11.1594C2.18034 11.631 1.82268 12.0119 1.3756 12.0119ZM19.067 8.8468H13.0677L11.9905 6.0218C14.6644 6.08982 16.9466 6.99672 19.067 8.8468ZM11.0665 6.01273L12.148 8.8468H6.90231L6.05926 7.30054C7.82201 6.59769 9.70825 5.94018 11.0665 6.01273ZM6.14015 16.8774C5.19917 16.8774 4.43701 16.0657 4.43701 15.0636C4.43701 14.0615 5.19917 13.2498 6.14015 13.2498C7.07689 13.2498 7.8433 14.0615 7.8433 15.0636C7.8433 16.0657 7.07689 16.8774 6.14015 16.8774ZM8.81835 13.9935L7.36216 9.94869L9.38891 13.3496L16.6358 14.4515L8.81835 13.9935ZM20.685 16.8774C19.7483 16.8774 18.9819 16.0657 18.9819 15.0636C18.9819 14.0615 19.7483 13.2498 20.685 13.2498C21.626 13.2498 22.3882 14.0615 22.3882 15.0636C22.3882 16.0657 21.626 16.8774 20.685 16.8774ZM23.6102 9.45896C24.6023 9.01912 26.91 10.384 26.7951 11.6129C24.9599 11.5494 24.0317 10.3205 23.6102 9.45896Z" fill="#004A7F"></path></svg>