<svg xmlns:xlink="http://www.w3.org/1999/xlink" _ngcontent-pnn-c243="" width="23" height="23" viewBox="0 0 23 23" fill="none" xmlns="http://www.w3.org/2000/svg"><path _ngcontent-pnn-c243="" d="M18.763 0C16.4267 0 14.5259 1.92052 14.5259 4.28109C14.5259 6.64167 16.4267 8.56218 18.763 8.56218C21.0992 8.56218 23 6.64167 23 4.28109C23 1.92052 21.0992 0 18.763 0ZM18.763 7.82828C16.8272 7.82828 15.2523 6.23697 15.2523 4.28109C15.2523 2.32522 16.8272 0.733902 18.763 0.733902C20.6987 0.733902 22.2737 2.32522 22.2737 4.28109C22.2737 6.23697 20.6987 7.82828 18.763 7.82828ZM21.1127 2.79143L18.4019 6.22825C18.333 6.31557 18.2285 6.36645 18.1179 6.36645H18.1131C18.0009 6.3649 17.8957 6.31103 17.8281 6.22048L16.4073 4.318C16.2865 4.15627 16.3183 3.92621 16.4785 3.80413C16.6385 3.68193 16.8661 3.71406 16.987 3.87604L18.1258 5.40082L20.5448 2.33394C20.6696 2.17554 20.8983 2.14962 21.055 2.27576C21.212 2.40202 21.2378 2.63292 21.1127 2.79143ZM8.35302 6.12027C3.74713 6.12027 0 9.90636 0 14.5601C0 19.2139 3.74713 23 8.35302 23C12.9589 23 16.706 19.2139 16.706 14.5601C16.706 9.90636 12.9589 6.12027 8.35302 6.12027ZM14.2504 11.12C14.3176 11.2377 14.4396 11.3036 14.5652 11.3036C14.6268 11.3036 14.6892 11.2877 14.7464 11.2542L15.1293 11.0309C15.619 11.9867 15.9175 13.0577 15.9705 14.1932H15.5257C15.3251 14.1932 15.1625 14.3575 15.1625 14.5601C15.1625 14.7627 15.3251 14.9271 15.5257 14.9271H15.9705C15.9175 16.0626 15.619 17.1336 15.1293 18.0894L14.7464 17.866C14.5727 17.7645 14.3507 17.8249 14.2504 18.0003C14.15 18.1759 14.2096 18.4002 14.3832 18.5015L14.7651 18.7243C14.1736 19.6509 13.3914 20.4412 12.4743 21.0389L12.2538 20.653C12.1537 20.4775 11.9319 20.4172 11.7578 20.5188C11.5841 20.6201 11.5245 20.8444 11.6249 21.02L11.846 21.4069C10.9 21.9016 9.84 22.2033 8.71619 22.2568V21.8074C8.71619 21.6048 8.55364 21.4405 8.35302 21.4405C8.1524 21.4405 7.98984 21.6048 7.98984 21.8074V22.2568C6.86603 22.2033 5.80607 21.9016 4.86006 21.4069L5.08114 21.02C5.18151 20.8444 5.12192 20.6201 4.94826 20.5188C4.77447 20.4172 4.55269 20.4775 4.4522 20.653L4.2317 21.0389C3.3146 20.4413 2.53244 19.651 1.94092 18.7244L2.32292 18.5015C2.49659 18.4002 2.55617 18.1759 2.4558 18.0003C2.35555 17.8249 2.13365 17.7645 1.95975 17.866L1.57674 18.0895C1.08709 17.1336 0.788534 16.0626 0.735571 14.9271H1.18032C1.38094 14.9271 1.54349 14.7627 1.54349 14.5601C1.54349 14.3575 1.38094 14.1932 1.18032 14.1932H0.735571C0.788534 13.0577 1.08709 11.9867 1.57674 11.0308L1.95975 11.2542C2.01697 11.2877 2.07939 11.3036 2.14098 11.3036C2.26653 11.3036 2.38854 11.2377 2.4558 11.12C2.55617 10.9445 2.49659 10.72 2.32292 10.6188L1.94092 10.3959C2.53244 9.4693 3.31458 8.67904 4.23164 8.08137L4.4522 8.46734C4.51947 8.58512 4.64147 8.65094 4.76702 8.65094C4.82862 8.65094 4.89104 8.63505 4.94826 8.6016C5.12192 8.50031 5.18151 8.27586 5.08114 8.10039L4.86 7.7134C5.80602 7.21865 6.86602 6.917 7.98984 6.86348V7.31286C7.98984 7.51556 8.1524 7.67981 8.35302 7.67981C8.55364 7.67981 8.71619 7.51556 8.71619 7.31286V6.86348C9.84002 6.917 10.9 7.21865 11.846 7.7134L11.6249 8.10039C11.5245 8.27586 11.5841 8.50031 11.7578 8.6016C11.815 8.63505 11.8774 8.65094 11.939 8.65094C12.0646 8.65094 12.1866 8.585 12.2538 8.46734L12.4744 8.08137C13.3915 8.67904 14.1736 9.46933 14.7651 10.396L14.3832 10.6188C14.2096 10.72 14.15 10.9445 14.2504 11.12ZM8.35302 9.51086C5.59753 9.51086 3.3557 11.776 3.3557 14.5601C3.3557 17.3443 5.59753 19.6095 8.35302 19.6095C11.1085 19.6095 13.3503 17.3443 13.3503 14.5601C13.3503 11.776 11.1085 9.51086 8.35302 9.51086ZM8.35302 18.8756C5.99806 18.8756 4.08205 16.9398 4.08205 14.5601C4.08205 12.1807 6.58229 10.2769 8.47289 10.2769C10.2 10.396 12.624 12.1807 12.624 14.5601C12.624 16.9398 10.708 18.8756 8.35302 18.8756ZM8.47289 10.2769C6.4045 10.2769 3.63056 12.4702 3.63056 14.5601C3.63056 16.65 6.28463 18.9981 8.35302 18.9981C10.4214 18.9981 12.624 17.4255 12.624 14.5601C12.624 12.4702 10.5413 10.2769 8.47289 10.2769ZM9.27786 14.5601C9.27786 15.0754 8.86302 15.4947 8.35302 15.4947C7.84301 15.4947 7.42818 15.0754 7.42818 14.5601C7.42818 14.0448 7.84301 13.6258 8.35302 13.6258C8.86302 13.6258 9.27786 14.0448 9.27786 14.5601ZM7.98984 11.5281V12.9339C7.54233 13.0359 7.16414 13.3219 6.93555 13.7089L5.61264 13.2746C6.04543 12.3367 6.93367 11.6566 7.98984 11.5281ZM5.32822 14.5601C5.32822 14.3588 5.34877 14.1624 5.38572 13.9718L6.70954 14.4064C6.70493 14.4571 6.70183 14.5082 6.70183 14.5601C6.70183 14.9812 6.85823 15.3653 7.11387 15.6592L6.29696 16.7953C5.70271 16.2369 5.32822 15.4428 5.32822 14.5601ZM8.35302 17.6164C7.81952 17.6164 7.31864 17.4749 6.883 17.2289L7.70037 16.0921C7.90073 16.1796 8.12125 16.2286 8.35302 16.2286C8.58481 16.2286 8.80535 16.1796 9.00572 16.0921L9.8231 17.2289C9.38744 17.4748 8.88655 17.6164 8.35302 17.6164ZM11.3778 14.5601C11.3778 15.4428 11.0033 16.2369 10.4091 16.7953L9.5922 15.6592C9.8478 15.3653 10.0042 14.9812 10.0042 14.5601C10.0042 14.5082 10.0011 14.4571 9.9965 14.4064L11.3203 13.9718C11.3573 14.1624 11.3778 14.3588 11.3778 14.5601ZM9.77049 13.7089C9.54189 13.3219 9.1637 13.0359 8.71619 12.9339V11.5281C9.77236 11.6566 10.6606 12.3367 11.0934 13.2746L9.77049 13.7089Z" fill="#004A7F"></path></svg>