<svg xmlns:xlink="http://www.w3.org/1999/xlink" _ngcontent-pnn-c243="" width="19" height="20" viewBox="0 0 19 20" fill="none" xmlns="http://www.w3.org/2000/svg"><path _ngcontent-pnn-c243="" d="M7.49975 9C4.46208 9 2 11.462 2 14.4996C2 17.5372 4.46208 20 7.49975 20C10.5374 20 13 17.5375 13 14.4999C13 11.4623 10.5372 9 7.49975 9ZM7.49975 19.1486C4.93668 19.1486 2.85145 17.0631 2.85145 14.4999C2.85145 11.9369 4.93668 9.85168 7.49975 9.85168C10.0633 9.85168 12.1485 11.9369 12.1485 14.4999C12.1485 17.0631 10.0631 19.1486 7.49975 19.1486Z" fill="#004A7F"></path><path _ngcontent-pnn-c243="" d="M7.99976 10C5.79434 10 4 12.0184 4 14.4997C4 16.9811 5.7941 19 7.99976 19C10.2054 19 12 16.9811 12 14.4997C12 12.0186 10.2054 10 7.99976 10ZM7.99976 10.9222C8.23394 10.9222 8.42402 11.1361 8.42402 11.3995C8.42402 11.663 8.23394 11.8768 7.99976 11.8768C7.76558 11.8768 7.57598 11.663 7.57598 11.3995C7.57598 11.1361 7.76558 10.9222 7.99976 10.9222ZM5.82526 16.4628C5.622 16.5944 5.36313 16.5159 5.24569 16.2886C5.12895 16.0605 5.19871 15.7687 5.40101 15.6371C5.60403 15.5053 5.86314 15.5835 5.98035 15.8113C6.09732 16.0395 6.0278 16.331 5.82526 16.4628ZM5.98058 13.1879C5.86338 13.416 5.60427 13.4942 5.40125 13.3626C5.19871 13.2305 5.12895 12.9392 5.24592 12.7106C5.36337 12.483 5.62224 12.4045 5.8255 12.5361C6.02828 12.6682 6.09732 12.9597 5.98058 13.1879ZM7.99976 18.077C7.76606 18.077 7.57598 17.8631 7.57598 17.5997C7.57598 17.336 7.76606 17.1229 7.99976 17.1224C8.23394 17.1224 8.42402 17.336 8.42402 17.5997C8.42378 17.8631 8.2337 18.077 7.99976 18.077ZM7.99976 15.9305C7.29722 15.9305 6.72771 15.2898 6.72771 14.4995C6.72771 13.7091 7.29722 13.0684 7.99976 13.0684C8.7023 13.0684 9.27181 13.7091 9.27181 14.4995C9.27181 15.2898 8.70206 15.9305 7.99976 15.9305ZM10.7534 16.2884C10.6369 16.5159 10.3773 16.5944 10.1747 16.4625C9.97148 16.3315 9.90244 16.0392 10.0194 15.8108C10.1361 15.5829 10.3957 15.5047 10.5983 15.6363C10.8013 15.7687 10.8701 16.0605 10.7534 16.2884ZM10.598 13.3629C10.3955 13.4942 10.1359 13.416 10.0192 13.1881C9.90197 12.9605 9.97148 12.6682 10.1745 12.5364C10.377 12.4051 10.6366 12.4835 10.7531 12.7108C10.8708 12.939 10.8013 13.2307 10.598 13.3629Z" fill="#004A7F"></path><path _ngcontent-pnn-c243="" d="M15.4999 5C13.5668 5 12 6.56737 12 8.49987C12 10.4324 13.5666 12 15.4999 12C17.4324 12 19 10.4326 19 8.49987C19 6.56737 17.4324 5 15.4999 5ZM15.4999 9.43274C14.9846 9.43274 14.5662 9.01485 14.5662 8.4996C14.5662 7.98436 14.9846 7.56646 15.4999 7.56646C16.0146 7.56646 16.433 7.98436 16.433 8.4996C16.433 9.01485 16.0146 9.43274 15.4999 9.43274Z" fill="#004A7F"></path><path _ngcontent-pnn-c243="" d="M2.50012 0C1.11943 0 0 1.11938 0 2.5C0 3.88062 1.11943 5 2.50012 5C3.88057 5 5 3.88062 5 2.5C5 1.11938 3.8808 0 2.50012 0ZM2.50012 3.33365C2.03981 3.33365 1.6662 2.96076 1.6662 2.5C1.6662 2.03995 2.03981 1.66682 2.50012 1.66682C2.95948 1.66682 3.3331 2.03995 3.3331 2.5C3.33333 2.96076 2.95972 3.33365 2.50012 3.33365Z" fill="#004A7F"></path><path _ngcontent-pnn-c243="" d="M14.0417 14.3119C14.0417 14.5448 14.0266 14.7741 14 15L17 12C16.6836 12.0783 16.3544 12.1242 16.0129 12.1242C15.9416 12.1242 15.8715 12.1177 15.8009 12.1139L14.025 13.89C14.0346 14.0295 14.0417 14.1698 14.0417 14.3119Z" fill="#004A7F"></path><path _ngcontent-pnn-c243="" d="M1 5L2.49667 12C2.63831 11.6619 2.80708 11.3408 3 11.0398L1.82594 5.54849C1.52219 5.41631 1.24373 5.23044 1 5Z" fill="#004A7F"></path><path _ngcontent-pnn-c243="" d="M5 1C5.20225 1.28074 5.35242 1.59381 5.44184 1.92875L13.9122 5C14.2481 4.8298 14.6137 4.70286 15 4.6256L5 1Z" fill="#004A7F"></path></svg>