<svg xmlns:xlink="http://www.w3.org/1999/xlink" _ngcontent-pnn-c243="" width="18" height="22" viewBox="0 0 18 22" fill="none" xmlns="http://www.w3.org/2000/svg"><path _ngcontent-pnn-c243="" fill-rule="evenodd" clip-rule="evenodd" d="M9 10.3839C8.74286 10.3839 8.57143 10.203 8.57143 9.98593V9.58794C8.44286 9.55176 8.31429 9.51558 8.18571 9.44322C7.92857 9.33467 7.75714 9.15377 7.62857 8.93668C7.5 8.7196 7.62857 8.50251 7.84286 8.43015C8.05714 8.32161 8.31429 8.39397 8.44286 8.61106C8.48571 8.68342 8.57143 8.75578 8.65714 8.82814C8.74286 8.86432 8.87143 8.9005 9 8.9005C9.17143 8.9005 9.34286 8.82814 9.42857 8.75578C9.55714 8.64724 9.64286 8.50251 9.64286 8.35779C9.64286 7.9598 9.25714 7.88744 8.91429 7.81508C8.18571 7.67035 7.45714 7.52563 7.45714 6.54874C7.45714 6.18693 7.62857 5.86131 7.92857 5.64422C8.1 5.4995 8.31429 5.39095 8.57143 5.31859V4.9206C8.57143 4.70352 8.74286 4.52261 9 4.52261C9.25714 4.52261 9.42857 4.70352 9.42857 4.9206V5.31859C9.55714 5.35477 9.68571 5.39095 9.81429 5.46332C10.0714 5.57186 10.2429 5.78894 10.3714 6.00603C10.5 6.18693 10.3714 6.40402 10.1571 6.51256C9.94286 6.58492 9.68571 6.51256 9.55714 6.33166C9.51429 6.22312 9.42857 6.15075 9.34286 6.11457C9.25714 6.04221 9.12857 6.00603 9 6.00603C8.82857 6.00603 8.65714 6.07839 8.57143 6.18693C8.44286 6.2593 8.35714 6.40402 8.35714 6.54874C8.35714 6.94673 8.74286 7.0191 9.08571 7.09146C9.81429 7.23618 10.5429 7.3809 10.5429 8.35779C10.5429 8.7196 10.3714 9.04523 10.0714 9.26231C9.9 9.40704 9.68571 9.51558 9.42857 9.58794V9.98593C9.42857 10.203 9.25714 10.3839 9 10.3839ZM18 21.202V0.361809C18 0.289447 17.9571 0.217085 17.8714 0.144724C17.7429 -0.0361809 17.4429 -0.0361809 17.2714 0.108543L15.1286 1.66432L13.4571 0.108543C13.2857 -0.0361809 12.9857 -0.0361809 12.8143 0.108543L11.0143 1.7005L9.34286 0.144724C9.12857 -0.0361809 8.87143 -0.0361809 8.65714 0.144724L6.98571 1.7005L5.14286 0.108543C4.97143 -0.0361809 4.67143 -0.0361809 4.5 0.144724L2.87143 1.66432L0.771429 0.108543C0.514286 -0.108543 0 0.0361809 0 0.361809V21.202C0 21.5276 0.471429 21.7085 0.728571 21.4915L2.87143 19.8995L4.54286 21.4915C4.71429 21.6362 5.01429 21.6 5.18571 21.4553L6.98571 19.8633L8.65714 21.4553C8.87143 21.6362 9.12857 21.6362 9.34286 21.4553L11.0143 19.8633L12.8571 21.4915C13.0286 21.6362 13.3286 21.6 13.5 21.4553L15.1286 19.8995L17.2286 21.4553C17.4857 21.7085 18 21.5638 18 21.202ZM3.12857 12.4824H14.8714C15.1286 12.4824 15.3429 12.6633 15.3429 12.8442C15.3429 13.0613 15.1286 13.2422 14.8714 13.2422H3.12857C2.87143 13.2422 2.65714 13.0613 2.65714 12.8442C2.65714 12.6633 2.87143 12.4824 3.12857 12.4824ZM3.12857 14.5085H14.8714C15.1286 14.5085 15.3429 14.6894 15.3429 14.9065C15.3429 15.1236 15.1286 15.2683 14.8714 15.2683H3.12857C2.87143 15.2683 2.65714 15.1236 2.65714 14.9065C2.65714 14.6894 2.87143 14.5085 3.12857 14.5085ZM2.65714 16.9688C2.65714 16.7518 2.87143 16.5709 3.12857 16.5709H14.8714C15.1286 16.5709 15.3429 16.7518 15.3429 16.9688C15.3429 17.1497 15.1286 17.3307 14.8714 17.3307H3.12857C2.87143 17.3307 2.65714 17.1497 2.65714 16.9688Z" fill="#004A7F"></path></svg>