<svg xmlns:xlink="http://www.w3.org/1999/xlink" _ngcontent-pnn-c243="" width="20" height="20" viewBox="0 0 20 20" fill="none" xmlns="http://www.w3.org/2000/svg"><path _ngcontent-pnn-c243="" fill-rule="evenodd" clip-rule="evenodd" d="M14.2534 10.954C14.498 10.9844 14.7472 11 15 11C15.9689 11 16.8843 10.7703 17.6944 10.3624C17.8807 10.5124 18 10.7424 18 11V11.8182L16.3636 12.091V19.1818C16.3636 19.6339 15.9975 20 15.5455 20H14.3182L13.8682 17.5455H4.13182L3.68182 20H2.45455C2.00291 20 1.63636 19.6339 1.63636 19.1818V12.091L0 11.8182V11C0 10.5484 0.366545 10.1818 0.818182 10.1818H2.19232L3.18559 7.25723C3.45968 6.16127 4.59736 5.27273 5.72727 5.27273H9.00609C9.03158 5.84246 9.13652 6.39152 9.3101 6.90909H5.3685C5.14227 6.90909 4.92914 7.0895 4.89232 7.31245L3.73214 11H14.2679L14.2534 10.954ZM3.68182 15.0909C3.00436 15.0909 2.45455 14.5415 2.45455 13.8636C2.45455 13.1858 3.00436 12.6364 3.68182 12.6364C4.35927 12.6364 4.90909 13.1858 4.90909 13.8636C4.90909 14.5415 4.35927 15.0909 3.68182 15.0909ZM11.4545 15.0909C11.4545 15.543 11.0152 15.9091 10.4727 15.9091H7.52727C6.98531 15.9091 6.54545 15.543 6.54545 15.0909V14.2727H11.4545V15.0909ZM14.1869 5.66692L13.4668 4.94682C13.2252 4.70531 12.8275 4.70208 12.5842 4.9454C12.3392 5.19042 12.3415 5.58385 12.5856 5.82796L14.1577 7.4L14.1869 7.3708L14.2161 7.4L17.5518 4.06427C17.7946 3.82141 17.7951 3.42644 17.5518 3.18312C17.3068 2.93811 16.914 2.93981 16.6706 3.18313L14.1869 5.66692ZM14.3182 15.0909C13.6407 15.0909 13.0909 14.5415 13.0909 13.8636C13.0909 13.1858 13.6407 12.6364 14.3182 12.6364C14.9956 12.6364 15.5455 13.1858 15.5455 13.8636C15.5455 14.5415 14.9956 15.0909 14.3182 15.0909ZM15 10C17.7614 10 20 7.76142 20 5C20 2.23858 17.7614 0 15 0C12.2386 0 10 2.23858 10 5C10 7.76142 12.2386 10 15 10Z" fill="#004A7F"></path></svg>