<svg xmlns:xlink="http://www.w3.org/1999/xlink" _ngcontent-pnn-c243="" width="18" height="16" viewBox="0 0 18 16" fill="none" xmlns="http://www.w3.org/2000/svg"><path _ngcontent-pnn-c243="" d="M14.0477 8.42903H9.67742L9.63484 8.36516L17.0323 0.967742C16.4071 0.683116 15.71 0.596211 15.0341 0.718657C14.3582 0.841103 13.7359 1.16706 13.2503 1.6529L8.39032 6.5129L4.42258 0.605806C4.31136 0.421284 4.15441 0.268579 3.96691 0.162454C3.77942 0.056329 3.56771 0.000374363 3.35226 0H0V15.2903H5.16774V15.2187C5.26426 14.0904 5.78066 13.0394 6.61482 12.2736C7.44898 11.5077 8.54017 11.0828 9.67258 11.0828C10.805 11.0828 11.8962 11.5077 12.7303 12.2736C13.5645 13.0394 14.0809 14.0904 14.1774 15.2187V15.2826H17.1581V11.551C17.1581 10.725 16.8307 9.93266 16.2478 9.34752C15.6648 8.76238 14.8737 8.4321 14.0477 8.42903Z" fill="#004A7F"></path></svg>