<svg xmlns:xlink="http://www.w3.org/1999/xlink" _ngcontent-pnn-c243="" width="13" height="13" viewBox="0 0 13 13" fill="none" xmlns="http://www.w3.org/2000/svg"><path _ngcontent-pnn-c243="" d="M3.5 3C3.63261 3 3.75979 2.93346 3.85355 2.81501C3.94732 2.69657 4 2.53593 4 2.36842V0.631579C4 0.464074 3.94732 0.303429 3.85355 0.184985C3.75979 0.0665411 3.63261 0 3.5 0C3.36739 0 3.24021 0.0665411 3.14645 0.184985C3.05268 0.303429 3 0.464074 3 0.631579V2.36842C3 2.53593 3.05268 2.69657 3.14645 2.81501C3.24021 2.93346 3.36739 3 3.5 3Z" fill="#004A7F"></path><path _ngcontent-pnn-c243="" d="M9.5 3C9.63261 3 9.75979 2.93346 9.85355 2.81501C9.94732 2.69657 10 2.53593 10 2.36842V0.631579C10 0.464074 9.94732 0.303429 9.85355 0.184985C9.75979 0.0665411 9.63261 0 9.5 0C9.36739 0 9.24021 0.0665411 9.14645 0.184985C9.05268 0.303429 9 0.464074 9 0.631579V2.36842C9 2.53593 9.05268 2.69657 9.14645 2.81501C9.24021 2.93346 9.36739 3 9.5 3Z" fill="#004A7F"></path><path _ngcontent-pnn-c243="" d="M1.05814 13H11.9419C12.2225 13 12.4916 12.8912 12.6901 12.6975C12.8885 12.5038 13 12.2411 13 11.9672V5H0V11.9672C1.14926e-06 12.2411 0.111483 12.5038 0.309922 12.6975C0.508361 12.8912 0.777502 13 1.05814 13ZM3.68693 8.22136C3.78177 8.12886 3.91037 8.0769 4.04444 8.0769C4.17852 8.0769 4.30712 8.12886 4.40196 8.22136L6.08366 9.86284L9.46471 6.56273C9.55953 6.4702 9.68813 6.41821 9.82221 6.41822C9.9563 6.41822 10.0849 6.47022 10.1797 6.56276C10.2745 6.6553 10.3278 6.78081 10.3278 6.91169C10.3278 7.04256 10.2745 7.16808 10.1797 7.26063L6.44118 10.9096C6.34634 11.0021 6.21775 11.0541 6.08366 11.0541C5.94958 11.0541 5.82098 11.0021 5.72615 10.9096L3.68693 8.91925C3.59213 8.8267 3.53887 8.70118 3.53887 8.5703C3.53887 8.43943 3.59213 8.31391 3.68693 8.22135V8.22136Z" fill="#004A7F"></path><path _ngcontent-pnn-c243="" d="M13 2.82567C13 2.60669 12.8885 2.39668 12.6901 2.24183C12.4916 2.08699 12.2225 2 11.9419 2H10.6889V2.42201C10.6889 2.66116 10.5671 2.89051 10.3504 3.05962C10.1337 3.22872 9.83981 3.32372 9.53333 3.32372C9.22686 3.32372 8.93294 3.22872 8.71623 3.05962C8.49952 2.89051 8.37778 2.66116 8.37778 2.42201V2H4.62222V2.42201C4.62222 2.66116 4.50048 2.89051 4.28377 3.05962C4.06706 3.22872 3.77314 3.32372 3.46667 3.32372C3.16019 3.32372 2.86627 3.22872 2.64957 3.05962C2.43286 2.89051 2.31111 2.66116 2.31111 2.42201V2H1.05814C0.777504 2 0.508366 2.08699 0.309927 2.24183C0.111489 2.39668 4.59704e-06 2.60669 0 2.82567V4H13V2.82567Z" fill="#004A7F"></path></svg>