<svg xmlns:xlink="http://www.w3.org/1999/xlink" _ngcontent-pnn-c243="" width="13" height="13" viewBox="0 0 13 13" fill="none" xmlns="http://www.w3.org/2000/svg"><path _ngcontent-pnn-c243="" fill-rule="evenodd" clip-rule="evenodd" d="M4.78323 0.858207H7.24469C7.50073 0.858207 7.72384 0.666983 7.72384 0.429103C7.72384 0.191378 7.50716 0 7.23163 0H4.78323C4.5077 0 4.29102 0.191378 4.29102 0.429103C4.29102 0.661765 4.51413 0.858207 4.78323 0.858207Z" fill="#004A7F"></path><path _ngcontent-pnn-c243="" fill-rule="evenodd" clip-rule="evenodd" d="M9.70407 0H8.39114C8.40649 0.0721475 8.41406 0.144295 8.41406 0.224707C8.41406 0.786474 8.0255 1.3402 7.55174 1.3402H3.51975C3.03021 1.3402 2.63408 0.786474 2.63408 0.224707C2.63408 0.152336 2.64187 0.0721475 2.65722 0H1.32893C0.26423 0 0 0.625873 0 1.53274V10.4978C0 11.4692 0.372992 12.0149 1.40634 12.0149H8.35979C8.01015 11.5816 7.80041 11.0274 7.80041 10.4176C7.80041 9.04501 8.87246 7.92952 10.2012 7.92952C10.543 7.92952 10.8615 8.00189 11.1567 8.1301V1.52492C11.1567 0.626097 10.6829 0 9.70407 0ZM5.36093 9.32623H2.75841C2.54867 9.32623 2.41634 9.09348 2.41634 8.87637C2.41634 8.65948 2.59516 8.44326 2.8049 8.44326H5.39206C5.6018 8.44326 5.78041 8.64384 5.79619 8.87637C5.79598 9.09348 5.57067 9.32623 5.36093 9.32623ZM8.43763 6.85401H2.73506C2.5251 6.85401 2.31558 6.58909 2.31558 6.36461C2.31558 6.1475 2.4944 5.96322 2.70392 5.96322H8.39114C8.60088 5.96322 8.77948 6.13164 8.79505 6.36461C8.79527 6.58083 8.64758 6.85401 8.43763 6.85401ZM8.4612 4.3016H2.75841C2.54867 4.3016 2.41634 4.06885 2.41634 3.85218C2.41634 3.63552 2.59516 3.41885 2.8049 3.41885H8.49212C8.70186 3.41885 8.88046 3.61943 8.89581 3.85218C8.89581 4.06103 8.67072 4.3016 8.4612 4.3016Z" fill="#004A7F"></path><path _ngcontent-pnn-c243="" fill-rule="evenodd" clip-rule="evenodd" d="M10.513 9.7427C10.4718 9.79927 10.4512 9.8615 10.4512 9.92961C10.4512 9.99184 10.4701 10.0495 10.5075 10.1028C10.5452 10.1566 10.6024 10.1996 10.6786 10.2325V9.6228C10.6089 9.6463 10.5539 9.68634 10.513 9.7427Z" fill="#004A7F"></path><path _ngcontent-pnn-c243="" fill-rule="evenodd" clip-rule="evenodd" d="M10.9336 10.811V11.498C11.0217 11.4814 11.0935 11.4408 11.1486 11.3755C11.2038 11.3104 11.2315 11.2338 11.2315 11.1457C11.2315 11.0669 11.2084 10.999 11.1618 10.942C11.1155 10.885 11.0393 10.8413 10.9336 10.811Z" fill="#004A7F"></path><path _ngcontent-pnn-c243="" fill-rule="evenodd" clip-rule="evenodd" d="M10.8203 8.37866C9.61914 8.37866 8.64062 9.35696 8.64062 10.567C8.64062 11.777 9.61022 12.7556 10.8203 12.7556C12.0301 12.7556 12.9999 11.777 12.9999 10.567C12.9908 9.35696 12.0209 8.37866 10.8203 8.37866ZM11.4704 11.6195C11.3418 11.7653 11.163 11.8545 10.9336 11.8874V12.217H10.6782V11.8963C10.4747 11.8715 10.31 11.7955 10.1829 11.6689C10.0561 11.5418 9.97513 11.363 9.93988 11.1312L10.3999 11.0818C10.4186 11.1758 10.4538 11.257 10.5054 11.3249C10.5572 11.393 10.6146 11.4424 10.6782 11.4728V10.7345C10.4477 10.6686 10.2789 10.5692 10.1714 10.436C10.0641 10.3026 10.0104 10.141 10.0104 9.95056C10.0104 9.75777 10.0711 9.59588 10.1927 9.46489C10.3144 9.3339 10.4762 9.25883 10.6782 9.23859V9.06408H10.9336V9.23859C11.1205 9.261 11.2692 9.32476 11.3795 9.42986C11.49 9.53474 11.5605 9.67552 11.5912 9.85199L11.1453 9.91008C11.1181 9.77126 11.0479 9.67769 10.9336 9.62808V10.3172C11.2158 10.3936 11.4078 10.4926 11.5098 10.614C11.6123 10.7356 11.6632 10.8916 11.6632 11.0818C11.6634 11.2946 11.599 11.4739 11.4704 11.6195Z" fill="#004A7F"></path></svg>