<svg xmlns:xlink="http://www.w3.org/1999/xlink" _ngcontent-pnn-c243="" width="17" height="15" viewBox="0 0 17 15" fill="none" xmlns="http://www.w3.org/2000/svg"><path _ngcontent-pnn-c243="" d="M11.7398 7.61271L10.0276 5.87891C9.98123 5.97588 9.95312 6.08309 9.95312 6.19719V9.04479C9.95312 9.15851 9.98086 9.26535 10.027 9.36195L11.7398 7.61271Z" fill="#004A7F"></path><path _ngcontent-pnn-c243="" d="M12.7781 7.96269C12.8317 8.01741 12.9134 8.04868 13.002 8.04868C13.0027 8.04868 13.0031 8.04868 13.0035 8.04868C13.091 8.04868 13.1745 8.01779 13.2266 7.96511L15.6331 5.543C15.5278 5.48605 15.4094 5.45068 15.2819 5.45068H10.6992C10.5823 5.45068 10.4727 5.48046 10.374 5.52886L12.7781 7.96269Z" fill="#004A7F"></path><path _ngcontent-pnn-c243="" d="M14.2598 7.6258L15.9554 9.36165C16.0014 9.26505 16.0291 9.15839 16.0291 9.04485V6.19725C16.0291 6.09358 16.0075 5.99493 15.9688 5.90503L14.2598 7.6258Z" fill="#004A7F"></path><path _ngcontent-pnn-c243="" d="M13.9121 7.97549L13.5763 8.31331C13.431 8.45868 13.2229 8.5417 13.0042 8.5417C13.0031 8.5417 13.0016 8.54132 13.0005 8.54132C12.7808 8.54058 12.572 8.4557 12.4275 8.30829L12.0862 7.96265L10.373 9.71245C10.4723 9.7614 10.5821 9.79137 10.6995 9.79137H15.2824C15.3999 9.79137 15.5099 9.7614 15.6089 9.71245L13.9121 7.97549Z" fill="#004A7F"></path><path _ngcontent-pnn-c243="" d="M9.71275 10.5494L7.72972 6.18296C7.51697 5.71466 7.05016 5.41406 6.53588 5.41406H2.55085C1.91931 5.41406 1.37748 5.86431 1.2619 6.48524L0.0140826 13.1857C-0.0797269 13.6898 0.307051 14.1553 0.819652 14.1553H5.11088C5.52743 14.1553 5.87773 13.8428 5.92501 13.4288L6.45827 8.75975L8.42305 12.2357L11.9491 12.0794L13.2913 10.5498H9.71275V10.5494Z" fill="#004A7F"></path><path _ngcontent-pnn-c243="" d="M7.02982 1.85264H6.2773C6.06027 0.735859 5.23367 0.283936 4.24625 0.283936C3.09355 0.283936 2.15918 1.10812 2.15918 2.41103H2.78458H6.3337H7.47672L7.02982 1.85264Z" fill="#004A7F"></path><path _ngcontent-pnn-c243="" d="M4.24625 4.87046C5.39914 4.87046 6.33351 3.89998 6.33351 2.7832H2.15918C2.15918 3.89998 3.09355 4.87046 4.24625 4.87046Z" fill="#004A7F"></path><path _ngcontent-pnn-c243="" d="M12.9992 0C11.6282 0 10.5166 1.11157 10.5166 2.4826C10.5166 3.85363 11.6282 4.9652 12.9992 4.9652C14.3702 4.9652 15.4818 3.85363 15.4818 2.4826C15.4818 1.11157 14.3702 0 12.9992 0ZM14.0082 3.71925H11.9902V3.3401C12.1171 3.3012 12.2111 3.23903 12.2722 3.15341C12.333 3.06798 12.3636 2.95258 12.3636 2.8074V2.44965H11.9982V2.11518H12.3636V1.61747C12.3636 1.37382 12.4371 1.18323 12.5841 1.04586C12.7314 0.9085 12.9339 0.839818 13.1917 0.839818C13.4431 0.839818 13.686 0.892865 13.9207 0.999145L13.7729 1.35298C13.563 1.26103 13.3789 1.21487 13.2209 1.21487C12.9553 1.21487 12.8224 1.35689 12.8224 1.64055V2.11499H13.5943V2.44947H12.8222V2.8033C12.8222 2.92112 12.8008 3.02163 12.758 3.10465C12.7154 3.18766 12.642 3.2582 12.5383 3.31646H14.0082V3.71925Z" fill="#004A7F"></path></svg>