<svg width="16" height="16" viewBox="0 0 16 16" fill="none" xmlns="http://www.w3.org/2000/svg">
<path d="M14 14V4.5L9.5 0H4C3.46957 0 2.96086 0.210714 2.58579 0.585786C2.21071 0.960859 2 1.46957 2 2V14C2 14.5304 2.21071 15.0391 2.58579 15.4142C2.96086 15.7893 3.46957 16 4 16H12C12.5304 16 13.0391 15.7893 13.4142 15.4142C13.7893 15.0391 14 14.5304 14 14ZM9.5 3C9.5 3.39782 9.65804 3.77936 9.93934 4.06066C10.2206 4.34196 10.6022 4.5 11 4.5H13V14C13 14.2652 12.8946 14.5196 12.7071 14.7071C12.5196 14.8946 12.2652 15 12 15H4C3.73478 15 3.48043 14.8946 3.29289 14.7071C3.10536 14.5196 3 14.2652 3 14V2C3 1.73478 3.10536 1.48043 3.29289 1.29289C3.48043 1.10536 3.73478 1 4 1H9.5V3Z" fill="white"/>
<path d="M4.603 14.0876C4.40809 14.0097 4.25106 13.8591 4.165 13.6676C3.97 13.2796 4.035 12.8916 4.245 12.5656C4.443 12.2586 4.771 11.9976 5.142 11.7786C5.61194 11.5121 6.10869 11.2959 6.624 11.1336C7.02419 10.4142 7.37889 9.67044 7.686 8.90664C7.50238 8.48941 7.35841 8.05584 7.256 7.61164C7.17 7.21164 7.137 6.81564 7.21 6.47564C7.285 6.12164 7.484 5.80364 7.86 5.65264C8.052 5.57564 8.26 5.53264 8.462 5.57564C8.56361 5.59727 8.65914 5.64125 8.74164 5.70438C8.82414 5.76751 8.89156 5.84822 8.939 5.94064C9.027 6.10464 9.059 6.29664 9.066 6.47864C9.073 6.66664 9.054 6.87464 9.019 7.09264C8.935 7.60264 8.749 8.22664 8.499 8.88664C8.77489 9.47666 9.10286 10.0409 9.479 10.5726C9.9241 10.5375 10.3718 10.5543 10.813 10.6226C11.177 10.6886 11.547 10.8176 11.773 11.0876C11.893 11.2316 11.966 11.4076 11.973 11.6056C11.98 11.7976 11.926 11.9876 11.835 12.1686C11.7562 12.3364 11.634 12.48 11.481 12.5846C11.3298 12.6833 11.1513 12.7316 10.971 12.7226C10.64 12.7086 10.317 12.5266 10.038 12.3056C9.69874 12.0251 9.39305 11.7064 9.127 11.3556C8.45076 11.4324 7.78253 11.5682 7.13 11.7616C6.83118 12.2916 6.49007 12.7966 6.11 13.2716C5.818 13.6216 5.501 13.9276 5.183 14.0586C5.00029 14.1413 4.79305 14.1517 4.603 14.0876ZM5.982 12.1866C5.816 12.2626 5.662 12.3426 5.523 12.4246C5.195 12.6186 4.982 12.8076 4.876 12.9716C4.782 13.1166 4.78 13.2216 4.836 13.3326C4.846 13.3546 4.856 13.3686 4.862 13.3766C4.87393 13.3735 4.88563 13.3694 4.897 13.3646C5.034 13.3086 5.252 13.1296 5.532 12.7926C5.69125 12.5977 5.84141 12.3955 5.982 12.1866ZM7.622 10.8566C7.95593 10.7787 8.29287 10.7143 8.632 10.6636C8.44992 10.385 8.27977 10.0987 8.122 9.80564C7.96515 10.1602 7.79842 10.5104 7.622 10.8556V10.8566ZM10.068 11.3066C10.218 11.4696 10.364 11.6066 10.503 11.7166C10.743 11.9066 10.91 11.9696 11.001 11.9726C11.0254 11.9758 11.0501 11.9705 11.071 11.9576C11.1126 11.9248 11.145 11.8817 11.165 11.8326C11.2006 11.7717 11.2208 11.7031 11.224 11.6326C11.2234 11.6091 11.2142 11.5867 11.198 11.5696C11.146 11.5076 10.998 11.4176 10.68 11.3606C10.4777 11.3268 10.2731 11.3091 10.068 11.3076V11.3066ZM8.078 7.80064C8.16216 7.52916 8.22897 7.2526 8.278 6.97264C8.309 6.78464 8.321 6.62964 8.316 6.50764C8.31628 6.44033 8.30547 6.37344 8.284 6.30964C8.23398 6.31583 8.18513 6.32931 8.139 6.34964C8.052 6.38464 7.981 6.45564 7.943 6.63264C7.903 6.82464 7.913 7.10164 7.989 7.45464C8.013 7.56564 8.043 7.68164 8.079 7.80064H8.078Z" fill="white"/>
</svg>
