<svg width="28" height="28" viewBox="0 0 28 28" fill="none" xmlns="http://www.w3.org/2000/svg">
<path d="M10.0625 15.7495V24.062C10.0625 25.1063 10.4773 26.1078 11.2157 26.8463C11.9542 27.5847 12.9557 27.9995 14 27.9995C15.0443 27.9995 16.0458 27.5847 16.7842 26.8463C17.5226 26.1078 17.9375 25.1063 17.9375 24.062V15.7495C19.3902 15.0189 20.6105 13.898 21.4616 12.5125C22.3128 11.1269 22.761 9.53165 22.756 7.90559C22.751 6.27953 22.293 4.68703 21.4334 3.30676C20.5737 1.9265 19.3465 0.813071 17.8893 0.0914109C17.756 0.0251384 17.6079 -0.00599671 17.4591 0.000953515C17.3104 0.00790374 17.1658 0.0527093 17.0392 0.131128C16.9126 0.209546 16.8081 0.318983 16.7356 0.449075C16.6631 0.579167 16.625 0.725609 16.625 0.874536V7.43704H11.375V0.874536C11.3749 0.725609 11.3368 0.579167 11.2643 0.449075C11.1918 0.318983 11.0873 0.209546 10.9607 0.131128C10.8341 0.0527093 10.6896 0.00790374 10.5408 0.000953515C10.392 -0.00599671 10.244 0.0251384 10.1106 0.0914109C8.65343 0.813071 7.42619 1.9265 6.56657 3.30676C5.70694 4.68703 5.24894 6.27953 5.24394 7.90559C5.23894 9.53165 5.68715 11.1269 6.53827 12.5125C7.3894 13.898 8.60977 15.0189 10.0625 15.7495ZM9.62496 2.45829V8.31204C9.62496 8.5441 9.71715 8.76666 9.88124 8.93075C10.0453 9.09485 10.2679 9.18704 10.5 9.18704H17.5C17.732 9.18704 17.9546 9.09485 18.1187 8.93075C18.2828 8.76666 18.375 8.5441 18.375 8.31204V2.45829C19.3225 3.21602 20.0567 4.20701 20.5058 5.33406C20.9549 6.46112 21.1033 7.68553 20.9366 8.88724C20.7698 10.089 20.2936 11.2267 19.5546 12.1889C18.8156 13.1511 17.8392 13.9047 16.7212 14.3758C16.5631 14.4428 16.4281 14.5548 16.3332 14.698C16.2383 14.8411 16.1876 15.009 16.1875 15.1808V24.062C16.1875 24.6422 15.957 25.1986 15.5468 25.6088C15.1365 26.0191 14.5801 26.2495 14 26.2495C13.4198 26.2495 12.8634 26.0191 12.4532 25.6088C12.0429 25.1986 11.8125 24.6422 11.8125 24.062V15.1808C11.8123 15.009 11.7616 14.8411 11.6667 14.698C11.5718 14.5548 11.4369 14.4428 11.2787 14.3758C10.1607 13.9047 9.18431 13.1511 8.44532 12.1889C7.70633 11.2267 7.23011 10.089 7.06335 8.88724C6.8966 7.68553 7.04503 6.46112 7.4941 5.33406C7.94318 4.20701 8.67747 3.21602 9.62496 2.45829Z" fill="#155B9F"/>
<path d="M14.875 23.1875H13.125V24.9375H14.875V23.1875Z" fill="#155B9F"/>
</svg>
