<svg width="28" height="28" viewBox="0 0 28 28" fill="none" xmlns="http://www.w3.org/2000/svg">
<path d="M10.0627 15.7495V24.062C10.0627 25.1063 10.4775 26.1078 11.216 26.8463C11.9544 27.5847 12.9559 27.9995 14.0002 27.9995C15.0445 27.9995 16.046 27.5847 16.7844 26.8463C17.5229 26.1078 17.9377 25.1063 17.9377 24.062V15.7495C19.3904 15.0189 20.6108 13.898 21.4619 12.5125C22.313 11.1269 22.7612 9.53165 22.7562 7.90559C22.7512 6.27953 22.2932 4.68703 21.4336 3.30676C20.574 1.9265 19.3467 0.813071 17.8896 0.0914109C17.7562 0.0251384 17.6081 -0.00599671 17.4594 0.000953515C17.3106 0.00790374 17.1661 0.0527093 17.0395 0.131128C16.9129 0.209546 16.8084 0.318983 16.7359 0.449075C16.6634 0.579167 16.6253 0.725609 16.6252 0.874536V7.43704H11.3752V0.874536C11.3751 0.725609 11.337 0.579167 11.2645 0.449075C11.1921 0.318983 11.0876 0.209546 10.9609 0.131128C10.8343 0.0527093 10.6898 0.00790374 10.541 0.000953515C10.3923 -0.00599671 10.2442 0.0251384 10.1108 0.0914109C8.65368 0.813071 7.42644 1.9265 6.56681 3.30676C5.70718 4.68703 5.24918 6.27953 5.24418 7.90559C5.23918 9.53165 5.68739 11.1269 6.53852 12.5125C7.38964 13.898 8.61001 15.0189 10.0627 15.7495V15.7495ZM9.62521 2.45829V8.31204C9.62521 8.5441 9.71739 8.76666 9.88149 8.93075C10.0456 9.09485 10.2681 9.18704 10.5002 9.18704H17.5002C17.7323 9.18704 17.9548 9.09485 18.1189 8.93075C18.283 8.76666 18.3752 8.5441 18.3752 8.31204V2.45829C19.3227 3.21602 20.057 4.20701 20.5061 5.33406C20.9551 6.46112 21.1036 7.68553 20.9368 8.88724C20.7701 10.089 20.2938 11.2267 19.5548 12.1889C18.8159 13.1511 17.8395 13.9047 16.7215 14.3758C16.5633 14.4428 16.4284 14.5548 16.3334 14.698C16.2385 14.8411 16.1878 15.009 16.1877 15.1808V24.062C16.1877 24.6422 15.9572 25.1986 15.547 25.6088C15.1368 26.0191 14.5804 26.2495 14.0002 26.2495C13.42 26.2495 12.8636 26.0191 12.4534 25.6088C12.0432 25.1986 11.8127 24.6422 11.8127 24.062V15.1808C11.8126 15.009 11.7619 14.8411 11.667 14.698C11.5721 14.5548 11.4371 14.4428 11.279 14.3758C10.1609 13.9047 9.18456 13.1511 8.44557 12.1889C7.70658 11.2267 7.23035 10.089 7.0636 8.88724C6.89684 7.68553 7.04528 6.46112 7.49435 5.33406C7.94342 4.20701 8.67771 3.21602 9.62521 2.45829V2.45829Z" fill="#505050"/>
<path d="M14.875 23.1875H13.125V24.9375H14.875V23.1875Z" fill="#505050"/>
</svg>
