<svg width="24" height="24" viewBox="0 0 24 24" fill="none" xmlns="http://www.w3.org/2000/svg">
<path d="M22 4.84969V16.7397C22 17.7097 21.21 18.5997 20.24 18.7197L19.93 18.7597C18.29 18.9797 15.98 19.6597 14.12 20.4397C13.47 20.7097 12.75 20.2197 12.75 19.5097V5.59969C12.75 5.22969 12.96 4.88969 13.29 4.70969C15.12 3.71969 17.89 2.83969 19.77 2.67969H19.83C21.03 2.67969 22 3.64969 22 4.84969Z" fill="#FEB23F"/>
<path d="M10.71 4.70969C8.88001 3.71969 6.11001 2.83969 4.23001 2.67969H4.16001C2.96001 2.67969 1.99001 3.64969 1.99001 4.84969V16.7397C1.99001 17.7097 2.78001 18.5997 3.75001 18.7197L4.06001 18.7597C5.70001 18.9797 8.01001 19.6597 9.87001 20.4397C10.52 20.7097 11.24 20.2197 11.24 19.5097V5.59969C11.24 5.21969 11.04 4.88969 10.71 4.70969ZM5.00001 7.73969H7.25001C7.66001 7.73969 8.00001 8.07969 8.00001 8.48969C8.00001 8.90969 7.66001 9.23969 7.25001 9.23969H5.00001C4.59001 9.23969 4.25001 8.90969 4.25001 8.48969C4.25001 8.07969 4.59001 7.73969 5.00001 7.73969ZM8.00001 12.2397H5.00001C4.59001 12.2397 4.25001 11.9097 4.25001 11.4897C4.25001 11.0797 4.59001 10.7397 5.00001 10.7397H8.00001C8.41001 10.7397 8.75001 11.0797 8.75001 11.4897C8.75001 11.9097 8.41001 12.2397 8.00001 12.2397Z" fill="#FEB23F"/>
</svg>
