<svg width="25" height="24" viewBox="0 0 25 24" fill="none" xmlns="http://www.w3.org/2000/svg">
<path d="M22.5 3.75H2.5C2.09 3.75 1.75 3.41 1.75 3C1.75 2.59 2.09 2.25 2.5 2.25H22.5C22.91 2.25 23.25 2.59 23.25 3C23.25 3.41 22.91 3.75 22.5 3.75Z" fill="#FEB23F"/>
<path d="M11.5 9.75H2.5C2.09 9.75 1.75 9.41 1.75 9C1.75 8.59 2.09 8.25 2.5 8.25H11.5C11.91 8.25 12.25 8.59 12.25 9C12.25 9.41 11.91 9.75 11.5 9.75Z" fill="#FEB23F"/>
<path d="M8.5 15.75H2.5C2.09 15.75 1.75 15.41 1.75 15C1.75 14.59 2.09 14.25 2.5 14.25H8.5C8.91 14.25 9.25 14.59 9.25 15C9.25 15.41 8.91 15.75 8.5 15.75Z" fill="#FEB23F"/>
<path d="M6.5 21.75H2.5C2.09 21.75 1.75 21.41 1.75 21C1.75 20.59 2.09 20.25 2.5 20.25H6.5C6.91 20.25 7.25 20.59 7.25 21C7.25 21.41 6.91 21.75 6.5 21.75Z" fill="#FEB23F"/>
<path d="M22.36 7.68021C21.77 7.23021 20.96 7.14021 20.01 7.40021L15.66 8.58021C14.49 8.90021 13.77 9.85021 13.77 11.0502V13.6002V17.2802C13.35 17.0402 12.86 16.8902 12.34 16.8902C10.73 16.8902 9.41 18.2002 9.41 19.8202C9.41 21.4302 10.72 22.7502 12.34 22.7502C13.96 22.7502 15.27 21.4402 15.27 19.8202V14.1702L21.75 12.4002V15.8302C21.33 15.5902 20.84 15.4402 20.32 15.4402C18.71 15.4402 17.39 16.7502 17.39 18.3702C17.39 19.9802 18.7 21.3002 20.32 21.3002C21.94 21.3002 23.25 19.9902 23.25 18.3702V11.4202V9.87021C23.25 8.86021 22.95 8.12021 22.36 7.68021ZM12.34 21.2502C11.55 21.2502 10.91 20.6102 10.91 19.8202C10.91 19.0302 11.55 18.3902 12.34 18.3902C13.13 18.3902 13.77 19.0302 13.77 19.8202C13.77 20.6102 13.13 21.2502 12.34 21.2502ZM20.32 19.8002C19.53 19.8002 18.89 19.1602 18.89 18.3702C18.89 17.5802 19.53 16.9402 20.32 16.9402C21.11 16.9402 21.75 17.5802 21.75 18.3702C21.75 19.1602 21.11 19.8002 20.32 19.8002Z" fill="#FEB23F"/>
</svg>
