<svg width="40" height="40" viewBox="0 0 40 40" fill="none" xmlns="http://www.w3.org/2000/svg">
<path d="M37.5998 27.1668L24.8165 5.96681C24.2996 5.15817 23.5874 4.49268 22.7456 4.0317C21.9039 3.57073 20.9596 3.3291 19.9998 3.3291C19.0401 3.3291 18.0958 3.57073 17.254 4.0317C16.4123 4.49268 15.7001 5.15817 15.1832 5.96681L2.39984 27.1668C1.94826 27.9196 1.70282 28.7779 1.68819 29.6556C1.67357 30.5333 1.89027 31.3994 2.31651 32.1668C2.80931 33.0306 3.52261 33.748 4.38351 34.2458C5.24441 34.7436 6.22205 35.0039 7.21651 35.0001H32.7832C33.7711 35.0107 34.7443 34.7604 35.6046 34.2747C36.465 33.7889 37.1819 33.0848 37.6832 32.2335C38.1219 31.4581 38.3456 30.5796 38.3309 29.6888C38.3163 28.798 38.0639 27.9273 37.5998 27.1668ZM34.7665 30.5835C34.5662 30.9278 34.2755 31.2108 33.9259 31.4017C33.5763 31.5927 33.1811 31.6843 32.7832 31.6668H7.21651C6.81855 31.6843 6.42337 31.5927 6.07377 31.4017C5.72418 31.2108 5.43348 30.9278 5.23318 30.5835C5.08689 30.3301 5.00988 30.0427 5.00988 29.7501C5.00988 29.4576 5.08689 29.1702 5.23318 28.9168L18.0332 7.70014C18.2632 7.39632 18.5605 7.14992 18.9017 6.98026C19.2429 6.81061 19.6188 6.72232 19.9998 6.72232C20.3809 6.72232 20.7568 6.81061 21.098 6.98026C21.4392 7.14992 21.7365 7.39632 21.9665 7.70014L34.7498 28.9001C34.9018 29.154 34.9834 29.4437 34.9863 29.7395C34.9893 30.0354 34.9134 30.3267 34.7665 30.5835Z" fill="#EB4747"/>
<path d="M20.0002 28.3333C20.9206 28.3333 21.6668 27.5871 21.6668 26.6667C21.6668 25.7462 20.9206 25 20.0002 25C19.0797 25 18.3335 25.7462 18.3335 26.6667C18.3335 27.5871 19.0797 28.3333 20.0002 28.3333Z" fill="#EB4747"/>
<path d="M20.0002 13.3335C19.5581 13.3335 19.1342 13.5091 18.8217 13.8217C18.5091 14.1342 18.3335 14.5581 18.3335 15.0002V21.6668C18.3335 22.1089 18.5091 22.5328 18.8217 22.8453C19.1342 23.1579 19.5581 23.3335 20.0002 23.3335C20.4422 23.3335 20.8661 23.1579 21.1787 22.8453C21.4912 22.5328 21.6668 22.1089 21.6668 21.6668V15.0002C21.6668 14.5581 21.4912 14.1342 21.1787 13.8217C20.8661 13.5091 20.4422 13.3335 20.0002 13.3335Z" fill="#EB4747"/>
</svg>
