<svg width="44" height="44" viewBox="0 0 44 44" fill="none" xmlns="http://www.w3.org/2000/svg">
<path d="M39.875 6.875H38.5C38.3177 6.875 38.1428 6.94743 38.0139 7.07636C37.8849 7.2053 37.8125 7.38016 37.8125 7.5625V9.625C37.813 9.8144 37.7744 10.0019 37.6991 10.1756C37.6237 10.3494 37.5133 10.5057 37.3747 10.6348C37.2361 10.7639 37.0724 10.863 36.8937 10.9258C36.715 10.9887 36.5253 11.0139 36.3364 11C35.9773 10.953 35.6482 10.7746 35.413 10.4992C35.1777 10.2238 35.0528 9.87092 35.0625 9.50881V7.5625C35.0625 7.38016 34.9901 7.2053 34.8611 7.07636C34.7322 6.94743 34.5573 6.875 34.375 6.875H28.875C28.6927 6.875 28.5178 6.94743 28.3889 7.07636C28.2599 7.2053 28.1875 7.38016 28.1875 7.5625V9.625C28.188 9.8144 28.1494 10.0019 28.0741 10.1756C27.9987 10.3494 27.8883 10.5057 27.7497 10.6348C27.6111 10.7639 27.4474 10.863 27.2687 10.9258C27.09 10.9887 26.9003 11.0139 26.7114 11C26.3523 10.953 26.0232 10.7746 25.788 10.4992C25.5527 10.2238 25.4278 9.87092 25.4375 9.50881V7.5625C25.4375 7.38016 25.3651 7.2053 25.2361 7.07636C25.1072 6.94743 24.9323 6.875 24.75 6.875H19.25C19.0677 6.875 18.8928 6.94743 18.7639 7.07636C18.6349 7.2053 18.5625 7.38016 18.5625 7.5625V9.625C18.5629 9.80558 18.5275 9.98445 18.4582 10.1512C18.3889 10.318 18.2872 10.4693 18.1589 10.5964C18.0192 10.736 17.8512 10.844 17.6662 10.913C17.4811 10.9821 17.2834 11.0105 17.0864 10.9966C16.7279 10.9496 16.3993 10.7717 16.1641 10.497C15.9289 10.2223 15.8037 9.87033 15.8125 9.50881V7.5625C15.8125 7.38016 15.7401 7.2053 15.6111 7.07636C15.4822 6.94743 15.3073 6.875 15.125 6.875H9.625C9.44266 6.875 9.2678 6.94743 9.13886 7.07636C9.00993 7.2053 8.9375 7.38016 8.9375 7.5625V9.625C8.93792 9.80558 8.90246 9.98445 8.83319 10.1512C8.76391 10.318 8.66219 10.4693 8.53394 10.5964C8.3944 10.7363 8.22638 10.8444 8.04131 10.9134C7.85623 10.9825 7.65846 11.0108 7.46144 10.9966C7.10287 10.9496 6.77434 10.7717 6.53913 10.497C6.30392 10.2223 6.17867 9.87033 6.1875 9.50881V7.5625C6.1875 7.38016 6.11507 7.2053 5.98614 7.07636C5.8572 6.94743 5.68234 6.875 5.5 6.875H4.125C3.03132 6.87609 1.98274 7.31104 1.20939 8.08439C0.43604 8.85774 0.00109205 9.90632 0 11L0 37.125C0.00109205 38.2187 0.43604 39.2673 1.20939 40.0406C1.98274 40.814 3.03132 41.2489 4.125 41.25H35.0625C37.432 41.2473 39.7037 40.3048 41.3793 38.6293C43.0548 36.9537 43.9973 34.682 44 32.3125V11C43.9989 9.90632 43.564 8.85774 42.7906 8.08439C42.0173 7.31104 40.9687 6.87609 39.875 6.875Z" fill="#E6EDFF"/>
<path d="M39.875 6.875H38.5C38.3177 6.875 38.1428 6.94743 38.0139 7.07636C37.8849 7.2053 37.8125 7.38016 37.8125 7.5625V9.625C37.813 9.8144 37.7744 10.0019 37.6991 10.1756C37.6237 10.3494 37.5133 10.5057 37.3747 10.6348C37.2361 10.7639 37.0724 10.863 36.8937 10.9258C36.715 10.9887 36.5253 11.0139 36.3364 11C35.9773 10.953 35.6482 10.7746 35.413 10.4992C35.1777 10.2238 35.0528 9.87092 35.0625 9.50881V7.5625C35.0625 7.38016 34.9901 7.2053 34.8611 7.07636C34.7322 6.94743 34.5573 6.875 34.375 6.875H28.875C28.6927 6.875 28.5178 6.94743 28.3889 7.07636C28.2599 7.2053 28.1875 7.38016 28.1875 7.5625V9.625C28.188 9.8144 28.1494 10.0019 28.0741 10.1756C27.9987 10.3494 27.8883 10.5057 27.7497 10.6348C27.6111 10.7639 27.4474 10.863 27.2687 10.9258C27.09 10.9887 26.9003 11.0139 26.7114 11C26.3523 10.953 26.0232 10.7746 25.788 10.4992C25.5527 10.2238 25.4278 9.87092 25.4375 9.50881V7.5625C25.4375 7.38016 25.3651 7.2053 25.2361 7.07636C25.1072 6.94743 24.9323 6.875 24.75 6.875H19.25C19.0677 6.875 18.8928 6.94743 18.7639 7.07636C18.6349 7.2053 18.5625 7.38016 18.5625 7.5625V9.625C18.5629 9.80558 18.5275 9.98445 18.4582 10.1512C18.3889 10.318 18.2872 10.4693 18.1589 10.5964C18.0192 10.736 17.8512 10.844 17.6662 10.913C17.4811 10.9821 17.2834 11.0105 17.0864 10.9966C16.7279 10.9496 16.3993 10.7717 16.1641 10.497C15.9289 10.2223 15.8037 9.87033 15.8125 9.50881V7.5625C15.8125 7.38016 15.7401 7.2053 15.6111 7.07636C15.4822 6.94743 15.3073 6.875 15.125 6.875H9.625C9.44266 6.875 9.2678 6.94743 9.13886 7.07636C9.00993 7.2053 8.9375 7.38016 8.9375 7.5625V9.625C8.93792 9.80558 8.90246 9.98445 8.83319 10.1512C8.76391 10.318 8.66219 10.4693 8.53394 10.5964C8.3944 10.7363 8.22638 10.8444 8.04131 10.9134C7.85623 10.9825 7.65846 11.0108 7.46144 10.9966C7.10287 10.9496 6.77434 10.7717 6.53913 10.497C6.30392 10.2223 6.17867 9.87033 6.1875 9.50881V7.5625C6.1875 7.38016 6.11507 7.2053 5.98614 7.07636C5.8572 6.94743 5.68234 6.875 5.5 6.875H4.125C3.03132 6.87609 1.98274 7.31104 1.20939 8.08439C0.43604 8.85774 0.00109205 9.90632 0 11L0 13.75H44V11C43.9989 9.90632 43.564 8.85774 42.7906 8.08439C42.0173 7.31104 40.9687 6.87609 39.875 6.875Z" fill="#E63B47"/>
<path d="M7.5625 2.75C6.83315 2.75 6.13368 3.03973 5.61796 3.55546C5.10223 4.07118 4.8125 4.77065 4.8125 5.5V9.625C4.8125 10.3543 5.10223 11.0538 5.61796 11.5695C6.13368 12.0853 6.83315 12.375 7.5625 12.375C8.29185 12.375 8.99132 12.0853 9.50704 11.5695C10.0228 11.0538 10.3125 10.3543 10.3125 9.625V5.5C10.3125 4.77065 10.0228 4.07118 9.50704 3.55546C8.99132 3.03973 8.29185 2.75 7.5625 2.75Z" fill="#4AA4F2"/>
<path d="M17.1875 2.75C16.4582 2.75 15.7587 3.03973 15.243 3.55546C14.7272 4.07118 14.4375 4.77065 14.4375 5.5V9.625C14.4375 10.3543 14.7272 11.0538 15.243 11.5695C15.7587 12.0853 16.4582 12.375 17.1875 12.375C17.9168 12.375 18.6163 12.0853 19.132 11.5695C19.6478 11.0538 19.9375 10.3543 19.9375 9.625V5.5C19.9375 4.77065 19.6478 4.07118 19.132 3.55546C18.6163 3.03973 17.9168 2.75 17.1875 2.75Z" fill="#4AA4F2"/>
<path d="M26.8125 2.75C26.0832 2.75 25.3837 3.03973 24.868 3.55546C24.3522 4.07118 24.0625 4.77065 24.0625 5.5V9.625C24.0625 10.3543 24.3522 11.0538 24.868 11.5695C25.3837 12.0853 26.0832 12.375 26.8125 12.375C27.5418 12.375 28.2413 12.0853 28.757 11.5695C29.2728 11.0538 29.5625 10.3543 29.5625 9.625V5.5C29.5625 4.77065 29.2728 4.07118 28.757 3.55546C28.2413 3.03973 27.5418 2.75 26.8125 2.75Z" fill="#4AA4F2"/>
<path d="M36.4375 2.75C35.7082 2.75 35.0087 3.03973 34.493 3.55546C33.9772 4.07118 33.6875 4.77065 33.6875 5.5V9.625C33.6875 10.3543 33.9772 11.0538 34.493 11.5695C35.0087 12.0853 35.7082 12.375 36.4375 12.375C37.1668 12.375 37.8663 12.0853 38.382 11.5695C38.8978 11.0538 39.1875 10.3543 39.1875 9.625V5.5C39.1875 4.77065 38.8978 4.07118 38.382 3.55546C37.8663 3.03973 37.1668 2.75 36.4375 2.75Z" fill="#4AA4F2"/>
<path d="M23.375 33.6875H20.625C20.2453 33.6875 19.9375 33.9953 19.9375 34.375V37.125C19.9375 37.5047 20.2453 37.8125 20.625 37.8125H23.375C23.7547 37.8125 24.0625 37.5047 24.0625 37.125V34.375C24.0625 33.9953 23.7547 33.6875 23.375 33.6875Z" fill="#A8B7D4"/>
<path d="M17.875 33.6875H15.125C14.7453 33.6875 14.4375 33.9953 14.4375 34.375V37.125C14.4375 37.5047 14.7453 37.8125 15.125 37.8125H17.875C18.2547 37.8125 18.5625 37.5047 18.5625 37.125V34.375C18.5625 33.9953 18.2547 33.6875 17.875 33.6875Z" fill="#A8B7D4"/>
<path d="M12.375 33.6875H9.625C9.2453 33.6875 8.9375 33.9953 8.9375 34.375V37.125C8.9375 37.5047 9.2453 37.8125 9.625 37.8125H12.375C12.7547 37.8125 13.0625 37.5047 13.0625 37.125V34.375C13.0625 33.9953 12.7547 33.6875 12.375 33.6875Z" fill="#A8B7D4"/>
<path d="M6.875 33.6875H4.125C3.7453 33.6875 3.4375 33.9953 3.4375 34.375V37.125C3.4375 37.5047 3.7453 37.8125 4.125 37.8125H6.875C7.2547 37.8125 7.5625 37.5047 7.5625 37.125V34.375C7.5625 33.9953 7.2547 33.6875 6.875 33.6875Z" fill="#A8B7D4"/>
<path d="M23.375 28.1875H20.625C20.2453 28.1875 19.9375 28.4953 19.9375 28.875V31.625C19.9375 32.0047 20.2453 32.3125 20.625 32.3125H23.375C23.7547 32.3125 24.0625 32.0047 24.0625 31.625V28.875C24.0625 28.4953 23.7547 28.1875 23.375 28.1875Z" fill="#A8B7D4"/>
<path d="M17.875 28.1875H15.125C14.7453 28.1875 14.4375 28.4953 14.4375 28.875V31.625C14.4375 32.0047 14.7453 32.3125 15.125 32.3125H17.875C18.2547 32.3125 18.5625 32.0047 18.5625 31.625V28.875C18.5625 28.4953 18.2547 28.1875 17.875 28.1875Z" fill="#A8B7D4"/>
<path d="M12.375 28.1875H9.625C9.2453 28.1875 8.9375 28.4953 8.9375 28.875V31.625C8.9375 32.0047 9.2453 32.3125 9.625 32.3125H12.375C12.7547 32.3125 13.0625 32.0047 13.0625 31.625V28.875C13.0625 28.4953 12.7547 28.1875 12.375 28.1875Z" fill="#A8B7D4"/>
<path d="M6.875 28.1875H4.125C3.7453 28.1875 3.4375 28.4953 3.4375 28.875V31.625C3.4375 32.0047 3.7453 32.3125 4.125 32.3125H6.875C7.2547 32.3125 7.5625 32.0047 7.5625 31.625V28.875C7.5625 28.4953 7.2547 28.1875 6.875 28.1875Z" fill="#A8B7D4"/>
<path d="M23.375 22.6875H20.625C20.2453 22.6875 19.9375 22.9953 19.9375 23.375V26.125C19.9375 26.5047 20.2453 26.8125 20.625 26.8125H23.375C23.7547 26.8125 24.0625 26.5047 24.0625 26.125V23.375C24.0625 22.9953 23.7547 22.6875 23.375 22.6875Z" fill="#A8B7D4"/>
<path d="M17.875 22.6875H15.125C14.7453 22.6875 14.4375 22.9953 14.4375 23.375V26.125C14.4375 26.5047 14.7453 26.8125 15.125 26.8125H17.875C18.2547 26.8125 18.5625 26.5047 18.5625 26.125V23.375C18.5625 22.9953 18.2547 22.6875 17.875 22.6875Z" fill="#A8B7D4"/>
<path d="M12.375 22.6875H9.625C9.2453 22.6875 8.9375 22.9953 8.9375 23.375V26.125C8.9375 26.5047 9.2453 26.8125 9.625 26.8125H12.375C12.7547 26.8125 13.0625 26.5047 13.0625 26.125V23.375C13.0625 22.9953 12.7547 22.6875 12.375 22.6875Z" fill="#A8B7D4"/>
<path d="M6.875 22.6875H4.125C3.7453 22.6875 3.4375 22.9953 3.4375 23.375V26.125C3.4375 26.5047 3.7453 26.8125 4.125 26.8125H6.875C7.2547 26.8125 7.5625 26.5047 7.5625 26.125V23.375C7.5625 22.9953 7.2547 22.6875 6.875 22.6875Z" fill="#A8B7D4"/>
<path d="M39.875 19.9375H4.125C3.94266 19.9375 3.7678 20.0099 3.63886 20.1389C3.50993 20.2678 3.4375 20.4427 3.4375 20.625C3.4375 20.8073 3.50993 20.9822 3.63886 21.1111C3.7678 21.2401 3.94266 21.3125 4.125 21.3125H39.875C40.0573 21.3125 40.2322 21.2401 40.3611 21.1111C40.4901 20.9822 40.5625 20.8073 40.5625 20.625C40.5625 20.4427 40.4901 20.2678 40.3611 20.1389C40.2322 20.0099 40.0573 19.9375 39.875 19.9375Z" fill="#A8B7D4"/>
<path d="M4.125 18.5625H6.875C7.05734 18.5625 7.2322 18.4901 7.36114 18.3611C7.49007 18.2322 7.5625 18.0573 7.5625 17.875C7.5625 17.6927 7.49007 17.5178 7.36114 17.3889C7.2322 17.2599 7.05734 17.1875 6.875 17.1875H4.125C3.94266 17.1875 3.7678 17.2599 3.63886 17.3889C3.50993 17.5178 3.4375 17.6927 3.4375 17.875C3.4375 18.0573 3.50993 18.2322 3.63886 18.3611C3.7678 18.4901 3.94266 18.5625 4.125 18.5625Z" fill="#A8B7D4"/>
<path d="M9.625 18.5625H12.375C12.5573 18.5625 12.7322 18.4901 12.8611 18.3611C12.9901 18.2322 13.0625 18.0573 13.0625 17.875C13.0625 17.6927 12.9901 17.5178 12.8611 17.3889C12.7322 17.2599 12.5573 17.1875 12.375 17.1875H9.625C9.44266 17.1875 9.2678 17.2599 9.13886 17.3889C9.00993 17.5178 8.9375 17.6927 8.9375 17.875C8.9375 18.0573 9.00993 18.2322 9.13886 18.3611C9.2678 18.4901 9.44266 18.5625 9.625 18.5625Z" fill="#A8B7D4"/>
<path d="M15.125 18.5625H17.875C18.0573 18.5625 18.2322 18.4901 18.3611 18.3611C18.4901 18.2322 18.5625 18.0573 18.5625 17.875C18.5625 17.6927 18.4901 17.5178 18.3611 17.3889C18.2322 17.2599 18.0573 17.1875 17.875 17.1875H15.125C14.9427 17.1875 14.7678 17.2599 14.6389 17.3889C14.5099 17.5178 14.4375 17.6927 14.4375 17.875C14.4375 18.0573 14.5099 18.2322 14.6389 18.3611C14.7678 18.4901 14.9427 18.5625 15.125 18.5625Z" fill="#A8B7D4"/>
<path d="M20.625 18.5625H23.375C23.5573 18.5625 23.7322 18.4901 23.8611 18.3611C23.9901 18.2322 24.0625 18.0573 24.0625 17.875C24.0625 17.6927 23.9901 17.5178 23.8611 17.3889C23.7322 17.2599 23.5573 17.1875 23.375 17.1875H20.625C20.4427 17.1875 20.2678 17.2599 20.1389 17.3889C20.0099 17.5178 19.9375 17.6927 19.9375 17.875C19.9375 18.0573 20.0099 18.2322 20.1389 18.3611C20.2678 18.4901 20.4427 18.5625 20.625 18.5625Z" fill="#A8B7D4"/>
<path d="M26.125 18.5625H28.875C29.0573 18.5625 29.2322 18.4901 29.3611 18.3611C29.4901 18.2322 29.5625 18.0573 29.5625 17.875C29.5625 17.6927 29.4901 17.5178 29.3611 17.3889C29.2322 17.2599 29.0573 17.1875 28.875 17.1875H26.125C25.9427 17.1875 25.7678 17.2599 25.6389 17.3889C25.5099 17.5178 25.4375 17.6927 25.4375 17.875C25.4375 18.0573 25.5099 18.2322 25.6389 18.3611C25.7678 18.4901 25.9427 18.5625 26.125 18.5625Z" fill="#A8B7D4"/>
<path d="M31.625 18.5625H34.375C34.5573 18.5625 34.7322 18.4901 34.8611 18.3611C34.9901 18.2322 35.0625 18.0573 35.0625 17.875C35.0625 17.6927 34.9901 17.5178 34.8611 17.3889C34.7322 17.2599 34.5573 17.1875 34.375 17.1875H31.625C31.4427 17.1875 31.2678 17.2599 31.1389 17.3889C31.0099 17.5178 30.9375 17.6927 30.9375 17.875C30.9375 18.0573 31.0099 18.2322 31.1389 18.3611C31.2678 18.4901 31.4427 18.5625 31.625 18.5625Z" fill="#A8B7D4"/>
<path d="M37.125 18.5625H39.875C40.0573 18.5625 40.2322 18.4901 40.3611 18.3611C40.4901 18.2322 40.5625 18.0573 40.5625 17.875C40.5625 17.6927 40.4901 17.5178 40.3611 17.3889C40.2322 17.2599 40.0573 17.1875 39.875 17.1875H37.125C36.9427 17.1875 36.7678 17.2599 36.6389 17.3889C36.5099 17.5178 36.4375 17.6927 36.4375 17.875C36.4375 18.0573 36.5099 18.2322 36.6389 18.3611C36.7678 18.4901 36.9427 18.5625 37.125 18.5625Z" fill="#A8B7D4"/>
<path d="M28.875 22.6875H26.125C25.7453 22.6875 25.4375 22.9953 25.4375 23.375V26.125C25.4375 26.5047 25.7453 26.8125 26.125 26.8125H28.875C29.2547 26.8125 29.5625 26.5047 29.5625 26.125V23.375C29.5625 22.9953 29.2547 22.6875 28.875 22.6875Z" fill="#A8B7D4"/>
<path d="M35.0625 41.25C39.9985 41.25 44 37.2485 44 32.3125C44 27.3765 39.9985 23.375 35.0625 23.375C30.1265 23.375 26.125 27.3765 26.125 32.3125C26.125 37.2485 30.1265 41.25 35.0625 41.25Z" fill="#4AA4F2"/>
<path d="M38.5 31.625H35.75V28.875C35.75 28.6927 35.6776 28.5178 35.5486 28.3889C35.4197 28.2599 35.2448 28.1875 35.0625 28.1875C34.8802 28.1875 34.7053 28.2599 34.5764 28.3889C34.4474 28.5178 34.375 28.6927 34.375 28.875V31.625H31.625C31.4427 31.625 31.2678 31.6974 31.1389 31.8264C31.0099 31.9553 30.9375 32.1302 30.9375 32.3125C30.9375 32.4948 31.0099 32.6697 31.1389 32.7986C31.2678 32.9276 31.4427 33 31.625 33H34.375V35.75C34.375 35.9323 34.4474 36.1072 34.5764 36.2361C34.7053 36.3651 34.8802 36.4375 35.0625 36.4375C35.2448 36.4375 35.4197 36.3651 35.5486 36.2361C35.6776 36.1072 35.75 35.9323 35.75 35.75V33H38.5C38.6823 33 38.8572 32.9276 38.9861 32.7986C39.1151 32.6697 39.1875 32.4948 39.1875 32.3125C39.1875 32.1302 39.1151 31.9553 38.9861 31.8264C38.8572 31.6974 38.6823 31.625 38.5 31.625Z" fill="#2A72DB"/>
</svg>
