<svg width="39" height="27" viewBox="0 0 39 27" fill="none" xmlns="http://www.w3.org/2000/svg">
<path d="M1.32589 26.111H2.26004C3.05859 26.111 3.58594 25.5988 3.58594 24.7852V22.6155C3.76674 22.6607 4.29409 22.6908 4.67076 22.6908H34.1568C34.5335 22.6908 35.0608 22.6607 35.2416 22.6155V24.7852C35.2416 25.5988 35.769 26.111 36.5675 26.111H37.5017C38.3002 26.111 38.8276 25.5988 38.8276 24.7852V14.2232C38.8276 11.4961 37.4565 9.91406 34.9252 9.65792V4.35435C34.9252 1.49163 33.3884 0 30.5859 0H8.24163C5.43917 0 3.90234 1.49163 3.90234 4.35435V9.65792C1.37109 9.91406 0 11.4961 0 14.2232V24.7852C0 25.5988 0.527344 26.111 1.32589 26.111ZM7.95536 6.85547C7.95536 5.40904 8.75391 4.61049 10.2305 4.61049H15.6546C17.1161 4.61049 17.9146 5.40904 17.9146 6.85547V9.62779H7.95536V6.85547ZM20.9129 6.85547C20.9129 5.40904 21.7115 4.61049 23.173 4.61049H28.5971C30.0737 4.61049 30.8722 5.40904 30.8722 6.85547V9.62779H20.9129V6.85547ZM3.43527 20.1144C3.08873 20.1144 2.89286 19.8884 2.89286 19.5117V14.0424C2.89286 12.9275 3.63114 12.2042 4.74609 12.2042H34.0815C35.1964 12.2042 35.9347 12.9275 35.9347 14.0424V19.5117C35.9347 19.8884 35.7388 20.1144 35.3923 20.1144H3.43527Z" fill="url(#paint0_linear_3234_1842)"/>
<defs>
<linearGradient id="paint0_linear_3234_1842" x1="19" y1="6.5" x2="19" y2="41.5" gradientUnits="userSpaceOnUse">
<stop stop-color="white"/>
<stop offset="1" stop-color="#EDF2F8" stop-opacity="0"/>
</linearGradient>
</defs>
</svg>
