<svg width="206" height="132" viewBox="0 0 206 132" fill="none" xmlns="http://www.w3.org/2000/svg">
<path d="M108.436 27.7087C109.607 26.0174 110.88 24.6715 112.345 23.5113C115.996 20.6236 120.183 19.1282 124.803 19.0147C131.584 18.8446 137.638 20.8711 142.671 25.512C145.682 28.2863 147.234 31.8804 148.033 35.851C149.152 41.4252 147.972 46.5766 145.125 51.3722C142.779 55.3273 139.494 58.4109 135.565 60.7984C130.104 64.1141 124.107 65.8364 117.847 66.8368C113.464 67.5381 109.055 67.8165 104.636 67.8114C95.4931 67.8011 86.4279 66.9915 77.4967 64.9289C70.9221 63.4077 64.5434 61.2986 58.469 58.3284C53.9209 56.106 49.6306 53.4864 45.7683 50.2017C45.4692 49.949 45.1959 49.6654 45 49.258C45.8096 49.6345 46.6243 50.0109 47.4339 50.3925C52.0078 52.5376 56.7054 54.3733 61.5526 55.7656C65.6057 56.9259 69.7 57.9572 73.8201 58.8647C78.724 59.9476 83.7207 60.4581 88.738 60.7211C95.2663 61.0666 101.743 60.5716 108.178 59.4681C113.412 58.5708 118.522 57.2353 123.297 54.8529C126.732 53.1409 129.877 51.0164 132.053 47.7575C135.23 43.0031 135.668 37.9651 133.311 32.7519C131.362 28.4358 127.851 26.0432 123.328 25.0428C119.275 24.1455 115.279 24.2744 111.442 26.0174C110.458 26.4557 109.555 27.0693 108.436 27.7087Z" fill="#B82627"/>
<path d="M133.554 17.5091C130.269 17.5555 128.14 16.715 126.985 14.2501C126.175 12.5227 126.299 10.6972 126.933 8.94401C128.47 4.68468 131.517 1.96717 135.766 0.523326C137.633 -0.110932 139.484 -0.229533 141.371 0.507857C143.382 1.29681 144.579 2.74581 144.868 4.85485C145.28 7.87145 144.094 10.3827 142.227 12.6516C139.819 15.5754 136.122 17.4988 133.554 17.5091Z" fill="#B82627"/>
<path d="M140.551 18.6796C140.443 16.6789 141.428 15.1886 143.109 14.1161C144.852 13.0022 146.785 12.3783 148.838 12.172C151.21 11.9297 152.648 13.2343 152.695 15.6063C152.762 18.9787 149.843 22.8152 146.569 23.5577C143.913 24.1559 140.402 23.0369 140.551 18.6796Z" fill="#B82627"/>
<path d="M154.314 23.5371C154.464 23.5371 154.613 23.5371 154.763 23.5371C157.516 23.5577 158.728 25.4811 157.475 27.9614C156.304 30.2819 154.546 31.9011 151.792 32.0351C149.941 32.128 148.327 31.0348 147.92 29.5187C147.399 27.585 148.291 25.3728 149.936 24.5169C151.272 23.8259 152.52 23.5474 154.314 23.5371Z" fill="#B82627"/>
<path d="M154.659 41.4923C153.164 41.4562 151.699 41.0024 150.751 39.5638C149.07 37.0216 151.411 34.2937 153.685 34.0669C155.711 33.8657 157.542 34.5 159.125 35.686C160.785 36.9287 160.512 39.1151 158.609 40.3476C157.464 41.0901 156.191 41.4975 154.659 41.4923Z" fill="#B82627"/>
<path d="M154.066 50.5987C153.489 50.5213 153.071 50.4852 152.658 50.4079C151.153 50.1346 150.338 49.3405 150.085 47.907C149.838 46.5405 150.457 44.9265 151.607 44.3644C153.019 43.6683 154.463 43.8694 155.825 44.6068C157.072 45.2823 158.057 46.1589 158.13 47.7368C158.186 48.9383 157.583 49.9077 156.418 50.1862C155.593 50.377 154.752 50.4801 154.066 50.5987Z" fill="#B82627"/>
<path d="M102.73 95.7599C102.688 90.6137 104.612 86.0656 108.608 82.4353C111.924 79.4239 115.858 77.9491 120.329 77.8202C123.877 77.7171 127.29 78.243 130.379 80.0375C136.485 83.5801 139.687 88.912 139.697 95.992C139.702 100.385 138.243 104.325 135.288 107.636C132.184 111.116 128.291 113.055 123.665 113.689C120.082 114.179 116.694 113.664 113.409 112.251C109.825 110.714 107.066 108.223 105.081 104.877C103.457 102.139 102.694 99.1736 102.73 95.7599ZM120.597 106.207C123.629 106.176 125.64 105.47 127.249 104.041C131.436 100.313 132.065 94.0376 128.863 89.3709C125.475 84.4412 118.488 84.2865 114.693 87.9477C111.589 90.9437 110.557 96.3581 112.455 100.349C114.198 104.021 117.086 105.975 120.597 106.207Z" fill="#195A9D"/>
<path d="M178.479 95.698C178.376 102.804 175.266 108.161 169.048 111.622C165.964 113.339 162.586 114.081 159.075 113.87C151.556 113.426 145.188 109.177 142.656 102.17C140.48 96.1415 141.207 90.2888 145.059 85.0704C148.421 80.512 153.052 78.1451 158.729 77.8305C162.968 77.5985 166.954 78.4081 170.491 80.8007C174.885 83.7709 177.571 87.8755 178.329 93.1765C178.386 93.5942 178.448 94.0119 178.474 94.4295C178.5 94.8524 178.479 95.2752 178.479 95.698ZM161.302 106.197C163.716 106.109 166.335 104.557 168.078 101.654C170.182 98.1474 170.373 94.4966 168.516 90.7993C166.969 87.7208 164.566 85.7923 161.081 85.4623C157.688 85.1426 154.779 86.2358 152.65 88.943C150.685 91.4439 149.984 94.3419 150.463 97.4925C151.19 102.237 154.893 106.264 161.302 106.197Z" fill="#195A9D"/>
<path d="M75.7135 89.9641C75.1824 89.9641 66.7669 89.9641 66.7669 89.9641C66.7669 89.9641 66.5142 89.3505 66.3028 89.0204C64.5444 86.2565 61.0276 84.9777 57.9079 85.679C54.5097 86.4421 52.179 88.4893 51.127 91.8101C49.9204 95.6002 50.3329 99.2253 52.6791 102.515C55.6751 106.713 62.6262 107.12 65.7768 103.268C66.3183 102.608 66.7153 101.814 67.0969 101.04C67.4372 100.355 67.3238 100.226 66.5555 100.221C63.8741 100.215 57.7119 100.221 57.7119 100.221C57.7119 100.221 57.7119 93.7284 57.7119 93.4551C58.2328 93.4551 76.7449 93.419 76.7449 93.419C76.7449 93.419 76.7397 93.7387 76.7397 93.9811C76.8067 99.349 75.6207 104.315 71.743 108.27C68.35 111.73 64.1577 113.432 59.2899 113.365C54.9274 113.303 51.1167 111.787 47.9918 108.76C44.0006 104.892 42.2629 100.081 42.5104 94.5638C42.6651 91.0934 43.6861 87.886 45.7642 85.0602C48.0898 81.8941 51.1167 79.7334 54.9377 78.7124C58.9702 77.6399 62.9252 77.8358 66.7102 79.62C70.9592 81.6259 73.9552 84.8436 75.5434 89.3092C75.6001 89.5 75.6362 89.6856 75.7135 89.9641Z" fill="#195A9D"/>
<path d="M0 79.3259C0.283611 79.3259 9.9625 79.3259 14.5518 79.4291C17.785 79.5013 20.7088 80.4191 22.8642 83.0593C24.2204 84.7197 24.6072 86.6431 24.4473 88.7109C24.2514 91.2531 22.9777 93.1301 20.8171 94.4398C20.7088 94.5017 20.5953 94.5533 20.3066 94.6977C21.0337 95.0638 21.5235 95.301 22.0134 95.5537C25.2569 97.2347 26.7007 100.349 26.1851 103.995C25.5457 108.486 22.2248 111.25 18.2697 112.142C16.4495 112.555 14.5312 112.658 12.6542 112.694C8.46193 112.771 4.26448 112.72 0.00515374 112.72C-2.83247e-06 101.607 0 90.5208 0 79.3259ZM8.596 105.202C8.596 105.202 13.7887 105.3 15.2738 105.202C16.7331 104.98 17.6613 103.531 17.6509 101.948C17.6406 100.602 16.8053 99.3798 15.3099 99.22C13.206 99.122 8.596 99.22 8.596 99.22V105.202ZM8.6682 91.8048C8.6682 91.8048 12.4892 91.9338 14.1703 91.8048C15.4491 91.7069 15.9287 90.3301 15.9132 89.0512C15.9132 87.8858 14.9489 86.9113 13.7062 86.8648C12.2314 86.8081 8.6682 86.8648 8.6682 86.8648V91.8048Z" fill="#195A9D"/>
<path d="M100.172 79.3156C100.172 81.6361 100.172 86.6689 100.172 86.6689H87.3579V90.9746H99.8007V98.3898H87.3579C87.3579 98.3898 87.3579 112.503 87.3579 112.673C84.7126 112.673 82.0621 112.673 79.3704 112.673C79.3704 112.318 79.3652 79.3208 79.3652 79.3208C79.3652 79.3208 99.8678 79.295 100.172 79.3156Z" fill="#195A9D"/>
<path d="M38.525 79.3362H29.2793V112.679H38.525V79.3362Z" fill="#195A9D"/>
<path d="M206 79.3003H178.753V87.5199H188.463V112.679H196.693V87.5199H206V79.3003Z" fill="#195A9D"/>
<path d="M45.4609 126.06C45.4609 126.978 45.069 127.726 44.2903 128.298C43.5117 128.87 42.4546 129.159 41.1139 129.159C40.3404 129.159 39.6649 129.092 39.0925 128.958C38.5201 128.824 37.9787 128.649 37.4785 128.442V126.204H37.7415C38.2365 126.601 38.7934 126.906 39.4122 127.117C40.031 127.328 40.6189 127.437 41.1913 127.437C41.3356 127.437 41.5316 127.426 41.7688 127.401C42.006 127.375 42.2019 127.334 42.3515 127.277C42.5371 127.2 42.6867 127.107 42.8053 126.993C42.9239 126.88 42.9857 126.715 42.9857 126.493C42.9857 126.287 42.8981 126.112 42.7279 125.962C42.5526 125.812 42.2999 125.699 41.9647 125.622C41.6141 125.539 41.2428 125.462 40.8509 125.384C40.459 125.312 40.0929 125.219 39.7526 125.106C38.9688 124.853 38.4015 124.508 38.056 124.07C37.7106 123.631 37.5404 123.09 37.5404 122.445C37.5404 121.574 37.9323 120.867 38.7109 120.316C39.4896 119.764 40.49 119.49 41.7172 119.49C42.3309 119.49 42.9393 119.552 43.5375 119.671C44.1356 119.79 44.6565 119.939 45.0948 120.12V122.27H44.8369C44.4605 121.971 44.0016 121.718 43.455 121.517C42.9084 121.316 42.3515 121.213 41.7843 121.213C41.5831 121.213 41.382 121.228 41.1861 121.254C40.9901 121.28 40.7942 121.331 40.6137 121.409C40.4487 121.471 40.3095 121.569 40.196 121.692C40.0774 121.821 40.0207 121.966 40.0207 122.125C40.0207 122.373 40.1135 122.559 40.3043 122.693C40.49 122.827 40.8458 122.945 41.3717 123.054C41.7121 123.126 42.0421 123.193 42.3566 123.26C42.6712 123.327 43.0115 123.42 43.3725 123.533C44.0892 123.765 44.6152 124.085 44.9555 124.487C45.2907 124.895 45.4609 125.415 45.4609 126.06Z" fill="#195A9D"/>
<path d="M54.0003 128.994H51.7366V128.215C51.3189 128.535 50.9373 128.772 50.5918 128.937C50.2463 129.102 49.8338 129.185 49.3542 129.185C48.5756 129.185 47.9826 128.963 47.5598 128.514C47.1421 128.066 46.9307 127.406 46.9307 126.534V121.955H49.1944V125.446C49.1944 125.802 49.2047 126.096 49.2305 126.333C49.2563 126.57 49.3078 126.766 49.3903 126.921C49.4677 127.076 49.5915 127.189 49.7513 127.261C49.9112 127.334 50.1381 127.37 50.4268 127.37C50.6176 127.37 50.8342 127.334 51.0662 127.261C51.2983 127.189 51.5252 127.086 51.7417 126.947V121.96H54.0055V128.994H54.0003Z" fill="#195A9D"/>
<path d="M63.4731 125.379C63.4731 125.962 63.3855 126.488 63.205 126.962C63.0297 127.437 62.7924 127.834 62.5088 128.138C62.2098 128.463 61.8694 128.71 61.4878 128.875C61.1062 129.04 60.6989 129.128 60.2657 129.128C59.8635 129.128 59.5232 129.087 59.2447 128.999C58.9663 128.911 58.6775 128.793 58.3887 128.638V131.572H56.125V121.95H58.3887V122.682C58.7342 122.409 59.09 122.182 59.451 122.012C59.812 121.842 60.2296 121.754 60.6989 121.754C61.5755 121.754 62.2562 122.074 62.7409 122.718C63.2307 123.368 63.4731 124.255 63.4731 125.379ZM61.1475 125.426C61.1475 124.74 61.0289 124.245 60.7969 123.935C60.5648 123.626 60.1935 123.471 59.6882 123.471C59.4768 123.471 59.255 123.502 59.0333 123.569C58.8064 123.636 58.595 123.724 58.3887 123.848V127.385C58.5383 127.442 58.6981 127.483 58.8683 127.499C59.0385 127.514 59.2086 127.524 59.3736 127.524C59.9718 127.524 60.4153 127.349 60.704 127.004C61.0031 126.648 61.1475 126.127 61.1475 125.426Z" fill="#195A9D"/>
<path d="M72.4507 125.379C72.4507 125.962 72.363 126.488 72.1825 126.962C72.002 127.437 71.77 127.834 71.4864 128.138C71.1873 128.463 70.847 128.71 70.4654 128.875C70.0838 129.04 69.6764 129.128 69.2433 129.128C68.8411 129.128 68.5007 129.087 68.2223 128.999C67.9438 128.911 67.655 128.793 67.3663 128.638V131.572H65.1025V121.95H67.3663V122.682C67.7118 122.409 68.0676 122.182 68.4285 122.012C68.7895 121.842 69.2072 121.754 69.6764 121.754C70.553 121.754 71.2337 122.074 71.7184 122.718C72.2083 123.368 72.4507 124.255 72.4507 125.379ZM70.125 125.426C70.125 124.74 70.0064 124.245 69.7744 123.935C69.5423 123.626 69.1711 123.471 68.6657 123.471C68.4543 123.471 68.2326 123.502 68.0108 123.569C67.7839 123.636 67.5725 123.724 67.3663 123.848V127.385C67.5158 127.442 67.6757 127.483 67.8458 127.499C68.016 127.514 68.1862 127.524 68.3512 127.524C68.9493 127.524 69.3928 127.349 69.6816 127.004C69.9807 126.648 70.125 126.127 70.125 125.426Z" fill="#195A9D"/>
<path d="M76.338 128.994H74.0742V119.243H76.338V128.994Z" fill="#195A9D"/>
<path d="M81.639 126.503L83.2427 121.955H85.5632L81.6545 131.577H79.2051L80.3241 128.942L77.5859 121.96H79.958L81.639 126.503Z" fill="#195A9D"/>
<path d="M95.5518 129.175C94.8556 129.175 94.2162 129.071 93.6284 128.865C93.0405 128.659 92.5352 128.355 92.1124 127.952C91.6895 127.545 91.3647 127.04 91.1326 126.436C90.9006 125.833 90.7871 125.132 90.7871 124.338C90.7871 123.6 90.8954 122.93 91.1171 122.327C91.3389 121.723 91.6586 121.208 92.0814 120.78C92.4888 120.367 92.989 120.047 93.5871 119.821C94.1853 119.594 94.8402 119.48 95.5518 119.48C95.9437 119.48 96.2995 119.501 96.614 119.547C96.9286 119.594 97.2225 119.65 97.4907 119.717C97.7691 119.795 98.0269 119.888 98.2538 119.986C98.4807 120.084 98.6818 120.176 98.852 120.259V122.523H98.5787C98.4601 122.425 98.3157 122.306 98.1352 122.167C97.9599 122.028 97.7536 121.893 97.5319 121.759C97.2999 121.625 97.0523 121.512 96.7842 121.424C96.5161 121.331 96.2324 121.285 95.923 121.285C95.5827 121.285 95.263 121.337 94.9588 121.445C94.6545 121.553 94.3709 121.728 94.1131 121.971C93.8656 122.208 93.6696 122.523 93.5149 122.914C93.3602 123.306 93.288 123.781 93.288 124.338C93.288 124.92 93.3705 125.41 93.5356 125.802C93.7006 126.194 93.9068 126.503 94.1595 126.725C94.4122 126.957 94.7009 127.117 95.0103 127.215C95.3249 127.313 95.6343 127.359 95.9385 127.359C96.2324 127.359 96.5212 127.318 96.8048 127.231C97.0884 127.143 97.3566 127.024 97.5989 126.875C97.8052 126.756 97.996 126.627 98.1713 126.488C98.3466 126.349 98.491 126.23 98.6045 126.132H98.8571V128.365C98.6251 128.468 98.3982 128.566 98.1868 128.659C97.9754 128.752 97.7485 128.829 97.5164 128.896C97.2122 128.984 96.9234 129.051 96.6553 129.097C96.3871 129.154 96.0159 129.175 95.5518 129.175Z" fill="#195A9D"/>
<path d="M107.561 128.994H105.297V125.503C105.297 125.219 105.282 124.936 105.251 124.652C105.22 124.369 105.174 124.162 105.101 124.028C105.019 123.874 104.895 123.76 104.735 123.688C104.575 123.616 104.349 123.58 104.06 123.58C103.854 123.58 103.647 123.611 103.436 123.678C103.224 123.745 102.998 123.853 102.75 123.997V128.984H100.486V119.233H102.75V122.724C103.152 122.409 103.534 122.172 103.905 122.002C104.276 121.837 104.684 121.749 105.138 121.749C105.896 121.749 106.489 121.971 106.917 122.414C107.345 122.858 107.556 123.518 107.556 124.4V128.994H107.561Z" fill="#195A9D"/>
<path d="M113.899 128.246C113.78 128.339 113.626 128.447 113.445 128.576C113.265 128.705 113.094 128.808 112.94 128.886C112.718 128.984 112.486 129.061 112.249 129.107C112.012 129.154 111.749 129.18 111.465 129.18C110.795 129.18 110.238 128.973 109.784 128.561C109.33 128.148 109.108 127.617 109.108 126.978C109.108 126.462 109.222 126.044 109.454 125.719C109.686 125.395 110.011 125.137 110.434 124.951C110.851 124.766 111.367 124.631 111.986 124.549C112.605 124.472 113.244 124.41 113.909 124.374V124.338C113.909 123.951 113.749 123.683 113.435 123.533C113.12 123.384 112.651 123.311 112.032 123.311C111.661 123.311 111.264 123.378 110.841 123.507C110.418 123.641 110.114 123.739 109.933 123.812H109.727V122.115C109.964 122.053 110.351 121.976 110.887 121.893C111.424 121.806 111.96 121.764 112.501 121.764C113.785 121.764 114.708 121.96 115.281 122.357C115.853 122.754 116.137 123.373 116.137 124.214V129.004H113.899V128.246ZM113.899 127.153V125.694C113.595 125.719 113.265 125.756 112.909 125.797C112.553 125.843 112.285 125.89 112.099 125.952C111.872 126.024 111.702 126.127 111.584 126.261C111.465 126.395 111.403 126.575 111.403 126.797C111.403 126.942 111.413 127.06 111.439 127.153C111.465 127.246 111.527 127.333 111.625 127.416C111.723 127.499 111.836 127.56 111.97 127.602C112.104 127.643 112.311 127.664 112.599 127.664C112.826 127.664 113.053 127.617 113.285 127.524C113.522 127.421 113.724 127.303 113.899 127.153Z" fill="#195A9D"/>
<path d="M120.535 120.955H118.147V119.243H120.535V120.955ZM120.473 128.994H118.209V121.955H120.473V128.994Z" fill="#195A9D"/>
<path d="M129.668 128.994H127.404V125.503C127.404 125.219 127.388 124.936 127.357 124.652C127.327 124.369 127.28 124.162 127.208 124.028C127.125 123.874 127.002 123.76 126.842 123.688C126.682 123.616 126.455 123.58 126.166 123.58C125.96 123.58 125.754 123.611 125.542 123.678C125.331 123.745 125.104 123.853 124.857 123.997V128.984H122.593V121.945H124.857V122.724C125.259 122.409 125.64 122.172 126.012 122.002C126.383 121.837 126.79 121.749 127.244 121.749C128.002 121.749 128.595 121.971 129.023 122.414C129.451 122.858 129.662 123.518 129.662 124.399V128.994H129.668Z" fill="#195A9D"/>
<path d="M143.003 128.994H136.253V119.661H143.003V121.465H138.646V123.074H142.688V124.879H138.646V127.184H143.003V128.994Z" fill="#195A9D"/>
<path d="M151.964 128.994H149.701V125.503C149.701 125.219 149.685 124.936 149.654 124.652C149.623 124.369 149.577 124.162 149.505 124.028C149.422 123.874 149.299 123.76 149.139 123.688C148.979 123.616 148.752 123.58 148.463 123.58C148.257 123.58 148.051 123.611 147.839 123.678C147.628 123.745 147.401 123.853 147.153 123.997V128.984H144.89V121.945H147.153V122.724C147.556 122.409 147.937 122.172 148.308 122.002C148.68 121.832 149.087 121.749 149.541 121.749C150.299 121.749 150.892 121.971 151.32 122.414C151.748 122.858 151.959 123.518 151.959 124.399V128.994H151.964Z" fill="#195A9D"/>
<path d="M158.302 128.246C158.184 128.339 158.029 128.447 157.848 128.576C157.668 128.705 157.498 128.808 157.343 128.886C157.121 128.984 156.889 129.061 156.652 129.107C156.415 129.154 156.152 129.18 155.868 129.18C155.198 129.18 154.641 128.973 154.187 128.561C153.733 128.148 153.512 127.617 153.512 126.978C153.512 126.462 153.625 126.044 153.857 125.719C154.089 125.395 154.414 125.137 154.837 124.951C155.255 124.766 155.77 124.631 156.389 124.549C157.008 124.472 157.647 124.41 158.312 124.374V124.338C158.312 123.951 158.153 123.683 157.838 123.533C157.524 123.384 157.054 123.311 156.436 123.311C156.064 123.311 155.667 123.378 155.244 123.507C154.821 123.641 154.517 123.739 154.337 123.812H154.131V122.115C154.368 122.053 154.754 121.976 155.291 121.893C155.827 121.806 156.363 121.764 156.905 121.764C158.189 121.764 159.112 121.96 159.684 122.357C160.257 122.754 160.54 123.373 160.54 124.214V129.004H158.302V128.246ZM158.302 127.153V125.694C157.998 125.719 157.668 125.756 157.312 125.797C156.956 125.843 156.688 125.89 156.503 125.952C156.276 126.024 156.105 126.127 155.987 126.261C155.868 126.395 155.806 126.575 155.806 126.797C155.806 126.942 155.817 127.06 155.842 127.153C155.868 127.246 155.93 127.333 156.028 127.416C156.126 127.499 156.24 127.56 156.374 127.602C156.508 127.643 156.714 127.664 157.003 127.664C157.23 127.664 157.457 127.617 157.689 127.524C157.921 127.421 158.127 127.303 158.302 127.153Z" fill="#195A9D"/>
<path d="M169.961 125.379C169.961 126.488 169.657 127.391 169.043 128.087C168.43 128.783 167.672 129.133 166.754 129.133C166.362 129.133 166.016 129.092 165.722 129.01C165.428 128.927 165.145 128.803 164.877 128.649L164.784 128.999H162.618V119.248H164.882V122.693C165.227 122.42 165.583 122.193 165.944 122.023C166.305 121.852 166.723 121.765 167.192 121.765C168.079 121.765 168.765 122.084 169.244 122.729C169.719 123.363 169.961 124.25 169.961 125.379ZM167.635 125.426C167.635 124.802 167.527 124.317 167.316 123.982C167.104 123.647 166.723 123.477 166.176 123.477C165.965 123.477 165.743 123.508 165.521 123.575C165.294 123.642 165.083 123.729 164.877 123.853V127.38C165.042 127.437 165.191 127.478 165.341 127.499C165.485 127.519 165.661 127.53 165.867 127.53C166.465 127.53 166.908 127.354 167.197 127.004C167.486 126.653 167.635 126.127 167.635 125.426Z" fill="#195A9D"/>
<path d="M173.849 128.994H171.585V119.243H173.849V128.994Z" fill="#195A9D"/>
<path d="M182.909 125.89H177.747C177.778 126.442 177.99 126.864 178.376 127.158C178.763 127.452 179.33 127.597 180.083 127.597C180.558 127.597 181.022 127.509 181.47 127.339C181.919 127.169 182.27 126.983 182.527 126.787H182.78V128.597C182.27 128.803 181.79 128.948 181.336 129.04C180.882 129.133 180.387 129.18 179.841 129.18C178.428 129.18 177.345 128.86 176.592 128.226C175.839 127.591 175.463 126.684 175.463 125.513C175.463 124.353 175.819 123.43 176.53 122.755C177.242 122.079 178.222 121.739 179.459 121.739C180.604 121.739 181.465 122.028 182.043 122.605C182.62 123.183 182.909 124.018 182.909 125.101V125.89ZM180.661 124.57C180.65 124.095 180.532 123.745 180.31 123.502C180.088 123.265 179.743 123.147 179.274 123.147C178.84 123.147 178.479 123.26 178.201 123.487C177.923 123.714 177.763 124.075 177.732 124.57H180.661Z" fill="#195A9D"/>
<path d="M189.602 124.106H189.401C189.303 124.075 189.148 124.049 188.937 124.028C188.725 124.013 188.545 124.002 188.406 124.002C188.086 124.002 187.802 124.023 187.555 124.064C187.307 124.106 187.044 124.178 186.761 124.276V128.989H184.497V121.95H186.761V122.987C187.256 122.559 187.689 122.275 188.055 122.136C188.421 121.997 188.762 121.924 189.066 121.924C189.143 121.924 189.236 121.924 189.334 121.929C189.432 121.935 189.52 121.94 189.597 121.95V124.106H189.602Z" fill="#195A9D"/>
<path d="M196.997 126.761C196.997 127.488 196.672 128.076 196.018 128.52C195.368 128.963 194.476 129.185 193.341 129.185C192.712 129.185 192.145 129.128 191.634 129.009C191.124 128.891 190.717 128.762 190.407 128.623V126.766H190.614C190.727 126.844 190.856 126.931 191.005 127.024C191.155 127.117 191.361 127.22 191.634 127.328C191.867 127.426 192.135 127.509 192.429 127.576C192.723 127.643 193.042 127.679 193.383 127.679C193.826 127.679 194.151 127.627 194.368 127.53C194.579 127.432 194.687 127.287 194.687 127.096C194.687 126.926 194.625 126.802 194.502 126.725C194.378 126.648 194.141 126.576 193.785 126.503C193.62 126.467 193.393 126.426 193.104 126.38C192.815 126.333 192.558 126.282 192.325 126.22C191.686 126.055 191.212 125.792 190.902 125.441C190.593 125.09 190.438 124.647 190.438 124.121C190.438 123.446 190.758 122.883 191.402 122.43C192.042 121.981 192.918 121.754 194.032 121.754C194.558 121.754 195.064 121.806 195.548 121.914C196.033 122.022 196.409 122.136 196.678 122.254V124.033H196.482C196.147 123.801 195.765 123.616 195.337 123.471C194.909 123.327 194.476 123.255 194.037 123.255C193.677 123.255 193.367 123.306 193.12 123.404C192.872 123.502 192.748 123.647 192.748 123.832C192.748 123.997 192.805 124.126 192.919 124.214C193.032 124.302 193.295 124.389 193.713 124.477C193.945 124.523 194.192 124.57 194.455 124.611C194.718 124.657 194.986 124.709 195.254 124.776C195.847 124.931 196.286 125.173 196.569 125.508C196.853 125.848 196.997 126.266 196.997 126.761Z" fill="#195A9D"/>
</svg>
