<svg width="24" height="24" viewBox="0 0 24 24" fill="none" xmlns="http://www.w3.org/2000/svg">
<path d="M8.97886 6.11384V6.85212H15.0207V6.11384C15.0207 5.77483 14.7872 5.55636 14.4105 5.55636H9.58154C9.2124 5.55636 8.97886 5.77483 8.97886 6.11384ZM11.9923 11.4099C9.0316 11.4099 6.20654 10.9579 3.46436 9.81278V9.26284C3.46436 7.67327 4.29304 6.85212 5.89767 6.85212H7.4119V6.04604C7.4119 4.84068 8.18785 4.125 9.48361 4.125H14.5084C15.8042 4.125 16.5801 4.84068 16.5801 6.04604V6.85212H18.0944C19.7065 6.85212 20.5277 7.67327 20.5277 9.26284V9.81278C17.7855 10.9579 14.9604 11.4099 11.9923 11.4099ZM5.89767 19.0262C4.29304 19.0262 3.46436 18.2126 3.46436 16.6155V11.2441C5.75453 12.0804 7.81871 12.4721 9.90548 12.6303V13.2254C9.90548 13.798 10.237 14.1144 10.817 14.1144H13.1675C13.7551 14.1144 14.0866 13.798 14.0866 13.2254V12.6303C16.1733 12.4721 18.2375 12.0804 20.5277 11.2441V16.6155C20.5277 18.2126 19.7065 19.0262 18.0944 19.0262H5.89767Z" fill="white"/>
</svg>
