<svg width="16" height="13" viewBox="0 0 16 13" fill="none" xmlns="http://www.w3.org/2000/svg">
<path d="M5.48263 2.09487V2.7101H10.5175V2.09487C10.5175 1.81236 10.3229 1.6303 10.009 1.6303H5.98486C5.67725 1.6303 5.48263 1.81236 5.48263 2.09487ZM7.99379 6.50823C5.52658 6.50823 3.17236 6.13156 0.887207 5.17732V4.71903C0.887207 3.39439 1.57778 2.7101 2.91497 2.7101H4.17683V2.03836C4.17683 1.0339 4.82345 0.4375 5.90325 0.4375H10.0906C11.1704 0.4375 11.817 1.0339 11.817 2.03836V2.7101H13.0789C14.4224 2.7101 15.1067 3.39439 15.1067 4.71903V5.17732C12.8215 6.13156 10.4673 6.50823 7.99379 6.50823ZM2.91497 12.8552C1.57778 12.8552 0.887207 12.1772 0.887207 10.8463V6.37012C2.79569 7.06696 4.51583 7.39341 6.25481 7.52525V8.0212C6.25481 8.49833 6.53104 8.762 7.01444 8.762H8.97314C9.46282 8.762 9.73905 8.49833 9.73905 8.0212V7.52525C11.478 7.39341 13.1982 7.06696 15.1067 6.37012V10.8463C15.1067 12.1772 14.4224 12.8552 13.0789 12.8552H2.91497Z" fill="#505050"/>
</svg>
