<svg width="16" height="13" viewBox="0 0 16 13" fill="none" xmlns="http://www.w3.org/2000/svg">
<path d="M2.90262 12.8742H13.0979C14.4477 12.8742 15.1383 12.1961 15.1383 10.859V4.70661C15.1383 3.3757 14.4477 2.69141 13.0979 2.69141H11.7607V2.02595C11.7607 1.06543 11.1455 0.494141 10.0971 0.494141H5.90346C4.85505 0.494141 4.23982 1.06543 4.23982 2.02595V2.69141H2.90262C1.55915 2.69141 0.862305 3.3757 0.862305 4.70661V10.859C0.862305 12.1961 1.55915 12.8742 2.90262 12.8742ZM5.41378 2.08873C5.41378 1.76228 5.63979 1.55511 5.98507 1.55511H10.0155C10.367 1.55511 10.5868 1.76228 10.5868 2.08873V2.69141H5.41378V2.08873ZM2.11161 4.74428C2.11161 4.17927 2.40667 3.89676 2.95285 3.89676H13.0477C13.5939 3.89676 13.8827 4.17927 13.8827 4.74428V5.56669C12.15 6.16309 10.1599 6.45815 8.00028 6.45815C5.84068 6.45815 3.85059 6.16309 2.11161 5.56669V4.74428ZM2.95285 11.6688C2.40667 11.6688 2.11161 11.3926 2.11161 10.8213V6.77832C3.39858 7.16755 4.79855 7.41867 6.25502 7.52539V8.02134C6.25502 8.49846 6.53125 8.76214 7.02093 8.76214H8.97963C9.46931 8.76214 9.73926 8.49846 9.73926 8.02134V7.52539C11.202 7.41867 12.5957 7.16755 13.8827 6.77832V10.8213C13.8827 11.3926 13.5939 11.6688 13.0477 11.6688H2.95285Z" fill="white"/>
</svg>
