<svg width="40" height="40" viewBox="0 0 40 40" fill="none" xmlns="http://www.w3.org/2000/svg">
<path d="M28.4814 3.24156C28.941 3.40236 29.3466 3.75476 29.5918 4.20636C29.745 4.48956 29.7602 4.64276 29.7834 6.25076L29.8062 7.99676H30.8018H31.7894V9.48996C31.7894 11.098 31.8278 11.3048 32.1878 11.5344C32.5094 11.7412 32.7698 11.764 33.1298 11.6032C33.635 11.3812 33.7042 11.182 33.7042 9.99516V9.00716L34.3858 8.97636C35.0214 8.95356 35.0902 8.93796 35.3046 8.73116C35.4346 8.60116 35.5802 8.38676 35.6338 8.24876C35.741 7.96556 35.7718 7.95796 36.4686 8.10316C37.939 8.41716 39.1334 9.59636 39.4858 11.0744C39.5778 11.488 39.6006 12.7972 39.6006 19.7656C39.6006 25.432 39.5778 28.0968 39.5162 28.3804C39.271 29.5748 38.4902 30.5628 37.3338 31.1372L36.6678 31.4664L30.0826 31.4892L23.505 31.512L23.8418 31.1292C24.4698 30.4324 24.8986 29.2992 24.8986 28.3264C24.8986 27.354 24.485 26.2664 23.8342 25.524C23.4514 25.0876 16.4982 18.9768 15.855 18.5096C15.0658 17.944 13.8558 17.676 12.937 17.8672C12.0794 18.0508 11.2446 18.6024 10.7622 19.3296C10.4406 19.82 10.2646 20.4632 10.2186 21.344L10.1726 22.1712L9.20779 22.1484L8.24299 22.1256V16.688V11.2512L8.44219 10.7076C8.93219 9.35996 9.95859 8.42556 11.2754 8.11156C12.041 7.93556 12.1638 7.95076 12.2174 8.24956C12.309 8.75476 12.7458 8.99236 13.5726 8.99236H14.101V9.91116C14.101 10.9372 14.1854 11.236 14.5222 11.504C14.813 11.7336 15.3798 11.7336 15.6706 11.504C16.0382 11.2132 16.0918 10.968 16.0918 9.41356V7.99676H17.0414H17.991L18.0218 6.28916C18.0446 4.61996 18.0522 4.58156 18.2514 4.19876C18.3662 3.97676 18.5882 3.69316 18.749 3.56316C19.3078 3.10356 19.377 3.09596 23.933 3.09596C27.7466 3.10396 28.1062 3.11156 28.4814 3.24156ZM19.997 6.54196V7.99676H23.9022H27.8074V6.54196V5.08716H23.9022H19.997V6.54196Z" fill="#155B9F"/>
<path d="M14.2923 19.8812C14.6523 20.0112 15.0735 20.356 18.8483 23.6716C22.1947 26.612 22.4243 26.8264 22.6615 27.2936C22.9067 27.7608 22.9219 27.8296 22.8911 28.404C22.8603 29.1084 22.6843 29.5448 22.2479 29.9968C21.5895 30.6708 14.9043 36.4672 14.5367 36.674C14.2075 36.8656 14.0543 36.9036 13.6331 36.9036C13.0051 36.9036 12.5915 36.666 12.3467 36.1608C12.2011 35.8468 12.1859 35.6936 12.1859 34.2004V32.5772H7.52272C3.06632 32.5772 2.83632 32.5696 2.37712 32.424C1.45832 32.1328 0.776716 31.4284 0.508717 30.4944C0.401516 30.1268 0.386318 29.7364 0.409119 28.1588L0.432318 26.26L0.669516 25.7624C1.07552 24.9124 1.77232 24.3536 2.67592 24.162C2.95152 24.1084 4.55192 24.0776 7.63032 24.0776H12.1863V22.4772C12.1863 21.5276 12.2171 20.7848 12.2707 20.6548C12.3703 20.3944 12.6919 20.0424 12.9675 19.8968C13.2051 19.774 13.9555 19.7664 14.2923 19.8812Z" fill="#155B9F"/>
</svg>
