<svg width="16" height="16" viewBox="0 0 16 16" fill="none" xmlns="http://www.w3.org/2000/svg">
<path d="M7.98786 13.1759C8.68094 13.1759 9.35393 13.0353 9.97168 12.7741C9.73563 12.518 9.55483 12.2167 9.42425 11.8952C8.97726 12.061 8.49512 12.1564 7.98786 12.1564C5.67759 12.1564 3.82436 10.2981 3.82436 7.98786C3.82436 5.67759 5.67257 3.82436 7.98284 3.82436C10.0721 3.82436 11.7948 5.35114 12.0961 7.35505C12.4075 7.30483 12.8193 7.31989 13.1357 7.40025C12.8394 4.82882 10.6246 2.7998 7.98284 2.7998C5.14021 2.7998 2.7998 5.15025 2.7998 7.98786C2.7998 10.8305 5.14523 13.1759 7.98786 13.1759ZM5.44657 8.61063H7.98284C8.20885 8.61063 8.3796 8.43485 8.3796 8.21387V4.91922C8.3796 4.69824 8.20885 4.52246 7.98284 4.52246C7.76186 4.52246 7.58608 4.69824 7.58608 4.91922V7.8171H5.44657C5.22056 7.8171 5.0498 7.98786 5.0498 8.21387C5.0498 8.43485 5.22056 8.61063 5.44657 8.61063Z" fill="#4C9F87"/>
<path d="M11.4326 12.5714C12.6853 12.5714 13.7194 11.5369 13.7194 10.2857C13.7194 9.03454 12.6831 8 11.4303 8C10.1798 8 9.14795 9.03454 9.14795 10.2857C9.14795 11.5369 10.182 12.5714 11.4326 12.5714ZM12.1484 10.8892C12.0313 10.8892 11.9562 10.8096 11.9562 10.6814V10.3189L11.9871 9.9895L11.6822 10.3255L10.8868 11.1213C10.8426 11.1655 10.7896 11.1876 10.7255 11.1876C10.6084 11.1876 10.5223 11.1058 10.5223 10.982C10.5223 10.9268 10.5466 10.8715 10.5885 10.8317L11.3884 10.0315L11.7264 9.72423L11.4149 9.7596H11.0304C10.9045 9.7596 10.8205 9.68444 10.8205 9.56728C10.8205 9.45012 10.9023 9.37497 11.0282 9.37497H12.102C12.2479 9.37497 12.3384 9.45012 12.3384 9.61149V10.677C12.3384 10.803 12.2633 10.8892 12.1484 10.8892Z" fill="#4C9F87"/>
</svg>
