<svg width="17" height="17" viewBox="0 0 17 17" fill="none" xmlns="http://www.w3.org/2000/svg">
<circle cx="8.5" cy="8.5" r="7.5" fill="#1F8B88" stroke="white"/>
<path d="M11.9656 6.15526C12.0214 6.1061 12.088 6.06705 12.1616 6.04039C12.2351 6.01373 12.3141 6 12.3939 6C12.4737 6 12.5526 6.01373 12.6262 6.04039C12.6997 6.06705 12.7664 6.1061 12.8222 6.15526C13.0562 6.35927 13.0595 6.68894 12.8304 6.89649L7.99239 11.831C7.93746 11.883 7.87081 11.9248 7.7965 11.9539C7.72219 11.9829 7.64179 11.9986 7.56023 11.9999C7.47866 12.0012 7.39764 11.9882 7.32212 11.9616C7.2466 11.9349 7.17817 11.8953 7.12101 11.8451L4.17713 9.27124C4.0636 9.17134 4 9.03701 4 8.8971C4 8.75719 4.0636 8.62285 4.17713 8.52295C4.23297 8.4738 4.29962 8.43475 4.37316 8.40809C4.44671 8.38143 4.52569 8.3677 4.60546 8.3677C4.68524 8.3677 4.76421 8.38143 4.83776 8.40809C4.9113 8.43475 4.97795 8.4738 5.03379 8.52295L7.53093 10.7064L11.9492 6.17079C11.9543 6.16533 11.9598 6.16015 11.9656 6.15526Z" fill="white"/>
</svg>
