<svg width="16" height="16" viewBox="0 0 16 16" fill="none" xmlns="http://www.w3.org/2000/svg">
<path d="M7.98811 13.1759C8.68119 13.1759 9.35418 13.0353 9.97192 12.7741C9.73588 12.518 9.55507 12.2167 9.42449 11.8952C8.9775 12.061 8.49536 12.1564 7.98811 12.1564C5.67784 12.1564 3.8246 10.2981 3.8246 7.98786C3.8246 5.67759 5.67282 3.82436 7.98308 3.82436C10.0724 3.82436 11.795 5.35114 12.0964 7.35505C12.4078 7.30483 12.8196 7.31989 13.136 7.40025C12.8397 4.82882 10.6248 2.7998 7.98308 2.7998C5.14045 2.7998 2.80005 5.15025 2.80005 7.98786C2.80005 10.8305 5.14547 13.1759 7.98811 13.1759ZM5.44681 8.61063H7.98308C8.20909 8.61063 8.37985 8.43485 8.37985 8.21387V4.91922C8.37985 4.69824 8.20909 4.52246 7.98308 4.52246C7.7621 4.52246 7.58632 4.69824 7.58632 4.91922V7.8171H5.44681C5.22081 7.8171 5.05005 7.98786 5.05005 8.21387C5.05005 8.43485 5.22081 8.61063 5.44681 8.61063Z" fill="#EB4747"/>
<path d="M11.4351 7.99986C10.1823 7.99986 9.1483 9.0344 9.1483 10.2856C9.1483 11.5367 10.1845 12.5713 11.4373 12.5713C12.6879 12.5713 13.7197 11.5367 13.7197 10.2856C13.7197 9.0344 12.6857 7.99986 11.4351 7.99986ZM10.7192 9.68209C10.8363 9.68209 10.9115 9.76167 10.9115 9.88989V10.2524L10.8805 10.5818L11.1854 10.2458L11.9809 9.44999C12.025 9.40577 12.0781 9.38367 12.1422 9.38367C12.2593 9.38367 12.3454 9.46546 12.3454 9.58925C12.3454 9.64451 12.3211 9.69978 12.2791 9.73957L11.4793 10.5398L11.1413 10.8471L11.4528 10.8117H11.8372C11.9632 10.8117 12.0471 10.8868 12.0471 11.004C12.0471 11.1212 11.9654 11.1963 11.8395 11.1963H10.7656C10.6198 11.1963 10.5292 11.1212 10.5292 10.9598V9.89431C10.5292 9.76831 10.6043 9.68209 10.7192 9.68209Z" fill="#EB4747"/>
</svg>
