<svg width="40" height="34" viewBox="0 0 40 34" fill="none" xmlns="http://www.w3.org/2000/svg">
<path d="M11.5186 0.241562C11.059 0.402361 10.6534 0.754763 10.4082 1.20636C10.255 1.48956 10.2398 1.64276 10.2166 3.25076L10.1938 4.99676H9.19821H8.21061V6.48996C8.21061 8.09796 8.17221 8.30476 7.81221 8.53436C7.49061 8.74116 7.23021 8.76396 6.87021 8.60316C6.36501 8.38116 6.29581 8.18196 6.29581 6.99516V6.00716L5.61421 5.97636C4.97861 5.95356 4.90981 5.93796 4.69541 5.73116C4.56541 5.60116 4.41981 5.38676 4.36621 5.24876C4.25901 4.96556 4.22821 4.95796 3.53141 5.10316C2.06101 5.41716 0.866614 6.59636 0.514214 8.07436C0.422214 8.48796 0.399414 9.79716 0.399414 16.7656C0.399414 22.432 0.422214 25.0968 0.483814 25.3804C0.729014 26.5748 1.50981 27.5628 2.66621 28.1372L3.33221 28.4664L9.91741 28.4892L16.495 28.512L16.1582 28.1292C15.5302 27.4324 15.1014 26.2992 15.1014 25.3264C15.1014 24.354 15.515 23.2664 16.1658 22.524C16.5486 22.0876 23.5018 15.9768 24.145 15.5096C24.9342 14.944 26.1442 14.676 27.063 14.8672C27.9206 15.0508 28.7554 15.6024 29.2378 16.3296C29.5594 16.82 29.7354 17.4632 29.7814 18.344L29.8274 19.1712L30.7922 19.1484L31.757 19.1256V13.688V8.25116L31.5578 7.70756C31.0678 6.35996 30.0414 5.42556 28.7246 5.11156C27.959 4.93556 27.8362 4.95076 27.7826 5.24956C27.691 5.75476 27.2542 5.99236 26.4274 5.99236H25.899V6.91116C25.899 7.93716 25.8146 8.23596 25.4778 8.50396C25.187 8.73356 24.6202 8.73356 24.3294 8.50396C23.9618 8.21316 23.9082 7.96796 23.9082 6.41356V4.99676H22.9586H22.009L21.9782 3.28916C21.9554 1.61996 21.9478 1.58156 21.7486 1.19876C21.6338 0.976763 21.4118 0.693161 21.251 0.56316C20.6922 0.103561 20.623 0.0959606 16.067 0.0959606C12.2534 0.103962 11.8938 0.111561 11.5186 0.241562ZM20.003 3.54196V4.99676H16.0978H12.1926V3.54196V2.08716H16.0978H20.003V3.54196Z" fill="#155B9F"/>
<path d="M25.7077 16.8812C25.3477 17.0112 24.9265 17.356 21.1517 20.6716C17.8053 23.612 17.5757 23.8264 17.3385 24.2936C17.0933 24.7608 17.0781 24.8296 17.1089 25.404C17.1397 26.1084 17.3157 26.5448 17.7521 26.9968C18.4105 27.6708 25.0957 33.4672 25.4633 33.674C25.7925 33.8656 25.9457 33.9036 26.3669 33.9036C26.9949 33.9036 27.4085 33.666 27.6533 33.1608C27.7989 32.8468 27.8141 32.6936 27.8141 31.2004V29.5772H32.4773C36.9337 29.5772 37.1637 29.5696 37.6229 29.424C38.5417 29.1328 39.2233 28.4284 39.4913 27.4944C39.5985 27.1268 39.6137 26.7364 39.5909 25.1588L39.5677 23.26L39.3305 22.7624C38.9245 21.9124 38.2277 21.3536 37.3241 21.162C37.0485 21.1084 35.4481 21.0776 32.3697 21.0776H27.8137V19.4772C27.8137 18.5276 27.7829 17.7848 27.7293 17.6548C27.6297 17.3944 27.3081 17.0424 27.0325 16.8968C26.7949 16.774 26.0445 16.7664 25.7077 16.8812Z" fill="#155B9F"/>
</svg>
