<svg width="17" height="16" viewBox="0 0 17 16" fill="none" xmlns="http://www.w3.org/2000/svg">
<path d="M14.8918 10.8378L14.7664 11.1267L14.8848 11.4184L16.2221 14.7146C16.2221 14.7146 16.2221 14.7146 16.2221 14.7146C16.2761 14.8478 16.251 15.0004 16.1526 15.1115L16.1524 15.1117C16.0753 15.1989 15.9615 15.25 15.8409 15.25C15.8069 15.25 15.7729 15.246 15.7392 15.2377L12.0961 14.3397L11.8203 14.2717L11.5687 14.4035C10.5097 14.9581 9.32455 15.25 8.11361 15.25C4.04393 15.25 0.75 11.9871 0.75 8C0.75 4.01291 4.04393 0.75 8.11361 0.75C12.1833 0.75 15.4772 4.01298 15.4772 8C15.4772 8.99197 15.2803 9.94275 14.8918 10.8378Z" stroke="white" stroke-width="1.5"/>
</svg>
