<svg width="18" height="18" viewBox="0 0 18 18" fill="none" xmlns="http://www.w3.org/2000/svg">
<path d="M15.628 11.5667L15.5166 11.8403L15.6217 12.1164L16.9567 15.6236C16.9567 15.6236 16.9568 15.6236 16.9568 15.6236C17.0237 15.7994 16.988 15.9967 16.8782 16.1289L16.878 16.1291C16.7954 16.2287 16.6858 16.2745 16.5833 16.2745C16.5536 16.2745 16.5235 16.2708 16.4932 16.2628L12.8563 15.3073L12.564 15.2306L12.3001 15.3778C11.2458 15.9664 10.0691 16.2745 8.86903 16.2745C4.85152 16.2745 1.51904 12.8273 1.51904 8.51227C1.51904 4.19725 4.85152 0.75 8.86903 0.75C12.8865 0.75 16.219 4.19733 16.219 8.51227C16.219 9.5809 16.0199 10.6046 15.628 11.5667Z" fill="white" stroke="#505050" stroke-width="1.5"/>
</svg>
