<svg width="267" height="198" viewBox="0 0 267 198" fill="none" xmlns="http://www.w3.org/2000/svg">
<path d="M77.5562 32.8859C77.5562 32.8859 107.58 55.6699 153.224 13.0679C193.76 -24.7658 226.859 34.9274 227.09 63.5134C227.39 100.543 186.554 130.173 206.372 154.495C226.189 178.817 167.07 218.981 135.208 184.222C95.5722 140.983 84.8345 176.114 62.2424 176.114C46.0278 176.114 12.7376 135.825 35.2181 105.851C54.1352 80.6287 43.8181 72.2578 38.822 63.5134C31.6149 50.9021 48.7303 16.6714 77.5562 32.8859Z" fill="#DEE9FF"/>
<path d="M198.092 83.2349C199.706 83.8345 201.469 83.8745 203.147 83.4893C210.177 81.8757 234.35 77.6031 230.15 96.3349C229.235 100.051 215.078 120.864 235.239 128.462C236.717 129.026 238.279 129.334 239.86 129.372C246.068 129.5 258.369 128.034 263.517 122.793C269.737 116.463 262.942 119.465 262.942 119.465C262.942 119.465 239.298 129.783 230.946 118.836C230.017 117.618 229.425 115.849 229.256 114.326C228.962 111.686 230.134 108.197 231.674 105.159C233.759 101.048 243.766 82.5554 222.038 77.1682C217.033 75.9762 209.763 74.9055 200.39 78.8521C194.922 81.154 196.133 82.5071 198.092 83.2349Z" fill="#BDD6F9"/>
<path d="M202.93 76.3312L196.637 78.6865C194.465 79.4996 193.363 81.9198 194.176 84.0922L194.488 84.9257C195.301 87.0981 197.721 88.2001 199.893 87.3871L206.187 85.0317C208.359 84.2187 209.461 81.7985 208.648 79.6261L208.336 78.7925C207.523 76.6201 205.103 75.5181 202.93 76.3312Z" fill="#0E84E5"/>
<path d="M164.3 83.1466L143.546 90.9143C142.459 91.3208 141.908 92.5309 142.315 93.6171L142.397 93.8356C142.803 94.9218 144.013 95.4728 145.1 95.0663L165.854 87.2985C166.941 86.892 167.492 85.6819 167.085 84.5957L167.003 84.3772C166.597 83.291 165.387 82.74 164.3 83.1466Z" fill="white"/>
<path d="M170.093 98.6233L149.338 106.391C148.252 106.798 147.701 108.008 148.108 109.094L148.189 109.312C148.596 110.399 149.806 110.95 150.892 110.543L171.647 102.775C172.733 102.369 173.284 101.159 172.878 100.072L172.796 99.854C172.39 98.7678 171.179 98.2168 170.093 98.6233Z" fill="white"/>
<path d="M189.255 72.5845L172.434 78.8801C170.261 79.6932 169.159 82.1134 169.972 84.2858L175.716 99.6309C176.529 101.803 178.949 102.905 181.121 102.092L197.943 95.7967C200.115 94.9836 201.217 92.5634 200.404 90.391L194.661 75.0459C193.848 72.8734 191.428 71.7715 189.255 72.5845Z" fill="#5895F9"/>
<path d="M174.172 76.6101L157.35 82.9058C155.178 83.7188 154.076 86.139 154.889 88.3115L161.741 106.619C162.554 108.791 164.974 109.893 167.146 109.08L183.968 102.785C186.14 101.971 187.242 99.5513 186.429 97.3788L179.577 79.0715C178.764 76.8991 176.344 75.7971 174.172 76.6101Z" fill="#699CFF"/>
<path d="M176.805 72.8947L176.673 72.9441C175.225 73.4861 174.49 75.0996 175.032 76.5479L184.631 102.194C185.173 103.643 186.786 104.377 188.234 103.835L188.366 103.786C189.815 103.244 190.549 101.631 190.007 100.182L180.409 74.5356C179.867 73.0873 178.253 72.3527 176.805 72.8947Z" fill="#208AF2"/>
<path d="M5.28159 89.2923C5.28159 89.2923 39.0647 79.7983 34.16 101.672C33.3082 105.132 21.0471 122.953 35.6519 131.509C38.7879 133.346 42.4069 134.16 46.0412 134.141C52.5572 134.107 62.8871 132.853 67.5277 128.13C73.747 121.798 66.9526 124.801 66.9526 124.801C66.9526 124.801 47.5504 132.782 37.5687 126.42C34.1604 124.248 32.6155 120.042 33.541 116.107C34.0141 114.153 34.7344 112.267 35.6847 110.495C37.8555 106.429 47.7768 87.8913 26.0488 82.5041C21.0435 81.3121 13.7737 80.2414 4.40001 84.188C-4.97369 88.1346 5.28159 89.2923 5.28159 89.2923Z" fill="#BDD6F9"/>
<path d="M72.0704 119.906L65.7772 122.261C63.6047 123.075 62.5027 125.495 63.3158 127.667L63.6278 128.501C64.4408 130.673 66.861 131.775 69.0335 130.962L75.3267 128.607C77.4992 127.794 78.6011 125.373 77.7881 123.201L77.4761 122.367C76.6631 120.195 74.2428 119.093 72.0704 119.906Z" fill="#0E84E5"/>
<path d="M82.7031 109.552L73.3762 113.043C71.2037 113.856 70.1017 116.276 70.9148 118.448L75.4122 130.465C76.2253 132.638 78.6455 133.74 80.8179 132.927L90.1448 129.436C92.3173 128.623 93.4192 126.202 92.6062 124.03L88.1088 112.013C87.2957 109.841 84.8755 108.739 82.7031 109.552Z" fill="#5895F9"/>
<path d="M98.2303 100.3L84.3212 105.506C82.1488 106.319 81.0468 108.739 81.8599 110.912L88.7116 129.219C89.5247 131.391 91.9449 132.493 94.1173 131.68L108.026 126.475C110.199 125.662 111.301 123.241 110.488 121.069L103.636 102.762C102.823 100.589 100.403 99.4871 98.2303 100.3Z" fill="#699CFF"/>
<path d="M101.177 96.5087L101.045 96.5581C99.5963 97.1001 98.8617 98.7136 99.4037 100.162L109.002 125.808C109.544 127.257 111.158 127.991 112.606 127.449L112.738 127.4C114.186 126.858 114.921 125.245 114.379 123.796L104.78 98.1496C104.238 96.7014 102.625 95.9667 101.177 96.5087Z" fill="#208AF2"/>
<path d="M136.694 80.1698C136.193 80.1142 135.733 79.8665 135.411 79.4787C135.09 79.0909 134.931 78.5934 134.968 78.0908L136.006 59.1348C136.068 58.0025 137.024 57.1422 138.109 57.2423L139.621 57.3823C140.706 57.4824 141.483 58.5023 141.331 59.6266L138.781 78.4427C138.723 78.9439 138.473 79.4031 138.084 79.7249C137.695 80.0466 137.197 80.206 136.694 80.1698Z" fill="#418DF9"/>
<path d="M127.733 81.8044C127.577 81.8501 127.414 81.8648 127.252 81.8475C127.091 81.8301 126.934 81.7811 126.792 81.7033C126.649 81.6255 126.524 81.5204 126.422 81.394C126.32 81.2675 126.244 81.1223 126.198 80.9665L122.492 69.1748C122.384 68.8395 122.414 68.4751 122.574 68.1616C122.735 67.8481 123.013 67.611 123.349 67.5025L124.308 67.213C124.473 67.165 124.646 67.1516 124.816 67.1737C124.986 67.1958 125.149 67.2529 125.296 67.3414C125.443 67.43 125.57 67.548 125.669 67.6881C125.768 67.8281 125.837 67.9872 125.871 68.1552L128.618 80.2365C128.695 80.5613 128.646 80.9029 128.482 81.1935C128.318 81.484 128.051 81.7021 127.733 81.8044Z" fill="#418DF9"/>
<path d="M122.732 88.6041C122.068 89.4269 120.732 89.4171 119.704 88.5819L101.453 73.7528C100.362 72.867 100.041 71.4008 100.745 70.5286L101.727 69.3123C102.432 68.4397 103.878 68.5112 104.91 69.4697L122.18 85.5152C123.153 86.4187 123.396 87.7813 122.732 88.6041Z" fill="#418DF9"/>
<path d="M131.169 126.906C131.639 127.088 132.02 127.445 132.232 127.902C132.445 128.359 132.471 128.881 132.307 129.357L126.462 147.419C126.113 148.498 124.969 149.085 123.945 148.711L122.518 148.19C121.495 147.816 121.004 146.631 121.438 145.584L128.709 128.043C128.894 127.573 129.252 127.193 129.711 126.981C130.169 126.769 130.691 126.742 131.169 126.906Z" fill="#418DF9"/>
<path d="M140.25 127.614C140.412 127.61 140.574 127.638 140.726 127.696C140.877 127.754 141.016 127.841 141.134 127.952C141.252 128.064 141.347 128.198 141.413 128.346C141.479 128.494 141.516 128.654 141.52 128.817L142.092 141.164C142.11 141.515 141.989 141.86 141.753 142.122C141.518 142.384 141.188 142.543 140.837 142.562L139.835 142.597C139.663 142.601 139.493 142.57 139.334 142.505C139.175 142.44 139.032 142.343 138.912 142.22C138.793 142.097 138.7 141.951 138.64 141.79C138.581 141.629 138.555 141.458 138.564 141.286L138.994 128.904C139.003 128.571 139.138 128.253 139.37 128.014C139.603 127.775 139.917 127.632 140.25 127.614Z" fill="#418DF9"/>
<path d="M146.822 122.317C147.674 121.691 148.963 122.042 149.743 123.112L163.603 142.11C164.43 143.245 164.367 144.744 163.463 145.408L162.203 146.333C161.299 146.997 159.918 146.558 159.165 145.368L146.565 125.444C145.857 124.323 145.97 122.943 146.822 122.317Z" fill="#418DF9"/>
</svg>
