<svg width="16" height="18" viewBox="0 0 16 18" fill="none" xmlns="http://www.w3.org/2000/svg">
<path d="M6.8 0.900002L0.8 5.4C0.3 5.78 0 6.37 0 7V16C0 17.1 0.9 18 2 18H14C15.1 18 16 17.1 16 16V7C16 6.37 15.7 5.78 15.2 5.4L9.2 0.900002C8.49 0.370002 7.51 0.370002 6.8 0.900002ZM5.75 9.5C6.44 9.5 7 10.06 7 10.75C7 11.44 6.44 12 5.75 12C5.06 12 4.5 11.44 4.5 10.75C4.5 10.06 5.06 9.5 5.75 9.5ZM12.5 15C12.22 15 12 14.78 12 14.5V13.5H4V14.5C4 14.78 3.78 15 3.5 15C3.22 15 3 14.78 3 14.5V8.5C3 8.22 3.22 8 3.5 8C3.78 8 4 8.22 4 8.5V12.5H7.5V9.5C7.5 9.22 7.72 9 8 9H11C12.1 9 13 9.9 13 11V14.5C13 14.78 12.78 15 12.5 15Z" fill="white"/>
</svg>
