<svg width="20" height="18" viewBox="0 0 20 18" fill="none" xmlns="http://www.w3.org/2000/svg">
<path d="M10.1684 16.5238C10.1065 16.5617 10.0508 16.5955 10.0018 16.625C9.95247 16.595 9.89639 16.5605 9.83403 16.5218C9.56528 16.355 9.18005 16.1096 8.71723 15.7972C7.79066 15.1719 6.55766 14.2811 5.32702 13.2171C4.09414 12.1513 2.87752 10.9235 1.97258 9.62631C1.0643 8.32437 0.5 6.99557 0.5 5.7171C0.5 2.81221 2.7348 0.500173 5.44002 0.50019L5.44411 0.500156C7.10091 0.486578 8.66098 1.36215 9.57465 2.84115L9.99755 3.52572L10.424 2.84338C11.3446 1.3705 12.9018 0.496194 14.5581 0.50017C17.2587 0.514344 19.4859 2.81888 19.5 5.71819C19.4997 7.01871 18.9343 8.35808 18.027 9.66234C17.1225 10.9628 15.9063 12.1875 14.6739 13.2479C13.4437 14.3063 12.2111 15.189 11.2848 15.8077C10.8221 16.1167 10.4371 16.3591 10.1684 16.5238Z" stroke="white"/>
</svg>
