<svg width="16" height="16" viewBox="0 0 16 16" fill="none" xmlns="http://www.w3.org/2000/svg">
<g clip-path="url(#clip0_6701_6409)">
<path d="M15 3H1C0.734784 3 0.48043 3.10536 0.292893 3.29289C0.105357 3.48043 0 3.73478 0 4L0 13C0 13.2652 0.105357 13.5196 0.292893 13.7071C0.48043 13.8946 0.734784 14 1 14H15C15.2652 14 15.5196 13.8946 15.7071 13.7071C15.8946 13.5196 16 13.2652 16 13V4C16 3.73478 15.8946 3.48043 15.7071 3.29289C15.5196 3.10536 15.2652 3 15 3ZM13.583 9H7.5C7.36739 9 7.24021 8.94732 7.14645 8.85355C7.05268 8.75979 7 8.63261 7 8.5C7 8.36739 7.05268 8.24021 7.14645 8.14645C7.24021 8.05268 7.36739 8 7.5 8H13.583C13.7156 8 13.8428 8.05268 13.9366 8.14645C14.0303 8.24021 14.083 8.36739 14.083 8.5C14.083 8.63261 14.0303 8.75979 13.9366 8.85355C13.8428 8.94732 13.7156 9 13.583 9ZM14.083 10.5C14.083 10.6326 14.0303 10.7598 13.9366 10.8536C13.8428 10.9473 13.7156 11 13.583 11H7.5C7.36739 11 7.24021 10.9473 7.14645 10.8536C7.05268 10.7598 7 10.6326 7 10.5C7 10.3674 7.05268 10.2402 7.14645 10.1464C7.24021 10.0527 7.36739 10 7.5 10H13.583C13.7156 10 13.8428 10.0527 13.9366 10.1464C14.0303 10.2402 14.083 10.3674 14.083 10.5ZM13.583 7H7.5C7.36739 7 7.24021 6.94732 7.14645 6.85355C7.05268 6.75979 7 6.63261 7 6.5C7 6.36739 7.05268 6.24021 7.14645 6.14645C7.24021 6.05268 7.36739 6 7.5 6H13.583C13.7156 6 13.8428 6.05268 13.9366 6.14645C14.0303 6.24021 14.083 6.36739 14.083 6.5C14.083 6.63261 14.0303 6.75979 13.9366 6.85355C13.8428 6.94732 13.7156 7 13.583 7ZM4.024 7.899C5.115 7.899 6 9.085 6 10.549C6 12.013 2.047 12.013 2.047 10.549C2.047 9.085 2.932 7.899 4.024 7.899ZM2.791 6.208C2.791 6.04943 2.82223 5.89241 2.88292 5.74591C2.9436 5.59941 3.03254 5.4663 3.14467 5.35417C3.2568 5.24204 3.38991 5.1531 3.53641 5.09242C3.68291 5.03173 3.83993 5.0005 3.9985 5.0005C4.15707 5.0005 4.31409 5.03173 4.46059 5.09242C4.60709 5.1531 4.7402 5.24204 4.85233 5.35417C4.96446 5.4663 5.0534 5.59941 5.11408 5.74591C5.17477 5.89241 5.206 6.04943 5.206 6.208C5.206 6.36657 5.17477 6.52359 5.11408 6.67009C5.0534 6.81659 4.96446 6.9497 4.85233 7.06183C4.7402 7.17396 4.60709 7.2629 4.46059 7.32358C4.31409 7.38427 4.15707 7.4155 3.9985 7.4155C3.83993 7.4155 3.68291 7.38427 3.53641 7.32358C3.38991 7.2629 3.2568 7.17396 3.14467 7.06183C3.03254 6.9497 2.9436 6.81659 2.88292 6.67009C2.82223 6.52359 2.791 6.36657 2.791 6.208Z" fill="#505050"/>
</g>
<defs>
<clipPath id="clip0_6701_6409">
<rect width="16" height="16" fill="white"/>
</clipPath>
</defs>
</svg>
