<svg width="12" height="14" viewBox="0 0 12 14" fill="none" xmlns="http://www.w3.org/2000/svg">
<path d="M5.99984 0.333252C3.19984 0.333252 0.666504 2.47992 0.666504 5.79992C0.666504 7.91992 2.29984 10.4133 5.55984 13.2866C5.81317 13.5066 6.19317 13.5066 6.4465 13.2866C9.69984 10.4133 11.3332 7.91992 11.3332 5.79992C11.3332 2.47992 8.79984 0.333252 5.99984 0.333252ZM5.99984 6.99992C5.2665 6.99992 4.6665 6.39992 4.6665 5.66659C4.6665 4.93325 5.2665 4.33325 5.99984 4.33325C6.73317 4.33325 7.33317 4.93325 7.33317 5.66659C7.33317 6.39992 6.73317 6.99992 5.99984 6.99992Z" fill="#505050"/>
</svg>
