<svg width="14" height="18" viewBox="0 0 14 18" fill="none" xmlns="http://www.w3.org/2000/svg">
<path d="M6.99967 0.666687C3.49967 0.666687 0.333008 3.35002 0.333008 7.50002C0.333008 10.15 2.37467 13.2667 6.44967 16.8584C6.76634 17.1334 7.24134 17.1334 7.55801 16.8584C11.6247 13.2667 13.6663 10.15 13.6663 7.50002C13.6663 3.35002 10.4997 0.666687 6.99967 0.666687ZM6.99967 9.00002C6.08301 9.00002 5.33301 8.25002 5.33301 7.33335C5.33301 6.41669 6.08301 5.66669 6.99967 5.66669C7.91634 5.66669 8.66634 6.41669 8.66634 7.33335C8.66634 8.25002 7.91634 9.00002 6.99967 9.00002Z" fill="white"/>
</svg>
