<svg width="20" height="20" viewBox="0 0 20 20" fill="none" xmlns="http://www.w3.org/2000/svg">
<path d="M9.98207 0C13.5924 0 16.4973 2.41479 16.4973 5.39601V6.92935C18.5236 7.46696 20 9.02614 20 10.8884V15.8253C20 18.1308 17.7513 20 14.9791 20H5.02212C2.24866 20 0 18.1308 0 15.8253V10.8884C0 9.02614 1.47759 7.46696 3.50269 6.92935V5.39601C3.51464 2.41479 6.41961 0 9.98207 0ZM9.99402 11.3843C9.4202 11.3843 8.95397 11.7718 8.95397 12.2488V14.4549C8.95397 14.9419 9.4202 15.3294 9.99402 15.3294C10.5798 15.3294 11.046 14.9419 11.046 14.4549V12.2488C11.046 11.7718 10.5798 11.3843 9.99402 11.3843ZM10.006 1.73904C7.5792 1.73904 5.60669 3.36878 5.59474 5.37613V6.7137H14.4053V5.39601C14.4053 3.37871 12.4328 1.73904 10.006 1.73904Z" fill="white"/>
</svg>
