<svg width="22" height="24" viewBox="0 0 22 24" fill="none" xmlns="http://www.w3.org/2000/svg">
<g clip-path="url(#clip0_3307_2473)">
<path d="M19.9375 4.5C20.1198 4.5 20.2947 4.57902 20.4236 4.71967C20.5526 4.86032 20.625 5.05109 20.625 5.25V18.75C20.625 18.9489 20.5526 19.1397 20.4236 19.2803C20.2947 19.421 20.1198 19.5 19.9375 19.5H2.0625C1.88016 19.5 1.7053 19.421 1.57636 19.2803C1.44743 19.1397 1.375 18.9489 1.375 18.75V5.25C1.375 5.05109 1.44743 4.86032 1.57636 4.71967C1.7053 4.57902 1.88016 4.5 2.0625 4.5H19.9375ZM2.0625 3C1.51549 3 0.990886 3.23705 0.604092 3.65901C0.217298 4.08097 0 4.65326 0 5.25L0 18.75C0 19.3467 0.217298 19.919 0.604092 20.341C0.990886 20.7629 1.51549 21 2.0625 21H19.9375C20.4845 21 21.0091 20.7629 21.3959 20.341C21.7827 19.919 22 19.3467 22 18.75V5.25C22 4.65326 21.7827 4.08097 21.3959 3.65901C21.0091 3.23705 20.4845 3 19.9375 3H2.0625Z" fill="white"/>
<path d="M6.875 12C6.875 11.8011 6.94743 11.6103 7.07636 11.4697C7.2053 11.329 7.38016 11.25 7.5625 11.25H17.1875C17.3698 11.25 17.5447 11.329 17.6736 11.4697C17.8026 11.6103 17.875 11.8011 17.875 12C17.875 12.1989 17.8026 12.3897 17.6736 12.5303C17.5447 12.671 17.3698 12.75 17.1875 12.75H7.5625C7.38016 12.75 7.2053 12.671 7.07636 12.5303C6.94743 12.3897 6.875 12.1989 6.875 12ZM6.875 8.25C6.875 8.05109 6.94743 7.86032 7.07636 7.71967C7.2053 7.57902 7.38016 7.5 7.5625 7.5H17.1875C17.3698 7.5 17.5447 7.57902 17.6736 7.71967C17.8026 7.86032 17.875 8.05109 17.875 8.25C17.875 8.44891 17.8026 8.63968 17.6736 8.78033C17.5447 8.92098 17.3698 9 17.1875 9H7.5625C7.38016 9 7.2053 8.92098 7.07636 8.78033C6.94743 8.63968 6.875 8.44891 6.875 8.25ZM6.875 15.75C6.875 15.5511 6.94743 15.3603 7.07636 15.2197C7.2053 15.079 7.38016 15 7.5625 15H17.1875C17.3698 15 17.5447 15.079 17.6736 15.2197C17.8026 15.3603 17.875 15.5511 17.875 15.75C17.875 15.9489 17.8026 16.1397 17.6736 16.2803C17.5447 16.421 17.3698 16.5 17.1875 16.5H7.5625C7.38016 16.5 7.2053 16.421 7.07636 16.2803C6.94743 16.1397 6.875 15.9489 6.875 15.75ZM5.5 8.25C5.5 8.44891 5.42757 8.63968 5.29864 8.78033C5.1697 8.92098 4.99484 9 4.8125 9C4.63016 9 4.4553 8.92098 4.32636 8.78033C4.19743 8.63968 4.125 8.44891 4.125 8.25C4.125 8.05109 4.19743 7.86032 4.32636 7.71967C4.4553 7.57902 4.63016 7.5 4.8125 7.5C4.99484 7.5 5.1697 7.57902 5.29864 7.71967C5.42757 7.86032 5.5 8.05109 5.5 8.25ZM5.5 12C5.5 12.1989 5.42757 12.3897 5.29864 12.5303C5.1697 12.671 4.99484 12.75 4.8125 12.75C4.63016 12.75 4.4553 12.671 4.32636 12.5303C4.19743 12.3897 4.125 12.1989 4.125 12C4.125 11.8011 4.19743 11.6103 4.32636 11.4697C4.4553 11.329 4.63016 11.25 4.8125 11.25C4.99484 11.25 5.1697 11.329 5.29864 11.4697C5.42757 11.6103 5.5 11.8011 5.5 12ZM5.5 15.75C5.5 15.9489 5.42757 16.1397 5.29864 16.2803C5.1697 16.421 4.99484 16.5 4.8125 16.5C4.63016 16.5 4.4553 16.421 4.32636 16.2803C4.19743 16.1397 4.125 15.9489 4.125 15.75C4.125 15.5511 4.19743 15.3603 4.32636 15.2197C4.4553 15.079 4.63016 15 4.8125 15C4.99484 15 5.1697 15.079 5.29864 15.2197C5.42757 15.3603 5.5 15.5511 5.5 15.75Z" fill="white"/>
</g>
<defs>
<clipPath id="clip0_3307_2473">
<rect width="22" height="24" fill="white"/>
</clipPath>
</defs>
</svg>
