<svg width="185" height="185" viewBox="0 0 185 185" fill="none" xmlns="http://www.w3.org/2000/svg">
<path opacity="0.2" fill-rule="evenodd" clip-rule="evenodd" d="M0 92.5C0 41.4137 41.4137 0 92.5 0C143.586 0 185 41.4137 185 92.5C185 143.586 143.586 185 92.5 185C41.4137 185 0 143.586 0 92.5ZM175.948 92.4998C175.948 46.4127 138.587 9.05179 92.5002 9.05179C46.4131 9.05179 9.05216 46.4127 9.05216 92.4998C9.05216 138.587 46.4131 175.948 92.5002 175.948C138.587 175.948 175.948 138.587 175.948 92.4998Z" fill="#F8BB45"/>
<path d="M92.5 0C143.586 0 185 41.4137 185 92.5C185 143.586 143.586 185 92.5 185C41.4137 185 0 143.586 0 92.5C0 90.0004 2.02636 87.974 4.52599 87.974C7.02563 87.974 9.05199 90.0004 9.05199 92.5C9.05199 138.587 46.4129 175.948 92.5 175.948C138.587 175.948 175.948 138.587 175.948 92.5C175.948 46.4129 138.587 9.05199 92.5 9.05199C90.0004 9.05199 87.974 7.02563 87.974 4.52599C87.974 2.02636 90.0004 0 92.5 0Z" fill="#F8BB45"/>
<circle cx="4.52569" cy="92.7835" r="2.263" fill="white"/>
<path opacity="0.2" fill-rule="evenodd" clip-rule="evenodd" d="M18.104 92.4995C18.104 51.4118 51.4122 18.1035 92.5 18.1035C133.588 18.1035 166.896 51.4118 166.896 92.4995C166.896 133.587 133.588 166.896 92.5 166.896C51.4122 166.896 18.104 133.587 18.104 92.4995ZM157.844 92.4993C157.844 56.4108 128.589 27.1553 92.5003 27.1553C56.4118 27.1553 27.1562 56.4108 27.1562 92.4993C27.1562 128.588 56.4118 157.843 92.5003 157.843C128.589 157.843 157.844 128.588 157.844 92.4993Z" fill="#FF6079"/>
<path d="M92.4996 18.1035C133.587 18.1035 166.896 51.4118 166.896 92.4995C166.896 94.9992 164.869 97.0255 162.37 97.0255C159.917 97.0255 157.92 95.0749 157.846 92.6405L157.844 92.4995C157.844 56.411 128.588 27.1555 92.4996 27.1555C90 27.1555 87.9736 25.1291 87.9736 22.6295C87.9736 20.1299 90 18.1035 92.4996 18.1035Z" fill="#EB4747"/>
<circle cx="162.37" cy="92.2171" r="2.263" fill="white"/>
<path opacity="0.2" fill-rule="evenodd" clip-rule="evenodd" d="M36.2075 92.5001C36.2075 61.4108 61.4103 36.208 92.4996 36.208C123.589 36.208 148.792 61.4108 148.792 92.5001C148.792 123.589 123.589 148.792 92.4996 148.792C61.4103 148.792 36.2075 123.589 36.2075 92.5001ZM139.74 92.4999C139.74 66.4099 118.59 45.2598 92.4997 45.2598C66.4098 45.2598 45.2597 66.4099 45.2597 92.4999C45.2597 118.59 66.4098 139.74 92.4997 139.74C118.59 139.74 139.74 118.59 139.74 92.4999Z" fill="#197298"/>
<path d="M92.4996 36.208C123.589 36.208 148.792 61.4108 148.792 92.5001C148.792 123.589 123.589 148.792 92.4996 148.792C90 148.792 87.9736 146.766 87.9736 144.266C87.9736 141.814 89.9242 139.817 92.3587 139.742L92.4996 139.74C118.59 139.74 139.74 118.59 139.74 92.5001C139.74 66.4101 118.59 45.26 92.4996 45.26C90 45.26 87.9736 43.2336 87.9736 40.734C87.9736 38.2344 90 36.208 92.4996 36.208Z" fill="#197298"/>
<circle cx="92.7825" cy="144.267" r="2.263" fill="white"/>
<path d="M83.6223 83.5762H87.6543V78.1042H91.0023V74.5402H87.6543V57.6562H82.6863L70.5903 75.0082V78.1042H83.6223V83.5762ZM75.3063 74.5402L83.8023 61.8322V74.5402H75.3063ZM94.0789 83.2162H111.575V79.7962H100.163C104.375 75.9442 110.855 71.0842 110.855 64.7122C110.855 59.9962 107.831 56.7922 102.503 56.7922C97.8589 56.7922 94.1869 59.5642 94.0429 65.2522H98.0029C98.1109 62.3002 99.6589 60.2842 102.539 60.2842C105.599 60.2842 106.787 62.1562 106.787 64.8922C106.787 70.0402 100.271 74.7922 94.0789 80.2282V83.2162Z" fill="#040415"/>
<path d="M61.693 94.112C61.693 95.204 61.063 95.988 59.621 95.988H57.745V92.292H59.621C61.077 92.292 61.693 93.006 61.693 94.112ZM56.471 91.242V101H57.745V97.01H59.285L61.609 101H63.135L60.685 96.912C62.323 96.548 63.009 95.358 63.009 94.112C63.009 92.516 61.917 91.242 59.621 91.242H56.471ZM68.2506 94.28C69.5666 94.28 70.6866 95.106 70.6726 96.604H65.8286C65.9686 95.106 67.0046 94.28 68.2506 94.28ZM71.8346 98.634H70.4626C70.1826 99.46 69.4546 100.048 68.3066 100.048C67.0046 100.048 65.9126 99.194 65.8146 97.64H71.9466C71.9746 97.374 71.9886 97.15 71.9886 96.87C71.9886 94.77 70.5326 93.202 68.3066 93.202C66.0666 93.202 64.5126 94.728 64.5126 97.15C64.5126 99.586 66.1226 101.126 68.3066 101.126C70.2106 101.126 71.4426 100.034 71.8346 98.634ZM84.7442 101H86.0042V96.478C86.0042 94.28 84.6462 93.188 82.8962 93.188C81.7202 93.188 80.6282 93.79 80.1802 94.896C79.6762 93.748 78.6262 93.188 77.3662 93.188C76.3582 93.188 75.4482 93.622 74.9442 94.434V93.328H73.6702V101H74.9442V96.772C74.9442 95.12 75.8262 94.294 77.1142 94.294C78.3742 94.294 79.2142 95.092 79.2142 96.66V101H80.4742V96.772C80.4742 95.12 81.3562 94.294 82.6442 94.294C83.9042 94.294 84.7442 95.092 84.7442 96.66V101ZM87.618 97.136C87.618 99.516 89.2 101.126 91.244 101.126C92.658 101.126 93.652 100.398 94.114 99.572V101H95.402V93.328H94.114V94.728C93.666 93.93 92.686 93.202 91.258 93.202C89.2 93.202 87.618 94.742 87.618 97.136ZM94.114 97.15C94.114 98.956 92.91 100.006 91.51 100.006C90.11 100.006 88.92 98.942 88.92 97.136C88.92 95.33 90.11 94.308 91.51 94.308C92.91 94.308 94.114 95.372 94.114 97.15ZM97.555 101H98.829V93.328H97.555V101ZM98.213 92.082C98.675 92.082 99.053 91.704 99.053 91.214C99.053 90.724 98.675 90.346 98.213 90.346C97.723 90.346 97.345 90.724 97.345 91.214C97.345 91.704 97.723 92.082 98.213 92.082ZM106.614 101H107.874V96.478C107.874 94.28 106.516 93.188 104.738 93.188C103.702 93.188 102.778 93.622 102.274 94.42V93.328H101V101H102.274V96.758C102.274 95.106 103.17 94.294 104.472 94.294C105.76 94.294 106.614 95.092 106.614 96.66V101ZM109.955 101H111.229V93.328H109.955V101ZM110.613 92.082C111.075 92.082 111.453 91.704 111.453 91.214C111.453 90.724 111.075 90.346 110.613 90.346C110.123 90.346 109.745 90.724 109.745 91.214C109.745 91.704 110.123 92.082 110.613 92.082ZM119.015 101H120.275V96.478C120.275 94.28 118.917 93.188 117.139 93.188C116.103 93.188 115.179 93.622 114.675 94.42V93.328H113.401V101H114.675V96.758C114.675 95.106 115.571 94.294 116.873 94.294C118.161 94.294 119.015 95.092 119.015 96.66V101ZM121.88 97.136C121.88 99.516 123.462 101.126 125.52 101.126C126.92 101.126 127.914 100.384 128.376 99.558V101.168C128.376 102.806 127.354 103.674 125.996 103.674C124.736 103.674 123.826 103.044 123.546 102.12H122.286C122.538 103.758 123.98 104.78 125.996 104.78C128.25 104.78 129.664 103.282 129.664 101.168V93.328H128.376V94.728C127.928 93.902 126.92 93.202 125.52 93.202C123.462 93.202 121.88 94.742 121.88 97.136ZM128.376 97.15C128.376 98.956 127.172 100.006 125.772 100.006C124.372 100.006 123.182 98.942 123.182 97.136C123.182 95.33 124.372 94.308 125.772 94.308C127.172 94.308 128.376 95.372 128.376 97.15Z" fill="#7F7F7F"/>
</svg>
