<svg width="20" height="19" viewBox="0 0 20 19" fill="none" xmlns="http://www.w3.org/2000/svg">
<path d="M9.99121 18.7598C14.9746 18.7598 19.0879 14.6465 19.0879 9.66309C19.0879 4.68848 14.9658 0.575195 9.98242 0.575195C5.00781 0.575195 0.90332 4.68848 0.90332 9.66309C0.90332 14.6465 5.0166 18.7598 9.99121 18.7598ZM13.5596 7.22852L12.3818 6.05078L13.041 5.3916C13.3662 5.0752 13.7354 5.04883 14.0342 5.34766L14.2539 5.56738C14.5527 5.86621 14.5439 6.24414 14.2188 6.56934L13.5596 7.22852ZM7.17871 13.5918L5.92188 14.0664C5.66699 14.1543 5.38574 13.9082 5.50879 13.627L6.00977 12.4141L11.8281 6.5957L13.0059 7.77344L7.17871 13.5918Z" fill="white"/>
</svg>
