<svg width="46" height="46" viewBox="0 0 46 46" fill="none" xmlns="http://www.w3.org/2000/svg">
<path d="M6.56836 27.9339C6.56836 27.9339 8.98133 29.8956 10.834 31.7239L13.9217 30.2692C13.9217 30.2692 11.9965 28.7225 11.1129 26.5137L6.56836 27.9339Z" fill="#FFD6BB"/>
<path d="M10.834 31.724L11.84 31.2505L11.61 30.499L11.0282 29.9094C10.9816 29.8623 10.9459 29.8056 10.9236 29.7431C10.9013 29.6807 10.893 29.6142 10.8993 29.5482C10.9056 29.4822 10.9263 29.4184 10.96 29.3613C10.9936 29.3042 11.0394 29.2552 11.0941 29.2178L12.2186 28.4484C11.7685 27.8536 11.3969 27.2034 11.1129 26.5137L6.56836 27.9343C6.56836 27.9343 8.98133 29.8955 10.834 31.724Z" fill="#F4A28C"/>
<path d="M20.8183 14.9902H25.2975C25.5084 14.9902 25.7108 15.074 25.86 15.2232C26.0092 15.3724 26.093 15.5748 26.093 15.7858V24.2119H22.1302C21.7822 24.2119 21.4484 24.0736 21.2023 23.8275C20.9561 23.5814 20.8179 23.2476 20.8179 22.8995V14.9902H20.8183Z" fill="#9DDDF4"/>
<path d="M22.8734 8.17285H19.8174C18.9548 8.17289 18.1275 8.51559 17.5176 9.12557C16.9076 9.73554 16.5649 10.5628 16.5649 11.4255V32.0412H18.4996V11.659C18.4996 11.2476 18.663 10.8531 18.9539 10.5621C19.2448 10.2712 19.6393 10.1078 20.0507 10.1077H22.8732C23.1297 10.1077 23.3758 10.0058 23.5572 9.82437C23.7387 9.64296 23.8406 9.39691 23.8407 9.14034C23.8407 8.88379 23.7388 8.63775 23.5574 8.45632C23.376 8.27489 23.13 8.17292 22.8734 8.17285Z" fill="#D8D8D8"/>
<path d="M1.42285 32.2432V44.4731H15.0153L1.42285 32.2432Z" fill="#6ABACC"/>
<path d="M3.14515 26.835L15.6248 38.2586H44.717V44.4723H13.7008C12.8216 44.4723 11.9777 44.1267 11.3509 43.5102L2.49546 34.8016C2.15578 34.4676 1.886 34.0692 1.70184 33.6299C1.51769 33.1905 1.42285 32.7188 1.42285 32.2424V29.3123C1.42284 28.773 1.58785 28.2466 1.89572 27.8037C2.20359 27.3609 2.63958 27.0228 3.14515 26.835Z" fill="#9DDDF4"/>
<path d="M11.6588 29.9214C11.9069 29.8293 12.1606 29.753 12.4183 29.6929C13.3166 29.4783 14.2518 29.4698 15.1538 29.6679C16.0559 29.866 16.9014 30.2655 17.6272 30.8366L18.4653 31.4928C19.2515 32.1084 20.2213 32.4429 21.2198 32.4428H40.1776C41.3817 32.4429 42.5364 32.9212 43.3878 33.7727C44.2392 34.6241 44.7175 35.7788 44.7175 36.9829V38.2586H15.6254L11.499 34.5266L11.6588 29.9214Z" fill="#BFD6EF"/>
<path d="M14.8955 32.0418L13.4009 30.5625C13.187 30.3494 12.9319 30.1822 12.6512 30.071C12.3705 29.9599 12.0701 29.9071 11.7683 29.916C11.4665 29.9249 11.1697 29.9952 10.896 30.1226C10.6223 30.25 10.3775 30.4319 10.1765 30.6572C10.165 30.6707 10.1536 30.6832 10.1422 30.6964C9.96227 30.9786 9.84392 31.2956 9.79494 31.6267C9.74345 31.983 9.78073 32.3465 9.90346 32.685C10.0262 33.0234 10.2306 33.3263 10.4985 33.5668L12.0334 34.9719L14.8955 32.0418Z" fill="#BFD6EF"/>
<path d="M6.26272 28.2512C6.26272 28.2512 6.87952 28.4692 7.85784 28.0905L8.90704 28.7067C9.18421 28.8695 9.5038 28.9454 9.82456 28.9247C10.1453 28.904 10.4525 28.7877 10.7065 28.5906L12.582 27.1354C12.8401 26.9355 13.0128 26.6452 13.0655 26.3231C13.1182 26.001 13.047 25.6708 12.8662 25.3991C11.9518 24.028 10.1444 21.613 8.01505 20.3271L3.81836 23.6091C3.81836 23.6091 3.94161 26.8023 6.26272 28.2512Z" fill="#FFD6BB"/>
<path d="M12.8391 34.1469L11.1408 32.4435C10.019 31.0665 11.117 30.0464 11.1399 30.0254C10.7679 30.1459 10.4351 30.3643 10.1765 30.6576C10.165 30.6712 10.1536 30.6836 10.1424 30.6969C9.96243 30.9788 9.84403 31.2955 9.79494 31.6263C9.74345 31.9826 9.78073 32.3461 9.90346 32.6846C10.0262 33.023 10.2306 33.326 10.4985 33.5664L12.0334 34.9715L12.8391 34.1469Z" fill="#7BABDB"/>
<path d="M44.7161 36.9363C44.7092 36.2139 44.5297 35.5035 44.1925 34.8645C43.8554 34.2255 43.3704 33.6763 42.778 33.2627C42.9621 36.2913 39.9587 36.8615 38.3344 36.9503L15.7657 36.9367L14.5034 37.2445L15.6254 38.2592H44.7174V36.9836C44.7174 36.9675 44.7162 36.952 44.7161 36.9363Z" fill="#7BABDB"/>
<path d="M12.0337 34.9709L14.896 32.041L17.6335 34.7515L22.7992 34.7822C23.5822 34.787 24.3316 35.1015 24.8836 35.6569C25.4355 36.2123 25.7454 36.9636 25.7453 37.7466V38.2587H15.6253L12.0337 34.9709Z" fill="#FFD6BB"/>
<path d="M15.6768 36.5925L12.8395 34.1465L12.0342 34.971L15.6257 38.2586H25.7457V37.7467C25.7456 37.473 25.7077 37.2006 25.6329 36.9373H16.6047C16.2641 36.9373 15.9348 36.8149 15.6768 36.5925Z" fill="#F4A28C"/>
<path d="M2.07665 25.1623C2.07665 25.1623 0.491548 23.6177 1.79254 21.5856C3.09352 19.5535 8.05138 16.0986 8.05138 16.0986L8.3355 18.0902L8.86693 18.3919C8.98197 18.4571 9.08056 18.5477 9.15513 18.6569C9.22969 18.7661 9.27826 18.8909 9.29711 19.0218C9.31596 19.1527 9.30458 19.2861 9.26386 19.4119C9.22313 19.5377 9.15413 19.6525 9.06216 19.7475L5.46591 23.4668C5.34147 23.5932 5.24751 23.7464 5.19118 23.9146C5.13484 24.0829 5.11762 24.2617 5.14081 24.4376C5.16401 24.6135 5.22701 24.7818 5.32503 24.9297C5.42304 25.0776 5.55349 25.2012 5.70646 25.2911C5.71701 25.297 5.72784 25.3028 5.73866 25.3086C5.80363 25.3434 5.86079 25.3911 5.90663 25.4488C5.95246 25.5065 5.98599 25.573 6.00515 25.6442C6.02432 25.7153 6.02871 25.7897 6.01806 25.8626C6.00741 25.9355 5.98194 26.0055 5.94322 26.0682C5.66046 26.5383 5.49256 27.2942 6.26279 28.2512C6.26306 28.2512 2.19869 29.4298 2.07665 25.1623Z" fill="#6F6F7F"/>
<path d="M36.2181 1.52637C33.6717 3.94394 27.8 2.84616 27.8 2.84616V11.4124C27.7934 12.4262 27.9782 13.4322 28.3448 14.3774C30.46 19.7229 36.2181 20.794 36.2181 20.794C36.2181 20.794 41.9762 19.7229 44.0913 14.3774C44.458 13.4322 44.6429 12.4263 44.6362 11.4124V2.84616C44.6362 2.84616 38.7639 3.94394 36.2181 1.52637Z" fill="#FFDC6C"/>
<path d="M36.2185 1.52637C35.8076 1.90587 35.3321 2.20875 34.8144 2.42066L27.7999 9.43458V11.4124C27.7972 12.1789 27.9012 12.942 28.1087 13.6798L38.9534 2.8352C37.9148 2.60886 36.9346 2.2069 36.2185 1.52637Z" fill="#FFEDD2"/>
<path d="M29.0928 15.8767C29.3955 16.3715 29.7419 16.8382 30.1276 17.2713L43.8249 3.62096V2.96289C43.3718 3.01701 42.7598 3.07113 42.0677 3.08898L29.0928 15.8767Z" fill="#FFEDD2"/>
<path d="M44.0909 14.3774C44.4576 13.4322 44.6425 12.4263 44.6359 11.4124V2.84616C44.6359 2.84616 38.7641 3.94394 36.2178 1.52637V20.794C36.2178 20.794 41.9759 19.7229 44.0909 14.3774Z" fill="#FCA742"/>
<path d="M27.7998 7.43707L32.2073 3.03027C31.8598 3.06369 31.5151 3.0825 31.1804 3.09034L27.7998 6.47026V7.43707Z" fill="#FFEDD2"/>
<path d="M1.88918 26.9909C1.5713 27.2885 1.31787 27.6481 1.14456 28.0475C0.971261 28.447 0.881774 28.8777 0.881642 29.3131V44.4724C0.881642 44.616 0.938658 44.7536 1.04015 44.8551C1.14164 44.9566 1.27929 45.0136 1.42282 45.0136H9.64342C9.78695 45.0136 9.9246 44.9566 10.0261 44.8551C10.1276 44.7536 10.1846 44.616 10.1846 44.4724C10.1846 44.3289 10.1276 44.1913 10.0261 44.0898C9.9246 43.9883 9.78695 43.9313 9.64342 43.9313H1.96399V35.0289C2.01324 35.083 2.06371 35.1358 2.11593 35.1871L10.9712 43.8961C11.698 44.6141 12.6792 45.0157 13.7009 45.0132H44.7169C44.8605 45.0132 44.9981 44.9562 45.0996 44.8547C45.2011 44.7532 45.2581 44.6156 45.2581 44.472V36.9831C45.2565 35.636 44.7206 34.3445 43.7681 33.392C42.8155 32.4395 41.524 31.9037 40.1769 31.9021H21.2199C20.4442 31.9006 19.6861 31.6704 19.0405 31.2404V11.659C19.0409 11.3912 19.1474 11.1345 19.3367 10.9452C19.526 10.7558 19.7827 10.6493 20.0505 10.6489H22.873C23.2731 10.6489 23.6568 10.49 23.9397 10.2071C24.2226 9.92415 24.3816 9.54045 24.3816 9.14037C24.3816 8.74028 24.2226 8.35658 23.9397 8.07367C23.6568 7.79077 23.2731 7.63184 22.873 7.63184H19.8171C18.8113 7.63295 17.847 8.03299 17.1358 8.74419C16.4246 9.45539 16.0245 10.4197 16.0234 11.4255V28.1293C16.0234 28.2728 16.0804 28.4105 16.1819 28.512C16.2834 28.6135 16.421 28.6705 16.5645 28.6705C16.7081 28.6705 16.8457 28.6135 16.9472 28.512C17.0487 28.4105 17.1057 28.2728 17.1057 28.1293V11.4255C17.1065 10.7066 17.3925 10.0175 17.9008 9.50917C18.4091 9.00088 19.0983 8.71498 19.8171 8.71419H22.873C22.9861 8.71419 23.0945 8.75909 23.1744 8.83901C23.2543 8.91894 23.2992 9.02734 23.2992 9.14037C23.2992 9.25339 23.2543 9.36179 23.1744 9.44172C23.0945 9.52164 22.9861 9.56654 22.873 9.56654H20.0502C19.4955 9.56719 18.9637 9.78785 18.5714 10.1801C18.1792 10.5724 17.9585 11.1043 17.9579 11.659V30.4087C16.6601 29.3847 15.0269 28.8816 13.3778 28.9979C13.0567 28.6502 12.759 28.2815 12.4866 27.8943L12.9133 27.5632C13.2782 27.2785 13.5223 26.8667 13.5971 26.4099C13.6718 25.9532 13.5717 25.4851 13.3167 25.0989C13.1243 24.8104 12.8847 24.4658 12.6083 24.0919C12.6037 24.0855 12.5993 24.0791 12.5947 24.0731C11.7464 22.9275 10.5373 21.4991 9.14229 20.4432L9.45104 20.124C9.60044 19.9696 9.71252 19.7831 9.77868 19.5787C9.84484 19.3743 9.86333 19.1575 9.83273 18.9449C9.80213 18.7323 9.72325 18.5295 9.60214 18.3521C9.48103 18.1747 9.32091 18.0273 9.13404 17.9214L8.83355 17.7509L8.58664 16.0224C8.57359 15.9309 8.53734 15.8443 8.48134 15.7709C8.42535 15.6974 8.35148 15.6394 8.26677 15.6026C8.18205 15.5657 8.08932 15.5512 7.99739 15.5603C7.90546 15.5695 7.8174 15.602 7.74159 15.6548C7.53554 15.7985 2.67916 19.1952 1.33596 21.294C0.212206 23.0501 0.912759 24.6462 1.54445 25.3846C1.56742 25.9357 1.684 26.4789 1.88918 26.9909ZM44.1758 43.9313H13.7009C12.9631 43.9331 12.2545 43.6432 11.7297 43.1246L2.87493 34.4159C2.58731 34.1316 2.35875 33.7932 2.20241 33.4202C2.04608 33.0472 1.96505 32.6469 1.96399 32.2425V29.3125C1.96402 28.8034 2.14882 28.3116 2.48407 27.9285C2.61286 28.0675 2.75486 28.1937 2.90808 28.3052C3.59727 28.8078 4.41174 28.9411 5.08239 28.9411C5.47984 28.9405 5.87603 28.8962 6.26378 28.8089C6.45016 28.8449 6.63998 28.8599 6.82971 28.8538C7.42501 29.353 8.39777 30.1842 9.37054 31.0799C9.32201 31.231 9.28523 31.3856 9.26054 31.5424C9.25324 31.5893 9.24782 31.6371 9.24309 31.6833L7.56679 30.1488C7.51471 30.0991 7.4532 30.0602 7.38589 30.0345C7.31857 30.0088 7.2468 29.9968 7.17479 29.9992C7.10278 30.0016 7.03197 30.0183 6.96652 30.0485C6.90107 30.0786 6.84229 30.1215 6.79365 30.1747C6.745 30.2278 6.70745 30.2902 6.68322 30.358C6.65898 30.4259 6.64854 30.4979 6.6525 30.5698C6.65647 30.6418 6.67476 30.7122 6.7063 30.777C6.73785 30.8418 6.78201 30.8996 6.83621 30.9471L10.1314 33.9641L10.1332 33.9658L11.6681 35.3708L15.2596 38.6584C15.3594 38.7498 15.4897 38.8004 15.6249 38.8005H44.1758V43.9313ZM11.7713 30.4572C12.0019 30.4486 12.2319 30.4876 12.4467 30.5718C12.6616 30.656 12.8568 30.7836 13.0202 30.9465L14.1323 32.0474L12.0122 34.2181L11.8363 34.0575L10.8622 33.1659C10.66 32.9861 10.5055 32.759 10.4126 32.5049C10.3196 32.2508 10.291 31.9777 10.3294 31.7099C10.3666 31.468 10.4495 31.2355 10.5737 31.0246L10.5816 31.0155C10.7308 30.8456 10.9135 30.7083 11.1182 30.6122C11.3229 30.5162 11.5453 30.4634 11.7713 30.4572ZM17.2518 35.1363C17.3524 35.2358 17.4879 35.292 17.6293 35.2929L22.7951 35.3236C23.4297 35.329 24.0369 35.5825 24.487 36.0299C24.9371 36.4773 25.1942 37.0831 25.2033 37.7176H15.835L12.8109 34.9494L12.8278 34.932L14.9014 32.8086L17.2518 35.1363ZM17.2936 31.263L18.1325 31.9192C18.1527 31.9351 18.173 31.95 18.1943 31.9656C18.1958 31.9665 18.1971 31.9677 18.1986 31.9688C19.0693 32.6256 20.1299 32.9817 21.2205 32.9835H40.1769C41.2371 32.9847 42.2535 33.4064 43.0032 34.1561C43.7529 34.9058 44.1746 35.9222 44.1758 36.9824V37.7169H26.2853C26.2756 36.7966 25.9052 35.9169 25.2537 35.2668C24.6023 34.6168 23.7218 34.2483 22.8015 34.2405L17.8565 34.2112L15.2757 31.6566L13.7817 30.1773C13.7427 30.1387 13.7005 30.1042 13.6599 30.0682C14.9742 30.0248 16.2615 30.448 17.2936 31.263ZM12.1254 29.2088C11.838 29.2846 11.6285 29.3559 11.5271 29.3927C10.9296 29.4548 10.3698 29.7142 9.93607 30.1298C9.65127 29.8696 9.36864 29.6165 9.09724 29.3764C9.42567 29.478 9.77382 29.4985 10.1119 29.4361C10.45 29.3737 10.7679 29.2304 11.0384 29.0183L11.6302 28.5593C11.7849 28.7787 11.9502 28.9952 12.1261 29.2088H12.1254ZM11.5166 24.4404C11.3464 24.6831 11.128 24.8882 10.875 25.0429C10.6221 25.1975 10.34 25.2984 10.0463 25.3393C9.97597 25.3493 9.90829 25.3732 9.84714 25.4094C9.78599 25.4456 9.73258 25.4936 9.68996 25.5504C9.64733 25.6073 9.61632 25.672 9.5987 25.7409C9.58109 25.8097 9.5772 25.8814 9.58728 25.9517C9.59735 26.0221 9.62118 26.0898 9.65742 26.1509C9.69365 26.2121 9.74157 26.2655 9.79844 26.3081C9.85532 26.3507 9.92003 26.3818 9.98889 26.3994C10.0577 26.417 10.1294 26.4209 10.1998 26.4108C10.9637 26.3014 11.6638 25.9238 12.175 25.3456C12.2612 25.4701 12.3432 25.5901 12.4161 25.6996C12.5204 25.8578 12.5612 26.0495 12.5304 26.2364C12.4995 26.4233 12.3994 26.5918 12.2499 26.7082L10.3746 28.1631C10.2064 28.2945 10.0026 28.3721 9.78974 28.3859C9.57684 28.3996 9.36474 28.3489 9.18112 28.2402L8.13178 27.624C8.06149 27.5826 7.98276 27.5577 7.90148 27.5511C7.82019 27.5446 7.73847 27.5565 7.66245 27.586C7.44043 27.6742 7.20782 27.733 6.97055 27.7609C6.96365 27.7609 6.95702 27.7624 6.94985 27.7632C6.82448 27.7767 6.69803 27.7767 6.57265 27.7632C6.20317 27.2414 6.14864 26.7765 6.40692 26.3469C6.48322 26.22 6.53301 26.0788 6.55328 25.9321C6.57356 25.7853 6.5639 25.636 6.52489 25.4931C6.48596 25.3515 6.41826 25.2194 6.32601 25.1051C6.23376 24.9908 6.11894 24.8967 5.98872 24.8288L5.97114 24.8192C5.89251 24.7749 5.82529 24.7128 5.77478 24.638C5.72427 24.5632 5.69186 24.4777 5.68012 24.3882C5.66526 24.29 5.67329 24.1897 5.70359 24.0951C5.73389 24.0005 5.78563 23.9142 5.85478 23.8429L8.38478 21.2259C9.61528 22.1302 10.7081 23.3786 11.5172 24.4404H11.5166ZM2.24771 21.8775C3.18665 20.4102 6.2374 18.086 7.64148 17.0593L7.79964 18.1669C7.81134 18.2488 7.84164 18.3269 7.88822 18.3952C7.9348 18.4635 7.99641 18.5202 8.06833 18.561L8.59963 18.8626C8.64288 18.887 8.67996 18.921 8.70801 18.962C8.73605 19.003 8.75432 19.0499 8.7614 19.0991C8.76849 19.1482 8.7642 19.1984 8.74886 19.2456C8.73353 19.2929 8.70756 19.3359 8.67296 19.3716L7.93642 20.1334L7.93358 20.1363L5.07671 23.0907C4.89195 23.2807 4.75361 23.5109 4.6725 23.7632C4.59139 24.0155 4.5697 24.2831 4.60913 24.5452C4.64456 24.7986 4.73808 25.0403 4.88239 25.2515C5.02671 25.4628 5.21791 25.6378 5.44105 25.7629C5.45526 25.7696 5.46818 25.7787 5.47921 25.7899C5.292 26.097 5.18453 26.4459 5.16657 26.8051C5.14861 27.1643 5.22074 27.5222 5.37638 27.8464C4.83683 27.8847 4.10462 27.8377 3.54572 27.4305C2.96071 27.0041 2.64845 26.2357 2.61733 25.1469C2.61246 25.0077 2.55498 24.8755 2.45647 24.777C2.32753 24.6483 1.22664 23.4733 2.24771 21.8775Z" fill="#494456"/>
<path d="M23.4559 11.54C23.3124 11.54 23.1748 11.5971 23.0733 11.6985C22.9718 11.8 22.9148 11.9377 22.9148 12.0812V14.4414H20.8185C20.675 14.4414 20.5373 14.4984 20.4359 14.5999C20.3344 14.7014 20.2773 14.8391 20.2773 14.9826V22.8922C20.2778 23.3836 20.4732 23.8548 20.8207 24.2023C21.1682 24.5498 21.6394 24.7452 22.1309 24.7457H26.0936C26.2372 24.7457 26.3748 24.6887 26.4763 24.5872C26.5778 24.4857 26.6348 24.348 26.6348 24.2045V15.7784C26.6345 15.424 26.4935 15.0842 26.2429 14.8336C25.9923 14.583 25.6525 14.442 25.2981 14.4417H23.9975V12.0812C23.9975 12.0101 23.9835 11.9397 23.9563 11.874C23.9291 11.8083 23.8892 11.7487 23.8389 11.6984C23.7886 11.6481 23.7289 11.6083 23.6632 11.5811C23.5975 11.5539 23.527 11.54 23.4559 11.54ZM25.5521 15.7781V16.9281H24.8058C24.7347 16.9281 24.6643 16.9421 24.5987 16.9693C24.533 16.9965 24.4734 17.0364 24.4231 17.0866C24.3729 17.1369 24.333 17.1965 24.3058 17.2622C24.2786 17.3279 24.2646 17.3982 24.2646 17.4693C24.2646 17.5404 24.2786 17.6107 24.3058 17.6764C24.333 17.7421 24.3729 17.8017 24.4231 17.852C24.4734 17.9022 24.533 17.9421 24.5987 17.9693C24.6643 17.9965 24.7347 18.0105 24.8058 18.0105H25.5521V19.0522H23.994C23.8505 19.0522 23.7128 19.1093 23.6113 19.2108C23.5098 19.3122 23.4528 19.4499 23.4528 19.5934C23.4528 19.7369 23.5098 19.8746 23.6113 19.9761C23.7128 20.0776 23.8505 20.1346 23.994 20.1346H25.5521V21.1764H24.8058C24.6622 21.1764 24.5246 21.2334 24.4231 21.3349C24.3216 21.4364 24.2646 21.574 24.2646 21.7175C24.2646 21.8611 24.3216 21.9987 24.4231 22.1002C24.5246 22.2017 24.6622 22.2587 24.8058 22.2587H25.5521V23.6633H22.1305C21.9259 23.6633 21.7298 23.5821 21.5852 23.4375C21.4405 23.2928 21.3593 23.0967 21.3593 22.8922V15.5238H25.2973C25.3648 15.5237 25.4296 15.5505 25.4773 15.5982C25.5251 15.6459 25.552 15.7106 25.5521 15.7781Z" fill="#494456"/>
<path d="M8.28761 24.5043C8.728 24.3169 9.08643 23.9776 9.29758 23.5481C9.33361 23.4711 9.35203 23.3871 9.35149 23.3022C9.35095 23.2172 9.33147 23.1334 9.29447 23.057C9.09031 22.6592 8.49516 22.6725 8.34295 23.0418C8.23348 23.2746 8.05217 23.466 7.82572 23.588C7.72943 23.6436 7.65427 23.7295 7.61199 23.8323C7.56972 23.9351 7.56271 24.049 7.59207 24.1562L7.59964 24.1833C7.61877 24.2529 7.6528 24.3176 7.69938 24.3727C7.74596 24.4279 7.80398 24.4723 7.86941 24.5028C7.93485 24.5334 8.00614 24.5493 8.07835 24.5496C8.15056 24.5498 8.22196 24.5344 8.28761 24.5043Z" fill="#494456"/>
<path d="M36.1188 21.326H36.1199C36.1519 21.332 36.1845 21.3351 36.2171 21.3352H36.2184C36.251 21.3351 36.2835 21.332 36.3155 21.326H36.3167C36.5638 21.2801 42.3944 20.1362 44.5943 14.5766C44.9868 13.5682 45.1845 12.4945 45.1771 11.4125V2.84632C45.1771 2.76681 45.1596 2.68828 45.1258 2.61631C45.092 2.54434 45.0428 2.48069 44.9816 2.42991C44.9205 2.37912 44.8489 2.34243 44.7719 2.32246C44.6949 2.30249 44.6145 2.29972 44.5364 2.31435C44.4805 2.32476 38.9096 3.33582 36.5904 1.1339C36.5803 1.1243 36.5688 1.11753 36.5581 1.10888C36.5443 1.097 36.5299 1.08584 36.5149 1.07546C36.4995 1.06531 36.4835 1.05733 36.4676 1.0484C36.4516 1.03947 36.4373 1.03203 36.4213 1.02553C36.4044 1.01907 36.3872 1.01347 36.3698 1.00876C36.3537 1.00402 36.3378 0.999016 36.3213 0.995228C36.3048 0.99144 36.2864 0.990493 36.2688 0.988869C36.2512 0.987246 36.2349 0.985352 36.2178 0.985352C36.2008 0.985352 36.1839 0.987246 36.1668 0.988869C36.1498 0.990493 36.1318 0.991846 36.1143 0.995228C36.0969 0.99861 36.0817 1.00362 36.0655 1.00876C36.0482 1.01336 36.0312 1.01892 36.0145 1.0254C35.9984 1.03189 35.9831 1.04042 35.9675 1.04853C35.9515 1.05642 35.9359 1.06513 35.9208 1.07465C35.9057 1.08517 35.8911 1.09646 35.8771 1.10847C35.8667 1.11713 35.8552 1.12376 35.8452 1.13323C33.5306 3.33081 27.9549 2.32382 27.899 2.31353C27.8208 2.29895 27.7404 2.30175 27.6635 2.32176C27.5866 2.34176 27.515 2.37846 27.4539 2.42926C27.3927 2.48006 27.3435 2.5437 27.3097 2.61567C27.276 2.68763 27.2585 2.76615 27.2585 2.84565V11.4125C27.251 12.4945 27.4488 13.5682 27.8414 14.5766C30.0412 20.1362 35.8717 21.2801 36.1188 21.326ZM28.3409 3.47733C29.9022 3.68271 33.9083 3.99456 36.2178 2.23385C38.5273 3.99456 42.5335 3.68285 44.0948 3.47733V11.4125C44.1021 12.3582 43.93 13.2967 43.5877 14.1783C41.7601 18.7976 36.9682 20.0679 36.2178 20.2404C35.4677 20.068 30.6755 18.7978 28.8478 14.1783C28.5056 13.2967 28.3335 12.3582 28.3409 11.4125V3.47733Z" fill="#494456"/>
</svg>
