<svg width="22" height="16" viewBox="0 0 22 16" fill="none" xmlns="http://www.w3.org/2000/svg">
<path d="M22 13.5385C22 14.1913 21.7425 14.8174 21.284 15.279C20.8256 15.7407 20.2039 16 19.5556 16H2.44444C1.79614 16 1.17438 15.7407 0.715961 15.279C0.257539 14.8174 0 14.1913 0 13.5385V2.46154C0 1.8087 0.257539 1.1826 0.715961 0.720968C1.17438 0.25934 1.79614 0 2.44444 0H19.5556C20.2039 0 20.8256 0.25934 21.284 0.720968C21.7425 1.1826 22 1.8087 22 2.46154V13.5385Z" fill="#EEEEEE"/>
<path d="M22 8V2.46154C22 1.8087 21.7425 1.1826 21.284 0.720968C20.8256 0.25934 20.2039 0 19.5556 0H2.44444C1.79614 0 1.17438 0.25934 0.715961 0.720968C0.257539 1.1826 0 1.8087 0 2.46154L0 8H22Z" fill="#ED2939"/>
<path d="M3.81547 3.99929C3.81547 2.46111 4.68987 1.17403 5.86686 0.824149C5.63615 0.760428 5.39933 0.727663 5.16153 0.726562C4.37613 0.726562 3.62291 1.07137 3.06755 1.68512C2.51219 2.29888 2.2002 3.13131 2.2002 3.99929C2.2002 4.86727 2.51219 5.6997 3.06755 6.31346C3.62291 6.92721 4.37613 7.27202 5.16153 7.27202C5.40489 7.27202 5.64019 7.23631 5.86686 7.17443C4.68987 6.82455 3.81547 5.53747 3.81547 3.99929Z" fill="white"/>
<path d="M7.33281 1.45508L7.4581 1.85442H7.86235L7.53494 2.10119L7.66022 2.50054L7.33281 2.25377L7.0054 2.50054L7.13069 2.10119L6.80328 1.85442H7.20753L7.33281 1.45508ZM6.21917 5.50053L6.34446 5.89987H6.74871L6.4213 6.14664L6.54658 6.54599L6.21917 6.29921L5.89176 6.54599L6.01704 6.14664L5.68963 5.89987H6.09389L6.21917 5.50053ZM8.44645 5.50053L8.57174 5.89987H8.97599L8.64858 6.14664L8.77387 6.54599L8.44645 6.29921L8.11904 6.54599L8.24433 6.14664L7.91692 5.89987H8.32117L8.44645 5.50053ZM5.66235 3.18884L5.78763 3.58819H6.19189L5.86448 3.83496L5.98976 4.2343L5.66235 3.98753L5.33494 4.2343L5.46022 3.83496L5.13281 3.58819H5.53706L5.66235 3.18884ZM9.00328 3.18884L9.12856 3.58819H9.53281L9.2054 3.83496L9.33069 4.2343L9.00328 3.98753L8.67586 4.2343L8.80115 3.83496L8.47374 3.58819H8.87799L9.00328 3.18884Z" fill="#EEEEEE"/>
</svg>
