<svg width="200" height="110" viewBox="0 0 200 110" fill="none" xmlns="http://www.w3.org/2000/svg">
<g clip-path="url(#clip0_9_1631)">
<path d="M44.1571 43.0112C40.5941 43.4139 37.3891 40.8549 36.9836 37.2975C36.5809 33.7373 39.1398 30.5267 42.7 30.124C46.2574 29.724 49.4709 32.2802 49.868 35.8376C50.2763 39.3978 47.7145 42.6112 44.1571 43.0112Z" fill="#ED1A3D"/>
<path d="M68.8605 25.7808C64.5423 24.374 62.1847 19.7287 63.5859 15.4134C64.9982 11.0953 69.6408 8.73489 73.9617 10.1444C78.2742 11.5512 80.6402 16.1937 79.2306 20.5146C77.8211 24.8327 73.1814 27.1903 68.8605 25.7808Z" fill="#ED1A3D"/>
<path d="M97.4792 17.5864C93.5442 13.7409 93.4715 7.43156 97.317 3.4966C101.162 -0.435565 107.472 -0.508271 111.41 3.33998C115.342 7.18545 115.412 13.4948 111.566 17.427C107.718 21.362 101.409 21.4347 97.4792 17.5864Z" fill="#ED1A3D"/>
<path d="M125.362 19.2729C123.03 13.246 126.022 6.46954 132.052 4.1399C138.073 1.80465 144.852 4.79991 147.185 10.8268C149.517 16.8509 146.525 23.6301 140.498 25.9598C134.465 28.2922 127.697 25.297 125.362 19.2729Z" fill="#ED1A3D"/>
<path d="M152.921 30.9182C152.921 23.1658 159.208 16.8788 166.966 16.8788C174.718 16.8788 181.003 23.1658 181.003 30.9182C181.003 38.6679 174.718 44.9605 166.966 44.9605C159.208 44.9605 152.921 38.6679 152.921 30.9182Z" fill="#ED1A3D"/>
<path d="M109.267 55.9739C98.1671 55.9739 90.1125 64.0312 90.1125 75.1285C90.1125 83.8794 95.0907 92.7142 106.205 92.7142C109.125 92.7142 111.725 92.1017 114.041 90.832V92.4345C114.041 96.6883 113.076 100.623 106.062 100.623C104.434 100.623 102.896 100.372 101.501 99.9772C99.7444 99.457 98.0943 98.6068 96.4583 97.7846L96.2737 97.7007C95.8682 97.5301 95.4291 97.5497 95.0236 97.7147C94.716 97.8349 94.495 98.0363 94.3048 98.2992C94.0755 98.6068 91.7654 102.181 91.606 102.5L91.399 103.115L91.3739 103.361C91.3739 103.859 91.5893 104.304 91.9277 104.62C92.6576 105.299 93.5666 105.822 94.4391 106.298C94.6964 106.438 94.9593 106.563 95.2194 106.692C97.9154 108.023 101.876 109.31 107.133 109.31C112.755 109.31 117.201 107.718 120.339 104.578C124.216 100.702 124.216 96.7974 124.216 91.864V59.8026L123.911 59.6572C119.187 57.2827 113.985 55.9739 109.267 55.9739ZM114.041 82.7132C113.493 83.0683 111.13 84.3185 108.414 84.3185C104.434 84.3185 100.43 81.3204 100.43 74.6279C100.43 68.5842 104.007 64.364 109.122 64.364C111.398 64.364 113.381 65.0632 114.041 65.3205V82.7132Z" fill="#231F20"/>
<path d="M48.5228 58.5721L48.4921 58.3456C48.3606 57.5653 47.681 56.9724 46.8672 56.9724H39.8615C38.9469 56.9724 38.2058 57.7163 38.2058 58.6309V91.0558C38.2058 91.9704 38.9469 92.7143 39.8615 92.7143H46.8672C47.6866 92.7143 48.3634 92.113 48.4949 91.3299L48.5229 91.081L48.5228 58.5721Z" fill="#231F20"/>
<path d="M199.5 48.0201C199.447 47.1503 198.734 46.4651 197.858 46.4651H190.847C189.946 46.4651 189.228 47.1839 189.205 48.0844V91.1816C189.272 92.0374 189.98 92.7114 190.847 92.7114H197.858C198.745 92.7114 199.464 92.0066 199.5 91.1256V48.0201Z" fill="#231F20"/>
<path d="M169.223 55.9739C159.278 55.9739 152.062 63.9976 152.062 75.053C152.062 86.388 159.048 93.7098 169.863 93.7098C175.971 93.7098 180.558 91.4808 182.264 90.5132C182.608 90.3314 183.559 89.484 182.737 87.8787L181.033 84.5394C180.569 83.6473 179.931 83.4571 179.481 83.4571C179.257 83.4571 179.031 83.5019 178.69 83.6417L178.48 83.7424C175.787 84.945 173.244 85.5295 170.716 85.5295C167.973 85.5295 165.693 84.6569 164.127 83.0013C162.737 81.533 162.122 79.662 162.091 78.328H185.312C185.312 78.328 185.312 75.9452 185.312 74.9859C185.312 63.0804 179.299 55.9739 169.223 55.9739ZM162.091 70.7209C162.93 66.4363 165.719 63.7963 169.435 63.7963C174.959 63.7963 175.63 68.9785 175.7 70.7209H162.091Z" fill="#231F20"/>
<path d="M149.467 85.7113C149.064 84.615 148.265 84.45 147.814 84.45L147.137 84.5619C146.128 84.8304 145.202 84.959 144.221 84.959C140.465 84.959 140.151 82.2966 140.151 79.3265V65.6478H149.207C150.122 65.6478 150.863 64.9067 150.863 63.9922V58.6253C150.863 57.7583 150.194 57.0591 149.347 56.9864L149.232 56.9724H149.21L149.208 56.9704L140.152 56.9724V48.1208C140.152 47.2063 139.414 46.468 138.499 46.468H131.494C131.231 46.468 130.979 46.5351 130.755 46.647C130.056 46.9406 129.838 47.5727 129.838 48.0705V78.9741C129.838 83.8543 129.838 87.3782 132.931 90.4741C135.747 93.2932 139.962 93.7099 142.227 93.7099C145.698 93.7099 148.246 92.8793 149.857 92.113C150.293 91.9033 151.437 91.1062 150.799 89.3499L149.467 85.7113Z" fill="#231F20"/>
<path d="M15.3259 60.8542C14.7218 60.5745 14.0758 60.2277 13.5136 59.7859C13.1193 59.509 12.7837 59.1566 12.532 58.7455L12.3195 58.34L12.2187 58.0855C12.0929 57.7275 12.0229 57.3443 12.0229 56.9416C12.0229 56.2816 12.2131 55.6663 12.532 55.1377C13.1724 54.0023 14.3694 53.1577 15.6083 52.7913C19.2972 51.5887 23.2965 52.7131 26.5462 54.5868L27.1587 54.9084C27.5279 55.1293 27.911 55.2664 28.2438 55.2664C28.7892 55.2664 29.2758 55.0287 29.6198 54.6539L29.6108 54.6651C30.805 53.2276 32.6956 50.3218 32.7291 50.2715C33.0759 49.7093 33.1095 48.9458 32.7739 48.3669L32.4411 47.9222L31.9629 47.5391C26.8953 44.0208 20.3817 42.8238 14.3437 43.8083C10.8226 44.4068 7.40223 45.9953 4.98309 48.655C1.07888 52.8472 0.273436 59.6964 3.31905 64.5962C5.44735 68.0417 9.07187 70.1952 12.702 71.7669C15.3784 73.0283 18.3178 73.8393 20.804 75.4865C22.1493 76.306 23.0498 77.7798 23.0498 79.4746C23.0498 81.3121 21.9451 82.881 20.4992 83.6473C19.7161 84.0612 18.9498 84.3885 18.0829 84.5619C17.2187 84.7352 16.3293 84.7856 15.4511 84.7576C14.9561 84.7408 14.4611 84.7017 13.9661 84.643C11.0743 84.3857 8.52372 83.0461 5.98431 81.7764L5.78574 81.6842C5.34946 81.508 4.87121 81.522 4.44052 81.6955C4.10492 81.8325 3.87001 82.0507 3.65466 82.3331C3.4086 82.6631 0.922324 86.5226 0.746124 86.8694L0.519608 87.5266L0.5 87.7951C0.5 88.3349 0.729333 88.8159 1.0957 89.1571C3.61832 91.2826 6.84572 92.4684 10.02 93.2515C15.2862 94.3729 21.039 94.2807 25.9052 91.814C34.0632 88.0692 36.7677 75.9371 30.5814 69.3229C26.4646 65.0076 20.5725 63.3181 15.3259 60.8542Z" fill="#231F20"/>
<path d="M86.228 82.9453V72.8296C86.2392 68.4052 86.2476 63.3935 82.349 59.4949C80.0473 57.196 76.8143 55.9739 72.9856 55.9739C68.7822 55.9739 66.2036 58.0434 64.864 59.2768V58.6335C64.85 58.4518 64.8416 58.379 64.7996 58.2084V58.2065L64.7883 58.17L64.7743 58.1393L64.7435 58.0385L64.7267 57.9798L64.296 57.3953L64.2093 57.3254L64.1925 57.3114L64.1813 57.3064L64.1793 57.3044C63.9024 57.103 63.5752 56.9772 63.2061 56.9772H56.1975C55.283 56.9772 54.5447 57.7183 54.5447 58.6356V91.0606C54.5447 91.9751 55.283 92.7162 56.1975 92.7162H63.2061C64.0283 92.7162 64.6995 92.1178 64.8337 91.3347L64.8645 91.083L64.8595 84.5499H64.8645V66.9055C65.7623 66.2818 68.352 64.8723 70.9921 64.8723C72.5275 64.8723 73.7469 65.275 74.5188 66.0497C75.713 67.2411 75.9115 69.4421 75.9115 73.9196L75.9135 74.6551V91.0606C75.9135 91.9751 76.6575 92.7162 77.5692 92.7162H84.5749C85.3943 92.7162 86.0711 92.1178 86.2026 91.3347L86.2306 91.083L86.2286 84.5555L86.2306 84.5359V82.9501L86.2286 82.9481" fill="#231F20"/>
</g>
<defs>
<clipPath id="clip0_9_1631">
<rect width="200" height="109.81" fill="white"/>
</clipPath>
</defs>
</svg>
