<svg width="38" height="38" viewBox="0 0 38 38" fill="none" xmlns="http://www.w3.org/2000/svg">
<path d="M8.25 26.5L5.75 32.3125L11.5625 29.8125C10.25 28.875 9.125 27.75 8.25 26.5ZM29.75 11.5L32.25 5.6875L26.5 8.1875C27.75 9.125 28.875 10.25 29.75 11.5ZM6.125 16.6875L0.25 19L6.125 21.3125C5.9375 20.5625 5.875 19.8125 5.875 19C5.875 18.1875 5.9375 17.4375 6.125 16.6875V16.6875ZM31.875 21.3125L37.75 19L31.875 16.6875C32 17.4375 32.125 18.25 32.125 19C32.125 19.8125 32.0625 20.5625 31.875 21.3125ZM11.5 8.25L5.6875 5.75L8.1875 11.5625C9.125 10.25 10.25 9.125 11.5 8.25ZM26.5 29.75L32.3125 32.25L29.8125 26.4375C28.875 27.75 27.75 28.875 26.5 29.75ZM21.3125 6.125L19 0.25L16.6875 6.125C17.4375 6 18.25 5.875 19 5.875C19.75 5.875 20.5625 5.9375 21.3125 6.125V6.125ZM16.6875 31.875L19 37.75L21.3125 31.875C20.5625 32.0625 19.8125 32.125 19 32.125C18.1875 32.125 17.4375 32.0625 16.6875 31.875" fill="#FFCE31"/>
<path d="M19 30.875C25.5584 30.875 30.875 25.5584 30.875 19C30.875 12.4416 25.5584 7.125 19 7.125C12.4416 7.125 7.125 12.4416 7.125 19C7.125 25.5584 12.4416 30.875 19 30.875Z" fill="#FFCE31"/>
</svg>
