<svg width="19" height="19" viewBox="0 0 19 19" fill="none" xmlns="http://www.w3.org/2000/svg">
<g clip-path="url(#clip0_2370_9123)">
<path d="M7.19312 2.6285H7.21943H8.1645H8.17295V0.922852H7.19312V2.6285Z" fill="white"/>
<path d="M7.46011 3.13672L7.08585 9.95404C7.08567 9.95767 7.08538 9.96129 7.08505 9.96471L6.97974 11.048H8.40471L8.29896 9.95763C8.29864 9.954 8.29838 9.95059 8.29816 9.94703L7.92426 3.13672H7.46011Z" fill="white"/>
<path d="M9.84819 12.9101C9.67477 12.7093 9.55939 12.4649 9.51446 12.2034C9.46953 11.9418 9.49676 11.6729 9.59322 11.4257C9.68967 11.1785 9.8517 10.9622 10.0619 10.8002C10.2721 10.6382 10.5224 10.5365 10.7861 10.5061V9.02748C10.7863 8.80202 10.7421 8.57874 10.6559 8.37039C10.5698 8.16205 10.4434 7.97273 10.284 7.81327C10.1246 7.65381 9.93537 7.52733 9.72707 7.44106C9.51877 7.3548 9.29551 7.31045 9.07005 7.31055H8.662L8.80517 9.91619L8.93741 11.2778C8.94086 11.3131 8.93688 11.3487 8.92574 11.3823C8.9146 11.416 8.89654 11.4469 8.87273 11.4732C8.84892 11.4994 8.81988 11.5204 8.78747 11.5347C8.75507 11.5491 8.72002 11.5565 8.68458 11.5565H6.69979C6.66441 11.5566 6.62939 11.5493 6.59701 11.5351C6.56462 11.5209 6.53558 11.5 6.51176 11.4738C6.48793 11.4477 6.46986 11.4168 6.4587 11.3832C6.44754 11.3497 6.44353 11.3141 6.44695 11.2789L6.57883 9.92345L6.7224 7.31055H6.30506C5.84883 7.31003 5.41103 7.4905 5.08771 7.81238C4.76438 8.13426 4.58195 8.57125 4.58043 9.02748V10.5061C4.95126 10.5479 5.29203 10.7301 5.53279 11.0152C5.77354 11.3003 5.89603 11.6668 5.87509 12.0393C5.85416 12.4119 5.6914 12.7624 5.42022 13.0187C5.14904 13.2751 4.79001 13.4179 4.41684 13.4179C4.35019 13.4176 4.28363 13.4132 4.21753 13.4046V14.4763C4.21875 15.095 4.45547 15.6899 4.87958 16.1403C5.30369 16.5907 5.88336 16.8627 6.50081 16.9011L6.44136 15.7296C6.43929 15.6958 6.44442 15.6618 6.45644 15.6301C6.46845 15.5984 6.48707 15.5696 6.51105 15.5456C6.53504 15.5216 6.56385 15.503 6.59557 15.491C6.6273 15.4789 6.66121 15.4738 6.69507 15.4759H8.68015C8.71397 15.4742 8.74777 15.4796 8.7794 15.4917C8.81104 15.5037 8.83983 15.5222 8.86396 15.546C8.88749 15.5692 8.9058 15.5972 8.91769 15.6281C8.92957 15.659 8.93476 15.692 8.93291 15.7251L8.8702 16.8987C9.48703 16.8604 10.0661 16.5885 10.4894 16.1382C10.9128 15.688 11.1487 15.0934 11.149 14.4753V13.4048C11.084 13.4133 11.0185 13.4178 10.953 13.418C10.7431 13.4181 10.5357 13.3727 10.345 13.285C10.1543 13.1973 9.98483 13.0695 9.84819 12.9101ZM8.68008 13.2622H6.695C6.62762 13.2622 6.56301 13.2354 6.51537 13.1878C6.46773 13.1401 6.44096 13.0755 6.44096 13.0081C6.44096 12.9408 6.46773 12.8761 6.51537 12.8285C6.56301 12.7809 6.62762 12.7541 6.695 12.7541H8.68008C8.74745 12.7541 8.81207 12.7809 8.8597 12.8285C8.90735 12.8761 8.93411 12.9408 8.93411 13.0081C8.93411 13.0755 8.90735 13.1401 8.8597 13.1878C8.81207 13.2354 8.74745 13.2622 8.68008 13.2622Z" fill="white"/>
<path d="M7.06865 17.9945L8.30644 17.9849L8.41219 15.9834H6.96265L7.06865 17.9945Z" fill="white"/>
<path d="M14.5602 0.814453H13.9432C13.8759 0.814453 13.8113 0.841217 13.7636 0.888857C13.716 0.936498 13.6892 1.00111 13.6892 1.06849V14.8225C13.6892 14.8899 13.716 14.9545 13.7636 15.0021C13.8113 15.0498 13.8759 15.0765 13.9432 15.0765H14.3061V17.8709C14.3061 17.9383 14.3329 18.0029 14.3805 18.0505C14.4282 18.0982 14.4928 18.1249 14.5602 18.1249C14.6276 18.1249 14.6922 18.0982 14.7398 18.0505C14.7874 18.0029 14.8142 17.9383 14.8142 17.8709V1.06849C14.8142 1.00111 14.7874 0.936498 14.7398 0.888857C14.6922 0.841217 14.6276 0.814453 14.5602 0.814453Z" fill="white"/>
</g>
<defs>
<clipPath id="clip0_2370_9123">
<rect width="18.5806" height="18.5806" fill="white" transform="translate(0.225586 0.161133)"/>
</clipPath>
</defs>
</svg>
