<svg width="24" height="24" viewBox="0 0 24 24" fill="none" xmlns="http://www.w3.org/2000/svg">
<path d="M16.875 7.5V16.5H18C18 15.9033 18.2371 15.331 18.659 14.909C19.081 14.4871 19.6533 14.25 20.25 14.25C20.8467 14.25 21.419 14.4871 21.841 14.909C22.2629 15.331 22.5 15.9033 22.5 16.5H23.625V10.875L21 7.5H16.875ZM18 10.875V8.625H20.4499L22.2 10.875H18Z" fill="white"/>
<path d="M9.375 18C10.2034 18 10.875 17.3284 10.875 16.5C10.875 15.6716 10.2034 15 9.375 15C8.54657 15 7.875 15.6716 7.875 16.5C7.875 17.3284 8.54657 18 9.375 18Z" fill="white"/>
<path d="M20.25 18C21.0784 18 21.75 17.3284 21.75 16.5C21.75 15.6716 21.0784 15 20.25 15C19.4216 15 18.75 15.6716 18.75 16.5C18.75 17.3284 19.4216 18 20.25 18Z" fill="white"/>
<path d="M10.5 11.0625C11.0178 11.0625 11.4375 10.6428 11.4375 10.125C11.4375 9.60723 11.0178 9.1875 10.5 9.1875C9.98223 9.1875 9.5625 9.60723 9.5625 10.125C9.5625 10.6428 9.98223 11.0625 10.5 11.0625Z" fill="white"/>
<path d="M9.375 14.25C9.97174 14.25 10.544 14.4871 10.966 14.909C11.3879 15.331 11.625 15.9033 11.625 16.5H16.125V5.25H4.875V16.5H7.125C7.125 15.9033 7.36205 15.331 7.78401 14.909C8.20597 14.4871 8.77826 14.25 9.375 14.25ZM8.26875 10.125C8.26872 10.0284 8.27574 9.93186 8.28975 9.83625C8.29543 9.787 8.28604 9.73719 8.2628 9.6934C8.23957 9.64961 8.20359 9.6139 8.15963 9.591L8.007 9.507C7.97734 9.49141 7.95118 9.46994 7.93011 9.44389C7.90903 9.41784 7.89349 9.38777 7.88444 9.35552C7.87538 9.32326 7.873 9.28949 7.87744 9.25628C7.88188 9.22308 7.89304 9.19112 7.91025 9.16237L8.33325 8.46263C8.37003 8.40408 8.42787 8.36187 8.49485 8.34471C8.56183 8.32755 8.63284 8.33673 8.69325 8.37037L8.84775 8.4555C8.8949 8.48045 8.94821 8.49137 9.00137 8.48698C9.05453 8.4826 9.10533 8.46308 9.14775 8.43075C9.30011 8.31915 9.46591 8.22718 9.64125 8.157C9.69025 8.13948 9.73285 8.10761 9.76348 8.06553C9.79411 8.02346 9.81137 7.97314 9.813 7.92113V7.752C9.81457 7.68383 9.84307 7.61906 9.89226 7.57184C9.94145 7.52462 10.0073 7.49879 10.0755 7.5H10.9215C10.9897 7.49879 11.0556 7.52462 11.1047 7.57184C11.1539 7.61906 11.1824 7.68383 11.184 7.752V7.92113C11.1856 7.97314 11.2029 8.02346 11.2335 8.06553C11.2642 8.10761 11.3067 8.13948 11.3558 8.157C11.5311 8.22718 11.6969 8.31915 11.8492 8.43075C11.8917 8.46308 11.9425 8.4826 11.9956 8.48698C12.0488 8.49137 12.1021 8.48045 12.1492 8.4555L12.3038 8.37037C12.3642 8.33673 12.4352 8.32755 12.5021 8.34471C12.5691 8.36187 12.627 8.40408 12.6638 8.46263L13.0868 9.16237C13.104 9.19112 13.1151 9.22308 13.1196 9.25628C13.124 9.28949 13.1216 9.32326 13.1126 9.35552C13.1035 9.38777 13.088 9.41784 13.0669 9.44389C13.0458 9.46994 13.0197 9.49141 12.99 9.507L12.8374 9.591C12.7934 9.6139 12.7574 9.64961 12.7342 9.6934C12.711 9.73719 12.7016 9.787 12.7073 9.83625C12.7352 10.0276 12.7352 10.222 12.7073 10.4134C12.7015 10.4627 12.7108 10.5126 12.7341 10.5564C12.7573 10.6003 12.7933 10.6361 12.8374 10.659L12.99 10.743C13.0197 10.7586 13.0458 10.7801 13.0669 10.8061C13.088 10.8322 13.1035 10.8622 13.1126 10.8945C13.1216 10.9267 13.124 10.9605 13.1196 10.9937C13.1151 11.0269 13.104 11.0589 13.0868 11.0876L12.6638 11.7874C12.627 11.8459 12.5691 11.8881 12.5021 11.9053C12.4352 11.9225 12.3642 11.9133 12.3038 11.8796L12.1492 11.7945C12.1021 11.7696 12.0488 11.7586 11.9956 11.763C11.9425 11.7674 11.8917 11.7869 11.8492 11.8193C11.6969 11.9309 11.5311 12.0228 11.3558 12.093C11.3067 12.1105 11.2642 12.1424 11.2335 12.1845C11.2029 12.2265 11.1856 12.2769 11.184 12.3289V12.498C11.1824 12.5662 11.1539 12.6309 11.1047 12.6782C11.0556 12.7254 10.9897 12.7512 10.9215 12.75H10.077C10.0088 12.7512 9.94295 12.7254 9.89376 12.6782C9.84457 12.6309 9.81608 12.5662 9.8145 12.498V12.3289C9.81287 12.2769 9.79561 12.2265 9.76498 12.1845C9.73435 12.1424 9.69175 12.1105 9.64275 12.093C9.46741 12.0228 9.30161 11.9309 9.14925 11.8193C9.10683 11.7869 9.05603 11.7674 9.00287 11.763C8.94971 11.7586 8.8964 11.7696 8.84925 11.7945L8.69475 11.8796C8.63434 11.9133 8.56333 11.9225 8.49635 11.9053C8.42937 11.8881 8.37153 11.8459 8.33475 11.7874L7.91175 11.0876C7.89454 11.0589 7.88338 11.0269 7.87894 10.9937C7.8745 10.9605 7.87688 10.9267 7.88594 10.8945C7.89499 10.8622 7.91053 10.8322 7.93161 10.8061C7.95268 10.7801 7.97884 10.7586 8.0085 10.743L8.16113 10.659C8.20516 10.6361 8.24118 10.6003 8.26442 10.5564C8.28766 10.5126 8.29701 10.4627 8.29125 10.4134C8.27672 10.3179 8.2692 10.2215 8.26875 10.125Z" fill="white"/>
<path d="M4.125 8.625H1.5V9.375H4.125V8.625Z" fill="white"/>
<path d="M3 11.25H0.375V12H3V11.25Z" fill="white"/>
<path d="M4.125 13.875H1.5V14.625H4.125V13.875Z" fill="white"/>
</svg>
