<svg width="66" height="66" viewBox="0 0 66 66" fill="none" xmlns="http://www.w3.org/2000/svg">
<path d="M32.9998 0.922058C26.6554 0.922058 20.4535 2.8034 15.1783 6.32817C9.90309 9.85293 5.79158 14.8628 3.36368 20.7243C0.935774 26.5858 0.300524 33.0356 1.53826 39.2581C2.77599 45.4806 5.83112 51.1963 10.3173 55.6825C14.8035 60.1687 20.5192 63.2238 26.7417 64.4616C32.9642 65.6993 39.414 65.064 45.2755 62.6361C51.137 60.2082 56.1469 56.0967 59.6717 50.8215C63.1964 45.5464 65.0778 39.3444 65.0778 33C65.068 24.4954 61.6853 16.3419 55.6716 10.3282C49.6579 4.31456 41.5044 0.931801 32.9998 0.922058ZM32.9998 61.5154C27.36 61.5154 21.8468 59.843 17.1575 56.7097C12.4682 53.5764 8.81326 49.1229 6.655 43.9124C4.49673 38.7019 3.93203 32.9684 5.03231 27.4369C6.13258 21.9055 8.84841 16.8245 12.8364 12.8365C16.8243 8.84858 21.9053 6.13275 27.4367 5.03247C32.9682 3.9322 38.7017 4.4969 43.9122 6.65517C49.1227 8.81343 53.5762 12.4683 56.7095 17.1577C59.8429 21.847 61.5153 27.3602 61.5153 33C61.5065 40.5601 58.4993 47.808 53.1536 53.1537C47.8078 58.4995 40.5599 61.5066 32.9998 61.5154ZM37.2404 22.6379C37.1775 27.0221 35.376 34.1412 34.141 38.529C34.0701 38.7771 33.9203 38.9954 33.7143 39.1507C33.5083 39.3061 33.2573 39.3902 32.9992 39.3902C32.7412 39.3902 32.4902 39.3061 32.2842 39.1507C32.0782 38.9954 31.9284 38.7771 31.8575 38.529C30.5999 34.0616 28.7569 26.7727 28.7569 22.4063C28.757 21.7927 28.8902 21.1863 29.1473 20.6291C29.4043 20.0719 29.7791 19.577 30.2458 19.1786C30.7125 18.7801 31.2601 18.4876 31.8507 18.3212C32.4414 18.1547 33.0611 18.1183 33.6672 18.2144C34.6946 18.4 35.6209 18.9491 36.277 19.7612C36.933 20.5734 37.275 21.5944 37.2404 22.6379ZM35.8154 45.0187C35.8154 45.577 35.6498 46.1227 35.3395 46.5868C35.0292 47.051 34.5882 47.4126 34.0723 47.626C33.5564 47.8394 32.9887 47.8949 32.4413 47.7855C31.8938 47.6762 31.391 47.4069 30.9967 47.0117C30.6023 46.6165 30.3341 46.1132 30.2259 45.5655C30.1177 45.0178 30.1744 44.4503 30.3889 43.9348C30.6033 43.4194 30.9659 42.9791 31.4307 42.6698C31.8954 42.3605 32.4415 42.196 32.9998 42.1972C33.7481 42.1972 34.4658 42.4944 34.9949 43.0236C35.5241 43.5527 35.8213 44.2704 35.8213 45.0187H35.8154Z" fill="#EB4747"/>
</svg>
