<svg width="40" height="40" viewBox="0 0 40 40" fill="none" xmlns="http://www.w3.org/2000/svg">
<path d="M37.4873 29.0064C36.3873 28.0158 34.3311 26.1564 29.0436 24.8908C27.7123 24.572 24.8873 23.822 20.2186 23.8033C17.1123 23.7908 12.6779 23.9908 8.91543 25.0376C7.23418 25.5064 7.56856 26.0095 8.77168 25.7908C10.5967 25.4595 11.9498 25.4876 13.7904 25.5251C14.4592 25.5376 16.3748 25.6626 17.9311 26.0064C19.3061 26.3126 20.3529 26.8251 20.6811 27.1345C20.9248 27.3658 21.6217 28.0314 21.4654 28.622C21.2311 29.5033 19.3467 29.2908 18.9842 30.3845C18.8467 30.797 19.0029 31.172 19.0342 31.2439C19.2748 31.7876 19.9061 32.0345 21.1498 32.2783C25.3342 33.1064 23.4561 32.9189 25.1998 33.0595C29.5279 33.4126 31.1217 33.2095 33.4154 34.1783C34.7373 34.7376 35.0248 35.147 35.0529 35.4876C35.0748 35.722 35.0217 36.5189 32.3279 37.7376C31.9717 37.9001 32.7467 38.7033 35.9686 37.0001C37.6373 35.8814 39.1279 34.2658 39.1623 32.2845C39.1873 30.9376 38.4998 29.9189 37.4873 29.0064Z" fill="#3FBFE7"/>
<path d="M35.0531 35.494C35.0218 35.1565 34.9249 34.8127 33.6687 34.2377C31.9156 33.4377 29.6812 33.3065 25.3562 32.919C23.0187 32.7096 23.0656 32.6565 21.1468 32.2815C19.9062 32.0377 19.2718 31.7908 19.0312 31.2471C18.9999 31.1752 18.8437 30.8002 18.9812 30.3877C19.3437 29.294 21.2312 29.5065 21.4624 28.6252C21.6187 28.0346 20.9218 27.369 20.6781 27.1377C20.3499 26.8252 19.3031 26.3158 17.9281 26.0096C16.3718 25.6627 14.4531 25.5408 13.7874 25.5283C11.7218 25.4846 10.4781 25.4658 8.76868 25.794C8.76868 25.794 4.36243 26.6377 1.7843 29.1158C1.17805 29.7658 0.615554 30.594 0.568679 31.6815C0.568679 31.6971 0.568679 31.7158 0.565554 31.7377C0.565554 31.7377 0.534304 32.9815 1.46243 34.2815C3.53118 37.1815 10.4874 38.6158 10.4874 38.6158C14.9187 39.5283 18.3031 39.5846 21.1343 39.619C24.5218 39.6565 27.9093 39.4565 31.2499 38.1877C31.6062 38.0533 31.9656 37.9096 32.3218 37.7471C35.0218 36.5252 35.0749 35.7283 35.0531 35.494Z" fill="#F7C977"/>
<path d="M28.4499 30.6439C28.7687 31.3095 30.978 31.6251 30.8624 32.3564C30.7468 33.0876 28.5593 32.7064 28.0374 33.2282C27.5124 33.7501 27.8843 35.9376 27.1562 36.0532C26.4249 36.1657 26.1093 33.972 25.453 33.6345C24.7937 33.297 22.8312 34.3282 22.4968 33.6689C22.1624 33.0095 24.153 32.0314 24.2687 31.3001C24.3843 30.5689 22.7999 29.022 23.3249 28.497C23.8468 27.9751 25.3905 29.5501 26.1249 29.4501C26.8749 29.3501 27.9718 27.3814 28.6312 27.7532C29.253 28.1126 28.1374 29.9907 28.4499 30.6439Z" fill="#F79329"/>
<path d="M12.9313 29.3657C12.8563 29.3501 12.7813 29.3282 12.7095 29.2938C12.4747 29.1871 12.2918 28.9916 12.201 28.7502C12.1102 28.5089 12.1189 28.2413 12.2251 28.0063L18.1782 14.8282C18.2852 14.5937 18.4807 14.411 18.722 14.3203C18.9633 14.2295 19.2307 14.238 19.4657 14.3438C19.9532 14.5657 20.172 15.1407 19.9501 15.6313L13.997 28.8126C13.9067 29.0106 13.7526 29.1726 13.5595 29.2728C13.3664 29.3731 13.1452 29.4058 12.9313 29.3657Z" fill="#78A3AD"/>
<path d="M24.7749 5.7127L24.6999 5.67832C24.728 5.69082 24.7562 5.70645 24.7843 5.71895L24.7749 5.7127ZM23.953 6.0127C24.6062 8.13145 25.9999 14.3189 23.2437 22.3752C23.2468 22.3627 23.253 22.3502 23.2562 22.3377C28.1405 21.0752 31.2374 23.7158 31.2999 23.7689C32.4062 14.0752 25.9687 7.33145 24.1468 5.6377L24.0687 5.8252C24.0405 5.9002 23.9999 5.95957 23.953 6.0127ZM22.8905 5.34082L22.9499 5.2002C20.4905 5.20332 12.2874 5.79082 6.93115 13.0752C7.07803 13.0908 11.003 13.8971 13.678 17.7096L13.6687 17.7346C16.7499 10.5252 21.0843 6.95957 22.8624 5.73145C22.8312 5.60645 22.8374 5.47207 22.8905 5.34082Z" fill="white"/>
<path d="M24.7842 5.7189C24.7561 5.7064 24.7279 5.69078 24.6998 5.67828C24.5404 5.60328 24.3842 5.5314 24.2217 5.45953L24.1467 5.64078C25.9686 7.33453 32.4061 14.0752 31.2998 23.772C31.2373 23.7158 28.1404 21.0783 23.2561 22.3408C23.2529 22.3533 23.2467 22.3658 23.2436 22.3783C25.9998 14.3189 24.6061 8.13453 23.9529 6.01578C23.8154 6.16578 23.6123 6.2439 23.4092 6.22203C23.2785 6.20806 23.1555 6.15354 23.0575 6.0661C22.9594 5.97867 22.8911 5.86272 22.8623 5.73453C21.0842 6.96265 16.7498 10.5283 13.6686 17.7377L13.6779 17.7127C10.9998 13.9002 7.07794 13.0939 6.93106 13.0752C12.2873 5.79078 20.4904 5.20328 22.9498 5.20015L23.0467 4.9689C14.8654 1.8189 6.34356 3.5314 1.53731 8.7689C1.22169 9.11265 1.29044 9.67828 1.67481 9.90953C2.84981 10.622 5.08419 12.1877 6.10606 14.3345C6.14044 14.347 11.2404 16.0627 12.9467 19.5783C12.9873 19.5814 18.7529 19.8627 22.8092 23.5658C22.8092 23.5689 22.8061 23.572 22.8061 23.572C22.8061 23.572 27.4248 22.2939 31.0967 25.1408C31.1061 25.0939 31.1123 25.0502 31.1186 25.0064L31.0998 25.1314C31.0998 25.1314 33.9279 23.5189 36.7717 24.5033C37.1404 24.6314 37.5248 24.3189 37.5217 23.9002C37.4748 16.7252 32.5592 9.4189 24.7842 5.7189Z" fill="#196CA2"/>
<path d="M22.9499 5.20311L22.8905 5.34373C22.8374 5.47186 22.8311 5.60623 22.8593 5.73436C22.9061 5.92811 23.0374 6.09686 23.2343 6.17811C23.2905 6.19998 23.3468 6.21561 23.4061 6.22186C23.5438 6.23616 23.6825 6.20594 23.8017 6.13563C23.9209 6.06532 24.0145 5.95863 24.0686 5.83123L24.1468 5.64373L24.2218 5.46248L24.9624 3.66873C25.0968 3.34373 24.9436 2.96873 24.6155 2.83436C24.2905 2.69998 23.9186 2.85623 23.7811 3.18123L23.0405 4.97186L22.9499 5.20311Z" fill="#78A3AD"/>
</svg>
