<svg width="56" height="56" viewBox="0 0 56 56" fill="none" xmlns="http://www.w3.org/2000/svg">
<path d="M56 28C56 43.4638 43.4638 56 28 56C12.5378 56 0 43.4638 0 28C0 12.5378 12.5378 0 28 0C43.4638 0 56 12.5378 56 28Z" fill="#FFCC4D" fill-opacity="0.5"/>
<path d="M17.8889 31.1115C20.0367 31.1115 21.7778 28.674 21.7778 25.6671C21.7778 22.6602 20.0367 20.2227 17.8889 20.2227C15.7411 20.2227 14 22.6602 14 25.6671C14 28.674 15.7411 31.1115 17.8889 31.1115Z" fill="#664500"/>
<path d="M38.1111 31.1115C40.2588 31.1115 41.9999 28.674 41.9999 25.6671C41.9999 22.6602 40.2588 20.2227 38.1111 20.2227C35.9633 20.2227 34.2222 22.6602 34.2222 25.6671C34.2222 28.674 35.9633 31.1115 38.1111 31.1115Z" fill="#664500"/>
<path d="M38.889 40.4441H17.1112C16.2526 40.4441 15.5557 39.7488 15.5557 38.8886C15.5557 38.0283 16.2526 37.333 17.1112 37.333H38.889C39.7492 37.333 40.4445 38.0283 40.4445 38.8886C40.4445 39.7488 39.7492 40.4441 38.889 40.4441Z" fill="#664500"/>
</svg>
