<svg width="20" height="20" viewBox="0 0 20 20" fill="none" xmlns="http://www.w3.org/2000/svg">
<path d="M18.0658 11.5791H2.29834V13.6949H18.0658V11.5791Z" fill="#F93E55"/>
<path d="M5.39234 4.42188H14.9717C15.1588 4.42188 15.3382 4.49618 15.4704 4.62846C15.6027 4.76073 15.677 4.94013 15.677 5.12719V9.04531H4.6875V5.12797C4.6874 5.03532 4.70555 4.94356 4.74092 4.85793C4.77629 4.77229 4.82818 4.69447 4.89364 4.6289C4.95909 4.56333 5.03683 4.51129 5.1224 4.47577C5.20797 4.44025 5.2997 4.42194 5.39234 4.42188Z" fill="#FFD576"/>
<path d="M4.66219 9.04492H15.7022C16.1741 9.04492 16.6267 9.23239 16.9604 9.56609C17.2941 9.89979 17.4816 10.3524 17.4816 10.8243V11.5777H2.88281V10.8243C2.88281 10.3524 3.07028 9.89979 3.40398 9.56609C3.73768 9.23239 4.19027 9.04492 4.66219 9.04492Z" fill="#FFC82C"/>
<path d="M4.40895 13.6943H3.13379V15.5771H4.40895V13.6943Z" fill="#F93E55"/>
<path d="M17.2302 13.6943H15.7734V15.5771H17.2302V13.6943Z" fill="#F93E55"/>
<path d="M4.40895 13.6943H3.13379V14.4071H4.40895V13.6943Z" fill="#D81E46"/>
<path d="M17.2302 13.6943H15.7734V14.4071H17.2302V13.6943Z" fill="#D81E46"/>
<path d="M9.40381 6.57422H6.20459V9.04562H9.40381V6.57422Z" fill="#FFF5DC"/>
<path d="M14.1597 6.57422H10.9604V9.04562H14.1597V6.57422Z" fill="#FFF5DC"/>
</svg>
