<svg width="47" height="43" viewBox="0 0 47 43" fill="none" xmlns="http://www.w3.org/2000/svg">
<path d="M6.13043 6.14286V0H10.2174V6.14286H16.3478V10.2381H10.2174V16.381H6.13043V10.2381H0V6.14286H6.13043ZM12.2609 18.4286V12.2857H18.3913V6.14286H32.6957L36.3739 10.2381H42.913C45.1609 10.2381 47 12.081 47 14.3333V38.9048C47 41.1571 45.1609 43 42.913 43H10.2174C7.96956 43 6.13043 41.1571 6.13043 38.9048V18.4286H12.2609ZM26.5652 36.8571C35.6587 36.8571 40.2361 25.841 33.7991 19.3705C27.3622 12.9205 16.3478 17.5071 16.3478 26.619C16.3478 32.2705 20.9252 36.8571 26.5652 36.8571ZM20.0261 26.619C20.0261 32.4548 27.0761 35.3829 31.1835 31.2467C35.3113 27.131 32.3891 20.0667 26.5652 20.0667C22.9687 20.0667 20.0261 23.0152 20.0261 26.619Z" fill="#505050"/>
</svg>
