<svg width="72" height="72" viewBox="0 0 72 72" fill="none" xmlns="http://www.w3.org/2000/svg">
<circle cx="36" cy="36" r="36" fill="#155B9F" fill-opacity="0.1"/>
<path opacity="0.4" fill-rule="evenodd" clip-rule="evenodd" d="M23.8217 20.0098C23.5007 20.1725 23.3069 20.4931 23.3069 20.8615C23.3069 21.2299 23.5007 21.5505 23.8217 21.7132C24.0275 21.8176 24.2934 21.8252 27.202 21.8096C30.2766 21.7931 30.3634 21.7892 30.536 21.6603C30.8542 21.4225 30.9705 21.2087 30.9705 20.8615C30.9705 20.5143 30.8542 20.3005 30.536 20.0627C30.3634 19.9338 30.2766 19.9299 27.202 19.9134C24.2934 19.8978 24.0275 19.9054 23.8217 20.0098ZM48.9211 20.0071C48.7982 20.0708 48.6321 20.2212 48.552 20.3412C48.4251 20.5312 48.4062 20.6412 48.4062 21.1921V21.8248L47.8125 21.8249C47.1239 21.825 46.8547 21.9255 46.6262 22.2678C46.3208 22.7251 46.4997 23.3898 46.9953 23.6388C47.1597 23.7215 47.3753 23.7512 47.8125 23.7512L48.4062 23.7513V24.384C48.4062 24.9349 48.4251 25.045 48.552 25.2349C48.9426 25.82 49.7178 25.8064 50.1654 25.2066C50.2701 25.0662 50.3005 24.9085 50.321 24.3976L50.3465 23.7629L50.9766 23.7411C51.4909 23.7233 51.6394 23.6949 51.7839 23.5868C52.1021 23.349 52.2183 23.1352 52.2183 22.7881C52.2183 22.4409 52.1021 22.2272 51.7839 21.9893C51.6394 21.8812 51.4909 21.8528 50.9766 21.8351L50.3465 21.8132L50.321 21.1785C50.2938 20.5004 50.2281 20.3392 49.87 20.0717C49.6325 19.8944 49.1957 19.8646 48.9211 20.0071ZM19.9059 23.8629C19.5849 24.0256 19.3911 24.3462 19.3911 24.7146C19.3911 25.083 19.5849 25.4036 19.9059 25.5664C20.1118 25.6707 20.3792 25.6783 23.3183 25.6627C26.4253 25.6462 26.5117 25.6424 26.6844 25.5134C27.0026 25.2756 27.119 25.0619 27.119 24.7146C27.119 24.3674 27.0026 24.1536 26.6844 23.9159C26.5117 23.7869 26.4253 23.783 23.3183 23.7666C20.3792 23.751 20.1118 23.7585 19.9059 23.8629ZM43.0795 47.1074C42.9567 47.1712 42.7905 47.3215 42.7104 47.4415C42.5836 47.6315 42.5647 47.7415 42.5647 48.2924V48.9251L41.9709 48.9252C41.2824 48.9253 41.0132 49.0258 40.7846 49.3681C40.4793 49.8254 40.6582 50.4901 41.1537 50.7391C41.3182 50.8219 41.5338 50.8515 41.9709 50.8515L42.5647 50.8517V51.4843C42.5647 52.0352 42.5836 52.1453 42.7104 52.3352C43.1011 52.9203 43.8762 52.9067 44.3238 52.3069C44.4286 52.1665 44.459 52.0088 44.4794 51.4979L44.5049 50.8632L45.1351 50.8414C45.6493 50.8236 45.7979 50.7952 45.9424 50.6871C46.2605 50.4493 46.3768 50.2355 46.3768 49.8884C46.3768 49.5412 46.2605 49.3275 45.9424 49.0896C45.7979 48.9815 45.6493 48.9532 45.1351 48.9354L44.5049 48.9135L44.4794 48.2789C44.4522 47.6007 44.3865 47.4395 44.0284 47.1721C43.791 46.9947 43.3542 46.9649 43.0795 47.1074Z" fill="#2C2B46"/>
<path fill-rule="evenodd" clip-rule="evenodd" d="M36.2416 21.4211C35.4089 21.5338 34.2526 21.9836 33.4975 22.4888C32.7077 23.017 29.3264 26.4364 28.9884 27.0484C28.5923 27.7658 28.4325 28.3575 28.3958 29.2426L28.3637 30.0132L31.0509 27.3445C33.8975 24.5176 34.0092 24.4246 34.8571 24.1754C35.3098 24.0424 36.2105 24.0424 36.6632 24.1754C37.5749 24.4433 38.3598 25.1009 38.7667 25.9374L39.0025 26.4221L39.4516 26.2666C40.0894 26.0456 40.9394 26.0469 41.5761 26.27C43.5093 26.9469 44.3799 28.9592 43.5708 30.8802C43.5405 30.952 43.6563 31.0362 44.0263 31.2113C45.6509 31.98 46.3455 33.9123 45.6182 35.6396C45.5841 35.7208 45.6817 35.7941 46.0695 35.9783C46.6701 36.2636 47.3199 36.8904 47.5872 37.4422C48.0915 38.4835 48.0808 39.5986 47.5566 40.6041C47.3936 40.9168 46.9531 41.398 45.344 43.0206C44.239 44.1349 43.3349 45.0706 43.3349 45.1C43.3349 45.1294 43.7177 45.1395 44.1854 45.1224C44.886 45.0968 45.1266 45.0608 45.5495 44.9177C46.5308 44.5858 46.808 44.3716 48.7481 42.4463C50.6665 40.5425 51.0114 40.1397 51.4489 39.2928C52.3787 37.4926 52.4424 35.2305 51.6149 33.4046C51.1091 32.2887 51.1043 32.2833 46.262 27.424C41.2924 22.4369 41.2208 22.3733 40.0258 21.885C39.1285 21.5184 38.3363 21.3737 37.2907 21.3854C36.8196 21.3907 36.3475 21.4067 36.2416 21.4211ZM35.1428 26.1146C35.0327 26.1749 32.7218 28.4284 30.0073 31.1223C25.2971 35.797 25.07 36.0123 25.0277 35.8424C25.0033 35.7445 24.91 34.3351 24.8204 32.7104L24.6574 29.7563L24.4475 29.3414C23.8423 28.145 22.2355 27.916 21.3474 28.8995C20.9577 29.331 20.8814 29.5849 20.7699 30.8214C20.5833 32.8902 20.4592 33.9151 19.9351 37.7195C19.4379 41.328 19.4274 41.441 19.4251 43.2102C19.4234 44.574 19.4434 44.9443 19.5443 45.4257C19.9081 47.1612 20.6881 48.5487 22.083 49.9417C23.4383 51.2952 25.0893 52.1804 27.0299 52.5943C27.9126 52.7825 29.6967 52.8016 30.607 52.6325C31.8935 52.3935 33.1945 51.8661 34.3111 51.1311C34.8968 50.7454 35.467 50.1968 40.3654 45.3059C43.5128 42.1634 45.8188 39.8118 45.8825 39.6799C45.9426 39.5553 46.0031 39.28 46.017 39.0681C46.0678 38.2927 45.4991 37.6373 44.7194 37.5727C44.0675 37.5186 44.0631 37.5219 41.7622 39.809C39.4856 42.0718 39.4928 42.0663 38.9442 41.9634C38.3347 41.849 38.025 41.1641 38.3235 40.5907C38.3917 40.4597 39.6368 39.1676 41.0904 37.7195C42.8467 35.9696 43.7736 35.0003 43.8536 34.8296C44.0995 34.305 43.9644 33.5666 43.5516 33.1794C43.1655 32.8171 42.498 32.6994 42.0008 32.9058C41.8384 32.9732 40.8801 33.8849 39.0019 35.7586C36.5884 38.1662 36.2114 38.5178 36.0009 38.5565C35.2426 38.6958 34.6883 38.1413 34.827 37.3823C34.8657 37.1706 35.2849 36.7261 38.2939 33.7058C40.1766 31.8162 41.759 30.1834 41.8106 30.0774C41.959 29.7724 41.99 29.4889 41.9144 29.128C41.8568 28.8526 41.7844 28.7344 41.5071 28.4631C41.012 27.9786 40.4594 27.8858 39.8685 28.1879C39.7449 28.2511 38.1561 29.7949 36.3379 31.6187C34.5196 33.4424 32.9248 34.9904 32.7938 35.0587C32.2206 35.3574 31.536 35.0476 31.4217 34.4378C31.3165 33.8769 31.2557 33.9521 34.2217 30.9765C36.0947 29.0975 37.0059 28.1388 37.0733 27.9763C37.37 27.2614 37.0226 26.3912 36.3239 26.0993C36.0068 25.9668 35.398 25.9747 35.1428 26.1146Z" fill="#27AE60"/>
</svg>
