<svg width="44" height="44" viewBox="0 0 44 44" fill="none" xmlns="http://www.w3.org/2000/svg">
<path fill-rule="evenodd" clip-rule="evenodd" d="M28.3927 10.1971L28.6327 8.58647C28.6566 8.43094 28.6245 8.26529 28.5392 8.14585C28.4581 8.01984 28.3324 7.94922 28.2026 7.94922H14.8787C14.7457 7.94922 14.6233 8.02509 14.538 8.14585C14.4569 8.27037 14.4248 8.43602 14.4486 8.59659L14.7042 10.1971H28.3927H28.3927Z" fill="#0288D1"/>
<path fill-rule="evenodd" clip-rule="evenodd" d="M30.0144 11.6883L30.3111 10.0777C30.3406 9.92215 30.301 9.75651 30.1955 9.63706C30.0952 9.51105 29.9399 9.44043 29.7793 9.44043H13.3031C13.1386 9.44043 12.9872 9.5163 12.8817 9.63706C12.7814 9.76158 12.7418 9.92723 12.7712 10.0878L13.0873 11.6883H30.0144H30.0144Z" fill="#039BE5"/>
<path fill-rule="evenodd" clip-rule="evenodd" d="M32.0961 13.5485L32.462 11.9634C32.4978 11.8028 32.462 11.6321 32.3568 11.501C32.2561 11.3765 32.101 11.3008 31.9353 11.3008H11.1601C10.9907 11.3008 10.8354 11.3765 10.7285 11.5115C10.6234 11.6424 10.5884 11.8171 10.6284 11.9827L11.0149 13.5485H32.0961H32.0961Z" fill="#29B6F6"/>
<path fill-rule="evenodd" clip-rule="evenodd" d="M21.9523 13.5352H10.3933C8.02501 13.5352 6.09863 15.4565 6.09863 17.825L7.62422 27.9834L21.9523 27.9217V13.5352L21.9523 13.5352Z" fill="#81D4FA"/>
<path fill-rule="evenodd" clip-rule="evenodd" d="M34.4245 27.868H36.4512L37.8063 17.825C37.8063 15.4565 35.8837 13.5352 33.5114 13.5352H21.9759H21.9526V27.9217L21.9623 27.9216L34.4245 27.868L34.4245 27.868Z" fill="#81D4FA"/>
<path fill-rule="evenodd" clip-rule="evenodd" d="M28.6362 26.2643C28.9831 26.2643 29.311 25.992 29.3667 25.6499L29.5241 24.6411C29.5798 24.2814 29.3298 23.9854 28.964 23.9854H22.0933C21.894 24.6839 21.4361 25.4003 20.8162 25.5848C20.7985 25.618 20.7746 25.6499 20.7568 25.6817L20.7615 26.2643H28.6362V26.2643Z" fill="#0288D1"/>
<path fill-rule="evenodd" clip-rule="evenodd" d="M30.0557 21.2349L30.2403 20.0561C30.3053 19.6311 30.0379 19.2842 29.6451 19.2842H21.0796C21.3249 19.8762 21.4965 20.589 21.5557 21.4433C21.7319 21.5543 21.8612 21.7393 21.9677 21.9618H29.2554C29.6355 21.9618 29.9906 21.6374 30.0557 21.2349L30.0557 21.2349Z" fill="#0288D1"/>
<path fill-rule="evenodd" clip-rule="evenodd" d="M14.0923 23.3244C14.1657 23.9528 14.7485 24.8454 15.1508 24.8454C15.2019 24.8454 15.2481 24.8325 15.2858 24.8091C15.5817 25.3454 15.9465 25.8211 16.3536 26.1963H19.3964C19.7667 25.8175 20.0852 25.3262 20.3125 24.7819C20.3683 24.8184 20.4225 24.8454 20.4832 24.8454C20.8857 24.8454 21.3658 23.9528 21.3706 23.3244C21.3753 22.686 21.3196 22.1547 20.8951 22.1547C20.8488 22.1547 20.7935 22.1644 20.7375 22.177C20.7007 20.3283 20.2202 17.8447 17.3849 17.8447C14.7447 17.8447 14.365 20.3236 14.5411 22.1691C14.5035 22.1644 14.4621 22.1547 14.4252 22.1547C14.0048 22.1547 14.0132 22.686 14.0923 23.3244L14.0923 23.3244Z" fill="#0288D1"/>
<path fill-rule="evenodd" clip-rule="evenodd" d="M7.27788 27.8008C6.86167 27.8008 6.45976 28.0287 6.1835 28.4156C5.90853 28.8027 5.78815 29.3184 5.84806 29.828L5.98113 30.5272L5.98562 30.5508H38.0148L38.0151 30.5491L38.1518 29.828C38.2121 29.3184 38.0913 28.8027 37.8152 28.4156C37.5405 28.0223 37.1436 27.8008 36.7223 27.8008H7.27794H7.27788ZM5.98562 30.5508L7.0324 36.0508H36.9724L38.0147 30.5508H5.98555H5.98562Z" fill="#0288D1"/>
</svg>
