<svg width="22" height="34" viewBox="0 0 22 34" fill="none" xmlns="http://www.w3.org/2000/svg">
<path fill-rule="evenodd" clip-rule="evenodd" d="M4.52427 0.981984C4.2865 1.09205 4.07332 1.31862 3.98293 1.55726C3.93864 1.6742 3.91444 2.63163 3.91444 4.26735V6.79667L2.31418 6.81587C0.553499 6.837 0.556324 6.83636 0.227336 7.27722C0.099592 7.44843 0.0949707 7.53236 0.0949707 9.69281C0.0949707 11.8533 0.099592 11.9372 0.227336 12.1084C0.507345 12.4836 0.664549 12.5488 1.34576 12.5724L1.97774 12.5943L2.00593 15.5586C2.03205 18.3022 2.04451 18.5695 2.17315 19.1486C2.55715 20.8777 3.31251 22.258 4.55509 23.5011C5.56471 24.5112 6.63827 25.1818 7.93714 25.6139C8.49485 25.7994 9.37609 26.0044 9.61611 26.0044C9.71894 26.0044 9.75111 26.0835 9.81838 26.5021C10.0205 27.7595 10.6711 29.2776 11.4517 30.3129C12.9715 32.3288 15.3372 33.5977 17.8641 33.7524C18.42 33.7864 18.5632 33.7748 18.7638 33.6796C19.4165 33.3697 19.5032 32.4452 18.9185 32.0287C18.7652 31.9196 18.5803 31.8795 18.0345 31.837C15.511 31.6408 13.417 30.261 12.3505 28.0915C12.0694 27.5196 11.6818 26.3471 11.6818 26.0685C11.6818 26.0422 11.9373 25.9739 12.2496 25.9168C13.9243 25.6103 15.4011 24.8392 16.6671 23.6104C18.0734 22.2454 18.9397 20.5783 19.2273 18.6834C19.297 18.2246 19.3201 17.3944 19.3203 15.3338L19.3207 12.5943L19.9787 12.5724C20.535 12.5539 20.6677 12.5284 20.8374 12.4073C21.2355 12.1232 21.2465 12.0503 21.2465 9.69281C21.2465 7.33527 21.2355 7.26238 20.8374 6.97828C20.6444 6.8406 20.5739 6.8343 19.0158 6.81594L17.3949 6.7968V4.22477C17.3949 1.38207 17.3921 1.3601 16.9858 1.07016C16.8403 0.966314 16.6937 0.926948 16.4528 0.926948C16.0938 0.926948 15.8759 1.04453 15.6336 1.36903C15.5057 1.5403 15.5006 1.6349 15.4831 4.17462L15.465 6.80296H10.6526H5.84022V4.22786C5.84022 1.3917 5.83605 1.35888 5.44127 1.07767C5.2042 0.908774 4.77847 0.864335 4.52427 0.981984ZM11.0796 12.6869C11.4785 12.8763 11.7035 13.3876 11.5889 13.8444C11.5641 13.9431 11.2863 14.2852 10.9642 14.6138L10.3841 15.2056L11.7994 15.918C13.263 16.6548 13.4429 16.7871 13.5167 17.1808C13.6125 17.6914 13.5425 17.8015 12.3662 18.9922C11.7603 19.6056 11.1865 20.1483 11.0912 20.1982C10.5416 20.4857 9.79944 20.0619 9.71214 19.4108C9.66457 19.056 9.79989 18.8212 10.4181 18.1861C10.7016 17.8949 10.9213 17.6456 10.9064 17.6321C10.8916 17.6187 10.2392 17.2861 9.45672 16.8931C8.08004 16.2018 8.02978 16.1697 7.90004 15.9017C7.61265 15.3077 7.74553 15.0641 9.07227 13.752C9.64956 13.1812 10.1912 12.6864 10.2759 12.6525C10.5124 12.5578 10.8369 12.5717 11.0796 12.6869Z" fill="#FFD038"/>
</svg>
