<svg width="14" height="14" viewBox="0 0 14 14" fill="none" xmlns="http://www.w3.org/2000/svg">
<path d="M1.19291 11.4198H2.01531C2.20365 11.4198 2.27898 11.3821 2.4171 11.2754L2.83772 10.9552C3.07 11.1875 3.41528 11.2377 3.76057 11.0871L5.83855 10.2207C5.9955 10.1579 6.07711 10.0952 6.17756 9.99471L12.242 3.9742C12.8447 3.37152 12.8447 2.64956 12.2357 2.03433L10.8734 0.665747C10.2645 0.0567902 9.54252 0.0505123 8.93984 0.653191L2.87538 6.66742C2.76866 6.77415 2.71216 6.84948 2.6431 7.01271L1.7642 9.08441C1.6198 9.41714 1.65747 9.74359 1.88975 10.001L0.985735 10.9364C0.79112 11.1436 0.885289 11.4198 1.19291 11.4198ZM9.63668 1.48187C9.79991 1.32493 9.99452 1.31865 10.1452 1.4756L11.4259 2.76257C11.5828 2.91951 11.5766 3.10785 11.4071 3.27108L10.999 3.67914L9.22234 1.89622L9.63668 1.48187ZM3.98657 7.1006L8.54433 2.57423L10.3147 4.35715L5.76322 8.88352L3.98657 7.1006ZM3.63501 9.97587C3.51573 10.0198 3.43412 10.0198 3.32739 9.9131L2.93189 9.52387C2.83144 9.42342 2.83144 9.32925 2.87538 9.22253L3.4404 7.91045L4.94709 9.4297L3.63501 9.97587ZM0.979457 13.6484H13.0268C13.3281 13.6484 13.5729 13.3911 13.5729 13.0897C13.5729 12.7884 13.3281 12.5373 13.0268 12.5373H0.979457C0.67184 12.5373 0.427002 12.7884 0.427002 13.0897C0.427002 13.3911 0.678118 13.6484 0.979457 13.6484Z" fill="#505050"/>
</svg>
