<svg width="72" height="72" viewBox="0 0 72 72" fill="none" xmlns="http://www.w3.org/2000/svg">
<circle cx="36" cy="36" r="36" fill="#155B9F" fill-opacity="0.7"/>
<path fill-rule="evenodd" clip-rule="evenodd" d="M19.3144 23.1319C18.9063 23.2587 18.3595 23.7669 18.1629 24.202C18.0171 24.5249 18.01 24.6042 18.01 25.9212C18.01 27.2381 18.0171 27.3175 18.1629 27.6403C18.3717 28.1026 18.907 28.5863 19.3532 28.716C19.6455 28.8011 20.2733 28.8121 23.9223 28.7968L28.1525 28.7789L28.4813 28.6053C28.891 28.3892 29.2987 27.9336 29.4315 27.5437C29.5774 27.1153 29.5774 24.727 29.4315 24.2986C29.2987 23.9088 28.891 23.4532 28.4813 23.237L28.1525 23.0634L23.8836 23.051C20.3037 23.0405 19.5664 23.0536 19.3144 23.1319ZM45.9544 23.5801C45.5459 23.7089 44.9988 24.218 44.8029 24.6516L44.65 24.99V29.2606V33.5311L44.8029 33.8695C44.8974 34.0786 45.0893 34.33 45.3051 34.5274C45.8283 35.0057 46.0579 35.0541 47.6834 35.0288C48.9876 35.0086 49.0219 35.0045 49.344 34.8345C49.5249 34.7391 49.7899 34.528 49.933 34.3654C50.41 33.8233 50.3953 33.9856 50.3953 29.2606C50.3953 24.5355 50.41 24.6978 49.933 24.1557C49.7899 23.9931 49.5249 23.782 49.344 23.6866C49.0191 23.5151 48.9984 23.5128 47.635 23.4992C46.5662 23.4884 46.187 23.5067 45.9544 23.5801ZM40.8305 24.4888C37.0993 24.8885 33.978 27.6257 33.0922 31.2748C32.8446 32.2949 32.7984 33.367 32.8193 37.609L32.8385 41.4942L37.637 41.5107L42.4354 41.5272V37.802V34.077H42.627H42.8185L42.7714 33.6756C42.7099 33.1525 42.7099 25.3686 42.7714 24.8455L42.8185 24.4441L41.9369 24.4544C41.452 24.4601 40.9541 24.4756 40.8305 24.4888ZM20.5689 39.3103C20.4228 39.3635 20.004 39.5361 19.6381 39.6937L18.9729 39.9805L18.9539 42.1823C18.9274 45.2469 19.0512 46.3617 19.5934 47.9431C20.6111 50.9113 22.7976 53.3848 25.5847 54.721C26.4777 55.1491 26.8804 55.2971 27.7955 55.5332C31.0354 56.3693 34.4478 55.7772 37.2679 53.8898C40.4786 51.7408 42.4354 48.1079 42.4354 44.2956V43.4529H37.6267H32.8181L32.7942 44.1111C32.7663 44.8773 32.6388 45.21 32.206 45.6454C31.79 46.0639 31.339 46.2463 30.7202 46.2463C29.8455 46.2463 29.1927 45.8441 28.8118 45.0705L28.6018 44.6441L28.5697 42.3034L28.5376 39.9627L27.7194 39.6177C26.5332 39.1176 26.4453 39.1154 25.4899 39.5643C24.4568 40.0498 23.9298 40.1612 23.2866 40.03C23.0131 39.9742 22.5256 39.7933 22.1159 39.5956C21.338 39.2202 20.9918 39.1564 20.5689 39.3103Z" fill="white"/>
<path opacity="0.4" fill-rule="evenodd" clip-rule="evenodd" d="M18.9412 34.2309C18.9412 36.2303 18.9565 37.8661 18.9753 37.8661C18.9941 37.8661 19.1169 37.8199 19.2481 37.7634C19.893 37.4857 20.4218 37.343 20.9311 37.309C21.4088 37.2772 21.5389 37.2936 21.9758 37.441C22.2503 37.5336 22.7124 37.7288 23.0026 37.8749C23.2981 38.0235 23.6295 38.1429 23.7557 38.1462C23.9058 38.1502 24.2383 38.03 24.751 37.7868C25.1745 37.5858 25.6509 37.3921 25.8098 37.3564C26.4632 37.2092 27.3245 37.3357 28.1447 37.699C28.3521 37.7909 28.5327 37.8661 28.5459 37.8661C28.5592 37.8661 28.5701 36.2373 28.5701 34.2466V30.627L28.2512 30.6849C27.8507 30.7578 19.2064 30.7256 19.0535 30.6507C18.9472 30.5986 18.9412 30.7906 18.9412 34.2309Z" fill="white"/>
</svg>
