<svg width="16" height="16" viewBox="0 0 16 16" fill="none" xmlns="http://www.w3.org/2000/svg">
<path d="M11.5215 11.4212C11.5135 11.3636 11.4671 11.2916 11.4175 11.242C11.2767 11.1028 10.9631 11.0292 10.4863 11.0228C10.1631 11.0196 9.77592 11.0468 9.36632 11.1044C9.18392 10.9988 8.99512 10.8836 8.84632 10.746C8.44792 10.3748 8.11672 9.85798 7.90872 9.29157C7.92152 9.23878 7.93432 9.19237 7.94392 9.14437C7.94392 9.14437 8.16792 7.87077 8.10872 7.44037C8.10072 7.38117 8.09592 7.36357 8.07992 7.31877L8.06072 7.26917C7.99992 7.12837 7.87992 6.97958 7.69272 6.98758L7.57912 6.98438C7.36952 6.98438 7.19992 7.09158 7.15512 7.25158C7.01912 7.75238 7.15992 8.50277 7.41432 9.47397L7.34872 9.63237C7.16632 10.0756 6.93912 10.522 6.73752 10.9172L6.71192 10.9684C6.50072 11.3828 6.30872 11.7348 6.13432 12.0324L5.95512 12.1268C5.94232 12.1332 5.63352 12.2964 5.56152 12.3412C4.95032 12.7044 4.54392 13.1204 4.47672 13.45C4.45592 13.5556 4.47192 13.69 4.58072 13.7524L4.75512 13.8404C4.83032 13.8788 4.91032 13.898 4.99192 13.898C5.42872 13.898 5.93592 13.354 6.63352 12.1348C7.43992 11.8724 8.35832 11.6548 9.16312 11.5332C9.77592 11.8788 10.5311 12.1188 11.0063 12.1188C11.0911 12.1188 11.1631 12.1108 11.2223 12.0948C11.3135 12.0708 11.3903 12.018 11.4367 11.9476C11.5279 11.8084 11.5471 11.618 11.5215 11.4212ZM4.89592 13.5652C4.97592 13.3476 5.29111 12.9172 5.75672 12.5348C5.78552 12.5108 5.85751 12.4436 5.92472 12.3812C5.43672 13.1588 5.11032 13.4692 4.89592 13.5652ZM7.65592 7.20837C7.79672 7.20837 7.87672 7.56197 7.88312 7.89317C7.88952 8.22437 7.81272 8.45797 7.71672 8.62917C7.63672 8.37477 7.59832 7.97157 7.59832 7.70917C7.59672 7.71077 7.59192 7.20837 7.65592 7.20837ZM6.83192 11.7396C6.92952 11.5652 7.03192 11.3796 7.13592 11.1844C7.38872 10.7044 7.54872 10.33 7.66872 10.0212C7.90552 10.4516 8.20152 10.8196 8.54872 11.1124C8.59192 11.1492 8.63832 11.186 8.68632 11.2228C7.97912 11.362 7.36952 11.5332 6.83192 11.7396ZM11.2815 11.6996C11.2383 11.7268 11.1151 11.7428 11.0367 11.7428C10.7807 11.7428 10.4655 11.626 10.0207 11.4356C10.1903 11.4228 10.3471 11.4164 10.4879 11.4164C10.7439 11.4164 10.8207 11.4148 11.0703 11.4788C11.3215 11.5428 11.3247 11.6724 11.2815 11.6996Z" fill="#EB4747"/>
<path d="M14.7264 4.67696L10.3408 0.323356C10.2432 0.225756 10.0784 0.160156 9.91516 0.160156H2.74556C2.28796 0.160156 1.86236 0.355356 1.59996 0.617756C1.30556 0.913756 1.10876 1.30576 1.10876 1.76496V14.237C1.10876 14.6946 1.30556 15.1202 1.59996 15.3506C1.89436 15.645 2.28636 15.8402 2.74556 15.8402H13.2528C13.712 15.8402 14.104 15.677 14.3984 15.3826C14.7248 15.0882 14.8896 14.6626 14.8896 14.237V5.10256C14.8912 4.97296 14.8576 4.80976 14.7264 4.67696ZM10.2432 1.99376L13.024 4.77456V4.80816H10.896C10.7328 4.80816 10.568 4.74256 10.4368 4.61136L10.4032 4.57776C10.3056 4.44816 10.24 4.28336 10.24 4.12016V1.99376H10.2432ZM13.7488 14.3122C13.7488 14.4434 13.6832 14.5426 13.616 14.6098C13.5504 14.677 13.4176 14.7426 13.3184 14.7426H2.68156C2.54876 14.7426 2.44956 14.6754 2.38396 14.6098C2.28476 14.5426 2.25116 14.4114 2.25116 14.3122V1.68816C2.25116 1.58896 2.28476 1.48816 2.38396 1.42256C2.44956 1.32176 2.54876 1.28976 2.68156 1.28976H9.54076V4.07376C9.54076 4.43856 9.70716 4.76976 9.93756 5.03536V5.06736C10.2032 5.29936 10.5344 5.46576 10.9312 5.46576H13.7136H13.7472V14.3122H13.7488Z" fill="#EB4747"/>
</svg>
