<svg width="24" height="24" viewBox="0 0 24 24" fill="none" xmlns="http://www.w3.org/2000/svg">
<path d="M1.79005 0.773189L22.86 10.8502C23.073 10.9519 23.2528 11.1118 23.3787 11.3114C23.5046 11.511 23.5714 11.7422 23.5714 11.9782C23.5714 12.2142 23.5046 12.4454 23.3787 12.645C23.2528 12.8446 23.073 13.0045 22.86 13.1062L1.79005 23.1832C1.57405 23.2866 1.33288 23.3259 1.09523 23.2962C0.857575 23.2665 0.633449 23.1692 0.449515 23.0158C0.265581 22.8625 0.129582 22.6595 0.0577004 22.431C-0.0141815 22.2026 -0.0189206 21.9583 0.0440471 21.7272L2.15205 13.9992C2.17785 13.9045 2.23096 13.8195 2.30476 13.7547C2.37856 13.69 2.46978 13.6484 2.56705 13.6352L12.777 12.2482C12.8197 12.2421 12.8601 12.2251 12.8943 12.1988C12.9284 12.1726 12.9552 12.1379 12.972 12.0982L12.99 12.0362C12.9979 11.9804 12.9867 11.9235 12.9582 11.8748C12.9297 11.8262 12.8856 11.7886 12.833 11.7682L12.778 11.7532L2.57805 10.3662C2.48096 10.3528 2.38996 10.3111 2.31635 10.2464C2.24275 10.1817 2.18978 10.0968 2.16405 10.0022L0.0440471 2.23019C-0.0191756 1.99905 -0.0146294 1.75461 0.0571442 1.52599C0.128918 1.29736 0.264894 1.09419 0.448877 0.940656C0.63286 0.787126 0.857095 0.689714 1.09488 0.660024C1.33266 0.630333 1.57396 0.669614 1.79005 0.773189Z" fill="#155B9F"/>
</svg>
