<svg width="54" height="54" viewBox="0 0 54 54" fill="none" xmlns="http://www.w3.org/2000/svg">
<circle cx="27" cy="27" r="27" fill="#90A7DA"/>
<circle cx="27" cy="27" r="23" fill="#155B9F"/>
<path d="M26.9701 39.9403C28.7028 39.9403 30.3853 39.5887 31.9297 38.9358C31.3396 38.2955 30.8876 37.5421 30.5611 36.7386C29.4436 37.1529 28.2383 37.3915 26.9701 37.3915C21.1945 37.3915 16.5614 32.7458 16.5614 26.9701C16.5614 21.1945 21.1819 16.5614 26.9576 16.5614C32.1808 16.5614 36.4874 20.3783 37.2408 25.3881C38.0193 25.2626 39.0488 25.3002 39.8398 25.5011C39.0991 19.0725 33.5619 14 26.9576 14C19.851 14 14 19.8761 14 26.9701C14 34.0767 19.8636 39.9403 26.9701 39.9403ZM20.6169 28.5271H26.9576C27.5226 28.5271 27.9495 28.0876 27.9495 27.5352V19.2985C27.9495 18.7461 27.5226 18.3066 26.9576 18.3066C26.4051 18.3066 25.9657 18.7461 25.9657 19.2985V26.5432H20.6169C20.0519 26.5432 19.625 26.9701 19.625 27.5352C19.625 28.0876 20.0519 28.5271 20.6169 28.5271Z" fill="white"/>
<path d="M35.5812 38.4286C38.7131 38.4286 41.2982 35.8422 41.2982 32.7143C41.2982 29.5863 38.7076 27 35.5756 27C32.4492 27 29.8696 29.5863 29.8696 32.7143C29.8696 35.8422 32.4547 38.4286 35.5812 38.4286ZM37.3708 34.223C37.0781 34.223 36.8903 34.024 36.8903 33.7035V32.7972L36.9676 31.9737L36.2053 32.8138L34.2168 34.8033C34.1063 34.9138 33.9738 34.9691 33.8136 34.9691C33.5208 34.9691 33.3054 34.7646 33.3054 34.4551C33.3054 34.3169 33.3661 34.1788 33.4711 34.0793L35.4707 32.0788L36.3158 31.3106L35.537 31.399H34.5758C34.261 31.399 34.0511 31.2111 34.0511 30.9182C34.0511 30.6253 34.2555 30.4374 34.5703 30.4374H37.2548C37.6194 30.4374 37.8459 30.6253 37.8459 31.0287V33.6925C37.8459 34.0075 37.6581 34.223 37.3708 34.223Z" fill="white"/>
</svg>
