<svg width="21" height="22" viewBox="0 0 21 22" fill="none" xmlns="http://www.w3.org/2000/svg">
<path fill-rule="evenodd" clip-rule="evenodd" d="M19.1391 9.625H11.6663V1.375C11.6663 0.614625 11.1083 0 10.4208 0C9.7333 0 9.17533 0.614625 9.17533 1.375V9.625H1.7025C1.015 9.625 0.457031 10.2396 0.457031 11C0.457031 11.7604 1.015 12.375 1.7025 12.375H9.17533V20.625C9.17533 21.3854 9.7333 22 10.4208 22C11.1083 22 11.6663 21.3854 11.6663 20.625V12.375H19.1391C19.8266 12.375 20.3846 11.7604 20.3846 11C20.3846 10.2396 19.8266 9.625 19.1391 9.625Z" fill="#475569"/>
</svg>
