<svg width="20" height="20" viewBox="0 0 20 20" fill="none" xmlns="http://www.w3.org/2000/svg">
<path d="M16.6667 0L15.6286 2.29524L13.3333 3.33333L15.6286 4.37143L16.6667 6.66667L17.7143 4.37143L20 3.33333L17.7143 2.29524M9.52381 0.952381C4.28571 0.952381 0 5.2381 0 10.4762V20H19.0476V10.4762C19.0476 9.07619 18.7333 7.74286 18.1905 6.54286L17.0095 9.11429C17.0952 9.5619 17.1429 10 17.1429 10.4762C17.1429 14.6952 13.7429 18.0952 9.52381 18.0952C5.30476 18.0952 1.90476 14.6952 1.90476 10.4762V10.3429C3.1322 9.88819 4.25187 9.18363 5.19287 8.27377C6.13388 7.36391 6.87572 6.26859 7.37143 5.05714C8.39995 6.32227 9.73622 7.30197 11.2521 7.90233C12.768 8.50268 14.4127 8.70357 16.0286 8.48571L15.2 6.66667H14.7619C12.0762 6.66667 9.61905 5.2381 8.24762 2.97143C8.66667 2.90476 9.08571 2.85714 9.52381 2.85714C10 2.85714 10.4381 2.90476 10.8762 2.98095L13.4571 1.81905C12.2241 1.24907 10.8822 0.953385 9.52381 0.952381ZM5.8 3.80952C5.2009 5.62178 3.95252 7.14833 2.29524 8.09524C2.89524 6.25714 4.1619 4.7619 5.8 3.80952ZM6.66667 10.2381C6.35093 10.2381 6.04813 10.3635 5.82487 10.5868C5.60162 10.81 5.47619 11.1128 5.47619 11.4286C5.47619 11.7443 5.60162 12.0471 5.82487 12.2704C6.04813 12.4936 6.35093 12.619 6.66667 12.619C6.9824 12.619 7.2852 12.4936 7.50846 12.2704C7.73172 12.0471 7.85714 11.7443 7.85714 11.4286C7.85714 11.1128 7.73172 10.81 7.50846 10.5868C7.2852 10.3635 6.9824 10.2381 6.66667 10.2381ZM12.381 10.2381C12.0652 10.2381 11.7624 10.3635 11.5392 10.5868C11.3159 10.81 11.1905 11.1128 11.1905 11.4286C11.1905 11.7443 11.3159 12.0471 11.5392 12.2704C11.7624 12.4936 12.0652 12.619 12.381 12.619C12.6967 12.619 12.9995 12.4936 13.2227 12.2704C13.446 12.0471 13.5714 11.7443 13.5714 11.4286C13.5714 11.1128 13.446 10.81 13.2227 10.5868C12.9995 10.3635 12.6967 10.2381 12.381 10.2381ZM1.90476 16.1619C2.45714 16.8952 3.10476 17.5429 3.8381 18.0952H1.90476M17.1429 16.1619V18.0952H15.2095C15.9429 17.5429 16.5905 16.8952 17.1429 16.1619Z" fill="#FF7D83"/>
</svg>
