<svg width="32" height="32" viewBox="0 0 32 32" fill="none" xmlns="http://www.w3.org/2000/svg">
<rect width="32" height="32" rx="16" fill="url(#paint0_linear_2370_9121)"/>
<g clip-path="url(#clip0_2370_9121)">
<path d="M14.1931 7.6285H14.2194H15.1645H15.173V5.92285H14.1931V7.6285Z" fill="white"/>
<path d="M14.4601 8.13672L14.0858 14.954C14.0857 14.9577 14.0854 14.9613 14.0851 14.9647L13.9797 16.048H15.4047L15.299 14.9576C15.2986 14.954 15.2984 14.9506 15.2982 14.947L14.9243 8.13672H14.4601Z" fill="white"/>
<path d="M16.8482 17.9101C16.6748 17.7093 16.5594 17.4649 16.5145 17.2034C16.4695 16.9418 16.4968 16.6729 16.5932 16.4257C16.6897 16.1785 16.8517 15.9622 17.0619 15.8002C17.2721 15.6382 17.5224 15.5365 17.7861 15.5061V14.0275C17.7863 13.802 17.7421 13.5787 17.6559 13.3704C17.5698 13.162 17.4434 12.9727 17.284 12.8133C17.1246 12.6538 16.9354 12.5273 16.7271 12.4411C16.5188 12.3548 16.2955 12.3105 16.0701 12.3105H15.662L15.8052 14.9162L15.9374 16.2778C15.9409 16.3131 15.9369 16.3487 15.9257 16.3823C15.9146 16.416 15.8965 16.4469 15.8727 16.4732C15.8489 16.4994 15.8199 16.5204 15.7875 16.5347C15.7551 16.5491 15.72 16.5565 15.6846 16.5565H13.6998C13.6644 16.5566 13.6294 16.5493 13.597 16.5351C13.5646 16.5209 13.5356 16.5 13.5118 16.4738C13.4879 16.4477 13.4699 16.4168 13.4587 16.3832C13.4475 16.3497 13.4435 16.3141 13.447 16.2789L13.5788 14.9235L13.7224 12.3105H13.3051C12.8488 12.31 12.411 12.4905 12.0877 12.8124C11.7644 13.1343 11.582 13.5713 11.5804 14.0275V15.5061C11.9513 15.5479 12.292 15.7301 12.5328 16.0152C12.7735 16.3003 12.896 16.6668 12.8751 17.0393C12.8542 17.4119 12.6914 17.7624 12.4202 18.0187C12.149 18.2751 11.79 18.4179 11.4168 18.4179C11.3502 18.4176 11.2836 18.4132 11.2175 18.4046V19.4763C11.2188 20.095 11.4555 20.6899 11.8796 21.1403C12.3037 21.5907 12.8834 21.8627 13.5008 21.9011L13.4414 20.7296C13.4393 20.6958 13.4444 20.6618 13.4564 20.6301C13.4685 20.5984 13.4871 20.5696 13.5111 20.5456C13.535 20.5216 13.5638 20.503 13.5956 20.491C13.6273 20.4789 13.6612 20.4738 13.6951 20.4759H15.6802C15.714 20.4742 15.7478 20.4796 15.7794 20.4917C15.811 20.5037 15.8398 20.5222 15.864 20.546C15.8875 20.5692 15.9058 20.5972 15.9177 20.6281C15.9296 20.659 15.9348 20.692 15.9329 20.7251L15.8702 21.8987C16.487 21.8604 17.0661 21.5885 17.4894 21.1382C17.9128 20.688 18.1487 20.0934 18.149 19.4753V18.4048C18.084 18.4133 18.0185 18.4178 17.953 18.418C17.7431 18.4181 17.5357 18.3727 17.345 18.285C17.1543 18.1973 16.9848 18.0695 16.8482 17.9101V17.9101ZM15.6801 18.2622H13.695C13.6276 18.2622 13.563 18.2354 13.5154 18.1878C13.4677 18.1401 13.441 18.0755 13.441 18.0081C13.441 17.9408 13.4677 17.8761 13.5154 17.8285C13.563 17.7809 13.6276 17.7541 13.695 17.7541H15.6801C15.7475 17.7541 15.8121 17.7809 15.8597 17.8285C15.9073 17.8761 15.9341 17.9408 15.9341 18.0081C15.9341 18.0755 15.9073 18.1401 15.8597 18.1878C15.8121 18.2354 15.7475 18.2622 15.6801 18.2622V18.2622Z" fill="white"/>
<path d="M14.0687 22.9945L15.3064 22.9849L15.4122 20.9834H13.9626L14.0687 22.9945Z" fill="white"/>
<path d="M21.5602 5.81445H20.9432C20.8759 5.81445 20.8113 5.84122 20.7636 5.88886C20.716 5.9365 20.6892 6.00111 20.6892 6.06849V19.8225C20.6892 19.8899 20.716 19.9545 20.7636 20.0021C20.8113 20.0498 20.8759 20.0765 20.9432 20.0765H21.3061V22.8709C21.3061 22.9383 21.3329 23.0029 21.3805 23.0505C21.4282 23.0982 21.4928 23.1249 21.5602 23.1249C21.6276 23.1249 21.6922 23.0982 21.7398 23.0505C21.7874 23.0029 21.8142 22.9383 21.8142 22.8709V6.06849C21.8142 6.00111 21.7874 5.9365 21.7398 5.88886C21.6922 5.84122 21.6276 5.81445 21.5602 5.81445Z" fill="white"/>
</g>
<defs>
<linearGradient id="paint0_linear_2370_9121" x1="32" y1="32" x2="4.13475" y2="-3.26696" gradientUnits="userSpaceOnUse">
<stop stop-color="#ED3026"/>
<stop offset="1" stop-color="#FF9C7D"/>
</linearGradient>
<clipPath id="clip0_2370_9121">
<rect width="18.5806" height="18.5806" fill="white" transform="translate(7.22559 5.16113)"/>
</clipPath>
</defs>
</svg>
