<svg width="10" height="10" viewBox="0 0 10 10" fill="none" xmlns="http://www.w3.org/2000/svg">
<g clip-path="url(#clip0_1379_4086)">
<path d="M5.00001 0.833008C3.25001 0.833008 1.66667 2.17467 1.66667 4.24967C1.66667 5.57467 2.68751 7.13301 4.72501 8.92884C4.88334 9.06634 5.12084 9.06634 5.27917 8.92884C7.31251 7.13301 8.33334 5.57467 8.33334 4.24967C8.33334 2.17467 6.75 0.833008 5.00001 0.833008ZM5.00001 4.99967C4.54167 4.99967 4.16667 4.62467 4.16667 4.16634C4.16667 3.70801 4.54167 3.33301 5.00001 3.33301C5.45834 3.33301 5.83334 3.70801 5.83334 4.16634C5.83334 4.62467 5.45834 4.99967 5.00001 4.99967Z" fill="white"/>
</g>
<defs>
<clipPath id="clip0_1379_4086">
<rect width="10" height="10" fill="white"/>
</clipPath>
</defs>
</svg>
