<svg width="12" height="13" viewBox="0 0 12 13" fill="none" xmlns="http://www.w3.org/2000/svg">
<path d="M0.313364 10.9341C-0.0557767 11.3032 -0.0733548 11.9624 0.322153 12.3403C0.700083 12.7358 1.36805 12.7183 1.73719 12.3491L5.99989 8.08643L10.2626 12.3491C10.6405 12.7271 11.2909 12.7358 11.6688 12.3403C12.0643 11.9624 12.0556 11.3032 11.6776 10.9253L7.41493 6.6626L11.6776 2.40869C12.0556 2.02197 12.0643 1.37158 11.6688 0.993652C11.2909 0.598145 10.6405 0.606934 10.2626 0.984863L5.99989 5.24756L1.73719 0.984863C1.36805 0.615723 0.700083 0.598145 0.322153 0.993652C-0.0733548 1.37158 -0.0557767 2.03076 0.313364 2.3999L4.57606 6.6626L0.313364 10.9341Z" fill="#505050"/>
</svg>
