<svg width="19" height="15" viewBox="0 0 19 15" fill="none" xmlns="http://www.w3.org/2000/svg">
<g clip-path="url(#clip0_1741_11086)">
<path fill-rule="evenodd" clip-rule="evenodd" d="M1.80908 0H2.76619V0.32619C5.1613 0.884021 5.43498 2.05957 4.04647 3.90325C4.19336 2.0706 4.01245 1.67822 2.76619 1.59313V6.22597C2.76777 6.25063 2.76777 6.27537 2.76619 6.30003C2.76619 6.90199 2.1477 7.49921 1.38232 7.63473C0.616943 7.77025 0 7.39048 0 6.78695C0 5.96596 1.1071 5.25213 1.80908 5.50425V0ZM15.9261 0H16.8832V0.32619C19.2768 0.884021 19.5505 2.05957 18.1619 3.90325C18.3166 2.0706 18.1279 1.67822 16.8832 1.59313V6.22597C16.8832 6.24961 16.8832 6.27482 16.8832 6.30003C16.8832 6.90199 16.2647 7.49921 15.4916 7.63473C14.7185 7.77025 14.1 7.39048 14.1 6.78695C14.1 5.96596 15.2071 5.25213 15.9091 5.50425V0H15.9261ZM10.9024 10.8163C11.1328 10.7727 11.3695 10.777 11.5982 10.8289V5.85093L6.4292 7.36212C6.4292 9.32241 6.4292 11.2816 6.4292 13.2398C6.4292 14.1569 5.43652 14.8251 4.64022 14.9732C3.65218 15.1465 2.84969 14.6581 2.84969 13.8702C2.84969 13.0823 3.65682 12.3196 4.63867 12.1462C4.97327 12.0813 5.31858 12.1041 5.64217 12.2124V5.09612L12.3744 3.53451V11.5522C12.4486 12.4031 11.6013 13.0476 10.8962 13.1721C10.0706 13.317 9.40259 12.9073 9.40259 12.2565C9.40259 11.6057 10.0706 10.9612 10.8962 10.8163H10.9024Z" fill="#00AB6F"/>
</g>
<defs>
<clipPath id="clip0_1741_11086">
<rect width="19" height="15" fill="white"/>
</clipPath>
</defs>
</svg>
