<svg width="10" height="4" viewBox="0 0 10 4" fill="none" xmlns="http://www.w3.org/2000/svg">
<path d="M2.68057 2.00068C3.12969 2.00068 3.50704 1.60283 3.50704 1.08809C3.50704 0.585645 3.12559 0.202148 2.68057 0.202148C2.23555 0.202148 1.85206 0.591797 1.85411 1.09219C1.85411 1.60283 2.2335 2.00068 2.68057 2.00068ZM5.00206 2.00068C5.44913 2.00068 5.82852 1.60283 5.82852 1.08809C5.82852 0.585645 5.44708 0.202148 5.00206 0.202148C4.55499 0.202148 4.17354 0.591797 4.17559 1.09219C4.17559 1.60283 4.55294 2.00068 5.00206 2.00068ZM7.31944 2.00068C7.76651 2.00068 8.1459 1.60283 8.1459 1.08809C8.1459 0.585645 7.76446 0.202148 7.31944 0.202148C6.87442 0.202148 6.49092 0.591797 6.49297 1.09219C6.49297 1.60283 6.87237 2.00068 7.31944 2.00068ZM1.40088 3.90791H3.95821C4.29659 3.90791 4.41348 3.80537 4.41348 3.61875C4.41348 3.08965 3.74288 2.36367 2.68057 2.36367C1.61622 2.36367 0.947662 3.08965 0.947662 3.61875C0.947662 3.80537 1.06456 3.90791 1.40088 3.90791ZM5.00001 2.36367C4.65753 2.36367 4.35606 2.4416 4.10587 2.5626C4.46475 2.84355 4.69444 3.21885 4.69444 3.61875C4.69444 3.73154 4.66983 3.82793 4.62061 3.90791H6.27969C6.61602 3.90791 6.73292 3.80537 6.73292 3.61875C6.73292 3.08965 6.06436 2.36367 5.00001 2.36367ZM7.31944 2.36367C6.97696 2.36367 6.67549 2.4416 6.4253 2.5626C6.78419 2.8415 7.01387 3.21885 7.01387 3.61875C7.01387 3.73154 6.98926 3.82793 6.9421 3.90791H8.59708C8.9334 3.90791 9.0503 3.80537 9.0503 3.61875C9.0503 3.08965 8.38174 2.36367 7.31944 2.36367Z" fill="white"/>
</svg>
