<svg width="26" height="26" viewBox="0 0 26 26" fill="none" xmlns="http://www.w3.org/2000/svg">
<path d="M9.68374 23.234V19.6561C9.68372 18.7461 10.4256 18.0066 11.3448 18.0005H14.7119C15.6355 18.0005 16.3842 18.7417 16.3842 19.6561V23.2451C16.384 24.0177 17.007 24.6492 17.7872 24.6673H20.0319C22.2696 24.6673 24.0837 22.8714 24.0837 20.6561V10.4781C24.0717 9.60662 23.6584 8.78823 22.9613 8.25586L15.2843 2.1335C13.9394 1.06748 12.0276 1.06748 10.6826 2.1335L3.03936 8.26697C2.33963 8.79718 1.92561 9.61693 1.91699 10.4892V20.6561C1.91699 22.8714 3.73101 24.6673 5.96872 24.6673H8.21345C9.01307 24.6673 9.6613 24.0256 9.6613 23.234" stroke="#155B9F" stroke-width="2" stroke-linecap="round" stroke-linejoin="round"/>
</svg>
