<svg width="20" height="11" viewBox="0 0 20 11" fill="none" xmlns="http://www.w3.org/2000/svg">
<path d="M1.78223 2.50684H18.209C18.6484 2.50684 19.0088 2.14648 19.0088 1.70703C19.0088 1.26758 18.6484 0.916016 18.209 0.916016H1.78223C1.34277 0.916016 0.991211 1.26758 0.991211 1.70703C0.991211 2.1377 1.34277 2.50684 1.78223 2.50684ZM1.78223 6.46192H18.209C18.6484 6.46192 19.0088 6.10156 19.0088 5.6709C19.0088 5.22266 18.6484 4.86231 18.209 4.86231H1.78223C1.34277 4.86231 0.991211 5.22266 0.991211 5.6709C0.991211 6.10156 1.34277 6.46192 1.78223 6.46192ZM1.78223 10.4258H18.209C18.6484 10.4258 19.0088 10.0654 19.0088 9.61719C19.0088 9.17774 18.6484 8.82617 18.209 8.82617H1.78223C1.34277 8.82617 0.991211 9.18653 0.991211 9.61719C0.991211 10.0566 1.34277 10.4258 1.78223 10.4258Z" fill="white"/>
</svg>
