<svg width="22" height="22" viewBox="0 0 22 22" fill="none" xmlns="http://www.w3.org/2000/svg">
<path d="M1.76 7.0983H0V0H7.0983V1.76H1.76V7.0983Z" fill="white"/>
<path d="M21.9997 22.0006H14.9014V20.2406H20.2397V14.9023H21.9997V22.0006Z" fill="white"/>
<path d="M21.9997 7.0983H20.2397V1.76H14.9014V0H21.9997V7.0983Z" fill="white"/>
<path d="M7.0983 22.0006H0V14.9023H1.76V20.2406H7.0983V22.0006Z" fill="white"/>
<path d="M18 18H10.1765V11.6842H4V10H11.8235V16.3158H18V18Z" fill="white"/>
<path d="M18 15H16.3202V11.8028H14.6798V15H13V10H18V15Z" fill="white"/>
<path d="M9 9H4V4H9V9ZM5.67975 7.32025H7.32025V5.67975H5.67975V7.32025Z" fill="white"/>
<path d="M18 9H13V4H18V9ZM14.6798 7.32025H16.3202V5.67975H14.6796V7.32025H14.6798Z" fill="white"/>
<path d="M9 18H4V13H9V18ZM5.67975 16.3202H7.32025V14.6796H5.67975V16.3202Z" fill="white"/>
<path d="M12 4H10V9H12V4Z" fill="white"/>
</svg>
