<svg width="18" height="28" viewBox="0 0 18 28" fill="none" xmlns="http://www.w3.org/2000/svg">
<path d="M5.06271 15.7495V24.062C5.06271 25.1063 5.47755 26.1078 6.21597 26.8463C6.9544 27.5847 7.95592 27.9995 9.00021 27.9995C10.0445 27.9995 11.046 27.5847 11.7844 26.8463C12.5229 26.1078 12.9377 25.1063 12.9377 24.062V15.7495C14.3904 15.0189 15.6108 13.898 16.4619 12.5125C17.313 11.1269 17.7612 9.53165 17.7562 7.90559C17.7512 6.27953 17.2932 4.68703 16.4336 3.30676C15.574 1.9265 14.3467 0.813071 12.8896 0.0914109C12.7562 0.0251384 12.6081 -0.00599671 12.4594 0.000953515C12.3106 0.00790374 12.1661 0.0527093 12.0395 0.131128C11.9129 0.209546 11.8084 0.318983 11.7359 0.449075C11.6634 0.579167 11.6253 0.725609 11.6252 0.874536V7.43704H6.37521V0.874536C6.37513 0.725609 6.33704 0.579167 6.26454 0.449075C6.19205 0.318983 6.08755 0.209546 5.96094 0.131128C5.83433 0.0527093 5.68981 0.00790374 5.54104 0.000953515C5.39228 -0.00599671 5.2442 0.0251384 5.11083 0.0914109C3.65368 0.813071 2.42644 1.9265 1.56681 3.30676C0.707185 4.68703 0.24918 6.27953 0.244182 7.90559C0.239184 9.53165 0.687392 11.1269 1.53852 12.5125C2.38964 13.898 3.61001 15.0189 5.06271 15.7495ZM4.62521 2.45829V8.31204C4.62521 8.5441 4.71739 8.76666 4.88149 8.93075C5.04558 9.09485 5.26814 9.18704 5.50021 9.18704H12.5002C12.7323 9.18704 12.9548 9.09485 13.1189 8.93075C13.283 8.76666 13.3752 8.5441 13.3752 8.31204V2.45829C14.3227 3.21602 15.057 4.20701 15.5061 5.33406C15.9551 6.46112 16.1036 7.68553 15.9368 8.88724C15.7701 10.089 15.2938 11.2267 14.5548 12.1889C13.8159 13.1511 12.8395 13.9047 11.7215 14.3758C11.5633 14.4428 11.4284 14.5548 11.3334 14.698C11.2385 14.8411 11.1878 15.009 11.1877 15.1808V24.062C11.1877 24.6422 10.9572 25.1986 10.547 25.6088C10.1368 26.0191 9.58037 26.2495 9.00021 26.2495C8.42004 26.2495 7.86365 26.0191 7.45341 25.6088C7.04317 25.1986 6.81271 24.6422 6.81271 24.062V15.1808C6.81257 15.009 6.76188 14.8411 6.66697 14.698C6.57205 14.5548 6.43711 14.4428 6.27896 14.3758C5.16094 13.9047 4.18456 13.1511 3.44557 12.1889C2.70658 11.2267 2.23035 10.089 2.0636 8.88724C1.89684 7.68553 2.04528 6.46112 2.49435 5.33406C2.94342 4.20701 3.67771 3.21602 4.62521 2.45829Z" fill="#505050"/>
</svg>
