<svg width="24" height="26" viewBox="0 0 24 26" fill="none" xmlns="http://www.w3.org/2000/svg">
<path fill-rule="evenodd" clip-rule="evenodd" d="M22.2746 7.89466L21.5485 6.63456C20.9341 5.56832 19.5727 5.20049 18.505 5.81228C17.9968 6.11168 17.3903 6.19663 16.8194 6.04838C16.2484 5.90014 15.7599 5.53088 15.4615 5.02205C15.2696 4.69862 15.1664 4.33024 15.1625 3.95416C15.1798 3.35121 14.9524 2.76692 14.5319 2.3344C14.1114 1.90187 13.5338 1.65795 12.9306 1.6582H11.4676C10.8767 1.6582 10.3101 1.89368 9.8932 2.31255C9.47634 2.73142 9.24358 3.29914 9.24642 3.89009C9.2289 5.11019 8.23476 6.09006 7.01453 6.08993C6.63845 6.08603 6.27007 5.98288 5.94664 5.79093C4.87894 5.17913 3.5175 5.54696 2.90317 6.6132L2.12361 7.89466C1.51002 8.95957 1.87284 10.3202 2.9352 10.9381C3.62576 11.3368 4.05116 12.0736 4.05116 12.871C4.05116 13.6684 3.62576 14.4052 2.9352 14.8039C1.87419 15.4177 1.51097 16.775 2.12361 17.8367L2.86045 19.1075C3.14829 19.6269 3.63124 20.0101 4.20243 20.1725C4.77362 20.3348 5.38595 20.2628 5.90393 19.9725C6.41313 19.6753 7.01992 19.5939 7.58943 19.7463C8.15894 19.8987 8.64398 20.2723 8.93673 20.7841C9.12868 21.1075 9.23183 21.4759 9.23574 21.8519C9.23574 23.0846 10.235 24.0838 11.4676 24.0838H12.9306C14.1591 24.0838 15.1566 23.0911 15.1625 21.8626C15.1597 21.2698 15.3939 20.7005 15.8131 20.2813C16.2322 19.8621 16.8016 19.6279 17.3944 19.6307C17.7696 19.6408 18.1364 19.7435 18.4623 19.9298C19.5272 20.5433 20.8878 20.1805 21.5058 19.1182L22.2746 17.8367C22.5723 17.3259 22.6539 16.7175 22.5016 16.1462C22.3493 15.575 21.9755 15.088 21.463 14.7932C20.9506 14.4984 20.5768 14.0115 20.4245 13.4402C20.2722 12.869 20.3538 12.2606 20.6515 11.7497C20.845 11.4118 21.1251 11.1317 21.463 10.9381C22.519 10.3205 22.881 8.96786 22.2746 7.90534V7.89466Z" stroke="#505050" stroke-width="2" stroke-linecap="round" stroke-linejoin="round"/>
<path d="M12.2042 15.9456C13.9027 15.9456 15.2796 14.5687 15.2796 12.8703C15.2796 11.1718 13.9027 9.79492 12.2042 9.79492C10.5058 9.79492 9.12891 11.1718 9.12891 12.8703C9.12891 14.5687 10.5058 15.9456 12.2042 15.9456Z" stroke="#505050" stroke-width="2" stroke-linecap="round" stroke-linejoin="round"/>
</svg>
