<svg width="12" height="12" viewBox="0 0 12 12" fill="none" xmlns="http://www.w3.org/2000/svg">
<path d="M11.0001 6.83366H6.83342V11.0003C6.83342 11.4587 6.45842 11.8337 6.00008 11.8337C5.54175 11.8337 5.16675 11.4587 5.16675 11.0003V6.83366H1.00008C0.541748 6.83366 0.166748 6.45866 0.166748 6.00033C0.166748 5.54199 0.541748 5.16699 1.00008 5.16699H5.16675V1.00033C5.16675 0.541992 5.54175 0.166992 6.00008 0.166992C6.45842 0.166992 6.83342 0.541992 6.83342 1.00033V5.16699H11.0001C11.4584 5.16699 11.8334 5.54199 11.8334 6.00033C11.8334 6.45866 11.4584 6.83366 11.0001 6.83366Z" fill="#5768FA"/>
</svg>
