<svg width="16" height="16" viewBox="0 0 16 16" fill="none" xmlns="http://www.w3.org/2000/svg">
<g clip-path="url(#clip0_1950_4189)">
<path fill-rule="evenodd" clip-rule="evenodd" d="M14.6045 9.56166C14.623 9.47236 14.6576 9.39177 14.7061 9.32207C14.757 9.2502 14.8217 9.18703 14.8979 9.13912C14.9719 9.0912 15.0574 9.05635 15.1498 9.03675C15.2376 9.01932 15.3301 9.01715 15.4248 9.03457C15.5196 9.05199 15.6051 9.08467 15.679 9.1304C15.7553 9.17832 15.8223 9.23931 15.8731 9.31118C15.9239 9.38088 15.9609 9.46147 15.9817 9.54859C16.0002 9.63136 16.0025 9.71848 15.984 9.80778C15.9632 9.91233 15.9401 10.0169 15.9147 10.1192C15.8893 10.2238 15.8615 10.3283 15.8292 10.4307C15.7968 10.5374 15.7645 10.6398 15.7321 10.7378C15.6998 10.8315 15.6628 10.9317 15.6189 11.0406C15.5773 11.1473 15.5357 11.2475 15.4964 11.3368C15.4572 11.4261 15.4109 11.5241 15.3578 11.6308C15.3116 11.7266 15.2607 11.8225 15.2053 11.9183C15.1521 12.012 15.099 12.1056 15.0412 12.1993L15.0389 12.2036C14.7709 12.6414 14.4612 13.0465 14.1192 13.4146C13.768 13.7936 13.3821 14.1312 12.9707 14.4296C12.5502 14.7345 12.1019 14.9959 11.6305 15.2159C11.1544 15.4381 10.6553 15.6123 10.1469 15.743C9.64087 15.8715 9.11863 15.9521 8.59176 15.9869C8.07183 16.0196 7.54728 16.0044 7.02042 15.9412C6.50511 15.878 5.99442 15.7669 5.49298 15.6079C5.00078 15.4511 4.52013 15.2486 4.05566 15.0003L4.00251 14.972C3.53804 14.7171 3.11054 14.4253 2.72463 14.1051C2.32718 13.7762 1.97131 13.4125 1.65473 13.0248C1.33584 12.6305 1.05855 12.208 0.827465 11.7637C0.594074 11.315 0.406899 10.8489 0.272873 10.3741C0.136535 9.89708 0.0510356 9.40484 0.0140628 8.90824C-0.0205992 8.41818 -0.00442362 7.92376 0.0625897 7.42716C0.129603 6.94364 0.247454 6.46229 0.416143 5.98965C0.58252 5.52572 0.797425 5.07269 1.06086 4.63707L1.07472 4.61312C1.08859 4.58916 1.09321 4.58262 1.09783 4.57609C1.36819 4.14266 1.67322 3.74407 2.0106 3.38251C2.35953 3.00789 2.74543 2.67247 3.15675 2.37407C3.57501 2.0735 4.02331 1.81214 4.49471 1.59433C4.97074 1.37435 5.46525 1.19792 5.969 1.0716C6.47738 0.943091 7.00193 0.860325 7.53111 0.827654C8.05335 0.794983 8.58252 0.81023 9.10938 0.875571C9.627 0.940913 10.1423 1.05199 10.6438 1.21317C11.1336 1.36999 11.6143 1.57473 12.0834 1.82956L12.0903 1.83392C12.1712 1.87966 12.2382 1.93628 12.2937 2.0038C12.3491 2.0735 12.3907 2.15191 12.4138 2.2325C12.4369 2.31527 12.4439 2.40239 12.4323 2.48951C12.4208 2.57446 12.3907 2.6594 12.3445 2.73563C12.2983 2.81404 12.2359 2.87938 12.1643 2.92948C12.0903 2.98393 12.0048 3.02313 11.917 3.04492C11.8292 3.0667 11.7368 3.07323 11.6443 3.06234C11.5542 3.05145 11.4641 3.02313 11.3832 2.97957C10.9996 2.77048 10.5999 2.60277 10.1932 2.47209C9.7749 2.33923 9.35202 2.24557 8.92683 2.1933C8.4924 2.13884 8.05566 2.12795 7.62123 2.15409C7.1868 2.18023 6.75468 2.24993 6.3318 2.35447C5.90892 2.4612 5.49991 2.60713 5.10938 2.7879C4.72117 2.96868 4.34913 3.18431 4.0002 3.43697C3.6582 3.68309 3.34162 3.96405 3.05277 4.27552C2.77085 4.58044 2.51666 4.91369 2.29483 5.27524L2.27403 5.31009C2.06143 5.66076 1.89043 6.0245 1.75641 6.39694C1.61545 6.79117 1.51608 7.18976 1.46063 7.58834C1.40286 7.99782 1.3913 8.40947 1.41903 8.81894C1.44676 9.22842 1.52071 9.63571 1.63162 10.0343C1.74485 10.4329 1.89968 10.8184 2.09147 11.1865C2.28327 11.5524 2.51204 11.9031 2.78009 12.232C3.04121 12.5543 3.33931 12.8527 3.66744 13.125C3.98864 13.3907 4.3422 13.6303 4.73041 13.8415C5.11401 14.0506 5.51146 14.2183 5.91816 14.349C6.33642 14.4819 6.7593 14.5755 7.18448 14.6278C7.61892 14.6823 8.05566 14.6932 8.49009 14.667C8.92452 14.6409 9.35664 14.5712 9.77952 14.4666C10.2024 14.3599 10.6114 14.214 11.0042 14.0332C11.3925 13.8524 11.7645 13.6368 12.1134 13.3841C12.4554 13.138 12.772 12.8592 13.0609 12.5478C13.3428 12.245 13.597 11.9096 13.8211 11.5459C13.8673 11.4718 13.9112 11.3956 13.9528 11.3194C13.9898 11.254 14.0314 11.1712 14.0822 11.0754C14.1169 11.0079 14.1539 10.9251 14.1955 10.8315C14.2324 10.7465 14.2671 10.6659 14.2971 10.5897C14.3272 10.5113 14.3572 10.4307 14.3873 10.3458C14.4173 10.2608 14.4427 10.1759 14.4681 10.0909C14.4959 9.99727 14.519 9.91015 14.5375 9.83392C14.5652 9.73808 14.586 9.65096 14.6045 9.56166ZM12.9846 8.49659H11.1429C11.1591 8.63599 11.1983 8.73835 11.2631 8.80805C11.3509 8.90606 11.4687 8.95398 11.6097 8.95398C11.6998 8.95398 11.7853 8.9322 11.8662 8.89082C11.917 8.86468 11.9702 8.81676 12.0256 8.74924L12.9315 8.82765C12.7928 9.05417 12.6264 9.21753 12.43 9.31554C12.2336 9.41355 11.954 9.46365 11.5866 9.46365C11.27 9.46365 11.0204 9.42226 10.8356 9.33732C10.653 9.25238 10.5028 9.11951 10.3826 8.93438C10.2625 8.75142 10.2024 8.5358 10.2024 8.28532C10.2024 7.93247 10.3226 7.64715 10.5629 7.42716C10.8032 7.20936 11.1336 7.09828 11.5588 7.09828C11.9008 7.09828 12.1735 7.14837 12.3722 7.24639C12.571 7.3444 12.7212 7.48597 12.8252 7.67111C12.9291 7.85624 12.98 8.09801 12.98 8.3964V8.49659H12.9846ZM12.0487 8.08058C12.0302 7.91287 11.9817 7.79308 11.9055 7.7212C11.8269 7.64933 11.7252 7.6123 11.6004 7.6123C11.4548 7.6123 11.337 7.66675 11.2492 7.77565C11.1937 7.84317 11.1591 7.94554 11.1429 8.08058H12.0487ZM9.01464 7.15055H9.87657V9.28505L9.87888 9.38524C9.87888 9.52681 9.84653 9.66185 9.78183 9.79036C9.71712 9.91886 9.63394 10.0234 9.52764 10.1018C9.42134 10.1802 9.28732 10.239 9.12325 10.2739C8.95918 10.3087 8.77201 10.3283 8.56172 10.3283C8.08108 10.3283 7.74832 10.2608 7.56808 10.1236C7.38784 9.98856 7.29771 9.8056 7.29771 9.57691C7.29771 9.54859 7.30002 9.50939 7.30234 9.46147L8.19431 9.5573C8.21741 9.63571 8.25208 9.69016 8.29829 9.71848C8.3653 9.76204 8.4508 9.78382 8.55248 9.78382C8.6842 9.78382 8.78356 9.75115 8.84826 9.68363C8.91297 9.61611 8.94532 9.50067 8.94532 9.33514V8.99319C8.8552 9.09338 8.76507 9.16743 8.67495 9.21317C8.53399 9.28287 8.38148 9.3199 8.21741 9.3199C7.89621 9.3199 7.6374 9.18703 7.44098 8.92349C7.30234 8.73618 7.2307 8.48788 7.2307 8.18077C7.2307 7.82793 7.32082 7.56003 7.50106 7.37489C7.68131 7.18976 7.91701 7.09828 8.21048 7.09828C8.39766 7.09828 8.55017 7.12877 8.67264 7.18758C8.7928 7.24639 8.90603 7.34658 9.01233 7.48379V7.15055H9.01464ZM8.1504 8.24611C8.1504 8.40947 8.18737 8.52926 8.26132 8.60985C8.33527 8.68826 8.43232 8.72746 8.55248 8.72746C8.66571 8.72746 8.76276 8.68608 8.83902 8.60549C8.91759 8.5249 8.95456 8.40076 8.95456 8.2374C8.95456 8.07187 8.91297 7.94772 8.83209 7.8606C8.75121 7.77348 8.65184 7.72991 8.53399 7.72991C8.41614 7.72991 8.32371 7.76912 8.25439 7.84971C8.18506 7.92812 8.1504 8.06098 8.1504 8.24611ZM5.95745 8.89517H4.7928L4.63336 9.4092H3.58888L4.83209 6.28804H5.9482L7.19373 9.4092H6.12383L5.95745 8.89517ZM5.74254 8.22215L5.37744 7.10046L5.01464 8.22215H5.74254ZM11.3717 5.18377C11.2792 5.21208 11.1868 5.22079 11.099 5.21426C11.0066 5.20773 10.9164 5.18159 10.8356 5.14238C10.7547 5.10318 10.6807 5.04873 10.6206 4.98121C10.5629 4.91587 10.5167 4.84181 10.4866 4.75687C10.4566 4.66975 10.4473 4.58262 10.4543 4.49986C10.4612 4.41056 10.4889 4.32561 10.5305 4.24938C10.5721 4.17315 10.6299 4.10345 10.7015 4.049C10.7709 3.99455 10.8494 3.95099 10.9395 3.92267L13.5831 3.1255L12.393 0.971406C12.3491 0.890818 12.3237 0.808052 12.3168 0.723108C12.3098 0.635985 12.3191 0.548863 12.3468 0.466097C12.3722 0.383331 12.4185 0.304921 12.4785 0.237401C12.5363 0.172059 12.6079 0.11543 12.6934 0.0740467C12.7789 0.0326637 12.8667 0.00870504 12.9569 0.00217087C13.0493 -0.0043633 13.1417 0.00434892 13.2295 0.0304856C13.3174 0.0566223 13.4005 0.0980053 13.4722 0.154635C13.5415 0.209086 13.5993 0.276606 13.6432 0.357194L15.2191 3.20827C15.2261 3.22352 15.233 3.24312 15.2423 3.25619L15.2538 3.28668L15.2631 3.31499C15.2908 3.39994 15.3 3.48488 15.2931 3.56765C15.2862 3.65695 15.2584 3.74189 15.2168 3.81813C15.1752 3.89436 15.1175 3.96406 15.0458 4.01851C14.9765 4.07296 14.8979 4.11652 14.8078 4.14483L11.3717 5.18377Z" fill="#505050"/>
</g>
<defs>
<clipPath id="clip0_1950_4189">
<rect width="16" height="16" fill="white"/>
</clipPath>
</defs>
</svg>
