<svg width="20" height="35" viewBox="0 0 20 35" fill="none" xmlns="http://www.w3.org/2000/svg">
<g clip-path="url(#clip0_1642_3414)">
<path fill-rule="evenodd" clip-rule="evenodd" d="M0.331692 0.0059814H7.55918L14.07 12.0958C14.2095 12.3522 14.4128 12.5541 14.6447 12.6826H4.926L0.331692 0V0.0059814ZM10.0001 18.8941L11.6709 23.058L16.0699 23.3967L12.7031 26.3133L13.7492 30.6823L10.0001 28.3097L6.2511 30.6823L7.29723 26.3133L3.9273 23.3941L8.32634 23.0552L10.0001 18.8941ZM10.0001 14.5792C15.5234 14.5792 20.0003 19.1504 20.0003 24.7895C20.0003 30.4285 15.5234 35 10.0001 35C4.47687 34.9969 0 30.4257 0 24.7863C0 19.1476 4.47687 14.5792 10.0001 14.5792ZM10.887 0.0059814H19.3444L15.9419 9.39877L10.887 0.0059814Z" fill="#EB934C"/>
</g>
<defs>
<clipPath id="clip0_1642_3414">
<rect width="20" height="35" fill="white"/>
</clipPath>
</defs>
</svg>
