<svg width="19" height="19" viewBox="0 0 19 19" fill="none" xmlns="http://www.w3.org/2000/svg">
<g clip-path="url(#clip0_1642_3600)">
<path d="M5.55201 17.6115C5.54271 17.3703 5.50708 17.1291 5.44977 16.8925C5.21895 15.9602 4.63338 15.1082 3.91149 14.4897C3.8836 14.465 3.85572 14.4418 3.82629 14.4186L3.17565 15.0525C3.67757 15.436 4.04006 15.9617 4.18878 16.4519C4.26933 16.7178 4.29257 16.9791 4.24765 17.2142C4.19653 17.4832 4.0633 17.7136 3.83558 17.8806C3.78446 17.9177 3.73024 17.9502 3.67137 17.9795C3.96261 18.1233 4.2368 18.213 4.47382 18.2316C4.71238 18.2517 4.92152 18.2084 5.09812 18.1017C5.26697 17.9996 5.41723 17.8373 5.55201 17.6115ZM12.2256 11.0153C12.1637 10.9829 12.1141 10.9365 12.0785 10.8808L11.9561 11.0014C12.001 11.0308 12.0397 11.0695 12.0692 11.1158C12.7012 12.1116 13.0653 13.1244 13.0993 14.1573C13.1334 15.1948 12.8344 16.2369 12.1404 17.2884C12.0242 17.4646 11.7888 17.5126 11.6122 17.3966C11.4356 17.2806 11.3876 17.0456 11.5037 16.8693C12.1064 15.9571 12.3666 15.0618 12.3372 14.1805C12.3077 13.2945 11.9855 12.41 11.4247 11.5256L10.4534 12.4812C10.4441 12.4518 10.4348 12.424 10.4256 12.3946L10.3512 12.4672L6.26306 17.9084C6.05392 18.2903 5.79677 18.5702 5.49314 18.7526C5.17247 18.9444 4.81308 19.0232 4.4165 18.9908C3.81079 18.9413 3.04398 18.564 2.32518 18.0151C2.30195 18.0012 2.27871 17.9842 2.26012 17.9641C2.01226 17.7708 1.77215 17.559 1.54598 17.3332C1.03322 16.8214 0.588617 16.2338 0.312873 15.6494C0.0154413 15.0201 -0.0914483 14.3846 0.103741 13.8202C0.22922 13.4584 0.473982 13.1368 0.864361 12.8801L6.59457 8.52746L9.69437 5.22009L13.3379 0.210327C13.3999 0.125284 13.4897 0.0742589 13.5858 0.0572505C14.1187 -0.0448003 14.6609 -0.00614472 15.1876 0.1392C16.0922 0.388142 16.9489 0.95406 17.6166 1.66687C18.2858 2.38123 18.7722 3.2502 18.938 4.10063C19.0278 4.5614 19.0232 5.01908 18.9039 5.44893C18.8807 5.53552 18.828 5.60819 18.7598 5.65767V5.65922L13.2759 9.6191L13.056 9.83402C13.056 9.8634 13.0544 9.89278 13.0529 9.92216L12.6114 10.3566C13.42 10.7788 14.0753 11.3091 14.554 11.9663C15.0435 12.6389 15.3456 13.4352 15.4308 14.3722C15.4494 14.5809 15.2944 14.7665 15.0853 14.785C14.8762 14.8036 14.6903 14.649 14.6717 14.4402C14.5989 13.6455 14.3479 12.9744 13.939 12.4131C13.5253 11.8488 12.9475 11.3864 12.2256 11.0153ZM3.1865 13.9764C2.66599 13.6764 2.1207 13.5048 1.61569 13.5079C1.48711 13.5094 1.36008 13.5218 1.23615 13.5481C1.02082 13.6996 0.887598 13.8774 0.819436 14.0707C0.695506 14.4279 0.780708 14.8685 0.997586 15.3262C1.2346 15.8303 1.62653 16.3421 2.08197 16.7982C2.27251 16.9884 2.4739 17.1693 2.67838 17.3317C3.03004 17.3904 3.25776 17.3564 3.38324 17.2636C3.44365 17.2188 3.48083 17.1523 3.49632 17.0719C3.51801 16.9575 3.50407 16.8199 3.45759 16.6714C3.32127 16.2215 2.92779 15.7282 2.39025 15.4515C2.2028 15.3556 2.12845 15.1267 2.22449 14.9397C2.24463 14.901 2.26942 14.8685 2.29885 14.8407L3.1865 13.9764ZM10.0724 11.674C9.46509 10.6783 8.35902 9.61446 7.28703 8.89701L7.13831 9.05627C7.11972 9.07947 7.09649 9.10111 7.0717 9.12121L2.22294 12.8043C2.8271 12.9187 3.44365 13.1986 4.00753 13.5991L4.02147 13.6099L4.02302 13.6114C4.15315 13.7042 4.28018 13.8047 4.40411 13.9099C5.23909 14.6242 5.9176 15.6154 6.18715 16.7085L6.1918 16.7271L9.74239 12.0018C9.75633 11.9802 9.77337 11.9601 9.79351 11.9415L10.0724 11.674ZM9.93293 6.07515C11.3132 6.75704 12.4642 7.86259 12.884 8.96041L18.1975 5.12268C18.2517 4.84591 18.2455 4.54903 18.1867 4.24442C18.0488 3.53625 17.6321 2.80025 17.0573 2.1864C16.4795 1.56946 15.7499 1.0824 14.9877 0.873657C14.6159 0.771606 14.2379 0.736043 13.8646 0.785522L10.3001 5.68087L10.2985 5.67932C10.2892 5.69169 10.2799 5.70406 10.2675 5.71643L9.93293 6.07515Z" fill="#F5AB35"/>
</g>
<defs>
<clipPath id="clip0_1642_3600">
<rect width="19" height="19" fill="white"/>
</clipPath>
</defs>
</svg>
