<svg width="30" height="30" viewBox="0 0 30 30" fill="none" xmlns="http://www.w3.org/2000/svg">
<path d="M7.665 7.89293V3.69293C9.816 3.67493 11.523 3.46193 11.523 3.20393C11.523 2.94593 9.816 2.73893 7.665 2.72393V2.23193H7.128V2.72393C4.974 2.74193 3.27 2.95493 3.27 3.21593C3.27 3.47693 4.974 3.68993 7.128 3.70493V7.85093L3.354 7.55093V14.8199L2.982 14.7929L2.916 15.6929L7.395 16.0139V23.1779L5.319 24.3779V25.0319L5.652 24.8429V25.0319L7.8 23.8049L10.032 25.0229V24.8429L10.365 25.0229V24.3689L8.349 23.2679V16.0679L8.649 16.0889C8.69368 14.9735 9.02351 13.8882 9.607 12.9365C10.1905 11.9849 11.0082 11.1987 11.982 10.6529V8.21993L7.665 7.89293ZM4.05 14.6999C4.05 14.7397 4.0342 14.7779 4.00607 14.806C3.97794 14.8341 3.93978 14.8499 3.9 14.8499C3.86022 14.8499 3.82206 14.8341 3.79393 14.806C3.7658 14.7779 3.75 14.7397 3.75 14.6999V8.09993C3.75 8.06015 3.7658 8.022 3.79393 7.99387C3.82206 7.96574 3.86022 7.94993 3.9 7.94993C3.93978 7.94993 3.97794 7.96574 4.00607 7.99387C4.0342 8.022 4.05 8.06015 4.05 8.09993V14.6999ZM7.35 3.29993C6.45 3.29993 5.7 3.23393 5.7 3.14993C5.7 3.06593 6.438 2.99993 7.35 2.99993C8.262 2.99993 9 3.06593 9 3.14993C9 3.23393 8.262 3.29993 7.35 3.29993ZM23.082 16.0109L26.838 15.7109L26.772 14.8109L26.4 14.8199V7.56593L20.7 8.03393L20.604 8.09693L20.565 8.04293L18.426 8.21993V10.7159C19.3806 11.2677 20.1798 12.0524 20.749 12.9967C21.3183 13.941 21.6389 15.0141 21.681 16.1159L22.473 16.0619V22.9619L20.394 24.1619V24.8189L22.689 23.5049L25.089 24.8189V24.1319L23.076 23.0339L23.082 16.0109ZM25.8 7.94993C25.8 7.91015 25.8158 7.872 25.8439 7.84387C25.8721 7.81574 25.9102 7.79993 25.95 7.79993C25.9898 7.79993 26.0279 7.81574 26.0561 7.84387C26.0842 7.872 26.1 7.91015 26.1 7.94993V14.5499C26.1 14.5897 26.0842 14.6279 26.0561 14.656C26.0279 14.6841 25.9898 14.6999 25.95 14.6999C25.9102 14.6999 25.8721 14.6841 25.8439 14.656C25.8158 14.6279 25.8 14.5897 25.8 14.5499V7.94993ZM21.069 16.4579C21.0695 15.4044 20.7917 14.3694 20.2636 13.4578C19.7355 12.5462 18.9759 11.7903 18.0617 11.2667C17.1475 10.743 16.1112 10.4703 15.0576 10.476C14.0041 10.4817 12.9708 10.7656 12.0623 11.2991C11.1539 11.8326 10.4025 12.5967 9.88427 13.514C9.36607 14.4313 9.09944 15.4692 9.11139 16.5227C9.12333 17.5761 9.41342 18.6077 9.95229 19.513C10.4912 20.4183 11.2597 21.1652 12.18 21.6779V24.9329H13.08V22.0829C14.4319 22.568 15.9133 22.5499 17.253 22.0319V24.9329H18.153V21.6749H18C18.9299 21.1576 19.7047 20.4012 20.2443 19.484C20.7838 18.5668 21.0686 17.5221 21.069 16.4579ZM15.09 18.8369C14.6195 18.8369 14.1595 18.6974 13.7683 18.436C13.3771 18.1746 13.0722 17.803 12.8921 17.3683C12.712 16.9336 12.6649 16.4553 12.7567 15.9938C12.8485 15.5323 13.0751 15.1084 13.4078 14.7757C13.7405 14.443 14.1644 14.2164 14.6259 14.1246C15.0874 14.0329 15.5657 14.08 16.0004 14.26C16.4351 14.4401 16.8067 14.745 17.0681 15.1362C17.3295 15.5275 17.469 15.9874 17.469 16.4579C17.4682 17.0886 17.2173 17.6933 16.7713 18.1393C16.3254 18.5852 15.7207 18.8361 15.09 18.8369ZM26.748 6.41693L21.924 7.19993L26.205 4.28993L25.905 3.84293L20.649 7.40993L20.067 7.49993L20.154 8.03393L20.526 7.97393L20.568 8.03693H20.703L20.859 7.92893L26.838 6.95393L26.748 6.41693Z" fill="#B9BCC8"/>
</svg>
