<svg width="20" height="20" viewBox="0 0 20 20" fill="none" xmlns="http://www.w3.org/2000/svg">
<path d="M18.5416 6.52915V9.32915C18.5416 9.38441 18.5197 9.4374 18.4806 9.47647C18.4415 9.51554 18.3885 9.53749 18.3333 9.53749H17.4791C17.4239 9.53749 17.3709 9.51554 17.3318 9.47647C17.2927 9.4374 17.2708 9.38441 17.2708 9.32915V8.49165L16.425 9.33749C17.0282 10.1384 17.3544 11.1139 17.3541 12.1167C17.3541 12.2583 17.3458 12.4 17.3375 12.5375C17.3446 12.5632 17.3474 12.59 17.3458 12.6167C17.2596 13.4852 16.9286 14.3115 16.3913 14.9993C15.8539 15.6871 15.1323 16.2082 14.3104 16.5019C13.4885 16.7957 12.6001 16.85 11.7485 16.6586C10.8969 16.4673 10.1171 16.038 9.49996 15.4208C8.73014 14.6465 8.25801 13.6255 8.16663 12.5375C8.16246 12.4917 8.1583 12.4458 8.1583 12.4C8.63719 12.178 9.07859 11.8828 9.46663 11.525C9.42964 11.72 9.4115 11.9182 9.41246 12.1167C9.41193 12.6657 9.54687 13.2065 9.80534 13.6909C10.0638 14.1754 10.4378 14.5886 10.8942 14.8939C11.3506 15.1992 11.8752 15.3872 12.4217 15.4412C12.9681 15.4952 13.5194 15.4136 14.0267 15.2036C14.534 14.9935 14.9817 14.6615 15.33 14.237C15.6783 13.8126 15.9165 13.3087 16.0235 12.7701C16.1305 12.2316 16.1029 11.6749 15.9433 11.1496C15.7836 10.6242 15.4968 10.1463 15.1083 9.75832C14.8739 9.52734 14.609 9.32966 14.3208 9.17082H14.3166C14.0299 9.01764 13.7226 8.90677 13.4041 8.84165C13.1886 8.79983 12.9695 8.7789 12.75 8.77915C12.0896 8.78128 11.4445 8.97841 10.8958 9.34582C10.714 9.46559 10.545 9.60383 10.3916 9.75832C10.3151 9.83346 10.2428 9.91275 10.175 9.99582C10.0611 10.1355 9.95937 10.2847 9.8708 10.4417C9.86246 10.4458 9.8583 10.45 9.86246 10.4542C9.59888 10.833 9.27845 11.1689 8.91246 11.45C8.67879 11.6298 8.43073 11.79 8.1708 11.9292C8.16663 11.9333 8.16246 11.9333 8.1583 11.9375C8.14242 11.9462 8.12566 11.9532 8.1083 11.9583C7.67112 12.1776 7.20103 12.324 6.71663 12.3917C6.71174 12.395 6.70584 12.3964 6.69996 12.3958V13.35H7.62496C7.68022 13.35 7.73321 13.3719 7.77228 13.411C7.81135 13.4501 7.8333 13.5031 7.8333 13.5583V14.4125C7.8333 14.4677 7.81135 14.5207 7.77228 14.5598C7.73321 14.5989 7.68022 14.6208 7.62496 14.6208H6.69996V15.5583C6.6991 15.6133 6.67688 15.6658 6.63799 15.7047C6.59911 15.7436 6.54662 15.7658 6.49163 15.7667H5.63746C5.58221 15.7667 5.52922 15.7447 5.49015 15.7056C5.45108 15.6666 5.42913 15.6136 5.42913 15.5583V14.6208H4.5083C4.45304 14.6208 4.40005 14.5989 4.36098 14.5598C4.32191 14.5207 4.29996 14.4677 4.29996 14.4125V13.5583C4.29996 13.5031 4.32191 13.4501 4.36098 13.411C4.40005 13.3719 4.45304 13.35 4.5083 13.35H5.42913V12.3958C4.32613 12.2471 3.31494 11.7021 2.58427 10.8626C1.8536 10.023 1.45337 8.94629 1.4583 7.83332C1.46031 6.87812 1.75716 5.94683 2.3083 5.16665C2.73316 4.56567 3.29651 4.07585 3.95069 3.73861C4.60487 3.40136 5.33064 3.22662 6.06663 3.22915C6.30098 3.2298 6.53497 3.24791 6.76663 3.28332C7.46264 3.38653 8.12533 3.64936 8.70288 4.05126C9.28042 4.45316 9.75716 4.98322 10.0958 5.59999V5.60415C10.3991 6.15176 10.5863 6.75599 10.6458 7.37915V7.39999C10.65 7.44999 10.6583 7.49999 10.6583 7.54999C10.4662 7.63581 10.281 7.7361 10.1041 7.84999C9.83263 8.01562 9.57856 8.20827 9.3458 8.42499C9.44033 7.896 9.40557 7.35201 9.24449 6.83935C9.0834 6.3267 8.80076 5.86059 8.42066 5.48075C8.04056 5.10091 7.57425 4.81859 7.06149 4.65786C6.54873 4.49713 6.00471 4.46274 5.47579 4.55764C4.94687 4.65254 4.44874 4.8739 4.02383 5.20287C3.59893 5.53183 3.25986 5.95865 3.03551 6.44694C2.81117 6.93523 2.7082 7.47053 2.73538 8.0072C2.76257 8.54388 2.91909 9.06603 3.19163 9.52915C3.62558 10.257 4.31707 10.7953 5.12913 11.0375C5.24982 11.0716 5.37221 11.0995 5.4958 11.1208C6.08032 11.2231 6.68156 11.1669 7.237 10.958C7.79243 10.7492 8.28178 10.3954 8.65413 9.93332C8.6583 9.92915 8.6583 9.92915 8.6583 9.92499C8.69996 9.87499 8.74163 9.82082 8.77913 9.76665C8.7833 9.76249 8.7833 9.75832 8.79163 9.75415C8.80038 9.73624 8.91996 9.5654 8.92913 9.53749C8.92913 9.53749 8.93163 9.53457 8.9333 9.53332C9.24767 9.06922 9.64452 8.66672 10.1041 8.34582C10.214 8.26744 10.3281 8.19511 10.4458 8.12915C10.6984 7.97829 10.9666 7.85535 11.2458 7.76249C11.9603 7.51743 12.7239 7.45121 13.4699 7.56961C14.2159 7.68801 14.9215 7.98742 15.525 8.44165L16.3708 7.59165H15.5333C15.478 7.59165 15.4251 7.5697 15.386 7.53063C15.3469 7.49156 15.325 7.43857 15.325 7.38332V6.52915C15.325 6.4739 15.3469 6.42091 15.386 6.38184C15.4251 6.34277 15.478 6.32082 15.5333 6.32082H18.3333C18.3885 6.32082 18.4415 6.34277 18.4806 6.38184C18.5197 6.42091 18.5416 6.4739 18.5416 6.52915Z" fill="#505050"/>
</svg>
