<svg width="16" height="16" viewBox="0 0 16 16" fill="none" xmlns="http://www.w3.org/2000/svg">
<g clip-path="url(#clip0_1642_3598)">
<path d="M4.35408 3.08497H4.09808L4.22608 2.72131L4.35408 3.08497ZM14.0578 3.12009L10.996 0.0582813C10.9523 0.014625 10.9051 9.375e-05 10.8687 9.375e-05C10.836 9.375e-05 10.8069 0.007375 10.7923 0.0146563C10.7596 0.0292188 10.676 0.0764688 10.676 0.185906V2.70228C10.676 3.10956 11.0069 3.44013 11.4141 3.44013H13.9305C14.0396 3.44013 14.0869 3.36013 14.1014 3.32741C14.116 3.29141 14.1414 3.2005 14.0578 3.12009ZM9.97024 0C9.95571 0.0618125 9.94843 0.124 9.94843 0.185813V2.70219C9.94843 3.50944 10.6066 4.16728 11.4142 4.16728H13.9306C13.9957 4.16728 14.0579 4.16034 14.1157 4.14909V15.0949C14.1157 15.5931 13.7088 16 13.2106 16H2.78839C2.28693 16 1.8833 15.5931 1.8833 15.0949V0.905813C1.8833 0.407281 2.28693 0 2.78839 0H9.97024ZM6.04768 2.11128C5.84693 2.11128 5.68402 2.27384 5.68402 2.47494C5.68402 2.67603 5.84693 2.83859 6.04768 2.83859H6.53352V3.32478C6.53352 3.52588 6.69643 3.68844 6.89718 3.68844C7.09827 3.68844 7.26083 3.52588 7.26083 3.32478V2.83856H7.74702C7.94777 2.83856 8.11068 2.676 8.11068 2.47491C8.11068 2.27381 7.94777 2.11125 7.74702 2.11125H7.26083V1.62509C7.26083 1.424 7.09827 1.26144 6.89718 1.26144C6.69643 1.26144 6.53352 1.424 6.53352 1.62509V2.11128H6.04768ZM2.98911 4.04656C2.92258 4.23638 3.02221 4.44366 3.21168 4.51056C3.2513 4.52475 3.29243 4.53091 3.33239 4.53091C3.48221 4.53091 3.62258 4.43744 3.6753 4.288L3.84258 3.81238H4.60946L4.77708 4.288C4.84327 4.47747 5.05164 4.57819 5.24074 4.51056C5.43021 4.44363 5.52983 4.23641 5.46293 4.04656L4.56911 1.50438C4.51786 1.35894 4.38039 1.26147 4.22621 1.26147C4.07164 1.26147 3.93418 1.35891 3.88293 1.50438L2.98911 4.04656ZM12.6673 13.6786C12.8684 13.6786 13.031 13.5157 13.031 13.3149C13.031 13.1138 12.8684 12.9513 12.6673 12.9513H3.33239C3.1313 12.9513 2.96874 13.1138 2.96874 13.3149C2.96874 13.5157 3.1313 13.6786 3.33239 13.6786H12.6673ZM3.33239 9.90184C3.1313 9.90184 2.96874 10.0644 2.96874 10.2655C2.96874 10.4666 3.1313 10.6292 3.33239 10.6292H12.6674C12.8685 10.6292 13.031 10.4666 13.031 10.2655C13.031 10.0644 12.8685 9.90184 12.6674 9.90184H3.33239ZM3.33239 6.85275C3.1313 6.85275 2.96874 7.01531 2.96874 7.21641C2.96874 7.4175 3.1313 7.58006 3.33239 7.58006H10.3255C10.5262 7.58006 10.6892 7.4175 10.6892 7.21641C10.6892 7.01531 10.5263 6.85275 10.3255 6.85275H3.33239Z" fill="#FF984C"/>
</g>
<defs>
<clipPath id="clip0_1642_3598">
<rect width="16" height="16" fill="white"/>
</clipPath>
</defs>
</svg>
