<svg width="31" height="31" viewBox="0 0 31 31" fill="none" xmlns="http://www.w3.org/2000/svg">
<path d="M16.055 13.4688L13.43 16.1023C14.1672 16.4699 14.7638 17.0686 15.1288 17.8071L17.7538 15.1732L16.055 13.4688ZM9.69783 17.4781C9.15986 18.0198 8.85794 18.7522 8.85794 19.5157C8.85794 20.2792 9.15986 21.0117 9.69783 21.5534C9.96361 21.821 10.2797 22.0334 10.6279 22.1784C10.9762 22.3234 11.3496 22.398 11.7268 22.398C12.104 22.398 12.4775 22.3234 12.8257 22.1784C13.1739 22.0334 13.49 21.821 13.7558 21.5534C14.2938 21.0117 14.5957 20.2792 14.5957 19.5157C14.5957 18.7522 14.2938 18.0198 13.7558 17.4781C13.4897 17.2109 13.1735 16.9989 12.8254 16.8543C12.4772 16.7097 12.1039 16.6352 11.7268 16.6352C11.3498 16.6352 10.9765 16.7097 10.6283 16.8543C10.2801 16.9989 9.96389 17.2109 9.69783 17.4781ZM6.1569 22.4866C6.06721 22.4017 5.94835 22.3543 5.82479 22.3543C5.70123 22.3543 5.58237 22.4017 5.49268 22.4866L5.24237 22.7379C5.15478 22.8258 5.10559 22.9448 5.10559 23.0688C5.10559 23.1929 5.15478 23.3119 5.24237 23.3998L7.8533 26.0196C7.89685 26.0633 7.94857 26.0979 8.00552 26.1215C8.06247 26.1452 8.12352 26.1573 8.18518 26.1573C8.24684 26.1573 8.30789 26.1452 8.36484 26.1215C8.42178 26.0979 8.47351 26.0633 8.51705 26.0196L8.76784 25.7684C8.85543 25.6805 8.90461 25.5615 8.90461 25.4374C8.90461 25.3134 8.85543 25.1944 8.76784 25.1065L6.1569 22.4866Z" fill="#B9BCC8"/>
<path d="M19.2027 10.3109L16.7169 12.8046L18.4157 14.5095L20.9019 12.0152L19.2027 10.3109Z" fill="#B9BCC8"/>
<path d="M18.7466 15.5056L15.4654 18.7976C15.5827 19.4092 15.5488 20.0402 15.3667 20.6357C15.1846 21.2313 14.8598 21.7733 14.4205 22.2148C14.0677 22.5697 13.6481 22.8514 13.186 23.0436C12.7239 23.2359 12.2283 23.3348 11.7278 23.3348C11.2273 23.3348 10.7317 23.2359 10.2696 23.0436C9.80748 22.8514 9.38792 22.5697 9.03506 22.2148C8.32236 21.4971 7.92239 20.5267 7.92239 19.5152C7.92239 18.5038 8.32236 17.5334 9.03506 16.8157C9.38742 16.4601 9.80695 16.1781 10.2693 15.9861C10.7316 15.7941 11.2274 15.6959 11.728 15.6973C11.9678 15.6976 12.2069 15.7204 12.4424 15.7652L15.7237 12.4732L16.746 11.4481C14.6807 10.3409 12.4124 10.4599 11.0774 11.7987C10.7831 12.0939 10.5431 12.4387 10.3687 12.8173C10.0948 13.4157 9.65166 13.9208 9.09391 14.2701C8.53617 14.6194 7.8883 14.7976 7.23037 14.7827C6.42626 14.7258 5.61915 14.8383 4.86121 15.1128C4.10327 15.3873 3.41137 15.8178 2.83021 16.3765C0.26709 18.9523 0.853027 23.7326 4.14225 27.0331C5.84116 28.8217 8.17591 29.8696 10.6415 29.9501C11.4002 29.9727 12.1557 29.8424 12.863 29.5671C13.5704 29.2918 14.2152 28.877 14.759 28.3474C15.3045 27.7741 15.727 27.0952 16.0004 26.3525C16.2739 25.6098 16.3925 24.8191 16.349 24.0288C16.3345 23.3704 16.5147 22.7223 16.8669 22.1659C17.2191 21.6094 17.7277 21.1692 18.329 20.9004C18.731 20.7224 19.0965 20.4715 19.4071 20.1602C20.7402 18.8224 20.8602 16.5509 19.7619 14.4841L18.7447 15.5046L18.7466 15.5056ZM9.43162 26.4302L9.18131 26.6815C9.0511 26.8128 8.89605 26.917 8.7252 26.9878C8.55435 27.0586 8.3711 27.0947 8.18615 27.094C8.00105 27.0948 7.81765 27.0587 7.64663 26.9879C7.47561 26.9171 7.32041 26.8129 7.19006 26.6815L4.57959 24.0616C4.3175 23.7977 4.17042 23.4408 4.17042 23.0688C4.17042 22.6969 4.3175 22.34 4.57959 22.076L4.8299 21.8248C5.09832 21.5689 5.45493 21.4262 5.82576 21.4262C6.1966 21.4262 6.55321 21.5689 6.82162 21.8248L9.43256 24.4446C9.69521 24.7083 9.84259 25.0654 9.84242 25.4376C9.84224 25.8098 9.69452 26.1668 9.43162 26.4302Z" fill="#B9BCC8"/>
<path d="M19.8646 9.64665L21.5633 11.3515L24.0496 8.85727L23.2241 8.02899L22.3508 7.15243L19.8646 9.64665Z" fill="#B9BCC8"/>
<path d="M29.5391 6.03399L28.9884 5.48133L29.1009 5.3679C29.222 5.246 29.29 5.0811 29.29 4.90923C29.29 4.73735 29.222 4.57245 29.1009 4.45055L26.7402 2.08243C26.618 1.96484 26.4549 1.89916 26.2853 1.89916C26.1157 1.89916 25.9526 1.96484 25.8304 2.08243L25.7109 2.20243L25.1526 1.64227C25.1094 1.59744 25.0577 1.56167 25.0006 1.53702C24.9434 1.51238 24.8819 1.49936 24.8197 1.49873C24.7574 1.49811 24.6957 1.50988 24.6381 1.53337C24.5804 1.55686 24.5281 1.59159 24.484 1.63554C24.4399 1.67948 24.405 1.73177 24.3814 1.78934C24.3577 1.84691 24.3458 1.90862 24.3462 1.97086C24.3467 2.0331 24.3595 2.09462 24.384 2.15184C24.4085 2.20907 24.4441 2.26084 24.4888 2.30415L25.0513 2.86665L24.0716 3.8468L23.5959 3.36962C23.5527 3.32479 23.501 3.28901 23.4438 3.26436C23.3867 3.23972 23.3252 3.22671 23.263 3.22608C23.2007 3.22545 23.139 3.23722 23.0814 3.26071C23.0237 3.2842 22.9713 3.31893 22.9273 3.36288C22.8832 3.40683 22.8483 3.45911 22.8247 3.51669C22.801 3.57426 22.7891 3.63596 22.7895 3.6982C22.79 3.76044 22.8028 3.82197 22.8273 3.87919C22.8518 3.93641 22.8874 3.98819 22.9321 4.03149L23.5068 4.60805L22.5594 6.03399L22.6823 6.15727L23.8832 7.36243L25.1648 8.64915L26.5944 7.6929L27.1509 8.25118C27.194 8.29601 27.2457 8.33178 27.3029 8.35643C27.36 8.38107 27.4215 8.39409 27.4837 8.39472C27.546 8.39534 27.6077 8.38357 27.6654 8.36008C27.723 8.33659 27.7754 8.30186 27.8194 8.25791C27.8635 8.21397 27.8984 8.16168 27.9221 8.10411C27.9457 8.04654 27.9577 7.98483 27.9572 7.92259C27.9567 7.86035 27.9439 7.79883 27.9194 7.74161C27.8949 7.68438 27.8593 7.63261 27.8146 7.5893L27.3515 7.12477L28.3265 6.14649L28.8754 6.69727C28.9637 6.78279 29.082 6.83021 29.2049 6.82932C29.3278 6.82843 29.4455 6.7793 29.5325 6.69251C29.6196 6.60572 29.669 6.48822 29.6703 6.36531C29.6715 6.2424 29.6244 6.12392 29.5391 6.0354V6.03399Z" fill="#B9BCC8"/>
</svg>
