<svg width="19" height="19" viewBox="0 0 19 19" fill="none" xmlns="http://www.w3.org/2000/svg">
<rect width="19" height="19" rx="4" fill="url(#paint0_linear_1379_4106)"/>
<g clip-path="url(#clip0_1379_4106)">
<path d="M10.2002 8.24707L9.32516 9.12488C9.57088 9.24742 9.76975 9.447 9.89141 9.69316L10.7664 8.8152L10.2002 8.24707ZM8.08109 9.58348C7.90177 9.76405 7.80113 10.0082 7.80113 10.2627C7.80113 10.5172 7.90177 10.7613 8.08109 10.9419C8.16969 11.0311 8.27505 11.1019 8.39113 11.1503C8.5072 11.1986 8.63169 11.2235 8.75742 11.2235C8.88315 11.2235 9.00764 11.1986 9.12372 11.1503C9.23979 11.1019 9.34516 11.0311 9.43375 10.9419C9.61308 10.7613 9.71371 10.5172 9.71371 10.2627C9.71371 10.0082 9.61308 9.76405 9.43375 9.58348C9.34506 9.49443 9.23967 9.42377 9.1236 9.37556C9.00754 9.32734 8.8831 9.30253 8.75742 9.30253C8.63174 9.30253 8.5073 9.32734 8.39124 9.37556C8.27518 9.42377 8.16978 9.49443 8.08109 9.58348ZM6.90078 11.253C6.87089 11.2247 6.83127 11.2089 6.79008 11.2089C6.74889 11.2089 6.70927 11.2247 6.67938 11.253L6.59594 11.3368C6.56674 11.366 6.55035 11.4057 6.55035 11.4471C6.55035 11.4884 6.56674 11.5281 6.59594 11.5574L7.46625 12.4307C7.48077 12.4452 7.49801 12.4568 7.51699 12.4646C7.53597 12.4725 7.55632 12.4766 7.57688 12.4766C7.59743 12.4766 7.61778 12.4725 7.63676 12.4646C7.65574 12.4568 7.67299 12.4452 7.6875 12.4307L7.77109 12.3469C7.80029 12.3176 7.81669 12.278 7.81669 12.2366C7.81669 12.1952 7.80029 12.1556 7.77109 12.1263L6.90078 11.253Z" fill="white"/>
<path d="M11.2494 7.19434L10.4208 8.02559L10.987 8.59387L11.8158 7.76246L11.2494 7.19434Z" fill="white"/>
<path d="M11.0973 8.92587L10.0036 10.0232C10.0427 10.2271 10.0314 10.4374 9.9707 10.6359C9.91001 10.8344 9.80174 11.0151 9.65531 11.1623C9.53769 11.2806 9.39784 11.3745 9.2438 11.4386C9.08976 11.5026 8.92457 11.5356 8.75774 11.5356C8.5909 11.5356 8.42571 11.5026 8.27167 11.4386C8.11763 11.3745 7.97778 11.2806 7.86016 11.1623C7.62259 10.923 7.48927 10.5996 7.48927 10.2624C7.48927 9.92528 7.62259 9.60181 7.86016 9.36258C7.97761 9.24406 8.11746 9.15006 8.27156 9.08606C8.42566 9.02206 8.59095 8.98933 8.75781 8.98977C8.83772 8.98988 8.91744 8.99747 8.99594 9.01243L10.0897 7.91508L10.4305 7.57337C9.74203 7.2043 8.98594 7.24399 8.54094 7.69024C8.44283 7.78864 8.36285 7.90358 8.30469 8.02977C8.21341 8.22925 8.06569 8.39761 7.87978 8.51404C7.69386 8.63048 7.47791 8.68989 7.2586 8.68493C6.99056 8.66596 6.72152 8.70344 6.46888 8.79495C6.21623 8.88646 5.9856 9.02996 5.79188 9.21618C4.9375 10.0748 5.13281 11.6682 6.22922 12.7684C6.79552 13.3646 7.57378 13.7139 8.39563 13.7407C8.64853 13.7482 8.90037 13.7048 9.13615 13.613C9.37194 13.5213 9.58686 13.383 9.76813 13.2065C9.94998 13.0154 10.0908 12.7891 10.1819 12.5415C10.2731 12.294 10.3126 12.0304 10.2981 11.767C10.2933 11.5475 10.3534 11.3315 10.4708 11.146C10.5882 10.9605 10.7577 10.8137 10.9581 10.7241C11.0921 10.6648 11.214 10.5812 11.3175 10.4774C11.7619 10.0315 11.8019 9.2743 11.4358 8.5854L11.0967 8.92555L11.0973 8.92587ZM7.99235 12.5674L7.90891 12.6512C7.86551 12.695 7.81382 12.7297 7.75687 12.7533C7.69992 12.7769 7.63884 12.7889 7.57719 12.7887C7.51549 12.7889 7.45435 12.7769 7.39735 12.7533C7.34034 12.7297 7.28861 12.695 7.24516 12.6512L6.375 11.7779C6.28764 11.6899 6.23861 11.5709 6.23861 11.447C6.23861 11.323 6.28764 11.204 6.375 11.116L6.45844 11.0323C6.54791 10.947 6.66678 10.8994 6.79039 10.8994C6.91401 10.8994 7.03287 10.947 7.12235 11.0323L7.99266 11.9056C8.08021 11.9935 8.12934 12.1125 8.12928 12.2366C8.12922 12.3606 8.07998 12.4796 7.99235 12.5674Z" fill="white"/>
<path d="M11.47 6.97301L12.0363 7.54129L12.865 6.70988L12.5898 6.43379L12.2988 6.1416L11.47 6.97301Z" fill="white"/>
<path d="M14.6948 5.7686L14.5112 5.58438L14.5487 5.54656C14.5891 5.50593 14.6118 5.45097 14.6118 5.39367C14.6118 5.33638 14.5891 5.28142 14.5487 5.24078L13.7619 4.45141C13.7211 4.41221 13.6668 4.39032 13.6102 4.39032C13.5537 4.39032 13.4993 4.41221 13.4586 4.45141L13.4187 4.49141L13.2327 4.30469C13.2183 4.28975 13.201 4.27782 13.182 4.26961C13.1629 4.26139 13.1424 4.25705 13.1217 4.25684C13.1009 4.25663 13.0804 4.26056 13.0612 4.26839C13.0419 4.27622 13.0245 4.28779 13.0098 4.30244C12.9951 4.31709 12.9835 4.33452 12.9756 4.35371C12.9677 4.3729 12.9637 4.39347 12.9639 4.41422C12.964 4.43496 12.9683 4.45547 12.9765 4.47455C12.9846 4.49362 12.9965 4.51088 13.0114 4.52531L13.1989 4.71281L12.8723 5.03953L12.7137 4.88047C12.6994 4.86553 12.6821 4.8536 12.6631 4.84539C12.644 4.83717 12.6235 4.83283 12.6028 4.83263C12.582 4.83242 12.5615 4.83634 12.5422 4.84417C12.523 4.852 12.5056 4.86358 12.4909 4.87823C12.4762 4.89288 12.4646 4.9103 12.4567 4.92949C12.4488 4.94868 12.4448 4.96925 12.445 4.99C12.4451 5.01075 12.4494 5.03125 12.4576 5.05033C12.4657 5.0694 12.4776 5.08666 12.4925 5.1011L12.6841 5.29328L12.3683 5.7686L12.4092 5.80969L12.8095 6.21141L13.2367 6.64031L13.7133 6.32156L13.8987 6.50766C13.9131 6.5226 13.9304 6.53453 13.9494 6.54274C13.9685 6.55096 13.989 6.5553 14.0097 6.5555C14.0305 6.55571 14.051 6.55179 14.0702 6.54396C14.0895 6.53613 14.1069 6.52455 14.1216 6.5099C14.1363 6.49525 14.1479 6.47783 14.1558 6.45864C14.1637 6.43945 14.1677 6.41888 14.1675 6.39813C14.1674 6.37738 14.1631 6.35688 14.1549 6.3378C14.1468 6.31873 14.1349 6.30147 14.12 6.28703L13.9656 6.13219L14.2906 5.8061L14.4736 5.98969C14.503 6.0182 14.5425 6.034 14.5834 6.03371C14.6244 6.03341 14.6636 6.01703 14.6926 5.9881C14.7216 5.95917 14.7381 5.92 14.7385 5.87904C14.739 5.83807 14.7233 5.79857 14.6948 5.76906V5.7686Z" fill="white"/>
</g>
<defs>
<linearGradient id="paint0_linear_1379_4106" x1="19" y1="19" x2="2.45501" y2="-1.93976" gradientUnits="userSpaceOnUse">
<stop stop-color="#ED3026"/>
<stop offset="1" stop-color="#FF9C7D"/>
</linearGradient>
<clipPath id="clip0_1379_4106">
<rect width="10" height="10" fill="white" transform="translate(5 4)"/>
</clipPath>
</defs>
</svg>
