<svg width="8" height="8" viewBox="0 0 8 8" fill="none" xmlns="http://www.w3.org/2000/svg">
<g clip-path="url(#clip0_1569_4365)">
<path d="M4.16013 3.39746L3.46013 4.09971C3.65671 4.19774 3.81581 4.35741 3.91313 4.55434L4.61313 3.85196L4.16013 3.39746ZM2.46488 4.46659C2.32142 4.61104 2.24091 4.80637 2.24091 5.00996C2.24091 5.21355 2.32142 5.40888 2.46488 5.55334C2.53575 5.62471 2.62005 5.68136 2.71291 5.72001C2.80577 5.75867 2.90536 5.77857 3.00594 5.77857C3.10653 5.77857 3.20612 5.75867 3.29898 5.72001C3.39184 5.68136 3.47613 5.62471 3.547 5.55334C3.69046 5.40888 3.77097 5.21355 3.77097 5.00996C3.77097 4.80637 3.69046 4.61104 3.547 4.46659C3.47605 4.39535 3.39174 4.33882 3.29889 4.30025C3.20604 4.26168 3.10648 4.24183 3.00594 4.24183C2.9054 4.24183 2.80585 4.26168 2.713 4.30025C2.62015 4.33882 2.53583 4.39535 2.46488 4.46659ZM1.52063 5.80221C1.49671 5.77955 1.46502 5.76691 1.43207 5.76691C1.39912 5.76691 1.36742 5.77955 1.3435 5.80221L1.27675 5.86921C1.2534 5.89264 1.24028 5.92438 1.24028 5.95746C1.24028 5.99055 1.2534 6.02228 1.27675 6.04571L1.973 6.74434C1.98462 6.75598 1.99841 6.76521 2.0136 6.77151C2.02878 6.77782 2.04506 6.78106 2.0615 6.78106C2.07795 6.78106 2.09423 6.77782 2.10941 6.77151C2.1246 6.76521 2.13839 6.75598 2.15 6.74434L2.21688 6.67734C2.24024 6.65391 2.25335 6.62217 2.25335 6.58909C2.25335 6.556 2.24024 6.52427 2.21688 6.50084L1.52063 5.80221Z" fill="white"/>
<path d="M4.9995 2.55566L4.33662 3.22066L4.78962 3.67529L5.45262 3.01016L4.9995 2.55566Z" fill="white"/>
<path d="M4.87787 3.94128L4.00287 4.81915C4.03415 4.98225 4.02512 5.15052 3.97656 5.30933C3.928 5.46814 3.84139 5.61269 3.72425 5.7304C3.63015 5.82506 3.51827 5.90018 3.39504 5.95143C3.27181 6.00269 3.13966 6.02908 3.00619 6.02908C2.87272 6.02908 2.74057 6.00269 2.61734 5.95143C2.4941 5.90018 2.38222 5.82506 2.28813 5.7304C2.09807 5.53902 1.99141 5.28025 1.99141 5.01053C1.99141 4.74081 2.09807 4.48204 2.28813 4.29065C2.38209 4.19583 2.49396 4.12064 2.61725 4.06944C2.74053 4.01823 2.87276 3.99205 3.00625 3.9924C3.07018 3.99249 3.13395 3.99856 3.19675 4.01053L4.07175 3.13265L4.34438 2.85928C3.79363 2.56403 3.18875 2.59578 2.83275 2.95278C2.75426 3.0315 2.69028 3.12345 2.64375 3.2244C2.57073 3.38398 2.45255 3.51867 2.30382 3.61182C2.15509 3.70497 1.98232 3.7525 1.80688 3.74853C1.59245 3.73335 1.37722 3.76334 1.1751 3.83655C0.972983 3.90975 0.788475 4.02455 0.6335 4.17353C-0.0499995 4.8604 0.10625 6.13515 0.983375 7.01528C1.43642 7.49224 2.05902 7.77168 2.7165 7.79315C2.91882 7.79917 3.12029 7.76444 3.30892 7.69102C3.49755 7.6176 3.66948 7.50699 3.8145 7.36578C3.95998 7.21289 4.07264 7.03185 4.14556 6.8338C4.21847 6.63575 4.2501 6.42488 4.2385 6.21415C4.23465 6.03857 4.2827 5.86576 4.37662 5.71736C4.47054 5.56896 4.60616 5.45157 4.7665 5.3799C4.87371 5.33245 4.97119 5.26552 5.054 5.18253C5.4095 4.82578 5.4415 4.22003 5.14862 3.6689L4.87738 3.94103L4.87787 3.94128ZM2.39388 6.85453L2.32713 6.92153C2.2924 6.95655 2.25106 6.98432 2.2055 7.00321C2.15993 7.02209 2.11107 7.03172 2.06175 7.03153C2.01239 7.03174 1.96348 7.02212 1.91788 7.00324C1.87227 6.98435 1.83088 6.95657 1.79613 6.92153L1.1 6.2229C1.03011 6.15251 0.990888 6.05735 0.990888 5.95815C0.990888 5.85896 1.03011 5.76379 1.1 5.6934L1.16675 5.6264C1.23833 5.55817 1.33342 5.52011 1.43231 5.52011C1.5312 5.52011 1.6263 5.55817 1.69788 5.6264L2.39413 6.32503C2.46416 6.39535 2.50347 6.49058 2.50342 6.58983C2.50337 6.68908 2.46398 6.78427 2.39388 6.85453Z" fill="white"/>
<path d="M5.176 2.37802L5.629 2.83264L6.292 2.16752L6.07188 1.94664L5.839 1.71289L5.176 2.37802Z" fill="white"/>
<path d="M7.75587 1.41546L7.609 1.26809L7.639 1.23784C7.67131 1.20533 7.68945 1.16136 7.68945 1.11553C7.68945 1.06969 7.67131 1.02572 7.639 0.993213L7.0095 0.361713C6.9769 0.330356 6.93342 0.312841 6.88819 0.312841C6.84295 0.312841 6.79947 0.330356 6.76687 0.361713L6.735 0.393713L6.58612 0.244338C6.57461 0.232384 6.56083 0.222843 6.54559 0.216271C6.53035 0.209699 6.51395 0.206228 6.49735 0.206061C6.48076 0.205894 6.46429 0.209033 6.44892 0.215297C6.43355 0.22156 6.41958 0.230822 6.40783 0.242541C6.39608 0.254261 6.38678 0.268204 6.38047 0.283556C6.37416 0.298909 6.37098 0.315363 6.3711 0.33196C6.37122 0.348557 6.37464 0.364964 6.38117 0.380224C6.3877 0.395483 6.3972 0.40929 6.40912 0.420838L6.55912 0.570838L6.29787 0.832213L6.171 0.704963C6.15948 0.693009 6.1457 0.683468 6.13046 0.676896C6.11522 0.670324 6.09882 0.666853 6.08223 0.666686C6.06563 0.666519 6.04917 0.669659 6.0338 0.675922C6.01843 0.682185 6.00446 0.691447 5.99271 0.703166C5.98095 0.714886 5.97165 0.728829 5.96534 0.744181C5.95904 0.759534 5.95585 0.775989 5.95597 0.792585C5.95609 0.809183 5.95952 0.825589 5.96605 0.840849C5.97257 0.856108 5.98208 0.869915 5.994 0.881463L6.14725 1.03521L5.89462 1.41546L5.92737 1.44834L6.24762 1.76971L6.58937 2.11284L6.97062 1.85784L7.119 2.00671C7.13051 2.01867 7.14429 2.02821 7.15953 2.03478C7.17477 2.04135 7.19117 2.04482 7.20777 2.04499C7.22436 2.04516 7.24083 2.04202 7.2562 2.03575C7.27157 2.02949 7.28554 2.02023 7.29729 2.00851C7.30904 1.99679 7.31834 1.98285 7.32465 1.96749C7.33096 1.95214 7.33414 1.93569 7.33402 1.91909C7.3339 1.90249 7.33048 1.88609 7.32395 1.87083C7.31742 1.85557 7.30792 1.84176 7.296 1.83021L7.1725 1.70634L7.4325 1.44546L7.57887 1.59234C7.60242 1.61514 7.63397 1.62779 7.66675 1.62755C7.69953 1.62731 7.7309 1.61421 7.75411 1.59107C7.77732 1.56792 7.79051 1.53659 7.79084 1.50381C7.79117 1.47104 7.77861 1.43944 7.75587 1.41584V1.41546Z" fill="white"/>
</g>
<defs>
<clipPath id="clip0_1569_4365">
<rect width="8" height="8" fill="white"/>
</clipPath>
</defs>
</svg>
