<svg width="16" height="16" viewBox="0 0 16 16" fill="none" xmlns="http://www.w3.org/2000/svg">
<g clip-path="url(#clip0_1950_4177)">
<path fill-rule="evenodd" clip-rule="evenodd" d="M8 8.00004C6.2352 8.00004 4.8 6.56484 4.8 4.80004C4.8 3.03524 6.2352 1.60004 8 1.60004C9.7648 1.60004 11.2 3.03524 11.2 4.80004C11.2 6.56484 9.7648 8.00004 8 8.00004ZM11.0064 8.53842C11.5665 8.08964 12.0186 7.52069 12.329 6.87358C12.6395 6.22646 12.8005 5.51778 12.8 4.80004C12.8006 3.98848 12.5954 3.19006 12.2036 2.47934C11.8118 1.76861 11.2462 1.16875 10.5596 0.735978C9.8731 0.303203 9.08806 0.0516073 8.27786 0.00463028C7.46765 -0.0423467 6.65877 0.116896 5.92681 0.467423C5.19485 0.817951 4.56372 1.34834 4.09241 2.00902C3.62109 2.6697 3.32498 3.43906 3.23176 4.24526C3.13855 5.05145 3.25126 5.86809 3.55938 6.61889C3.86749 7.36969 4.36095 8.03011 4.9936 8.53842C2.0664 9.63842 0 12.356 0 16H1.6C1.6 12 4.4712 9.60004 8 9.60004C11.5288 9.60004 14.4 12 14.4 16H16C16 12.356 13.9336 9.63842 11.0064 8.53842Z" fill="#505050"/>
</g>
<defs>
<clipPath id="clip0_1950_4177">
<rect width="16" height="16" fill="white"/>
</clipPath>
</defs>
</svg>
