<svg width="20" height="20" viewBox="0 0 20 20" fill="none" xmlns="http://www.w3.org/2000/svg">
<path d="M16.25 0.833008L15.3417 2.84134L13.3333 3.74967L15.3417 4.65801L16.25 6.66634L17.1667 4.65801L19.1667 3.74967L17.1667 2.84134L16.25 0.833008ZM9.99999 1.66634C5.41666 1.66634 1.66666 5.41634 1.66666 9.99967C1.66666 14.583 5.41666 18.333 9.99999 18.333C14.5833 18.333 18.3333 14.583 18.3333 9.99967C18.3333 8.77467 18.0583 7.60801 17.5833 6.55801L16.55 8.80801C16.625 9.19967 16.6667 9.58301 16.6667 9.99967C16.6667 13.6913 13.6917 16.6663 9.99999 16.6663C6.30832 16.6663 3.33332 13.6913 3.33332 9.99967V9.88301C4.40554 9.48198 5.38364 8.86434 6.20661 8.06861C7.02958 7.27288 7.67978 6.31612 8.11666 5.25801C9.01661 6.36499 10.1858 7.22223 11.5123 7.74754C12.8387 8.27286 14.2778 8.44863 15.6917 8.25801L14.9667 6.66634H14.5833C12.2333 6.66634 10.0833 5.41634 8.88332 3.43301C9.24999 3.37467 9.61666 3.33301 9.99999 3.33301C10.4167 3.33301 10.8 3.37467 11.1833 3.44134L13.4417 2.42467C12.3628 1.92595 11.1886 1.66722 9.99999 1.66634ZM6.74166 4.16634C6.22581 5.75665 5.13127 7.09509 3.67499 7.91634C4.19999 6.30801 5.30832 4.99967 6.74166 4.16634ZM7.49999 9.79134C7.22372 9.79134 6.95877 9.90109 6.76342 10.0964C6.56807 10.2918 6.45832 10.5567 6.45832 10.833C6.45832 11.1093 6.56807 11.3742 6.76342 11.5696C6.95877 11.7649 7.22372 11.8747 7.49999 11.8747C7.63678 11.8747 7.77224 11.8477 7.89862 11.7954C8.025 11.743 8.13983 11.6663 8.23656 11.5696C8.33329 11.4728 8.41002 11.358 8.46236 11.2316C8.51471 11.1053 8.54166 10.9698 8.54166 10.833C8.54166 10.6962 8.51471 10.5608 8.46236 10.4344C8.41002 10.308 8.33329 10.1932 8.23656 10.0964C8.13983 9.99971 8.025 9.92298 7.89862 9.87063C7.77224 9.81828 7.63678 9.79134 7.49999 9.79134ZM12.5 9.79134C12.2237 9.79134 11.9588 9.90109 11.7634 10.0964C11.5681 10.2918 11.4583 10.5567 11.4583 10.833C11.4583 11.1093 11.5681 11.3742 11.7634 11.5696C11.9588 11.7649 12.2237 11.8747 12.5 11.8747C12.7763 11.8747 13.0412 11.7649 13.2366 11.5696C13.4319 11.3742 13.5417 11.1093 13.5417 10.833C13.5417 10.5567 13.4319 10.2918 13.2366 10.0964C13.0412 9.90109 12.7763 9.79134 12.5 9.79134Z" fill="#473ADD"/>
</svg>
