<svg width="15" height="22" viewBox="0 0 15 22" fill="none" xmlns="http://www.w3.org/2000/svg">
<path fill-rule="evenodd" clip-rule="evenodd" d="M8.92805 17.512V19.8H11.0254C11.5166 19.8 11.9172 20.2422 11.9172 20.7845V21.0166C11.9172 21.5578 11.5166 22 11.0254 22H4.83792C4.34671 22 3.94616 21.5578 3.94616 21.0166V20.7845C3.94616 20.2422 4.34671 19.8 4.83792 19.8H6.93529V17.512C3.56056 16.9752 0.957031 13.772 0.957031 9.9C0.957031 9.2928 1.40241 8.8 1.95341 8.8C2.5044 8.8 2.94978 9.2928 2.94978 9.9C2.94978 12.9327 5.18466 15.4 7.93167 15.4C10.6787 15.4 12.9136 12.9327 12.9136 9.9C12.9136 9.2928 13.3589 8.8 13.9099 8.8C14.4609 8.8 14.9063 9.2928 14.9063 9.9C14.9063 13.772 12.3028 16.9752 8.92805 17.512ZM5.93877 4.4C5.93877 3.1867 6.83252 2.2 7.93153 2.2C9.03053 2.2 9.92428 3.1867 9.92428 4.4V9.9C9.92428 11.1133 9.03053 12.1 7.93153 12.1C6.83252 12.1 5.93877 11.1133 5.93877 9.9V4.4ZM7.9315 14.3C10.1295 14.3 11.917 12.3266 11.917 9.9V4.4C11.917 1.9745 10.1295 0 7.9315 0C5.73349 0 3.94599 1.9745 3.94599 4.4V9.9C3.94599 12.3266 5.73349 14.3 7.9315 14.3Z" fill="#475569"/>
</svg>
