<svg width="17" height="19" viewBox="0 0 17 19" fill="none" xmlns="http://www.w3.org/2000/svg">
<path d="M15.9999 13.0001V2.00009C15.9992 1.84988 15.9647 1.70176 15.8989 1.56673C15.8332 1.4317 15.7378 1.31322 15.6199 1.22009C15.5038 1.12611 15.368 1.05936 15.2226 1.02475C15.0773 0.990142 14.926 0.988548 14.7799 1.02009L5.77994 3.02009C5.55776 3.07019 5.35934 3.19464 5.21751 3.37285C5.07567 3.55105 4.99892 3.77233 4.99994 4.00009V12.3401C4.31727 12.0178 3.54851 11.9256 2.80897 12.0772C2.06944 12.2289 1.39902 12.6162 0.898279 13.1811C0.397539 13.7461 0.0934816 14.4582 0.0317216 15.2106C-0.0300385 15.9629 0.153829 16.7151 0.55574 17.3541C0.957651 17.9932 1.55594 18.4846 2.26084 18.7549C2.96574 19.0251 3.73926 19.0594 4.46534 18.8528C5.19143 18.6461 5.83094 18.2096 6.28792 17.6087C6.74491 17.0079 6.99475 16.275 6.99994 15.5201C7.01029 15.3469 7.01029 15.1733 6.99994 15.0001V4.80009L13.9999 3.25009V10.3401C13.3169 10.0176 12.5477 9.92544 11.8078 10.0774C11.0679 10.2294 10.3972 10.6173 9.8966 11.183C9.39597 11.7486 9.09236 12.4613 9.03137 13.2142C8.97037 13.9671 9.15528 14.7195 9.55833 15.3583C9.96138 15.9971 10.5608 16.4879 11.2666 16.757C11.9724 17.0262 12.7464 17.059 13.4725 16.8507C14.1985 16.6424 14.8374 16.2041 15.2931 15.6018C15.7489 14.9994 15.9969 14.2654 15.9999 13.5101C16.0094 13.3402 16.0094 13.17 15.9999 13.0001Z" fill="white"/>
</svg>
