<svg width="17" height="14" viewBox="0 0 17 14" fill="none" xmlns="http://www.w3.org/2000/svg">
<path fill-rule="evenodd" clip-rule="evenodd" d="M1.61865 0H2.47502V0.282698C4.618 0.766152 4.86287 1.78496 3.62052 3.38281C3.75195 1.79452 3.59009 1.45446 2.47502 1.38071V5.39584C2.47642 5.41721 2.47642 5.43865 2.47502 5.46003C2.47502 5.98172 1.92163 6.49932 1.23682 6.61677C0.552002 6.73422 0 6.40508 0 5.88203C0 5.1705 0.99056 4.55184 1.61865 4.77035V0ZM14.2497 0H15.106V0.282698C17.2476 0.766152 17.4925 1.78496 16.2502 3.38281C16.3885 1.79452 16.2197 1.45446 15.106 1.38071V5.39584C15.106 5.41633 15.106 5.43818 15.106 5.46003C15.106 5.98172 14.5527 6.49932 13.8609 6.61677C13.1692 6.73422 12.6158 6.40508 12.6158 5.88203C12.6158 5.1705 13.6064 4.55184 14.2345 4.77035V0H14.2497ZM9.7548 9.37409C9.96095 9.33634 10.1727 9.34006 10.3774 9.38502V5.07081L5.75244 6.3805C5.75244 8.07942 5.75244 9.77743 5.75244 11.4745C5.75244 12.2694 4.86426 12.8484 4.15177 12.9768C3.26774 13.127 2.54972 12.7036 2.54972 12.0208C2.54972 11.338 3.27189 10.677 4.15039 10.5267C4.44977 10.4705 4.75873 10.4902 5.04826 10.5841V4.41664L11.0719 3.06324V10.0119C11.1383 10.7493 10.3801 11.3079 9.74927 11.4158C9.0105 11.5414 8.41284 11.1864 8.41284 10.6223C8.41284 10.0583 9.0105 9.49974 9.74927 9.37409H9.7548Z" fill="#F5AB35"/>
</svg>
