<svg width="21" height="23" viewBox="0 0 21 23" fill="none" xmlns="http://www.w3.org/2000/svg">
<g clip-path="url(#clip0_2370_8102)">
<path fill-rule="evenodd" clip-rule="evenodd" d="M16.3005 5.27645C16.4268 5.31121 16.5382 5.38469 16.6178 5.48591C16.6975 5.58713 16.7412 5.71064 16.7425 5.83797V6.82813H18.2575C18.4323 6.82676 18.6056 6.85916 18.7673 6.92344C18.929 6.98771 19.0758 7.08257 19.1993 7.20248C19.4475 7.44548 19.5863 7.7739 19.5853 8.11589V11.2698H18.4274V8.12712C18.4277 8.07828 18.4083 8.03126 18.3733 7.9961C18.3366 7.96174 18.2873 7.9429 18.2363 7.94369H16.7425V11.2679H15.5247V6.55111H10.4624C10.3814 6.5521 10.301 6.53748 10.2259 6.50811C10.1508 6.47874 10.0824 6.43519 10.0248 6.37999C9.96714 6.3248 9.92138 6.25905 9.89015 6.18657C9.85892 6.11409 9.84285 6.03632 9.84285 5.95777V1.17733H1.21975V19.0487H8.44555V20.2298H3.15937V21.7122C3.15907 21.7611 3.17846 21.8081 3.21341 21.8433C3.24966 21.8772 3.29815 21.896 3.34851 21.8957H8.4417V23.0056H3.35622C3.00359 23.0017 2.6665 22.8643 2.41696 22.6226C2.16741 22.381 2.0252 22.0542 2.02069 21.7122V20.2373H1.09237C0.803021 20.2376 0.52538 20.1265 0.320382 19.9285C0.218404 19.8306 0.137553 19.7139 0.0825475 19.5854C0.0275419 19.4568 -0.000517226 19.3189 7.21804e-06 19.1798V1.05754C6.99349e-06 0.918502 0.0282757 0.780832 0.0831957 0.652403C0.138116 0.523975 0.218609 0.40731 0.32007 0.309084C0.42153 0.210858 0.541967 0.133 0.674487 0.0799639C0.807007 0.026928 0.94901 -0.000244423 1.09237 1.65656e-06H10.4624C10.552 -0.000191506 10.6406 0.0192303 10.7215 0.0568218C10.8023 0.0944133 10.8734 0.149207 10.9294 0.217124L16.3005 5.27084V5.27645ZM12.1048 13.0554H19.2688C19.7295 13.0554 20.1713 13.2329 20.4971 13.5488C20.8228 13.8647 21.0058 14.2932 21.0058 14.74V21.3192C21.0058 21.766 20.8228 22.1944 20.4971 22.5103C20.1713 22.8263 19.7295 23.0037 19.2688 23.0037H12.1048C11.6441 23.0037 11.2023 22.8263 10.8766 22.5103C10.5508 22.1944 10.3678 21.766 10.3678 21.3192V14.7344C10.3678 14.2876 10.5508 13.8591 10.8766 13.5432C11.2023 13.2273 11.6441 13.0498 12.1048 13.0498V13.0554ZM17.8464 14.9609V19.2004C17.8447 19.2637 17.8349 19.3265 17.8175 19.3875C17.7992 19.4469 17.774 19.5041 17.7422 19.5579C17.6504 19.6988 17.5288 19.8193 17.3854 19.9112C17.242 20.0032 17.0801 20.0646 16.9104 20.0913C16.8466 20.1018 16.7821 20.1075 16.7174 20.1082C16.5371 20.1106 16.36 20.0618 16.2079 19.9678C16.1339 19.9218 16.0704 19.8615 16.0216 19.7907C15.9728 19.7198 15.9396 19.6399 15.9242 19.556C15.9213 19.5205 15.9213 19.4848 15.9242 19.4493C15.9239 19.3858 15.9336 19.3227 15.9531 19.2621C15.9679 19.203 15.99 19.1458 16.0188 19.0918C16.1102 18.9505 16.2317 18.8298 16.3752 18.7378C16.5186 18.6458 16.6807 18.5846 16.8506 18.5584H16.9008H16.9123H16.9625H17.0262V16.6061L14.8087 17.2201V19.9285C14.807 20.0002 14.7953 20.0713 14.7739 20.14C14.7535 20.2055 14.725 20.2683 14.689 20.3272C14.5828 20.4911 14.4418 20.6314 14.2754 20.7385C14.109 20.8456 13.9211 20.9172 13.724 20.9486C13.6463 20.9617 13.5675 20.9686 13.4886 20.9692C13.2835 20.9712 13.0824 20.9152 12.9096 20.8082C12.8262 20.7552 12.7546 20.6865 12.6992 20.6061C12.6439 20.5257 12.6058 20.4353 12.5873 20.3403C12.5844 20.2997 12.5844 20.2591 12.5873 20.2186C12.5875 20.1469 12.5985 20.0757 12.6201 20.0071C12.642 19.9422 12.6705 19.8795 12.705 19.8199C12.8115 19.6562 12.9526 19.5161 13.1189 19.409C13.2852 19.3019 13.473 19.2302 13.67 19.1985H13.6931C13.7232 19.1936 13.7535 19.1905 13.7839 19.1891C13.8134 19.1873 13.8431 19.1873 13.8726 19.1891C13.9183 19.1863 13.964 19.1863 14.0097 19.1891V15.7695L17.8696 14.9609H17.8464ZM3.85995 9.66195C3.80731 9.66314 3.75545 9.67452 3.70741 9.6954C3.65937 9.71628 3.6161 9.74625 3.58015 9.78355C3.5442 9.82086 3.51629 9.86475 3.49806 9.91264C3.47982 9.96054 3.47163 10.0115 3.47395 10.0625C3.47052 10.1137 3.47795 10.165 3.49581 10.2132C3.51366 10.2615 3.54155 10.3057 3.57774 10.3431C3.61393 10.3805 3.65765 10.4102 3.7062 10.4305C3.75474 10.4509 3.80708 10.4613 3.85995 10.4612H11.0008C11.0533 10.46 11.105 10.4487 11.1529 10.4279C11.2008 10.4071 11.244 10.3773 11.2799 10.3402C11.3158 10.3031 11.3438 10.2595 11.3621 10.2118C11.3805 10.1641 11.3889 10.1134 11.3868 10.0625C11.3905 10.0112 11.3833 9.95967 11.3656 9.91118C11.3479 9.8627 11.32 9.81827 11.2838 9.78069C11.2476 9.7431 11.2038 9.71316 11.1551 9.69273C11.1064 9.6723 11.0539 9.66182 11.0008 9.66195H3.85995ZM3.85995 12.5201C3.8084 12.5215 3.75767 12.533 3.71076 12.5537C3.66384 12.5745 3.62169 12.6041 3.58679 12.6409C3.55189 12.6777 3.52495 12.721 3.50756 12.768C3.49016 12.8151 3.48268 12.8651 3.48553 12.915C3.48159 12.9656 3.48828 13.0164 3.50518 13.0643C3.52208 13.1123 3.54884 13.1564 3.58385 13.194C3.61886 13.2317 3.66138 13.262 3.70884 13.2832C3.7563 13.3044 3.80771 13.3161 3.85995 13.3175H8.43398V12.5201H3.85995ZM3.85995 15.3764C3.80839 15.3783 3.75774 15.3902 3.71101 15.4114C3.66427 15.4326 3.62239 15.4627 3.58785 15.4998C3.5533 15.537 3.52679 15.5805 3.50988 15.6278C3.49297 15.6751 3.486 15.7251 3.48939 15.7751C3.486 15.825 3.49297 15.8751 3.50988 15.9224C3.52679 15.9696 3.5533 16.0131 3.58785 16.0503C3.62239 16.0875 3.66427 16.1176 3.71101 16.1388C3.75774 16.16 3.80839 16.1719 3.85995 16.1737H8.43398V15.3764H3.85995ZM3.85995 6.80567C3.80708 6.80556 3.75474 6.81598 3.7062 6.8363C3.65765 6.85662 3.61393 6.88639 3.57774 6.92377C3.54155 6.96115 3.51366 7.00534 3.49581 7.05361C3.47795 7.10187 3.47052 7.15318 3.47395 7.20435C3.47052 7.25552 3.47795 7.30682 3.49581 7.35509C3.51366 7.40335 3.54155 7.44755 3.57774 7.48493C3.61393 7.52231 3.65765 7.55208 3.7062 7.57239C3.75474 7.59271 3.80708 7.60314 3.85995 7.60303H8.08465C8.13604 7.60089 8.18648 7.58882 8.23299 7.56751C8.2795 7.5462 8.32115 7.51609 8.3555 7.47894C8.38984 7.4418 8.41618 7.39838 8.43297 7.35122C8.44976 7.30406 8.45667 7.25413 8.45327 7.20435C8.45667 7.15457 8.44976 7.10463 8.43297 7.05748C8.41618 7.01032 8.38984 6.96689 8.3555 6.92975C8.32115 6.89261 8.2795 6.8625 8.23299 6.84119C8.18648 6.81988 8.13604 6.8078 8.08465 6.80567H3.85995ZM3.85995 3.94938C3.80839 3.95128 3.75774 3.96318 3.71101 3.98438C3.66427 4.00558 3.62239 4.03565 3.58785 4.07282C3.5533 4.10999 3.52679 4.1535 3.50988 4.20077C3.49297 4.24805 3.486 4.29813 3.48939 4.34806C3.486 4.398 3.49297 4.44808 3.50988 4.49536C3.52679 4.54263 3.5533 4.58614 3.58785 4.62331C3.62239 4.66048 3.66427 4.69055 3.71101 4.71175C3.75774 4.73295 3.80839 4.74485 3.85995 4.74675H6.17591C6.2273 4.74461 6.27774 4.73253 6.32425 4.71122C6.37076 4.68991 6.41241 4.6598 6.44676 4.62266C6.4811 4.58552 6.50744 4.54209 6.52423 4.49494C6.54102 4.44778 6.54793 4.39785 6.54453 4.34806C6.54793 4.29828 6.54102 4.24835 6.52423 4.20119C6.50744 4.15404 6.4811 4.11061 6.44676 4.07347C6.41241 4.03633 6.37076 4.00622 6.32425 3.98491C6.27774 3.9636 6.2273 3.95152 6.17591 3.94938H3.85995ZM11.0722 2.07764L14.7141 5.37004H11.0684V2.07015L11.0722 2.07764Z" fill="#ffffff"/>
</g>
<defs>
<clipPath id="clip0_2370_8102">
<rect width="21" height="23" fill="white"/>
</clipPath>
</defs>
</svg>
