<svg width="21" height="24" viewBox="0 0 21 24" fill="none" xmlns="http://www.w3.org/2000/svg">
<path d="M20.574 17.8576C20.5234 17.616 20.3761 17.4033 20.164 17.2655C19.9518 17.1277 19.6918 17.0758 19.4402 17.1212C19.1887 17.1665 18.9658 17.3054 18.8197 17.5078C18.6737 17.7102 18.6163 17.9598 18.6599 18.2026C18.6862 18.3381 18.6812 18.4775 18.6453 18.6109C18.6093 18.7442 18.5433 18.8684 18.4519 18.9744C18.3605 19.0805 18.246 19.1658 18.1165 19.2245C17.9869 19.2831 17.8456 19.3135 17.7025 19.3136H2.92079C2.77757 19.3134 2.63615 19.2829 2.50658 19.2241C2.37701 19.1653 2.26249 19.0798 2.17116 18.9736C2.07983 18.8674 2.01393 18.743 1.97816 18.6095C1.94239 18.476 1.93762 18.3365 1.9642 18.201C2.20966 17.0447 2.67272 15.9415 3.33051 14.9457C4.15855 13.7695 4.61821 12.3889 4.65482 10.9683V9.56517C4.66039 8.13828 5.24586 6.77018 6.2859 5.75376C7.32593 4.73733 8.73788 4.15335 10.2195 4.12683H10.4038C11.8831 4.15468 13.2923 4.73951 14.3292 5.75597C15.366 6.77242 15.948 8.13957 15.9504 9.56434V10.9675C15.9607 12.1493 16.2987 13.307 16.9293 14.3209C16.9902 14.4293 17.0726 14.5251 17.1719 14.6028C17.2712 14.6805 17.3854 14.7387 17.508 14.7739C17.6306 14.8091 17.7592 14.8207 17.8865 14.8081C18.0138 14.7954 18.1372 14.7588 18.2498 14.7002C18.3623 14.6416 18.4618 14.5622 18.5425 14.4666C18.6232 14.371 18.6836 14.2611 18.7202 14.143C18.7568 14.0249 18.7688 13.9011 18.7557 13.7785C18.7426 13.656 18.7045 13.5371 18.6436 13.4287C18.1674 12.6892 17.9102 11.8384 17.8996 10.9683V9.56517C17.8976 7.78807 17.2246 6.0723 16.006 4.73765C14.7875 3.40301 13.1065 2.54055 11.2764 2.31103V0.937616C11.2764 0.814487 11.2512 0.692563 11.2022 0.578806C11.1533 0.465049 11.0816 0.361687 10.9912 0.274621C10.9007 0.187556 10.7934 0.118491 10.6753 0.0713718C10.5571 0.0242522 10.4305 0 10.3026 0C10.1748 0 10.0481 0.0242522 9.93001 0.0713718C9.81187 0.118491 9.70452 0.187556 9.6141 0.274621C9.52368 0.361687 9.45196 0.465049 9.40302 0.578806C9.35409 0.692563 9.32891 0.814487 9.32891 0.937616V2.31103C7.50126 2.5454 5.82361 3.40922 4.60631 4.74267C3.389 6.07612 2.71442 7.78896 2.70736 9.56434V10.9675C2.6653 12.061 2.29459 13.1193 1.6402 14.0139C0.871324 15.1899 0.332439 16.4915 0.0501709 17.8543C-0.029054 18.2607 -0.0143032 18.6788 0.0933747 19.0791C0.201053 19.4793 0.399011 19.8518 0.673165 20.17C0.94732 20.4882 1.29093 20.7443 1.67956 20.9201C2.06819 21.0959 2.49227 21.1871 2.92165 21.1872H7.4003C7.4003 21.9332 7.70807 22.6486 8.2559 23.1761C8.80373 23.7036 9.54674 24 10.3215 24C11.0962 24 11.8393 23.7036 12.3871 23.1761C12.9349 22.6486 13.2427 21.9332 13.2427 21.1872H17.6999C18.1293 21.1871 18.5534 21.0959 18.942 20.9201C19.3306 20.7443 19.6742 20.4882 19.9484 20.17C20.2225 19.8518 20.4205 19.4793 20.5282 19.0791C20.6359 18.6788 20.6506 18.2607 20.5714 17.8543L20.574 17.8576ZM10.3215 22.1289C10.1934 22.1291 10.0666 22.105 9.9482 22.058C9.82982 22.011 9.72222 21.942 9.63155 21.8549C9.54088 21.7678 9.46892 21.6644 9.41979 21.5505C9.37065 21.4367 9.3453 21.3146 9.34519 21.1913H11.2927C11.2924 21.4395 11.1901 21.6774 11.0081 21.8532C10.8261 22.0289 10.5792 22.128 10.3215 22.1289Z" fill="white"/>
</svg>
