<svg width="26" height="26" viewBox="0 0 26 26" fill="none" xmlns="http://www.w3.org/2000/svg">
<path d="M9.75 4.875C7.06724 4.875 4.875 7.06724 4.875 9.75C4.875 11.3293 5.63239 12.7426 6.80469 13.6348C4.23751 14.7715 2.4375 17.3315 2.4375 20.3125H4.0625C4.0625 17.162 6.59954 14.625 9.75 14.625C11.8831 14.625 13.7266 15.7915 14.7012 17.5195C14.1429 18.3123 13.8125 19.2741 13.8125 20.3125H15.4375C15.4375 18.5084 16.8834 17.0625 18.6875 17.0625C20.4916 17.0625 21.9375 18.5084 21.9375 20.3125H23.5625C23.5625 18.4805 22.5263 16.8795 21.0234 16.0469C21.5836 15.4621 21.9375 14.6798 21.9375 13.8125C21.9375 12.0272 20.4728 10.5625 18.6875 10.5625C16.9022 10.5625 15.4375 12.0272 15.4375 13.8125C15.4375 14.6798 15.7914 15.4621 16.3516 16.0469C16.1871 16.138 16.0214 16.2427 15.8691 16.3516C15.0987 15.1604 14.0031 14.2156 12.6953 13.6348C13.8676 12.7426 14.625 11.3293 14.625 9.75C14.625 7.06724 12.4328 4.875 9.75 4.875ZM9.75 6.5C11.5545 6.5 13 7.94545 13 9.75C13 11.5545 11.5545 13 9.75 13C7.94545 13 6.5 11.5545 6.5 9.75C6.5 7.94545 7.94545 6.5 9.75 6.5ZM18.6875 12.1875C19.5946 12.1875 20.3125 12.9054 20.3125 13.8125C20.3125 14.7196 19.5946 15.4375 18.6875 15.4375C17.7804 15.4375 17.0625 14.7196 17.0625 13.8125C17.0625 12.9054 17.7804 12.1875 18.6875 12.1875Z" fill="#ED3026"/>
</svg>
