<svg width="20" height="20" viewBox="0 0 20 20" fill="none" xmlns="http://www.w3.org/2000/svg">
<path d="M0.184204 13.5567C0.634411 14.1266 1.13323 14.6563 1.67504 15.14C1.67337 15.0925 1.6667 15.0475 1.6667 15C1.66996 14.1542 1.92905 13.3292 2.4099 12.6335C2.89075 11.9377 3.57088 11.4037 4.36087 11.1017C4.50617 11.0467 4.63321 10.9522 4.72765 10.8288C4.82209 10.7055 4.88017 10.5582 4.89533 10.4036C4.9105 10.249 4.88215 10.0932 4.81348 9.95387C4.7448 9.81452 4.63855 9.69715 4.5067 9.61499C4.14642 9.3924 3.84932 9.08102 3.64387 8.71069C3.43843 8.34036 3.33151 7.92348 3.33337 7.49999C3.33155 7.01449 3.47171 6.53905 3.73659 6.13217C4.00147 5.72529 4.37952 5.40472 4.82422 5.20991C5.26892 5.0151 5.76087 4.95454 6.23955 5.03569C6.71822 5.11684 7.16272 5.33616 7.51837 5.66665C8.03932 5.36764 8.61026 5.16575 9.20337 5.07082C8.87828 4.61664 8.46509 4.23255 7.98843 3.94143C7.51177 3.65031 6.98138 3.45812 6.42887 3.37631C5.87636 3.2945 5.31304 3.32474 4.77247 3.46523C4.23189 3.60572 3.72513 3.85359 3.28237 4.19406C2.83961 4.53454 2.46992 4.96066 2.19532 5.44702C1.92072 5.93339 1.74683 6.47006 1.68401 7.02505C1.6212 7.58004 1.67074 8.14199 1.82969 8.67743C1.98864 9.21287 2.25374 9.71083 2.6092 10.1417C1.40987 10.9445 0.54697 12.1597 0.184204 13.5567ZM19.8159 13.5567C19.4535 12.1591 18.5905 10.9433 17.3909 10.14C17.7452 9.70904 18.0092 9.21126 18.1673 8.67623C18.3254 8.1412 18.3742 7.57985 18.311 7.02555C18.2478 6.47125 18.0738 5.93531 17.7994 5.44961C17.5249 4.9639 17.1556 4.53834 16.7133 4.19822C16.2711 3.8581 15.765 3.61036 15.2251 3.46974C14.6853 3.32912 14.1226 3.29849 13.5707 3.37966C13.0187 3.46083 12.4887 3.65215 12.0122 3.94224C11.5356 4.23234 11.1223 4.61528 10.7967 5.06832C11.3898 5.16321 11.9608 5.3651 12.4817 5.66415C12.737 5.42933 13.0385 5.25034 13.367 5.13864C13.6954 5.02693 14.0435 4.98496 14.389 5.01541C14.7346 5.04586 15.07 5.14806 15.3738 5.31547C15.6776 5.48289 15.9432 5.71184 16.1535 5.9877C16.3639 6.26356 16.5143 6.58026 16.5953 6.91756C16.6763 7.25487 16.6861 7.60536 16.6239 7.94665C16.5618 8.28793 16.4292 8.61251 16.2345 8.89963C16.0398 9.18675 15.7874 9.43011 15.4934 9.61415C15.3615 9.69631 15.2553 9.81369 15.1866 9.95304C15.1179 10.0924 15.0896 10.2482 15.1047 10.4028C15.1199 10.5574 15.178 10.7047 15.2724 10.828C15.3669 10.9514 15.4939 11.0458 15.6392 11.1008C16.4293 11.4029 17.1095 11.937 17.5904 12.633C18.0713 13.3289 18.3303 14.1541 18.3334 15C18.3334 15.0475 18.3267 15.0925 18.325 15.1392C18.8668 14.6558 19.3656 14.1263 19.8159 13.5567Z" fill="#455560"/>
<path d="M15.795 16.9033C15.7044 16.0481 15.4273 15.2232 14.983 14.4868C14.5388 13.7505 13.9384 13.1206 13.2241 12.6417C13.8368 11.898 14.1702 10.9635 14.1666 9.99998C14.1662 9.33239 14.0055 8.67466 13.6978 8.08218C13.3901 7.4897 12.9446 6.97982 12.3988 6.59548C11.8529 6.21113 11.2227 5.96358 10.5612 5.87366C9.89966 5.78374 9.22622 5.85409 8.59757 6.07879C7.96893 6.30348 7.40348 6.67594 6.94883 7.1648C6.49419 7.65366 6.16367 8.24461 5.9851 8.88788C5.80654 9.53115 5.78516 10.2079 5.92276 10.8612C6.06036 11.5144 6.35291 12.1251 6.77579 12.6417C6.06152 13.1206 5.46108 13.7505 5.01687 14.4868C4.57266 15.2232 4.2955 16.0481 4.20496 16.9033C4.73396 17.1782 5.28204 17.4146 5.84496 17.6108C5.84329 17.5733 5.83329 17.5383 5.83329 17.5C5.83678 16.6543 6.09595 15.8294 6.57678 15.1337C7.0576 14.4379 7.73759 13.9039 8.52746 13.6017C8.67296 13.5468 8.80021 13.4523 8.89481 13.3289C8.98941 13.2054 9.04758 13.058 9.06276 12.9032C9.07793 12.7485 9.04949 12.5925 8.98067 12.4531C8.91184 12.3136 8.80537 12.1962 8.67329 12.1142C8.3129 11.8919 8.01571 11.5807 7.81024 11.2105C7.60477 10.8402 7.49792 10.4234 7.49996 9.99998C7.49996 9.33694 7.76335 8.70106 8.23219 8.23222C8.70103 7.76338 9.33692 7.49998 9.99996 7.49998C10.663 7.49998 11.2989 7.76338 11.7677 8.23222C12.2366 8.70106 12.5 9.33694 12.5 9.99998C12.502 10.4234 12.3951 10.8402 12.1897 11.2105C11.9842 11.5807 11.687 11.8919 11.3266 12.1142C11.1945 12.1962 11.0881 12.3136 11.0192 12.4531C10.9504 12.5925 10.922 12.7485 10.9372 12.9032C10.9523 13.058 11.0105 13.2054 11.1051 13.3289C11.1997 13.4523 11.327 13.5468 11.4725 13.6017C12.2623 13.9039 12.9423 14.4379 13.4231 15.1337C13.904 15.8294 14.1631 16.6543 14.1666 17.5C14.1666 17.5383 14.1566 17.5733 14.1558 17.6108C14.7184 17.4146 15.2662 17.1781 15.795 16.9033Z" fill="#455560"/>
</svg>
