<svg width="32" height="32" viewBox="0 0 32 32" fill="none" xmlns="http://www.w3.org/2000/svg">
<rect width="32" height="32" rx="16" fill="url(#paint0_linear_2370_9155)"/>
<path d="M24.59 13.6162H6.59001C6.41336 13.6167 6.24409 13.6871 6.11918 13.8121C5.99427 13.937 5.92387 14.1062 5.92334 14.2829V20.9495C5.92387 21.1262 5.99427 21.2955 6.11918 21.4204C6.24409 21.5453 6.41336 21.6157 6.59001 21.6162H7.92334V16.9495H9.59001V20.2829H10.9233V16.9495H12.2567V20.2829H13.59V16.9495H14.9233V20.2829H16.2567V16.9495H17.59V20.2829H18.9233V16.9495H20.2567V20.2829H21.59V16.9495H23.9233V21.6162H24.59C24.7667 21.6157 24.9359 21.5453 25.0608 21.4204C25.1857 21.2955 25.2561 21.1262 25.2567 20.9495V14.2829C25.2561 14.1062 25.1857 13.937 25.0608 13.8121C24.9359 13.6871 24.7667 13.6167 24.59 13.6162ZM8.25667 15.9495H6.92334V14.6162H8.25667V15.9495ZM10.9233 15.9495H9.59001V14.6162H10.9233V15.9495ZM13.59 15.9495H12.2567V14.6162H13.59V15.9495ZM16.2567 15.9495H14.9233V14.6162H16.2567V15.9495ZM18.9233 15.9495H17.59V14.6162H18.9233V15.9495ZM21.59 15.9495H20.2567V14.6162H21.59V15.9495ZM24.2567 15.9495H22.9233V14.6162H24.2567V15.9495Z" fill="#C9E4FA"/>
<path d="M21.9235 12.2835C22.2917 12.2835 22.5902 11.9851 22.5902 11.6169C22.5902 11.2487 22.2917 10.9502 21.9235 10.9502C21.5553 10.9502 21.2568 11.2487 21.2568 11.6169C21.2568 11.9851 21.5553 12.2835 21.9235 12.2835Z" fill="#C9E4FA"/>
<path d="M14.9233 10.9502V12.2835H16.2567V10.9502H15.59H14.9233Z" fill="#C9E4FA"/>
<path d="M8.59001 9.94954C8.9582 9.94954 9.25667 9.65107 9.25667 9.28288C9.25667 8.91469 8.9582 8.61621 8.59001 8.61621C8.22182 8.61621 7.92334 8.91469 7.92334 9.28288C7.92334 9.65107 8.22182 9.94954 8.59001 9.94954Z" fill="#C9E4FA"/>
<path d="M24.5898 13.2829H17.5898V12.2829C17.5898 12.1945 17.5547 12.1097 17.4922 12.0472C17.4297 11.9847 17.3449 11.9495 17.2565 11.9495H16.5898V10.9495C16.5898 10.8611 16.5547 10.7764 16.4922 10.7138C16.4297 10.6513 16.3449 10.6162 16.2565 10.6162H15.9232V10.2829C15.9232 10.0177 15.8178 9.76331 15.6303 9.57577C15.4427 9.38823 15.1884 9.28288 14.9232 9.28288H12.2565C12.1681 9.28288 12.0833 9.24776 12.0208 9.18525C11.9583 9.12273 11.9232 9.03795 11.9232 8.94954C11.9232 8.86114 11.9583 8.77635 12.0208 8.71384C12.0833 8.65133 12.1681 8.61621 12.2565 8.61621H20.9232V7.94954H12.2565C11.9913 7.94954 11.7369 8.0549 11.5494 8.24244C11.3619 8.42997 11.2565 8.68433 11.2565 8.94954C11.2565 9.21476 11.3619 9.46911 11.5494 9.65665C11.7369 9.84419 11.9913 9.94954 12.2565 9.94954H14.9232C15.0116 9.94954 15.0964 9.98466 15.1589 10.0472C15.2214 10.1097 15.2565 10.1945 15.2565 10.2829V10.6162H14.9232C14.8348 10.6162 14.75 10.6513 14.6875 10.7138C14.625 10.7764 14.5898 10.8611 14.5898 10.9495V11.9495H13.9232C13.8348 11.9495 13.75 11.9847 13.6875 12.0472C13.625 12.1097 13.5898 12.1945 13.5898 12.2829V13.2829H6.58984C6.32463 13.2829 6.07027 13.3882 5.88274 13.5758C5.6952 13.7633 5.58984 14.0177 5.58984 14.2829V20.9495C5.58984 21.2148 5.6952 21.4691 5.88274 21.6566C6.07027 21.8442 6.32463 21.9495 6.58984 21.9495H24.5898C24.8551 21.9495 25.1094 21.8442 25.297 21.6566C25.4845 21.4691 25.5898 21.2148 25.5898 20.9495V14.2829C25.5898 14.0177 25.4845 13.7633 25.297 13.5758C25.1094 13.3882 24.8551 13.2829 24.5898 13.2829ZM15.2565 11.2829H15.9232V11.9495H15.2565V11.2829ZM14.2565 12.6162H16.9232V13.2829H14.2565V12.6162ZM11.9232 17.2829V20.2829C11.9232 20.3713 11.9583 20.4561 12.0208 20.5186C12.0833 20.5811 12.1681 20.6162 12.2565 20.6162H12.5898V21.2829H10.5898V20.6162H10.9232C11.0116 20.6162 11.0964 20.5811 11.1589 20.5186C11.2214 20.4561 11.2565 20.3713 11.2565 20.2829V17.2829H11.9232ZM14.5898 17.2829V20.2829C14.5898 20.3713 14.625 20.4561 14.6875 20.5186C14.75 20.5811 14.8348 20.6162 14.9232 20.6162H15.2565V21.2829H13.2565V20.6162H13.5898C13.6782 20.6162 13.763 20.5811 13.8255 20.5186C13.8881 20.4561 13.9232 20.3713 13.9232 20.2829V17.2829H14.5898ZM17.2565 17.2829V20.2829C17.2565 20.3713 17.2916 20.4561 17.3541 20.5186C17.4167 20.5811 17.5014 20.6162 17.5898 20.6162H17.9232V21.2829H15.9232V20.6162H16.2565C16.3449 20.6162 16.4297 20.5811 16.4922 20.5186C16.5547 20.4561 16.5898 20.3713 16.5898 20.2829V17.2829H17.2565ZM19.9232 17.2829V20.2829C19.9232 20.3713 19.9583 20.4561 20.0208 20.5186C20.0833 20.5811 20.1681 20.6162 20.2565 20.6162H20.5898V21.2829H18.5898V20.6162H18.9232C19.0116 20.6162 19.0964 20.5811 19.1589 20.5186C19.2214 20.4561 19.2565 20.3713 19.2565 20.2829V17.2829H19.9232ZM20.5898 19.9495V17.2829H21.2565V19.9495H20.5898ZM18.5898 19.9495H17.9232V17.2829H18.5898V19.9495ZM15.9232 19.9495H15.2565V17.2829H15.9232V19.9495ZM13.2565 19.9495H12.5898V17.2829H13.2565V19.9495ZM10.5898 19.9495H9.92318V17.2829H10.5898V19.9495ZM9.58984 20.6162H9.92318V21.2829H8.25651V17.2829H9.25651V20.2829C9.25651 20.3713 9.29163 20.4561 9.35414 20.5186C9.41665 20.5811 9.50144 20.6162 9.58984 20.6162ZM21.2565 21.2829V20.6162H21.5898C21.6782 20.6162 21.763 20.5811 21.8255 20.5186C21.8881 20.4561 21.9232 20.3713 21.9232 20.2829V17.2829H23.5898V21.2829H21.2565ZM24.9232 20.9495C24.9232 21.0379 24.8881 21.1227 24.8255 21.1852C24.763 21.2478 24.6782 21.2829 24.5898 21.2829H24.2565V16.9495C24.2565 16.8611 24.2214 16.7764 24.1589 16.7138C24.0964 16.6513 24.0116 16.6162 23.9232 16.6162H7.92318C7.83477 16.6162 7.74999 16.6513 7.68747 16.7138C7.62496 16.7764 7.58984 16.8611 7.58984 16.9495V21.2829H6.58984C6.50144 21.2829 6.41665 21.2478 6.35414 21.1852C6.29163 21.1227 6.25651 21.0379 6.25651 20.9495V14.2829C6.25651 14.1945 6.29163 14.1097 6.35414 14.0472C6.41665 13.9847 6.50144 13.9495 6.58984 13.9495H24.5898C24.6782 13.9495 24.763 13.9847 24.8255 14.0472C24.8881 14.1097 24.9232 14.1945 24.9232 14.2829V20.9495ZM8.58984 10.2829C8.85506 10.2829 9.10941 10.1775 9.29695 9.98998C9.48449 9.80245 9.58984 9.54809 9.58984 9.28288V6.28288H10.9232V5.61621H8.92318V8.34421C8.81642 8.30473 8.70366 8.28398 8.58984 8.28288C8.32463 8.28288 8.07027 8.38823 7.88274 8.57577C7.6952 8.76331 7.58984 9.01766 7.58984 9.28288C7.58984 9.54809 7.6952 9.80245 7.88274 9.98998C8.07027 10.1775 8.32463 10.2829 8.58984 10.2829ZM8.58984 8.94954C8.65577 8.94954 8.72022 8.96909 8.77503 9.00572C8.82985 9.04235 8.87257 9.09441 8.8978 9.15532C8.92303 9.21623 8.92963 9.28325 8.91677 9.34791C8.90391 9.41257 8.87216 9.47196 8.82555 9.51858C8.77893 9.5652 8.71953 9.59694 8.65487 9.60981C8.59021 9.62267 8.52319 9.61607 8.46228 9.59084C8.40137 9.56561 8.34931 9.52288 8.31269 9.46807C8.27606 9.41325 8.25651 9.3488 8.25651 9.28288C8.25651 9.19447 8.29163 9.10969 8.35414 9.04717C8.41665 8.98466 8.50144 8.94954 8.58984 8.94954Z" fill="white"/>
<path d="M21.9232 12.6169C22.1884 12.6169 22.4427 12.5115 22.6303 12.324C22.8178 12.1364 22.9232 11.8821 22.9232 11.6169V8.61686H24.2565V7.9502H22.2565V10.6782C22.1498 10.6387 22.037 10.618 21.9232 10.6169C21.658 10.6169 21.4036 10.7222 21.2161 10.9098C21.0285 11.0973 20.9232 11.3516 20.9232 11.6169C20.9232 11.8821 21.0285 12.1364 21.2161 12.324C21.4036 12.5115 21.658 12.6169 21.9232 12.6169ZM21.9232 11.2835C21.9891 11.2835 22.0536 11.3031 22.1084 11.3397C22.1632 11.3763 22.2059 11.4284 22.2311 11.4893C22.2564 11.5502 22.263 11.6172 22.2501 11.6819C22.2372 11.7466 22.2055 11.8059 22.1589 11.8526C22.1123 11.8992 22.0529 11.9309 21.9882 11.9438C21.9235 11.9567 21.8565 11.9501 21.7956 11.9248C21.7347 11.8996 21.6826 11.8569 21.646 11.8021C21.6094 11.7472 21.5898 11.6828 21.5898 11.6169C21.5898 11.5285 21.625 11.4437 21.6875 11.3812C21.75 11.3186 21.8348 11.2835 21.9232 11.2835ZM8.25651 14.2835H6.92318C6.83477 14.2835 6.74999 14.3186 6.68747 14.3812C6.62496 14.4437 6.58984 14.5285 6.58984 14.6169V15.9502C6.58984 16.0386 6.62496 16.1234 6.68747 16.1859C6.74999 16.2484 6.83477 16.2835 6.92318 16.2835H8.25651C8.34492 16.2835 8.4297 16.2484 8.49221 16.1859C8.55472 16.1234 8.58984 16.0386 8.58984 15.9502V14.6169C8.58984 14.5285 8.55472 14.4437 8.49221 14.3812C8.4297 14.3186 8.34492 14.2835 8.25651 14.2835ZM7.92318 15.6169H7.25651V14.9502H7.92318V15.6169ZM10.9232 14.2835H9.58984C9.50144 14.2835 9.41665 14.3186 9.35414 14.3812C9.29163 14.4437 9.25651 14.5285 9.25651 14.6169V15.9502C9.25651 16.0386 9.29163 16.1234 9.35414 16.1859C9.41665 16.2484 9.50144 16.2835 9.58984 16.2835H10.9232C11.0116 16.2835 11.0964 16.2484 11.1589 16.1859C11.2214 16.1234 11.2565 16.0386 11.2565 15.9502V14.6169C11.2565 14.5285 11.2214 14.4437 11.1589 14.3812C11.0964 14.3186 11.0116 14.2835 10.9232 14.2835ZM10.5898 15.6169H9.92318V14.9502H10.5898V15.6169ZM13.5898 14.2835H12.2565C12.1681 14.2835 12.0833 14.3186 12.0208 14.3812C11.9583 14.4437 11.9232 14.5285 11.9232 14.6169V15.9502C11.9232 16.0386 11.9583 16.1234 12.0208 16.1859C12.0833 16.2484 12.1681 16.2835 12.2565 16.2835H13.5898C13.6782 16.2835 13.763 16.2484 13.8255 16.1859C13.8881 16.1234 13.9232 16.0386 13.9232 15.9502V14.6169C13.9232 14.5285 13.8881 14.4437 13.8255 14.3812C13.763 14.3186 13.6782 14.2835 13.5898 14.2835ZM13.2565 15.6169H12.5898V14.9502H13.2565V15.6169ZM16.2565 14.2835H14.9232C14.8348 14.2835 14.75 14.3186 14.6875 14.3812C14.625 14.4437 14.5898 14.5285 14.5898 14.6169V15.9502C14.5898 16.0386 14.625 16.1234 14.6875 16.1859C14.75 16.2484 14.8348 16.2835 14.9232 16.2835H16.2565C16.3449 16.2835 16.4297 16.2484 16.4922 16.1859C16.5547 16.1234 16.5898 16.0386 16.5898 15.9502V14.6169C16.5898 14.5285 16.5547 14.4437 16.4922 14.3812C16.4297 14.3186 16.3449 14.2835 16.2565 14.2835ZM15.9232 15.6169H15.2565V14.9502H15.9232V15.6169ZM18.9232 14.2835H17.5898C17.5014 14.2835 17.4167 14.3186 17.3541 14.3812C17.2916 14.4437 17.2565 14.5285 17.2565 14.6169V15.9502C17.2565 16.0386 17.2916 16.1234 17.3541 16.1859C17.4167 16.2484 17.5014 16.2835 17.5898 16.2835H18.9232C19.0116 16.2835 19.0964 16.2484 19.1589 16.1859C19.2214 16.1234 19.2565 16.0386 19.2565 15.9502V14.6169C19.2565 14.5285 19.2214 14.4437 19.1589 14.3812C19.0964 14.3186 19.0116 14.2835 18.9232 14.2835ZM18.5898 15.6169H17.9232V14.9502H18.5898V15.6169ZM21.5898 14.2835H20.2565C20.1681 14.2835 20.0833 14.3186 20.0208 14.3812C19.9583 14.4437 19.9232 14.5285 19.9232 14.6169V15.9502C19.9232 16.0386 19.9583 16.1234 20.0208 16.1859C20.0833 16.2484 20.1681 16.2835 20.2565 16.2835H21.5898C21.6782 16.2835 21.763 16.2484 21.8255 16.1859C21.8881 16.1234 21.9232 16.0386 21.9232 15.9502V14.6169C21.9232 14.5285 21.8881 14.4437 21.8255 14.3812C21.763 14.3186 21.6782 14.2835 21.5898 14.2835ZM21.2565 15.6169H20.5898V14.9502H21.2565V15.6169ZM24.2565 14.2835H22.9232C22.8348 14.2835 22.75 14.3186 22.6875 14.3812C22.625 14.4437 22.5898 14.5285 22.5898 14.6169V15.9502C22.5898 16.0386 22.625 16.1234 22.6875 16.1859C22.75 16.2484 22.8348 16.2835 22.9232 16.2835H24.2565C24.3449 16.2835 24.4297 16.2484 24.4922 16.1859C24.5547 16.1234 24.5898 16.0386 24.5898 15.9502V14.6169C24.5898 14.5285 24.5547 14.4437 24.4922 14.3812C24.4297 14.3186 24.3449 14.2835 24.2565 14.2835ZM23.9232 15.6169H23.2565V14.9502H23.9232V15.6169Z" fill="white"/>
<defs>
<linearGradient id="paint0_linear_2370_9155" x1="32" y1="32" x2="4.13475" y2="-3.26696" gradientUnits="userSpaceOnUse">
<stop stop-color="#ED3026"/>
<stop offset="1" stop-color="#FF9C7D"/>
</linearGradient>
</defs>
</svg>
