<svg width="36" height="36" viewBox="0 0 36 36" fill="none" xmlns="http://www.w3.org/2000/svg">
<path d="M32.0625 9.84375H6.1875C4.94486 9.84375 3.9375 10.8511 3.9375 12.0938V30.0938C3.9375 31.3364 4.94486 32.3438 6.1875 32.3438H32.0625C33.3051 32.3438 34.3125 31.3364 34.3125 30.0938V12.0938C34.3125 10.8511 33.3051 9.84375 32.0625 9.84375Z" fill="#4AA5FF"/>
<path d="M32.0625 32.9062H6.1875C4.63678 32.9062 3.375 31.6445 3.375 30.0938V12.0938C3.375 10.543 4.63678 9.28125 6.1875 9.28125H32.0625C33.6132 9.28125 34.875 10.543 34.875 12.0938V30.0938C34.875 31.6445 33.6132 32.9062 32.0625 32.9062ZM6.1875 10.4062C5.25696 10.4062 4.5 11.1632 4.5 12.0938V30.0938C4.5 31.0243 5.25696 31.7812 6.1875 31.7812H32.0625C32.993 31.7812 33.75 31.0243 33.75 30.0938V12.0938C33.75 11.1632 32.993 10.4062 32.0625 10.4062H6.1875Z" fill="#21257C"/>
<path d="M32.0625 9.84375C32.0625 8.60109 31.0552 7.59375 29.8125 7.59375H3.9375C2.69488 7.59375 1.6875 8.60109 1.6875 9.84375V11.5312H32.0625V9.84375Z" fill="#4AA5FF"/>
<path d="M1.6875 11.5312V27.8438C1.6875 29.0864 2.69488 30.0938 3.9375 30.0938H29.8125C31.0552 30.0938 32.0625 29.0864 32.0625 27.8438V11.5312H1.6875Z" fill="#E6F3FF"/>
<path d="M32.0625 12.0938H1.6875C0.95977 12.0847 0.938727 10.982 1.68754 10.9688C1.6875 10.9688 32.0625 10.9688 32.0625 10.9688C32.7902 10.9778 32.8113 12.0805 32.0625 12.0938Z" fill="#21257C"/>
<path d="M18.5625 13.7812H15.1875C14.5662 13.7812 14.0625 14.2849 14.0625 14.9062V17.1562C14.0625 17.7776 14.5662 18.2812 15.1875 18.2812H18.5625C19.1838 18.2812 19.6875 17.7776 19.6875 17.1562V14.9062C19.6875 14.2849 19.1838 13.7812 18.5625 13.7812Z" fill="#4AA5FF"/>
<path d="M18 17.1562C17.8561 17.1562 17.7122 17.1013 17.6023 16.9914L16.4773 15.8664C15.9595 15.3444 16.7504 14.5529 17.2727 15.071C17.2727 15.071 18 15.7983 18 15.7983L20.4148 13.3835C20.9364 12.8661 21.7286 13.6562 21.2102 14.1789C21.2102 14.1789 18.3977 16.9914 18.3977 16.9914C18.2879 17.1013 18.1439 17.1562 18 17.1562L18 17.1562Z" fill="#21257C"/>
<path d="M27.5625 13.7812H24.1875C23.5662 13.7812 23.0625 14.2849 23.0625 14.9062V17.1562C23.0625 17.7776 23.5662 18.2812 24.1875 18.2812H27.5625C28.1838 18.2812 28.6875 17.7776 28.6875 17.1562V14.9062C28.6875 14.2849 28.1838 13.7812 27.5625 13.7812Z" fill="#4AA5FF"/>
<path d="M27 17.1562C26.8561 17.1562 26.7122 17.1013 26.6023 16.9914L25.4773 15.8664C24.9595 15.3444 25.7504 14.5529 26.2727 15.071C26.2727 15.071 27 15.7983 27 15.7983L29.4148 13.3835C29.9364 12.8661 30.7286 13.6562 30.2102 14.1789C30.2102 14.1789 27.3977 16.9914 27.3977 16.9914C27.2879 17.1013 27.1439 17.1562 27 17.1562L27 17.1562Z" fill="#21257C"/>
<path d="M9.5625 13.7812H6.1875C5.56618 13.7812 5.0625 14.2849 5.0625 14.9062V17.1562C5.0625 17.7776 5.56618 18.2812 6.1875 18.2812H9.5625C10.1838 18.2812 10.6875 17.7776 10.6875 17.1562V14.9062C10.6875 14.2849 10.1838 13.7812 9.5625 13.7812Z" fill="#4AA5FF"/>
<path d="M18.5625 21.0938H15.1875C14.5662 21.0938 14.0625 21.5974 14.0625 22.2188V24.4688C14.0625 25.0901 14.5662 25.5938 15.1875 25.5938H18.5625C19.1838 25.5938 19.6875 25.0901 19.6875 24.4688V22.2188C19.6875 21.5974 19.1838 21.0938 18.5625 21.0938Z" fill="#4AA5FF"/>
<path d="M18 24.4687C17.8561 24.4687 17.7122 24.4138 17.6023 24.3039L16.4773 23.1789C15.9595 22.6569 16.7504 21.8654 17.2727 22.3835C17.2727 22.3835 18 23.1108 18 23.1108L20.4148 20.696C20.9364 20.1786 21.7286 20.9687 21.2102 21.4914C21.2102 21.4914 18.3977 24.3039 18.3977 24.3039C18.2879 24.4138 18.1439 24.4687 18 24.4687L18 24.4687Z" fill="#21257C"/>
<path d="M27.5625 21.0938H24.1875C23.5662 21.0938 23.0625 21.5974 23.0625 22.2188V24.4688C23.0625 25.0901 23.5662 25.5938 24.1875 25.5938H27.5625C28.1838 25.5938 28.6875 25.0901 28.6875 24.4688V22.2188C28.6875 21.5974 28.1838 21.0938 27.5625 21.0938Z" fill="#4AA5FF"/>
<path d="M9.5625 21.0938H6.1875C5.56618 21.0938 5.0625 21.5974 5.0625 22.2188V24.4688C5.0625 25.0901 5.56618 25.5938 6.1875 25.5938H9.5625C10.1838 25.5938 10.6875 25.0901 10.6875 24.4688V22.2188C10.6875 21.5974 10.1838 21.0938 9.5625 21.0938Z" fill="#4AA5FF"/>
<path d="M8.4375 27.8438H25.3125C26.2439 27.8438 27 28.5999 27 29.5312V30.0938H6.75V29.5312C6.75 28.5999 7.50614 27.8438 8.4375 27.8438Z" fill="#4AA5FF"/>
<path d="M15.75 4.21875H18C18.9314 4.21875 19.6875 4.97489 19.6875 5.90625V7.59375H14.0625V5.90625C14.0625 4.97489 14.8186 4.21875 15.75 4.21875Z" fill="#E6F3FF"/>
<path d="M19.6875 8.15625H14.0625C13.7519 8.15625 13.5 7.90466 13.5 7.59375V5.90625C13.5 4.66535 14.5094 3.65625 15.75 3.65625H18C19.2406 3.65625 20.25 4.66535 20.25 5.90625V7.59375C20.25 7.90466 19.9981 8.15625 19.6875 8.15625ZM14.625 7.03125H19.125V5.90625C19.125 5.28607 18.6205 4.78125 18 4.78125H15.75C15.1295 4.78125 14.625 5.28607 14.625 5.90625V7.03125Z" fill="#21257C"/>
<path d="M16.3125 5.9067C16.3267 5.16759 17.4233 5.16805 17.4375 5.9067C17.4231 6.64586 16.3265 6.64532 16.3125 5.9067ZM6.1875 27.2817C4.94436 27.2817 3.9375 28.5403 3.9375 30.0942C3.9375 28.5403 2.93064 27.2817 1.6875 27.2817C2.93064 27.2817 3.9375 26.0231 3.9375 24.4692C3.9375 26.0231 4.94436 27.2817 6.1875 27.2817Z" fill="#4AA5FF"/>
<path d="M29.8125 30.6562H3.9375C2.38678 30.6562 1.125 29.3945 1.125 27.8438V9.84375C1.125 8.29303 2.38678 7.03125 3.9375 7.03125H29.8125C31.3632 7.03125 32.625 8.29303 32.625 9.84375V27.8438C32.625 29.3945 31.3632 30.6562 29.8125 30.6562ZM3.9375 8.15625C3.00696 8.15625 2.25 8.91321 2.25 9.84375V27.8438C2.25 28.7743 3.00696 29.5312 3.9375 29.5312H29.8125C30.743 29.5312 31.5 28.7743 31.5 27.8438V9.84375C31.5 8.91321 30.743 8.15625 29.8125 8.15625H3.9375Z" fill="#21257C"/>
<path d="M27 5.90625C25.7569 5.90625 24.75 7.16483 24.75 8.71875C24.75 7.16483 23.7431 5.90625 22.5 5.90625C23.7431 5.90625 24.75 4.64763 24.75 3.09375C24.75 4.64763 25.7569 5.90625 27 5.90625Z" fill="#4AA5FF"/>
</svg>
