<svg width="36" height="36" viewBox="0 0 36 36" fill="none" xmlns="http://www.w3.org/2000/svg">
<path d="M31.171 30.9565H4.8042V18.6822H10.2595L17.9876 10.9541L25.7159 18.6822H31.171V30.9565Z" fill="#FCD2B1"/>
<path d="M15.26 25.501H20.7152V30.9561H15.26V25.501Z" fill="#2A94F4"/>
<path d="M22.256 7.31738L22.9969 6.20579C23.0425 6.13733 23.0687 6.05779 23.0727 5.97563C23.0767 5.89348 23.0583 5.81178 23.0195 5.73923C22.9807 5.66665 22.923 5.60597 22.8524 5.56366C22.7818 5.52135 22.701 5.49901 22.6187 5.49902H18.0728C18.013 5.49899 17.9539 5.51072 17.8987 5.53355C17.8436 5.55639 17.7935 5.58987 17.7512 5.63209C17.709 5.67431 17.6755 5.72444 17.6527 5.77961C17.6299 5.83478 17.6181 5.89391 17.6182 5.95361V8.68124C17.6181 8.74095 17.6299 8.80008 17.6527 8.85525C17.6755 8.91042 17.709 8.96055 17.7512 9.00277C17.7935 9.04499 17.8436 9.07847 17.8987 9.1013C17.9539 9.12413 18.013 9.13587 18.0728 9.13583H22.6187C22.701 9.13587 22.7818 9.11356 22.8524 9.07129C22.923 9.02901 22.9808 8.96836 23.0197 8.8958C23.0585 8.82324 23.0769 8.7415 23.0729 8.6593C23.0689 8.5771 23.0427 8.49752 22.997 8.42906L22.256 7.31738Z" fill="#FFBE55"/>
<path d="M18 11.4088C17.9403 11.4088 17.8811 11.3971 17.8259 11.3743C17.7708 11.3515 17.7206 11.318 17.6784 11.2757C17.6362 11.2335 17.6027 11.1834 17.5798 11.1282C17.557 11.073 17.5453 11.0139 17.5453 10.9542V5.04443C17.5453 4.79315 17.7487 4.58984 18 4.58984C18.2512 4.58984 18.4546 4.79315 18.4546 5.04443V10.9542C18.4547 11.0139 18.4429 11.073 18.4201 11.1282C18.3972 11.1834 18.3637 11.2335 18.3215 11.2757C18.2793 11.3179 18.2292 11.3514 18.174 11.3743C18.1188 11.3971 18.0597 11.4088 18 11.4088Z" fill="#0E538C"/>
<path d="M24.8065 21.6364C24.8065 21.0087 24.2978 20.5 23.6701 20.5C23.0423 20.5 22.5336 21.0088 22.5336 21.6364C22.5336 21.7143 22.5416 21.7902 22.5564 21.8637H22.5336V23.6821H24.8065V21.8637H24.7836C24.7986 21.7902 24.8065 21.7142 24.8065 21.6364ZM11.1811 25.9551H13.4541V28.6827H11.1811V25.9551ZM7.07724 25.9551H9.35028V28.6827H7.07724V25.9551ZM26.6374 25.9551H28.9104V28.6827H26.6374V25.9551ZM22.5337 25.9551H24.8066V28.6827H22.5337V25.9551ZM28.8855 21.6364C28.8855 21.0087 28.3767 20.5 27.749 20.5C27.1213 20.5 26.6125 21.0088 26.6125 21.6364C26.6125 21.7143 26.6205 21.7902 26.6354 21.8637H26.6125V23.6821H28.8855V21.8637H28.8626C28.8775 21.7902 28.8855 21.7142 28.8855 21.6364ZM9.33777 21.6364C9.33777 21.0087 8.829 20.5 8.20134 20.5C7.57359 20.5 7.06482 21.0088 7.06482 21.6364C7.06482 21.7143 7.07283 21.7902 7.08768 21.8637H7.06482V23.6821H9.33777V21.8637H9.31491C9.32976 21.7902 9.33777 21.7142 9.33777 21.6364ZM13.4167 21.6364C13.4167 21.0087 12.908 20.5 12.2802 20.5C11.6525 20.5 11.1437 21.0088 11.1437 21.6364C11.1437 21.7143 11.1517 21.7902 11.1667 21.8637H11.1437V23.6821H13.4167V21.8637H13.3939C13.4087 21.7902 13.4167 21.7142 13.4167 21.6364Z" fill="#F7F7F7"/>
<path d="M32.0926 31.4102H3.90747C3.84776 31.4103 3.78863 31.3985 3.73346 31.3757C3.6783 31.3529 3.62817 31.3194 3.58595 31.2772C3.54373 31.235 3.51024 31.1848 3.48741 31.1297C3.46458 31.0745 3.45285 31.0154 3.45288 30.9557C3.45285 30.8959 3.46458 30.8368 3.48741 30.7816C3.51024 30.7265 3.54372 30.6763 3.58594 30.6341C3.62816 30.5919 3.67829 30.5584 3.73346 30.5355C3.78863 30.5127 3.84776 30.501 3.90747 30.501H32.0926C32.1523 30.5009 32.2114 30.5127 32.2666 30.5355C32.3218 30.5584 32.3719 30.5918 32.4141 30.6341C32.4564 30.6763 32.4898 30.7264 32.5127 30.7816C32.5355 30.8368 32.5472 30.8959 32.5472 30.9557C32.5472 31.0154 32.5355 31.0745 32.5127 31.1297C32.4898 31.1849 32.4564 31.235 32.4141 31.2772C32.3719 31.3194 32.3218 31.3529 32.2666 31.3757C32.2114 31.3986 32.1523 31.4103 32.0926 31.4102Z" fill="#0E538C"/>
<path d="M15.4124 14.1837L11.0476 18.5486C11.0055 18.5908 10.9555 18.6242 10.9005 18.6471C10.8454 18.6699 10.7864 18.6817 10.7268 18.6817H3.90782C3.82624 18.6818 3.74613 18.66 3.67587 18.6185C3.60562 18.5771 3.54781 18.5175 3.50849 18.446C3.46955 18.3744 3.45044 18.2937 3.45313 18.2123C3.45582 18.1309 3.48021 18.0516 3.52379 17.9828L5.94146 14.1838H15.4124V14.1837ZM32.4792 18.4459C32.4399 18.5173 32.3822 18.5768 32.3121 18.6183C32.242 18.6597 32.162 18.6816 32.0805 18.6816H25.2616C25.2019 18.6817 25.1427 18.67 25.0876 18.6471C25.0324 18.6243 24.9823 18.5908 24.9401 18.5485L20.5752 14.1836H30.0461L32.4638 17.9826C32.5076 18.0514 32.5321 18.1307 32.5348 18.2121C32.5375 18.2936 32.5183 18.3744 32.4792 18.4459Z" fill="#2A94F4"/>
<path d="M25.722 19.1303C25.6623 19.1304 25.6032 19.1186 25.548 19.0958C25.4929 19.0729 25.4428 19.0394 25.4006 18.9972L18 11.5966L10.5995 18.9972C10.5573 19.0394 10.5071 19.0729 10.452 19.0957C10.3968 19.1186 10.3377 19.1303 10.278 19.1303C10.2183 19.1303 10.1592 19.1186 10.104 19.0957C10.0489 19.0729 9.99874 19.0394 9.95653 18.9972C9.91431 18.9549 9.88082 18.9048 9.85797 18.8497C9.83512 18.7945 9.82336 18.7354 9.82336 18.6757C9.82336 18.616 9.83512 18.5569 9.85797 18.5017C9.88082 18.4465 9.91431 18.3964 9.95653 18.3542L17.6785 10.6322C17.7207 10.59 17.7709 10.5565 17.826 10.5336C17.8812 10.5108 17.9403 10.499 18 10.499C18.0597 10.499 18.1188 10.5108 18.174 10.5336C18.2292 10.5565 18.2793 10.59 18.3215 10.6322L26.0434 18.3542C26.107 18.4178 26.1504 18.4988 26.1679 18.587C26.1855 18.6752 26.1765 18.7666 26.1421 18.8497C26.1077 18.9328 26.0494 19.0038 25.9746 19.0537C25.8999 19.1037 25.8119 19.1303 25.722 19.1303Z" fill="#0E538C"/>
<path d="M17.9876 20.4999C18.8883 20.4999 19.6184 19.7697 19.6184 18.8691C19.6184 17.9684 18.8883 17.2383 17.9876 17.2383C17.0869 17.2383 16.3568 17.9684 16.3568 18.8691C16.3568 19.7697 17.0869 20.4999 17.9876 20.4999Z" fill="#F7F7F7"/>
</svg>
