<svg width="34" height="34" viewBox="0 0 34 34" fill="none" xmlns="http://www.w3.org/2000/svg">
<path d="M15.6449 4.51476H15.693H17.4224H17.4379V1.39367H15.6449V4.51476Z" fill="#B9BCC8"/>
<path d="M16.1335 5.44474L15.4486 17.9195C15.4483 17.9261 15.4478 17.9328 15.4472 17.939L15.2545 19.9213H17.862L17.6685 17.9261C17.6679 17.9194 17.6674 17.9132 17.667 17.9067L16.9828 5.44474H16.1335Z" fill="#B9BCC8"/>
<path d="M20.5033 23.3285C20.186 22.9609 19.9749 22.5138 19.8927 22.0352C19.8105 21.5566 19.8603 21.0646 20.0368 20.6122C20.2133 20.1598 20.5098 19.7641 20.8944 19.4676C21.279 19.1711 21.7371 18.9851 22.2195 18.9295V16.2238C22.2199 15.8112 22.139 15.4026 21.9814 15.0214C21.8237 14.6402 21.5925 14.2937 21.3008 14.0019C21.0092 13.7101 20.6629 13.4787 20.2817 13.3209C19.9005 13.163 19.492 13.0819 19.0795 13.082H18.3328L18.5948 17.85L18.8367 20.3416C18.843 20.4061 18.8358 20.4713 18.8154 20.5328C18.795 20.5944 18.762 20.651 18.7184 20.699C18.6748 20.7471 18.6217 20.7855 18.5624 20.8117C18.5031 20.838 18.4389 20.8516 18.3741 20.8516H14.7422C14.6775 20.8518 14.6134 20.8384 14.5541 20.8124C14.4949 20.7863 14.4417 20.7481 14.3981 20.7002C14.3545 20.6524 14.3215 20.5959 14.301 20.5345C14.2806 20.473 14.2733 20.408 14.2795 20.3436L14.5209 17.8633L14.7836 13.082H14.0199C13.1851 13.0811 12.3839 13.4113 11.7923 14.0003C11.2007 14.5893 10.8669 15.389 10.8641 16.2238V18.9295C11.5426 19.006 12.1662 19.3392 12.6067 19.861C13.0473 20.3827 13.2714 21.0533 13.2331 21.7351C13.1948 22.4168 12.897 23.0581 12.4008 23.5272C11.9045 23.9963 11.2476 24.2576 10.5647 24.2576C10.4428 24.2571 10.321 24.249 10.2 24.2334V26.1944C10.2023 27.3264 10.6354 28.4151 11.4115 29.2393C12.1875 30.0634 13.2483 30.5611 14.3781 30.6313L14.2693 28.4878C14.2655 28.4258 14.2749 28.3637 14.2969 28.3057C14.3189 28.2476 14.353 28.1949 14.3968 28.151C14.4407 28.1071 14.4935 28.073 14.5515 28.051C14.6095 28.0291 14.6716 28.0196 14.7336 28.0234H18.366C18.4279 28.0204 18.4897 28.0303 18.5476 28.0523C18.6055 28.0744 18.6582 28.1083 18.7023 28.1517C18.7454 28.1943 18.7789 28.2455 18.8006 28.302C18.8224 28.3585 18.8319 28.419 18.8285 28.4795L18.7138 30.627C19.8425 30.557 20.902 30.0593 21.6767 29.2355C22.4514 28.4116 22.883 27.3235 22.8836 26.1926V24.2336C22.7647 24.2493 22.6449 24.2574 22.525 24.2579C22.1409 24.2579 21.7614 24.1749 21.4125 24.0145C21.0635 23.8541 20.7534 23.6201 20.5033 23.3285ZM18.3659 23.9727H14.7334C14.6102 23.9727 14.4919 23.9237 14.4047 23.8365C14.3176 23.7493 14.2686 23.6311 14.2686 23.5078C14.2686 23.3845 14.3176 23.2663 14.4047 23.1791C14.4919 23.0919 14.6102 23.043 14.7334 23.043H18.3659C18.4891 23.043 18.6074 23.0919 18.6945 23.1791C18.7817 23.2663 18.8307 23.3845 18.8307 23.5078C18.8307 23.6311 18.7817 23.7493 18.6945 23.8365C18.6074 23.9237 18.4891 23.9727 18.3659 23.9727Z" fill="#B9BCC8"/>
<path d="M15.4172 32.6323L17.6822 32.6148L17.8757 28.9524H15.2232L15.4172 32.6323Z" fill="#B9BCC8"/>
</svg>
