<svg width="10" height="10" viewBox="0 0 10 10" fill="none" xmlns="http://www.w3.org/2000/svg">
<path d="M4.99999 0.833008C2.70833 0.833008 0.833328 2.70801 0.833328 4.99967C0.833328 7.29134 2.70833 9.16634 4.99999 9.16634C7.29166 9.16634 9.16666 7.29134 9.16666 4.99967C9.16666 2.70801 7.29166 0.833008 4.99999 0.833008ZM6.47916 6.58301L4.77916 5.53717C4.65416 5.46217 4.57916 5.32884 4.57916 5.18301V3.22884C4.58333 3.05801 4.72499 2.91634 4.89583 2.91634C5.06666 2.91634 5.20833 3.05801 5.20833 3.22884V5.08301L6.80833 6.04551C6.95833 6.13717 7.00833 6.33301 6.91666 6.48301C6.825 6.62884 6.62916 6.67467 6.47916 6.58301Z" fill="white"/>
</svg>
