<svg width="40" height="40" viewBox="0 0 40 40" fill="none" xmlns="http://www.w3.org/2000/svg">
<path d="M35.7296 33.1357L11.8584 19.2637L8.05762 19.3829L31.9288 33.2557L35.7296 33.1357Z" fill="#9BA2A6"/>
<path d="M31.9288 33.2556L8.05764 19.3828L4.26404 23.6476L28.1352 37.5204L31.9288 33.2556Z" fill="#B0B8BC"/>
<path d="M31.8856 17.8613L8.0144 3.98926L11.8584 19.2637L35.7296 33.1357L31.8856 17.8613Z" fill="#B0B8BC"/>
<path d="M31.8776 15.1524L8.1848 1.37402L3.4176 25.3284L27.2888 39.2004L31.8776 15.1524Z" fill="#DDE4E7"/>
<path d="M31.8775 15.1517L30.9047 20.2549L7.17114 6.46373L8.14394 1.36133L31.8775 15.1517Z" fill="#515AA7"/>
<path d="M36.5822 33.8346L31.9309 33.984L27.2888 39.2002L31.8775 15.1523L36.5822 33.8346ZM35.7293 33.1362L31.8852 17.862L28.135 37.5208L31.9289 33.2561L35.7293 33.1362Z" fill="#CFD8DD"/>
<path d="M12.1418 3.67724L11.8663 3.51705C12.1819 3.07123 12.3822 2.52537 12.3822 2.04947C12.3822 1.73888 12.2971 1.49848 12.1468 1.35321C12.1067 1.30821 12.0617 1.27324 12.0116 1.24316L12.2921 1.40335C12.9529 1.80356 12.6076 3.02666 12.1418 3.67724Z" fill="#475E68"/>
<path d="M12.4892 1.06376C12.2099 0.902602 11.8205 0.926042 11.3956 1.16999C10.5499 1.66171 9.86144 2.85378 9.86144 3.82532L9.58608 3.66416C9.58214 2.69242 10.2706 1.50055 11.1163 1.00882C11.5451 0.764874 11.9306 0.74125 12.2099 0.902594L12.4892 1.06376Z" fill="#475E68"/>
<path d="M12.3371 3.78729L12.1418 3.67699C12.8066 2.74844 12.8309 1.48239 12.1468 1.35297C11.9365 1.28791 11.676 1.33316 11.3955 1.49335C10.9848 1.73375 10.6192 2.16955 10.3888 2.65523C10.2335 2.98587 10.1434 3.33657 10.1434 3.66207L9.86292 3.82715C9.86292 3.41655 9.98312 2.96583 10.1935 2.54519C10.469 1.96901 10.9047 1.45324 11.3955 1.17274C12.853 0.327562 13.5053 2.11385 12.3371 3.78729Z" fill="#35484F"/>
<path d="M13.4824 4.46825L13.2069 4.30807C13.5224 3.86224 13.7228 3.31639 13.7228 2.84048C13.7228 2.51547 13.6297 2.20081 13.3521 2.03418C13.4884 2.1126 13.6441 2.16058 13.7979 2.33963C13.8029 2.34452 13.8079 2.34965 13.8079 2.35479C13.8521 2.40976 13.8917 2.45503 13.9482 2.62527C14.1136 3.23066 13.8474 3.95841 13.4824 4.46825Z" fill="#475E68"/>
<path d="M13.8298 1.85477C12.8127 1.26793 11.202 3.11515 11.202 4.61633L10.9267 4.45517C10.9227 3.48342 11.6111 2.29156 12.4569 1.79982C13.2744 1.33472 13.6797 1.80724 13.8298 1.85477Z" fill="#475E68"/>
<path d="M13.6777 4.5783L13.4824 4.46801C13.8475 3.9581 14.1136 3.23035 13.9482 2.62503C13.7584 2.05298 13.2436 1.9945 12.7361 2.28437C12.3254 2.52477 11.9598 2.96057 11.7294 3.44626C11.5741 3.7769 11.484 4.12759 11.484 4.4531L11.2035 4.61817C11.2035 4.20756 11.3237 3.75684 11.5341 3.3362C11.8095 2.76002 12.2453 2.24426 12.7361 1.96375C14.1936 1.11858 14.8459 2.90487 13.6777 4.5783Z" fill="#35484F"/>
<path d="M15.339 3.79095C15.344 4.27175 15.1386 4.8176 14.8231 5.25829L14.5476 5.09811C14.8631 4.65228 15.0635 4.10643 15.0635 3.63052C15.0635 3.30551 14.9704 2.99086 14.6928 2.82422C14.8291 2.90264 14.9848 2.95062 15.1386 3.12967C15.1436 3.13455 15.1486 3.13969 15.1486 3.14483C15.2513 3.27269 15.3133 3.4525 15.3239 3.59041C15.334 3.65547 15.339 3.72077 15.339 3.79095Z" fill="#475E68"/>
<path d="M15.1705 2.6452C14.1534 2.05836 12.5427 3.90558 12.5427 5.40676L12.2674 5.2456C12.2634 4.27385 12.9518 3.08199 13.7976 2.59026C14.6168 2.12422 15.0207 2.59776 15.1705 2.6452Z" fill="#475E68"/>
<path d="M15.6194 3.63039C15.6194 4.1963 15.389 4.83752 15.0184 5.36846L14.8231 5.25816C15.1386 4.81747 15.344 4.27162 15.3389 3.79082C15.3389 3.72064 15.3339 3.65534 15.3239 3.59029C15.2411 2.51539 13.7994 2.69899 13.0701 4.23641C12.9148 4.56705 12.8247 4.91774 12.8247 5.24325L12.5442 5.40832C12.5442 4.99771 12.6644 4.54699 12.8748 4.12635C13.1502 3.55018 13.586 3.03441 14.0768 2.7539C14.9232 2.26307 15.6144 2.65877 15.6194 3.63039Z" fill="#35484F"/>
<path d="M19.4848 7.95458L19.2094 7.7944C19.6629 7.15355 20.0301 5.92604 19.3546 5.52051C19.4682 5.60425 19.7848 5.69577 19.9005 5.98639C20.1642 6.51139 19.8919 7.38607 19.4848 7.95458Z" fill="#475E68"/>
<path d="M19.8323 5.34109C19.553 5.17993 19.1635 5.20337 18.7387 5.44732C17.8929 5.93905 17.2045 7.13111 17.2045 8.10265L16.9291 7.94149C16.9252 6.96975 17.6136 5.77789 18.4594 5.28615C19.2769 4.82105 19.6821 5.29357 19.8323 5.34109Z" fill="#475E68"/>
<path d="M19.6801 8.06464L19.4848 7.95435C20.4787 6.56623 19.9418 5.08351 18.7385 5.7707C18.3278 6.0111 17.9622 6.4469 17.7318 6.93259C17.5766 7.26323 17.4864 7.61392 17.4864 7.93943L17.2059 8.1045C17.2059 7.69389 17.3261 7.24317 17.5365 6.82253C17.812 6.24635 18.2477 5.73059 18.7385 5.45007C20.1961 4.60491 20.8483 6.3912 19.6801 8.06464Z" fill="#35484F"/>
<path d="M20.8255 8.74462L20.55 8.58444C21.0134 7.92981 21.3654 6.71283 20.6953 6.31055C20.9323 6.44694 20.9675 6.42112 21.1511 6.63116C21.5666 7.14879 21.2307 8.17872 20.8255 8.74462Z" fill="#475E68"/>
<path d="M21.173 6.13117C20.1559 5.54434 18.5452 7.39155 18.5452 8.89273L18.2698 8.73157C18.2636 7.19779 19.9089 5.40114 20.8937 5.97001L21.173 6.13117Z" fill="#475E68"/>
<path d="M21.0208 8.85468L20.8255 8.74438C22.3877 6.5626 20.2511 5.2382 19.0725 7.72262C18.9173 8.05326 18.8271 8.40396 18.8271 8.72946L18.5466 8.89453C18.5466 8.48392 18.6668 8.0332 18.8772 7.61256C19.1527 7.03639 19.5884 6.52062 20.0792 6.24012C21.5368 5.39495 22.189 7.18124 21.0208 8.85468Z" fill="#35484F"/>
<path d="M22.1661 9.53563L21.8906 9.37545C22.2062 8.92963 22.4065 8.38377 22.4065 7.90787C22.4065 7.58285 22.3134 7.26819 22.0359 7.10156C22.2344 7.23075 22.3331 7.2342 22.4816 7.40701C22.4866 7.4119 22.4917 7.41704 22.4917 7.42217C22.918 7.9533 22.5732 8.96712 22.1661 9.53563Z" fill="#475E68"/>
<path d="M22.5135 6.92218C21.4965 6.33535 19.8857 8.18257 19.8857 9.68374L19.6104 9.52258C19.6042 7.9888 21.2495 6.19215 22.2342 6.76102L22.5135 6.92218Z" fill="#475E68"/>
<path d="M22.3614 9.64569L22.1661 9.53539C22.5688 8.97289 22.9157 7.95024 22.4916 7.42194C22.4916 7.4168 22.4866 7.41166 22.4816 7.40678C21.9022 6.7324 20.8392 7.61534 20.4131 8.51364C20.2578 8.84428 20.1677 9.19498 20.1677 9.52048L19.8872 9.68555C19.8872 9.27494 20.0074 8.82422 20.2178 8.40358C20.4932 7.82741 20.929 7.31164 21.4198 7.03114C22.8773 6.18596 23.5296 7.97225 22.3614 9.64569Z" fill="#35484F"/>
<path d="M27.3439 10.7636C27.3489 11.2444 27.1435 11.7903 26.828 12.2309L26.5525 12.0708C26.868 11.6249 27.0684 11.0791 27.0684 10.6032C27.0684 10.2926 26.9832 10.0522 26.833 9.90692C26.7929 9.86192 26.7478 9.82695 26.6977 9.79688L26.9782 9.95706C27.0033 9.97222 27.0283 9.98714 27.0483 10.0072C27.0834 10.0373 27.1135 10.0674 27.1435 10.1023C27.1485 10.1072 27.1535 10.1124 27.1535 10.1175C27.1735 10.1424 27.1936 10.1625 27.2086 10.1926C27.2236 10.2126 27.2336 10.2376 27.2437 10.2628C27.2637 10.3026 27.2787 10.3427 27.2937 10.388C27.3265 10.5077 27.3439 10.6401 27.3439 10.7636Z" fill="#475E68"/>
<path d="M27.1754 9.61747C26.8961 9.45631 26.5067 9.47975 26.0818 9.72369C25.236 10.2154 24.5476 11.4075 24.5476 12.379L24.2722 12.2179C24.2683 11.2461 24.9567 10.0543 25.8025 9.56253C26.2313 9.31859 26.6168 9.29496 26.8961 9.45631L27.1754 9.61747Z" fill="#475E68"/>
<path d="M27.0233 12.341L26.8279 12.2307C27.1435 11.79 27.3488 11.2442 27.3438 10.7634C27.3438 10.6399 27.3265 10.5075 27.2937 10.3877C27.2787 10.3425 27.2637 10.3024 27.2437 10.2625C27.2336 10.2373 27.2236 10.2124 27.2086 10.1923C27.1936 10.1622 27.1735 10.1422 27.1535 10.1172C27.1535 10.1121 27.1485 10.107 27.1435 10.1021C27.1134 10.0671 27.0834 10.037 27.0483 10.007C26.9832 9.95682 26.9131 9.92185 26.833 9.90668C26.6226 9.84162 26.3622 9.88687 26.0817 10.0471C25.671 10.2875 25.3054 10.7233 25.075 11.2089C24.9197 11.5396 24.8296 11.8903 24.8296 12.2158L24.5491 12.3809C24.5491 11.9702 24.6693 11.5195 24.8797 11.0989C25.1551 10.5227 25.5909 10.0069 26.0817 9.72644C27.5392 8.88128 28.1914 10.6676 27.0233 12.341Z" fill="#35484F"/>
<path d="M28.1685 13.021L27.8931 12.8608C28.3466 12.22 28.7138 10.9925 28.0383 10.5869C28.2753 10.7233 28.3105 10.6975 28.4941 10.9075C28.9096 11.4252 28.5737 12.4551 28.1685 13.021Z" fill="#475E68"/>
<path d="M28.516 10.4079C27.4989 9.82106 25.8882 11.6683 25.8882 13.1695L25.6128 13.0083C25.6089 12.0365 26.2973 10.8447 27.1431 10.353C27.9622 9.88691 28.3661 10.3605 28.516 10.4079Z" fill="#475E68"/>
<path d="M28.3639 13.131L28.1685 13.0208C29.0878 11.7369 28.6981 10.1084 27.4223 10.8371C27.0116 11.0775 26.646 11.5133 26.4155 11.999C26.2603 12.3296 26.1701 12.6803 26.1701 13.0058L25.8896 13.1709C25.8896 12.7603 26.0098 12.3096 26.2202 11.8889C26.4957 11.3128 26.9314 10.797 27.4223 10.5165C28.8798 9.67131 29.532 11.4576 28.3639 13.131Z" fill="#35484F"/>
<path d="M30.0251 12.3447C30.0301 12.8255 29.8248 13.3713 29.5092 13.812L29.2338 13.6518C29.5493 13.206 29.7497 12.6601 29.7497 12.1842C29.7497 11.8592 29.6566 11.5446 29.379 11.3779C29.6646 11.5423 29.9741 11.6773 30.0101 12.1441C30.0201 12.2092 30.0251 12.2745 30.0251 12.3447Z" fill="#475E68"/>
<path d="M29.8567 11.1986C28.8396 10.6117 27.2289 12.4589 27.2289 13.9601L26.9535 13.799C26.9473 12.2652 28.5926 10.4685 29.5774 11.0374L29.8567 11.1986Z" fill="#475E68"/>
<path d="M30.3056 12.1841C30.3056 12.75 30.0752 13.3912 29.7046 13.9222L29.5092 13.8119C29.8248 13.3712 30.0301 12.8253 30.0251 12.3445C30.0251 12.2743 30.0201 12.209 30.0101 12.144C29.9276 11.0742 28.4878 11.248 27.7562 12.7901C27.601 13.1208 27.5108 13.4715 27.5108 13.797L27.2303 13.962C27.2303 13.5514 27.3505 13.1007 27.5609 12.6801C27.8364 12.1039 28.2721 11.5881 28.7629 11.3076C29.6094 10.8168 30.3006 11.2125 30.3056 12.1841Z" fill="#35484F"/>
<path d="M16.6464 28.7588L18.5696 29.8668L18.1376 32.2708L16.2064 31.1628L16.6464 28.7588Z" fill="#EE534F"/>
<path d="M17.3312 24.9697L19.2536 26.0777L18.8224 28.4817L16.8992 27.3737L17.3312 24.9697Z" fill="#EE534F"/>
<path d="M9.76959 20.6016L11.6928 21.7104L11.2528 24.1144L9.32959 23.0056L9.76959 20.6016Z" fill="#7DB343"/>
<path d="M18.7081 17.3926L20.6313 18.5086L20.1993 20.9126L18.2681 19.8046L18.7081 17.3926Z" fill="#EE534F"/>
<path d="M21.804 23.3643L23.7272 24.4811L23.2872 26.8851L21.364 25.7683L21.804 23.3643Z" fill="#CFD8DD"/>
<path d="M14.2432 18.9971L16.1656 20.1051L15.7256 22.5171L13.8024 21.4091L14.2432 18.9971Z" fill="#CFD8DD"/>
<path d="M21.1121 27.1533L23.0433 28.2621L22.6033 30.6653L20.6801 29.5573L21.1121 27.1533Z" fill="#CFD8DD"/>
<path d="M22.4888 19.5752L24.412 20.692L23.98 23.0952L22.0488 21.9872L22.4888 19.5752Z" fill="#CFD8DD"/>
<path d="M24.9008 29.3369L26.824 30.4449L26.384 32.8489L24.4608 31.7409L24.9008 29.3369Z" fill="#CFD8DD"/>
<path d="M5.98883 18.4189L7.91203 19.5269L7.47203 21.9309L5.54883 20.8229L5.98883 18.4189Z" fill="#CFD8DD"/>
<path d="M18.0153 21.1807L19.9465 22.2967L19.5065 24.7007L17.5833 23.5839L18.0153 21.1807Z" fill="#EE534F"/>
<path d="M13.5504 22.7861L15.4736 23.8941L15.0416 26.2981L13.1184 25.1901L13.5504 22.7861Z" fill="#CFD8DD"/>
<path d="M25.5848 25.5479L27.508 26.6647L27.076 29.0679L25.1448 27.9519L25.5848 25.5479Z" fill="#CFD8DD"/>
<path d="M9.08478 24.3916L11.008 25.4996L10.568 27.9036L8.64478 26.7948L9.08478 24.3916Z" fill="#7DB343"/>
<path d="M28.2008 22.8758L27.7608 25.2798L25.8376 24.1718L26.2696 21.7598L28.2008 22.8758Z" fill="#CFD8DD"/>
<path d="M5.29601 22.207L7.21921 23.315L6.78721 25.719L4.86401 24.611L5.29601 22.207Z" fill="#CFD8DD"/>
<path d="M12.8657 26.5742L14.7889 27.683L14.3489 30.0862L12.4257 28.9782L12.8657 26.5742Z" fill="#CFD8DD"/>
<path d="M10.4537 16.8135L12.3769 17.9223L11.9449 20.3343L10.0225 19.2175L10.4537 16.8135Z" fill="#7DB343"/>
<path d="M6.67279 14.6299L8.59599 15.7379L8.15599 18.1499L6.23279 17.0331L6.67279 14.6299Z" fill="#CFD8DD"/>
</svg>
